<svg version="1.1" xmlns="http://www.w3.org/2000/svg" xmlns:xlink="http://www.w3.org/1999/xlink" width="493.50455" height="422.56463" viewBox="0,0,493.50455,422.56463"><g transform="translate(-73.24779,44.18463)"><g stroke="none" stroke-miterlimit="10"><path d="M427.84199,91.09203c0.94022,9.56988 31.59624,97.23979 -20.68254,161.74386c-0.12838,0.15837 -8.6,7.45135 -8.6,7.45135c0,0 2.75835,11.02063 -3.93194,24.99289c-3.78469,7.90413 -17.54038,14.60606 -17.54038,14.60606c0,0 -0.01016,4.92604 -0.13889,10.67604c-0.1818,8.12136 -1.32315,18.3685 -9.27848,22.88275c-9.83169,5.57897 -28.04942,6.84394 -43.99139,4.24091c-8.78456,-1.43435 -17.05305,-3.88416 -24.33162,-6.08382c-3.93321,-1.18866 -8.93618,-33.23913 -20.53217,-53.29573c-11.73058,-20.2894 -30.03266,-28.58066 -30.03266,-28.58066c0,0 -23.06632,2.15632 -41.32388,-5.07083c-10.91089,-4.31902 -18.23318,-20.73176 -19.26984,-27.84525c-2.07212,-14.21874 -5.17291,-35.42304 -3.69867,-61.59987c1.45854,-25.89759 1.45063,-57.23769 6.67343,-74.68822c4.64125,-16.72603 18.40686,-19.77335 31.03068,-22.09303c19.72606,-2.90735 32.41278,1.59556 32.41278,1.59556c0,0 -0.57529,-8.46628 25.16539,-20.96288c12.97358,-6.29843 39.51198,-8.17755 54.80671,-8.37922c61.13105,3.15753 90.40045,31.269 93.26349,60.4101z" fill="#101021" stroke-width="0"/><g stroke-width="0"><path d="M296.79447,54.1203c17.84617,-3.4118 20.85447,-4.03705 36.4738,-4.42144c28.42456,-0.69958 64.99622,6.4505 74.8199,41.97652c1.13575,4.10727 14.24295,48.22701 10.13417,92.74954c-1.17047,12.68308 -5.01142,20.32443 -8.14146,29.32462c-5.8211,16.73805 -18.17581,32.19604 -33.92872,37.36442c-0.60262,0.19772 -3.50635,1.5247 -5.59897,1.12098c-1.32853,-0.2563 -2.07169,-1.78195 -3.67935,-1.74413c-3.43566,0.08083 -6.69877,0.78423 -9.62069,5.1936c-3.64762,5.50447 0.00331,14.98854 0.18402,24.10182c0.08789,4.43131 0.70877,8.91308 0.80353,13.14988c0.2888,12.913 0.0411,23.55074 0.0411,23.55074c0,0 -2.348,3.81861 -9.23542,3.95334c-5.25407,0.10277 -11.83878,1.17505 -17.85441,0.50174c-8.33493,-0.93292 -16.36476,-4.03107 -17.46184,-4.46523c-1.76038,-0.69667 -7.58736,-21.56182 -13.40732,-33.96587c-9.1322,-19.46339 -19.01456,-33.44363 -19.01456,-33.44363c0,0 -0.84664,-3.0293 -2.32407,-5.44478c-0.97759,-1.5983 -2.37892,-2.78032 -3.46443,-3.16752c-4.52957,-1.61564 -10.74281,-0.72183 -10.74281,-0.72183c0,0 -3.45923,-3.28288 -4.59552,-4.40195c-2.54851,-2.50987 -4.84268,-5.48156 -6.71542,-9.00461c-7.33162,-13.79259 -8.37839,-36.21564 -8.30026,-56.68658c0.06703,-17.56925 0.47878,-33.0784 3.97016,-47.54774c15.28771,-63.3572 40.63613,-66.62931 47.65862,-67.97185z" fill="#425263"/><path d="M296.79447,54.1203c17.84617,-3.4118 20.85447,-4.03705 36.4738,-4.42144c28.42456,-0.69958 64.99622,6.4505 74.8199,41.97652c0.98137,3.54892 10.90057,36.9711 10.9287,74.71413c0.00139,1.86223 -3.69845,62.4127 -103.97621,44.81296c-8.97574,-1.57532 -17.58056,-5.69 -23.12187,-11.61146c-23.78619,-33.26131 -21.85936,-81.5682 -14.65002,-112.90929c4.06327,-17.66422 10.83604,-30.19698 13.09586,-30.97593c2.75618,-0.95002 4.98232,-1.30874 6.42983,-1.58547z" fill="#738494"/></g><g><path d="M303.24136,91.25004c14.54992,-11.95601 32.05203,-15.12084 38.06646,-15.53438c20.78975,-1.42953 53.76454,-1.17812 74.06118,2.44517c5.15539,0.92033 21.81717,6.56962 27.4002,16.13022c4.27299,7.31724 20.36983,31.52717 -3.35282,53.6373c-25.04278,23.3405 -93.61829,18.26795 -113.21742,14.57802c-8.74507,-1.99301 -24.30453,-10.11352 -29.5865,-24.19574c-6.38245,-17.01628 -1.04835,-40.75206 6.62885,-47.0606z" fill="#10293a" stroke-width="0"/><g><path d="M311.83583,124.49074c0,-6.96402 -3.96484,-22.82998 14.41093,-30.11127c15.63578,-6.19557 52.99552,-4.49223 63.29876,-3.83276c11.57686,0.74096 24.38947,2.33073 32.62994,6.14082c9.7942,4.52849 12.15061,26.01077 11.28756,29.65967c-7.25148,30.65885 -79.27306,24.92997 -93.28047,22.01263c-15.15598,-3.15654 -28.34673,-10.97953 -28.34673,-23.86914z" fill="#4a7b9c" stroke-width="0"/><path d="M334.01653,120.92255c-19.26408,-7.95895 -5.63256,-27.30312 -5.18968,-27.43809c16.82951,-5.12799 50.9457,-3.56328 60.71867,-2.93775c11.57686,0.74096 24.38947,2.33073 32.62994,6.14082c3.9322,1.81811 6.66551,6.36896 8.47292,11.40134c0.71562,1.99252 2.88817,16.92739 -9.31512,20.01817c-17.37759,4.40129 -49.54307,8.42169 -87.31674,-7.18449z" fill="#8cc5de" stroke-width="0"/><path d="M412.56943,94.70068c5.28166,1.55618 13.47008,4.54793 11.78807,9.97842c-3.55716,11.48462 -19.33279,5.0037 -30.30904,3.49133c-1.76919,-0.24376 -9.99384,-0.32671 -15.01325,-2.56934c-3.2252,-1.44099 -4.26812,-4.98315 -4.26812,-6.02905c0,-3.9361 3.96564,-7.12693 8.85753,-7.12693c0.14191,0 7.26194,-0.24829 14.45177,0.1574c5.70918,0.32213 11.32726,1.16537 14.49304,2.0981z" fill="#ffffff" stroke-width="0.5"/></g></g><path d="M374.51095,280.75998l-0.38562,-10.21929c0,0 2.47035,-0.72544 3.66352,-0.96408c1.03331,-0.20665 3.08509,-0.38562 3.08509,-0.38562c0,0 -0.72771,4.70611 -1.81605,6.68493c-1.02936,1.87156 -4.54691,4.88409 -4.54691,4.88409z" fill="#425263" stroke-width="0"/><g stroke-width="0"><path d="M227.17606,151.33362c0.1956,10.65093 -1.11083,26.70698 0.74739,39.39575c2.63028,17.96065 8.139,38.63199 8.139,38.63199c0,0 -2.36647,1.22102 -9.15797,1.38711c-6.15969,0.15063 -7.8533,-0.24865 -13.41875,-4.37843c-2.12387,-1.57595 -8.75048,-12.68062 -10.16983,-29.53444c-1.22416,-14.5361 -2.90366,-19.94509 -1.74859,-56.90823c0.41472,-13.2712 0.03685,-29.88574 1.21783,-40.43505c2.50288,-22.35755 15.46368,-22.59198 18.98083,-22.97316c10.81898,-1.00829 25.93909,-1.0728 25.93909,-1.0728c0,0 -14.12464,0.36805 -17.60312,5.94475c-1.95102,3.12784 5.18739,14.57845 5.18739,14.57845c0,0 -8.58386,29.73755 -8.11323,55.36414z" fill="#425263"/><path d="M202.61554,101.16032c0,0 0.10905,-1.1275 0.16957,-1.66803c2.50288,-22.35755 15.46368,-22.59198 18.98083,-22.97316c10.81898,-1.00829 25.93909,-1.0728 25.93909,-1.0728c0,0 -4.99213,4.47704 -6.85197,7.54985c-2.19263,3.62259 -5.47055,12.80907 -5.47055,12.80907c0,0 -16.13768,-0.03019 -20.54535,0.8079c-4.92323,0.93609 -12.22159,4.54719 -12.22159,4.54719z" fill="#738494"/></g><path d="M566.75212,170.14434c0.00014,0.09256 0.00022,0.18512 0.00022,0.2777c0,114.85201 -110.47474,207.95796 -246.75225,207.95796c-136.2775,0 -246.75225,-93.10595 -246.75225,-207.95796c0,-114.85201 110.47475,-207.95796 246.75225,-207.95796c125.2106,0 228.63907,78.59795 244.6119,180.44548" fill="none" stroke-width="0"/><path d="M566.72565,170.23466c-1.9588,115.24167 -111.67141,208.14534 -246.72561,208.14534c-136.2775,0 -246.75225,-94.59431 -246.75225,-211.28231v-0.00001c0,-116.688 110.47475,-211.28231 246.75225,-211.28231c126.91774,0 231.45535,82.04672 245.21631,187.57545" fill="none" stroke-width="0"/><path d="M557.49298,201.11982c-19.06565,98.43364 -119.48121,173.51403 -240.49285,173.51403c-134.62065,0 -243.75225,-92.91711 -243.75225,-207.53617v-0.00001c0,-114.61906 109.1316,-207.53617 243.75225,-207.53617c124.22791,0 226.75038,79.12445 241.83951,181.41113" fill="none" stroke-width="0"/></g></g></svg>