<svg version="1.1" xmlns="http://www.w3.org/2000/svg" xmlns:xlink="http://www.w3.org/1999/xlink" width="712.73589" height="34.38285" viewBox="0,0,712.73589,34.38285"><g transform="translate(30.69614,-162.50631)"><g data-paper-data="{&quot;isPaintingLayer&quot;:true}" fill-rule="nonzero" stroke-linecap="butt" stroke-linejoin="miter" stroke-miterlimit="10" stroke-dasharray="" stroke-dashoffset="0" style="mix-blend-mode: normal"><g><path d="M-25.44614,189.67313v-14.47432c0,0 19.86953,-0.47191 26.78691,0.01959c13.88282,0.9864 85.25118,1.03162 85.25118,1.03162c0,0 -16.18899,-1.6155 -26.17425,-2.41906c-9.9163,-0.79801 -33.53194,-2.38576 -33.53194,-2.38576c0,0 32.26118,1.24069 70.37815,1.47394c23.60201,0.14443 40.87912,-1.14989 64.31086,-1.00651c17.43221,0.10667 40.97511,2.44872 68.70578,2.46545c21.90999,0.01321 31.88703,0.50112 47.7427,0.5754c8.61737,0.04037 -13.03873,-1.00833 -25.83564,-1.4354c-12.7969,-0.42707 -23.22747,-0.1918 -38.53361,-0.7128c-14.51039,-0.49392 -24.73369,-2.03948 -24.73369,-2.03948c0,0 34.335,1.15583 74.524,1.5455c29.25558,0.28366 53.89217,2.07835 70.43665,2.22469c17.06129,0.15091 48.22671,-1.01811 80.06913,-0.92355c18.51717,0.05499 102.08904,1.16204 102.08904,1.16204c0,0 -35.62225,-1.77612 -49.74487,-3.0428c-10.51982,-0.94355 -20.27375,-2.19319 -20.27375,-2.19319c0,0 21.68491,1.6663 59.57823,2.34501c27.28705,0.48873 75.9915,3.43074 75.9915,3.43074c0,0 -12.13947,-2.0916 -14.44895,-3.49156c-1.14584,-0.69458 -0.55383,-1.63224 0.33367,-2.4008c0.90129,-0.78051 2.1073,-1.38662 2.1073,-1.38662c0,0 12.33976,2.72557 20.40088,3.89326c6.59246,0.95495 34.8139,3.08905 34.8139,3.08905c0,0 -9.45955,-1.51316 -13.44181,-3.0772c-4.46221,-1.75254 -8.55234,-3.56895 -5.83392,-3.39197c9.6995,0.63149 59.92482,7.46713 59.92482,7.46713l-25.13989,13.65764c0,0 -27.68093,0.2119 -38.66182,0.16547c-8.65605,-0.03659 -21.92394,-0.42161 -21.92394,-0.42161c0,0 -2.77369,0.35302 -4.44785,0.75277c-1.63631,0.39071 -2.16434,0.82605 -2.9768,1.02005c-0.81723,0.19513 -1.83533,0.43823 -1.83533,0.43823c0,0 -7.41927,-0.13291 -17.93921,-1.19372c-6.7327,-0.67891 -10.76984,-1.85634 -10.76984,-1.85634c0,0 -74.0821,2.37803 -99.34398,2.16315c-15.87509,-0.13504 27.35257,-3.58762 14.51944,-3.51737c-31.59433,0.17294 -127.01579,3.04721 -167.71547,4.14832c-11.79358,0.31907 -12.99739,-0.06806 -6.16598,-0.34526c15.03938,-0.61026 39.88327,-1.6579 44.81085,-2.11105c5.26978,-0.48462 4.65111,-0.93807 4.65111,-0.93807c0,0 -49.31462,0.44885 -70.42265,0.85021c-25.89581,0.49241 -85.20277,2.04908 -85.20277,2.04908c0,0 5.26986,-0.76899 7.23084,-1.0686c1.9265,-0.29434 4.43342,-0.71353 4.43342,-0.71353l-30.96219,1.07931c0,0 18.37441,-1.15756 25.08097,-1.64942c5.42748,-0.39804 12.13924,-1.08025 12.13924,-1.08025c0,0 -124.27028,3.85108 -144.61758,4.46369c-7.04167,0.21201 -12.4561,-0.22242 -7.49384,-0.47715c6.51246,-0.3343 16.30641,-0.82261 26.7781,-1.29331c11.31914,-0.5088 35.40761,-1.10832 41.87604,-1.45747c13.68341,-0.73861 17.60544,-1.91816 17.60544,-1.91816c0,0 -33.68423,0.57758 -49.87221,1.00457c-17.09041,0.4508 -50.10985,1.63267 -50.10985,1.63267l5.88565,-2.66814z" fill="#cb2411" stroke="#000000" stroke-width="10.5"/><path d="M-25.44614,189.67313v-14.47432c0,0 19.86953,-0.47191 26.78691,0.01959c13.88282,0.9864 85.25118,1.03162 85.25118,1.03162c0,0 -16.18899,-1.6155 -26.17425,-2.41906c-9.9163,-0.79801 -33.53194,-2.38576 -33.53194,-2.38576c0,0 32.26118,1.24069 70.37815,1.47394c23.60201,0.14443 40.87912,-1.14989 64.31086,-1.00651c17.43221,0.10667 40.97511,2.44872 68.70578,2.46545c21.90999,0.01321 31.88703,0.50112 47.7427,0.5754c8.61737,0.04037 -13.03873,-1.00833 -25.83564,-1.4354c-12.7969,-0.42707 -23.22747,-0.1918 -38.53361,-0.7128c-14.51039,-0.49392 -24.73369,-2.03948 -24.73369,-2.03948c0,0 34.335,1.15583 74.524,1.5455c29.25558,0.28366 53.89217,2.07835 70.43665,2.22469c17.06129,0.15091 48.22671,-1.01811 80.06913,-0.92355c18.51717,0.05499 102.08904,1.16204 102.08904,1.16204c0,0 -35.62225,-1.77612 -49.74487,-3.0428c-10.51982,-0.94355 -20.27375,-2.19319 -20.27375,-2.19319c0,0 21.68491,1.6663 59.57823,2.34501c27.28705,0.48873 75.9915,3.43074 75.9915,3.43074c0,0 -12.13947,-2.0916 -14.44895,-3.49156c-1.14584,-0.69458 -0.55383,-1.63224 0.33367,-2.4008c0.90129,-0.78051 2.1073,-1.38662 2.1073,-1.38662c0,0 12.33976,2.72557 20.40088,3.89326c6.59246,0.95495 34.8139,3.08905 34.8139,3.08905c0,0 -9.45955,-1.51316 -13.44181,-3.0772c-4.46221,-1.75254 -8.55234,-3.56895 -5.83392,-3.39197c9.6995,0.63149 59.92482,7.46713 59.92482,7.46713l-25.13989,13.65764c0,0 -27.68093,0.2119 -38.66182,0.16547c-8.65605,-0.03659 -21.92394,-0.42161 -21.92394,-0.42161c0,0 -2.77369,0.35302 -4.44785,0.75277c-1.63631,0.39071 -2.16434,0.82605 -2.9768,1.02005c-0.81723,0.19513 -1.83533,0.43823 -1.83533,0.43823c0,0 -7.41927,-0.13291 -17.93921,-1.19372c-6.7327,-0.67891 -10.76984,-1.85634 -10.76984,-1.85634c0,0 -74.0821,2.37803 -99.34398,2.16315c-15.87509,-0.13504 27.35257,-3.58762 14.51944,-3.51737c-31.59433,0.17294 -127.01579,3.04721 -167.71547,4.14832c-11.79358,0.31907 -12.99739,-0.06806 -6.16598,-0.34526c15.03938,-0.61026 39.88327,-1.6579 44.81085,-2.11105c5.26978,-0.48462 4.65111,-0.93807 4.65111,-0.93807c0,0 -49.31462,0.44885 -70.42265,0.85021c-25.89581,0.49241 -85.20277,2.04908 -85.20277,2.04908c0,0 5.26986,-0.76899 7.23084,-1.0686c1.9265,-0.29434 4.43342,-0.71353 4.43342,-0.71353l-30.96219,1.07931c0,0 18.37441,-1.15756 25.08097,-1.64942c5.42748,-0.39804 12.13924,-1.08025 12.13924,-1.08025c0,0 -124.27028,3.85108 -144.61758,4.46369c-7.04167,0.21201 -12.4561,-0.22242 -7.49384,-0.47715c6.51246,-0.3343 16.30641,-0.82261 26.7781,-1.29331c11.31914,-0.5088 35.40761,-1.10832 41.87604,-1.45747c13.68341,-0.73861 17.60544,-1.91816 17.60544,-1.91816c0,0 -33.68423,0.57758 -49.87221,1.00457c-17.09041,0.4508 -50.10985,1.63267 -50.10985,1.63267l5.88565,-2.66814z" fill="#cb2411" stroke="#95392c" stroke-width="4.5"/><path d="M-25.44615,189.67313v-14.47432c0,0 19.86953,-0.47191 26.78691,0.01959c13.88282,0.9864 85.25118,1.03162 85.25118,1.03162c0,0 -16.18899,-1.6155 -26.17425,-2.41906c-9.9163,-0.79801 -33.53194,-2.38576 -33.53194,-2.38576c0,0 32.26118,1.24069 70.37815,1.47394c23.60201,0.14443 40.87912,-1.14989 64.31086,-1.00651c17.43221,0.10667 40.97511,2.44872 68.70578,2.46545c21.90999,0.01321 31.88703,0.50112 47.7427,0.5754c8.61737,0.04037 -13.03873,-1.00833 -25.83564,-1.4354c-12.7969,-0.42707 -23.22747,-0.1918 -38.53361,-0.7128c-14.51039,-0.49392 -24.73369,-2.03948 -24.73369,-2.03948c0,0 34.335,1.15583 74.524,1.5455c29.25558,0.28366 53.89217,2.07835 70.43665,2.22469c17.06129,0.15091 48.22671,-1.01811 80.06913,-0.92355c18.51717,0.05499 102.08904,1.16204 102.08904,1.16204c0,0 -35.62225,-1.77612 -49.74487,-3.0428c-10.51982,-0.94355 -20.27375,-2.19319 -20.27375,-2.19319c0,0 21.68491,1.6663 59.57823,2.34501c27.28705,0.48873 75.9915,3.43074 75.9915,3.43074c0,0 -12.13947,-2.0916 -14.44895,-3.49156c-1.14584,-0.69458 -0.55383,-1.63224 0.33367,-2.4008c0.90129,-0.78051 2.1073,-1.38662 2.1073,-1.38662c0,0 12.33976,2.72557 20.40088,3.89326c6.59246,0.95495 34.8139,3.08905 34.8139,3.08905c0,0 -9.45955,-1.51316 -13.44181,-3.0772c-4.46221,-1.75254 -8.55234,-3.56895 -5.83392,-3.39197c9.6995,0.63149 59.92482,7.46713 59.92482,7.46713l-25.13989,13.65764c0,0 -27.68093,0.2119 -38.66182,0.16547c-8.65605,-0.03659 -21.92394,-0.42161 -21.92394,-0.42161c0,0 -2.77369,0.35302 -4.44785,0.75277c-1.63631,0.39071 -2.16434,0.82605 -2.9768,1.02005c-0.81724,0.19513 -1.83533,0.43823 -1.83533,0.43823c0,0 -7.41924,-0.13291 -17.93921,-1.19372c-6.73268,-0.67891 -10.76984,-1.85634 -10.76984,-1.85634c0,0 -74.0821,2.37803 -99.34398,2.16315c-15.87509,-0.13504 27.35257,-3.58762 14.51944,-3.51737c-31.59433,0.17294 -127.01579,3.04721 -167.71547,4.14832c-11.79358,0.31907 -12.99739,-0.06806 -6.16598,-0.34526c15.03938,-0.61026 39.88327,-1.6579 44.81085,-2.11105c5.26978,-0.48462 4.65111,-0.93807 4.65111,-0.93807c0,0 -49.31462,0.44885 -70.42265,0.85021c-25.89581,0.49241 -85.20277,2.04908 -85.20277,2.04908c0,0 5.26986,-0.76899 7.23084,-1.0686c1.9265,-0.29434 4.43342,-0.71353 4.43342,-0.71353l-30.96219,1.07931c0,0 18.37441,-1.15756 25.08097,-1.64942c5.42748,-0.39804 12.13924,-1.08025 12.13924,-1.08025c0,0 -124.27028,3.85108 -144.61758,4.46369c-7.04167,0.21201 -12.4561,-0.22242 -7.49384,-0.47715c6.51246,-0.3343 16.30641,-0.82261 26.7781,-1.29331c11.31914,-0.50879 35.40761,-1.10832 41.87604,-1.45747c13.68341,-0.73861 17.60544,-1.91816 17.60544,-1.91816c0,0 -33.68423,0.57758 -49.87221,1.00457c-17.09041,0.4508 -50.10985,1.63267 -50.10985,1.63267l5.88565,-2.66814z" fill="#cb2411" stroke="none" stroke-width="0"/><path d="M0.07229,186.17759l-0.5224,-6.83088c0,0 -2.41293,-0.66317 1.94808,-0.74074c10.06945,-0.1791 31.42508,-0.03477 51.1717,-0.16875c18.59024,-0.12613 35.68888,-0.53546 42.65148,-0.5508c8.76965,-0.01931 19.64369,0.06809 19.64369,0.06809c0,0 -1.06632,-0.37541 -2.30349,-0.57118c-1.35168,-0.21389 -5.49351,-0.66261 -5.49351,-0.66261c0,0 8.13248,-0.01104 11.77961,0.02068c3.08959,0.02687 11.43443,0.2646 11.43443,0.2646l-8.05971,-1.27685c0,0 69.69229,2.40659 98.90249,2.35331c1.58127,-0.00288 -11.54763,-0.33031 -22.20911,-0.8119c-4.26132,-0.19249 -11.49151,-0.51208 -14.21231,-0.72762c-3.36005,-0.26617 -1.56309,-0.40577 0.5831,-0.33632c1.07218,0.0347 37.11753,1.66071 72.227,2.42006c14.64107,0.31666 29.10094,0.18479 40.18211,0.16954c16.92238,-0.02328 27.12559,0.53297 38.64656,0.43792c1.72071,-0.0142 -7.98499,-0.327 -21.04466,-0.60157c-8.91761,-0.18749 -19.98716,-0.30814 -27.73321,-0.4968c-3.37246,-0.08213 -6.18806,-0.18467 -8.32521,-0.27633c-2.99105,-0.12829 -6.63229,-0.22382 -3.99853,-0.24573c4.03196,-0.03355 37.27716,-0.11498 55.83742,-0.26943c18.58037,-0.15462 95.19422,1.03586 121.15765,1.14317c23.07488,0.09537 55.83704,0.07689 55.83704,0.07689c0,0 -54.85975,-1.03662 -48.61693,-1.26686c0.79968,-0.02949 5.25096,-0.0609 3.49847,-0.23566c-2.82796,-0.282 -11.03121,-0.41031 -17.44908,-0.83072c-4.70887,-0.30846 -9.03484,-0.68418 -12.19808,-0.9844c-3.21027,-0.30469 -2.33593,-0.52963 1.3165,-0.52708c5.9695,0.00416 80.86256,3.62645 126.24264,3.15796c13.45127,-0.13887 -16.65422,-1.42564 -16.65422,-1.42564c0,0 36.97228,0.69059 53.98942,0.81162c14.99415,0.10664 42.81464,-0.12313 42.81464,-0.12313l-0.01136,7.42283c0,0 -47.10779,0.53974 -64.23678,0.89016c-24.69791,0.50525 -83.9877,2.01236 -83.9877,2.01236c0,0 11.32081,-1.13327 21.15533,-1.71227c9.83452,-0.57901 26.72221,-1.10652 26.72221,-1.10652c0,0 -38.49219,0.35191 -59.04113,0.58294c-22.44646,0.25237 -70.44849,0.87292 -70.44849,0.87292c0,0 3.19854,-0.50043 4.37899,-0.73201c1.06607,-0.20914 2.39565,-0.59702 2.39565,-0.59702c0,0 -52.79425,0.38051 -97.40212,1.00472c-43.7577,0.61231 -98.67548,1.3874 -108.62131,1.41473c-8.84089,0.02429 0.92506,-1.33093 0.92506,-1.33093l-40.01798,0.85883c0,0 4.33342,-0.5756 5.1313,-0.8391c0.71055,-0.23465 -0.57553,-0.66542 -0.57553,-0.66542c0,0 -57.11,-0.03516 -93.46233,0.16174c-36.35232,0.1969 -83.94734,0.79919 -83.94734,0.79919z" data-paper-data="{&quot;index&quot;:null}" fill="#eec0b1" stroke="none" stroke-width="0"/></g></g></g></svg>