<svg version="1.1" xmlns="http://www.w3.org/2000/svg" xmlns:xlink="http://www.w3.org/1999/xlink" width="493.50452" height="422.56463" viewBox="0,0,493.50452,422.56463"><g transform="translate(-73.24783,44.18465)"><g stroke="none" stroke-miterlimit="10"><path d="M566.75213,170.14432c0.00014,0.09256 0.00022,0.18512 0.00022,0.2777c0,114.85201 -110.47474,207.95796 -246.75225,207.95796c-136.2775,0 -246.75225,-93.10595 -246.75225,-207.95796c0,-114.85201 110.47475,-207.95796 246.75225,-207.95796c125.2106,0 228.63907,78.59795 244.6119,180.44548" fill="none" stroke-width="0"/><path d="M566.72569,170.23464c-1.9588,115.24167 -111.67141,208.14534 -246.72561,208.14534c-136.2775,0 -246.75225,-94.59431 -246.75225,-211.28231v-0.00001c0,-116.688 110.47475,-211.28231 246.75225,-211.28231c126.91774,0 231.45535,82.04672 245.21631,187.57545" fill="none" stroke-width="0"/><path d="M557.49295,201.1198c-19.06565,98.43364 -119.48121,173.51403 -240.49285,173.51403c-134.62065,0 -243.75225,-92.91711 -243.75225,-207.53617v-0.00001c0,-114.61906 109.1316,-207.53617 243.75225,-207.53617c124.22791,0 226.75038,79.12445 241.83951,181.41113" fill="none" stroke-width="0"/><g><path d="M311.63029,301.09719c68.69322,0 124.38008,13.14082 124.38008,29.35082c0,16.20999 -55.68686,29.35082 -124.38008,29.35082c-68.69322,0 -124.38008,-13.14082 -124.38008,-29.35082c0,-16.20999 55.68686,-29.35082 124.38008,-29.35082z" fill="#3a3a3a" stroke-width="0"/><path d="M424.73519,96.87449c0.95765,9.74733 32.1821,99.04284 -21.06604,164.74299c-0.65394,0.80686 0.12758,11.92458 1.61215,24.65855c1.73807,14.90826 3.89932,32.03181 -2.28708,37.41846c-6.84228,5.95771 -17.69404,7.65746 -26.30071,8.66515c-7.97881,0.9342 -29.30358,0.343 -37.99383,-1.84809c-2.05214,-0.51742 -3.80288,-9.27339 -5.83292,-9.93089c-1.78801,-0.57914 -7.06626,18.33919 -58.99162,16.51614c-10.76547,-0.37796 -31.86575,-5.91602 -39.00053,-19.5595c-16.81868,-32.16157 7.74845,-58.23457 7.74845,-58.23457c0,0 -24.36319,1.29941 -41.79671,-6.28798c-2.26123,-0.98414 -14.20304,-6.86204 -17.54123,-20.2805c-5.63274,-22.64189 -6.85512,-55.02368 -7.01125,-61.05561c-0.72248,-27.9099 1.86782,-61.71928 8.3102,-84.93622c9.66479,-34.82984 65.00759,-22.64003 65.00759,-22.64003c0,0 1.33351,-2.01458 1.81722,-2.86457c8.55642,-15.03551 31.84655,-25.28069 78.33346,-25.89361c62.26456,3.21608 92.0767,31.8488 94.99282,61.53026z" fill="#020134" stroke-width="0"/><path d="M291.25775,59.21723c18.17709,-3.47507 21.24116,-4.11191 37.15012,-4.50342c28.95162,-0.71255 66.20141,6.5701 76.20724,42.75487c1.1568,4.18343 14.50706,49.12126 10.32208,94.46935c-1.19218,12.91824 -5.10436,20.7013 -8.29242,29.86837c-5.92903,17.04843 -18.51283,32.79304 -34.55784,38.05725c-7.49114,2.45776 -26.06592,6.0466 -26.06592,6.0466c0,0 -1.00059,-6.75291 -6.73521,-7.10848c-0.70789,-0.0439 -8.88321,-2.13346 -10.47503,7.0487c-2.5209,14.54131 -7.87989,41.31421 -18.33349,50.33277c-1.61487,1.39321 -17.74606,3.53432 -32.88058,2.12732c-14.51528,-1.34939 -28.07093,-6.11246 -28.99375,-11.03516c-0.51321,-2.73769 -1.41377,-13.38835 0.1184,-21.96634c0.59664,-3.34033 1.56214,-6.36638 3.06308,-8.48849c3.88362,-5.49098 16.69941,-1.38503 27.86584,0.13726c6.17568,0.84189 12.58907,0.52245 14.94991,-1.7688c3.75238,-3.64181 3.87283,-7.57061 3.38893,-10.11284c-0.91151,-4.78854 -6.01051,-6.70099 -7.38658,-6.87559c-6.44701,-0.81805 -32.31315,-2.5829 -43.47657,-23.58398c-7.46756,-14.04833 -8.53376,-36.88716 -8.45415,-57.73769c0.06828,-17.89502 0.48766,-33.69174 4.04377,-48.42939c15.57119,-64.53199 41.38961,-67.86477 48.54233,-69.23221z" fill="#0c1390" stroke-width="0"/><path d="M291.25775,59.21723c18.17709,-3.47507 21.24116,-4.11191 37.15012,-4.50342c28.95162,-0.71255 66.20141,6.5701 76.20724,42.75487c0.99956,3.61471 11.10269,37.65663 11.13135,76.09951c0.00143,1.89675 -3.76704,63.56998 -105.90417,45.6439c-9.14218,-1.60452 -17.90655,-5.79551 -23.5506,-11.82677c-24.22725,-33.87805 -22.26469,-83.08067 -14.92167,-115.00291c4.13861,-17.99176 11.03696,-30.7569 13.33869,-31.55029c2.80728,-0.96763 5.0747,-1.333 6.54907,-1.61487z" fill="#162ed0" stroke-width="0"/><g><path d="M297.8242,97.03545c14.8197,-12.1777 32.64636,-15.40121 38.7723,-15.82242c21.17524,-1.45605 54.76147,-1.19996 75.43444,2.49051c5.25098,0.9374 22.22171,6.69143 27.90826,16.4293c4.35222,7.45292 20.74754,32.11176 -3.41498,54.63187c-25.50712,23.77329 -95.35419,18.60668 -115.31674,14.84833c-8.90723,-2.02997 -24.75519,-10.30105 -30.13511,-24.64439c-6.5008,-17.3318 -1.06779,-41.50771 6.75176,-47.93322z" fill="#10293a" stroke-width="0"/><g><path d="M306.578,130.89248c0,-7.09316 -4.03835,-23.25331 14.67814,-30.6696c15.92571,-6.31044 53.97819,-4.57552 64.47248,-3.90383c11.79152,0.7547 24.84171,2.37394 33.23499,6.25469c9.97581,4.61246 12.37592,26.49308 11.49686,30.20964c-7.38595,31.22734 -80.74297,25.39223 -95.01012,22.4208c-15.437,-3.21508 -28.87234,-11.18311 -28.87234,-24.31174z" fill="#4a7b9c" stroke-width="0"/><path d="M329.17001,127.25814c-19.62129,-8.10652 -5.737,-27.80938 -5.28592,-27.94686c17.14158,-5.22307 51.89036,-3.62934 61.84454,-2.99222c11.79152,0.7547 24.84171,2.37394 33.23499,6.25469c4.00511,1.85182 6.78911,6.48706 8.63002,11.61275c0.72888,2.02946 2.94172,17.24127 -9.48784,20.38936c-17.69982,4.4829 -50.46172,8.57785 -88.9358,-7.31771z" fill="#8cc5de" stroke-width="0"/><path d="M409.17945,100.55005c5.3796,1.58503 13.71984,4.63226 12.00664,10.16345c-3.62312,11.69758 -19.69127,5.09648 -30.87104,3.55607c-1.80199,-0.24828 -10.17915,-0.33276 -15.29163,-2.61698c-3.28501,-1.4677 -4.34727,-5.07555 -4.34727,-6.14084c0,-4.00908 4.03918,-7.25908 9.02177,-7.25908c0.14454,0 7.39659,-0.2529 14.71975,0.16033c5.81505,0.3281 11.5373,1.18697 14.76177,2.137z" fill="#ffffff" stroke-width="0.5"/></g></g><path d="M384.97367,274.74641c0,0 1.36204,7.7268 2.47671,16.72368c1.12717,9.09774 2.57443,19.47689 0.73993,21.32955c-2.72618,2.75318 -31.35523,1.99208 -35.76048,1.43367c-0.72174,-0.09149 -1.91133,-1.04446 -2.76946,-2.94521c-1.02189,-2.26348 -1.73461,-5.71008 -2.8582,-8.41553c-2.21096,-5.32366 -4.4669,-9.48979 -4.67629,-10.5501c-0.63405,-3.21107 0.4335,-5.25763 0.90571,-7.64119c0.54024,-2.72701 10.96545,-2.16407 20.59476,-3.87715c11.2591,-2.00303 21.34728,-6.05774 21.34728,-6.05774z" fill="#0c1390" stroke-width="0"/><path d="M239.00372,81.65333c0,0 -19.9739,25.19955 -18.89447,83.97726c0.19923,10.84842 0.12286,27.38724 2.01554,40.3113c2.67905,18.29369 7.54735,31.68618 7.54735,31.68618c0,0 -11.85559,5.52239 -23.77441,-3.32174c-2.16325,-1.60517 -8.91274,-12.91576 -10.3584,-30.08208c-2.95279,-35.06235 0.49705,-89.00426 0.22391,-95.70588c-0.89479,-21.95486 10.61563,-26.19558 22.57792,-27.10887c9.95035,-0.75968 20.66259,0.24386 20.66259,0.24386z" fill="#0c1390" stroke-width="0"/><path d="M239.00377,81.65333c0,0 -4.00124,5.04807 -8.32524,15.89544c-0.51777,1.29892 -1.56091,4.14751 -1.56091,4.14751c0,0 -11.54536,-1.36577 -20.552,-0.19044c-6.85311,0.89431 -12.80239,7.01254 -12.80239,7.01254c0,0 -0.05803,-2.11768 -0.0434,-3.11391c0.28247,-19.25024 11.24764,-23.1266 22.62132,-23.99497c9.95035,-0.75968 20.66259,0.24386 20.66259,0.24386z" fill="#162ed0" stroke-width="0"/></g></g></g></svg>