<svg version="1.1" xmlns="http://www.w3.org/2000/svg" xmlns:xlink="http://www.w3.org/1999/xlink" width="493.5045" height="422.56465" viewBox="0,0,493.5045,422.56465"><g transform="translate(-73.24808,44.18445)"><g stroke="none" stroke-miterlimit="10"><path d="M566.75236,170.14454c0.00014,0.09256 0.00022,0.18512 0.00022,0.2777c0,114.85201 -110.47474,207.95796 -246.75225,207.95796c-136.2775,0 -246.75225,-93.10595 -246.75225,-207.95796c0,-114.85201 110.47475,-207.95796 246.75225,-207.95796c125.2106,0 228.63907,78.59795 244.6119,180.44548" fill="none" stroke-width="0"/><path d="M566.72594,170.23484c-1.9588,115.24167 -111.67141,208.14534 -246.72561,208.14534c-136.2775,0 -246.75225,-94.59431 -246.75225,-211.28231v-0.00001c0,-116.688 110.47475,-211.28231 246.75225,-211.28231c126.91774,0 231.45535,82.04672 245.21631,187.57545" fill="none" stroke-width="0"/><path d="M557.49331,201.12004c-19.06565,98.43364 -119.48121,173.51403 -240.49285,173.51403c-134.62065,0 -243.75225,-92.91711 -243.75225,-207.53617v-0.00001c0,-114.61906 109.1316,-207.53617 243.75225,-207.53617c124.22791,0 226.75038,79.12445 241.83951,181.41113" fill="none" stroke-width="0"/><g stroke-width="1"><path d="M318.61363,-3.66279l0.31566,-0.00164c2.43043,-0.02375 4.8356,-0.41903 7.25959,-0.55775c2.40344,-0.13753 4.8658,-0.0328 7.27469,-0.01805c3.95374,0.0242 8.11224,0.64802 11.93056,0.57895c8.40881,1.27249 17.01175,2.74142 25.13017,5.32853c2.43735,0.77673 4.81406,1.87775 7.1712,2.87407c14.08568,5.95365 27.44374,14.57153 37.32514,26.38572l0.16588,0.16365c3.59476,3.50713 12.86885,5.41022 17.76833,7.83817c4.60982,2.28363 8.73686,5.62462 12.66584,8.89655c16.7112,13.91857 24.53204,30.59088 25.0247,52.27112c0.25996,11.48914 -2.3371,23.42687 -10.60355,31.95897c-1.94097,1.9687 -4.11219,3.69553 -6.46661,5.14258c0.31937,2.95355 0.78976,5.90612 0.98533,8.87154c0.45059,6.92561 0.3367,13.93664 0.3466,20.87511c0.00743,6.11976 0.13369,12.32394 -0.21786,18.43133c-1.3567,23.4895 -7.07316,48.65532 -16.36458,70.27142c-5.92195,13.77992 -14.68358,24.76723 -24.08392,36.24223c-7.92829,9.67763 -16.07665,19.6895 -25.03732,28.42141c-14.85092,14.47313 -40.44405,31.45912 -59.77457,39.1339c-11.33614,4.50335 -21.43663,6.70924 -33.51795,4.13943c-2.42573,-0.51743 -4.85069,-1.00019 -7.13208,-2.00783c-2.6166,-1.15864 -4.96632,-2.85947 -7.33485,-4.44395c-8.82871,-5.91453 -11.38465,-8.98691 -15.25373,-19.00866c-1.32748,1.19331 -2.95602,2.12418 -4.58556,2.83471c-8.55068,3.73588 -28.08001,6.19925 -37.23106,5.26589c-4.11591,-0.41839 -8.47863,-1.69587 -12.32098,-3.19616c-12.44501,-4.86481 -23.00895,-17.71386 -28.21007,-29.73354c-4.71719,-10.89816 -4.03967,-20.26385 0.27077,-31.10261c1.21588,-3.05753 2.96057,-5.50354 5.03664,-8.02633c7.23076,-8.78391 12.19635,-8.86064 22.13765,-12.94561c5.03662,-2.0722 9.8861,-4.52564 14.88658,-6.682c-3.23629,-0.66349 -6.57555,-0.61399 -9.86703,-0.74768c-9.10971,-0.37137 -17.26352,-1.58695 -25.15843,-6.43442c-19.18146,-11.77779 -19.67707,-32.03648 -14.88151,-51.95373c0.46254,-1.92092 0.92367,-3.87922 1.60536,-5.73651c1.06939,-2.91368 2.51834,-5.7843 3.13886,-8.83615c0.69134,-3.39993 0.41181,-7.29796 0.2987,-10.76696c-0.20398,-6.25544 -2.60106,-12.16227 -4.54991,-18.04017c-2.27536,-6.86248 -4.74237,-13.84158 -6.39187,-20.8813c-0.86958,-3.71138 -0.96922,-7.44207 -1.02156,-11.23538c-0.18014,-13.05478 2.10779,-26.27865 9.13308,-37.51996c2.88701,-4.61972 6.68193,-9.30479 10.8803,-12.79433c6.03026,-5.01212 16.91408,-10.02597 24.39377,-12.47447c2.72453,-0.892 5.54786,-1.49063 8.33802,-2.14075c3.14171,-0.815 6.38466,-0.71622 9.60609,-0.76401c1.33591,-0.44167 3.24297,-0.49119 4.68062,-0.72861c1.7746,-6.0029 12.523,-21.56536 16.88845,-26.69359c18.17039,-21.34616 38.10721,-28.16594 65.34644,-30.45312z" fill="#1f0c11"/><path d="M283.16163,28.10914c2.33833,-2.86393 5.45676,-4.15378 8.63189,-5.84496c9.19363,-4.89722 11.04227,-6.29671 21.66957,-8.1738c4.67641,-0.82595 9.33573,-0.88503 14.07008,-0.8974c14.49765,-0.03791 25.21683,1.6761 38.8888,6.52359c3.14839,1.11615 6.57902,2.04506 9.33005,3.97415c6.53098,1.60106 13.40509,1.98778 20.02298,3.29024c5.42581,1.06779 10.67486,2.99958 16.1039,3.9743c1.13884,0.20426 2.014,0.30477 3.14171,-0.02822l0.16588,0.16365c3.59476,3.50713 12.86885,5.41022 17.76833,7.83817c4.60982,2.28363 8.73686,5.62462 12.66584,8.89655c16.7112,13.91857 24.53204,30.59088 25.0247,52.27112c0.25996,11.48914 -2.3371,23.42687 -10.60355,31.95897c-1.94097,1.9687 -4.11219,3.69553 -6.46661,5.14258l-0.21786,0.04977c-1.42107,0.33571 -2.73816,0.95862 -4.1518,1.32377c-4.32511,1.11656 -9.35083,1.19579 -13.72298,0.25847c-0.18074,2.77158 0.17824,5.6048 0.28965,8.37936c0.25004,6.20369 0.80215,21.65299 -1.38392,26.87852c-4.89452,11.19972 -6.40473,25.88849 -12.79212,35.9954c-1.6835,2.66562 -3.84233,5.02302 -6.06554,7.24573c-8.18181,8.17983 -18.00971,13.21917 -29.27379,15.7516c-5.61495,1.26213 -20.81275,1.33889 -26.71316,0.59666c-10.28989,-1.29431 -41.23381,-9.95368 -49.55301,-15.31365c-3.10902,-2.0031 -5.37804,-5.36465 -7.41976,-8.38555c-3.31575,-4.90665 -8.02435,-15.22278 -9.20701,-20.96772c-0.78976,-3.83739 -0.97469,-7.7946 -1.57952,-11.66515c-0.62092,-3.97255 -1.53271,-7.93348 -1.79267,-11.95233c-0.2404,-3.71632 -0.09334,-7.47251 -0.21886,-11.19625c-0.15002,-4.45482 -0.62761,-8.97156 -1.17969,-13.39494c-0.83035,-6.65254 -1.49436,-13.44026 -2.83224,-20.01036c-1.30619,-6.41412 -3.24148,-12.70842 -4.66005,-19.10349c-1.30323,-5.87491 -2.23114,-11.85257 -3.2915,-17.77575c-2.04372,-11.41783 -4.22136,-21.13731 -3.18205,-32.89803c0.24806,-2.80895 0.55653,-5.68899 1.32228,-8.4118c1.45153,-5.1624 4.35482,-10.00815 7.21206,-14.49317z" fill="#ec7578"/><path d="M375.75205,23.69072c6.53098,1.60106 13.40509,1.98778 20.02298,3.29024c5.42581,1.06779 10.67486,2.99958 16.1039,3.9743c1.13884,0.20426 2.014,0.30477 3.14171,-0.02822l0.16588,0.16365c3.59476,3.50713 12.86885,5.41022 17.76833,7.83817c4.60982,2.28363 8.73686,5.62462 12.66584,8.89655c16.7112,13.91857 24.53204,30.59088 25.0247,52.27112c0.25996,11.48914 -2.3371,23.42687 -10.60355,31.95897c-1.94097,1.9687 -4.11219,3.69553 -6.46661,5.14258l-0.21786,0.04977c-1.42107,0.33571 -2.73816,0.95862 -4.1518,1.32377c-4.32511,1.11656 -9.35083,1.19579 -13.72298,0.25847c-3.24073,-0.98089 -5.86996,-3.03624 -8.72695,-4.77568c-5.07773,-3.09244 -10.94767,-4.81455 -16.80577,-5.65309c-8.68857,-1.24429 -18.03968,-1.18489 -26.81838,-0.80585c-4.08967,0.17652 -8.16373,0.68057 -12.25289,0.85436c-4.76802,0.20276 -9.57686,0.08269 -14.35058,0.0874c-3.47098,0.00347 -7.01175,0.13097 -10.47358,-0.10126c-11.29231,-0.75783 -22.58783,-4.2293 -31.29992,-11.63346c-10.83182,-9.20551 -19.6729,-24.66844 -20.80828,-38.9643c-0.89942,-11.32598 3.72028,-22.14145 10.98557,-30.65352c6.71467,-7.86714 19.28247,-15.72734 29.0896,-19.07799c6.5285,-2.23039 13.59869,-3.47517 20.46811,-3.97651c7.06178,-0.5152 14.22062,0.11958 21.26258,-0.43944z" fill="#10293a"/><path d="M340.10198,49.64034c5.04926,-1.95979 12.5995,-3.72945 17.98644,-4.48579c7.01895,-0.98533 30.51415,-1.60998 36.94014,0.00422c9.05796,1.01554 19.7395,4.71653 27.9738,8.66011c2.32717,-0.56051 4.02306,0.61918 5.95167,1.80331c10.82143,6.64437 22.45489,18.95916 25.45548,31.64554c0.22035,0.9477 0.41096,1.9021 0.5719,2.8617c1.43097,7.46482 -0.16092,18.01046 -4.52564,24.32828c-0.22282,0.32654 -0.47039,0.63478 -0.74272,0.92197c-0.50505,0.5308 -1.09923,0.99574 -1.82956,1.15568c-2.56238,0.56075 -7.92236,-1.01209 -10.61594,-1.66469c-4.78311,-1.17152 -9.49195,-2.62873 -14.0993,-4.36397c-2.82977,-1.05664 -5.65209,-2.34005 -8.53632,-3.21325c-9.39962,-2.84535 -19.86577,-2.42226 -29.52013,-1.77162c-2.69037,0.18148 -5.44563,0.27158 -8.11595,0.64666c-2.95627,0.41517 -5.88655,1.20198 -8.8245,1.7454c-4.12606,0.76302 -8.13476,0.84002 -12.31826,0.84446c-10.92837,0.01237 -18.31299,-1.2292 -27.51454,-7.60396c-7.28781,-5.04901 -13.16397,-11.73448 -14.74769,-20.67656c-0.92294,-5.21216 -0.17503,-10.99449 2.93597,-15.38198c6.16408,-8.69353 13.01047,-13.59696 23.57517,-15.4555z" fill="#8cc5de"/><path d="M454.9814,90.12945c1.43097,7.46482 -0.16092,18.01046 -4.52564,24.32828c-0.22282,0.32654 -0.47039,0.63478 -0.74272,0.92196c-0.50505,0.5308 -1.09923,0.99574 -1.82956,1.15568c-2.56238,0.56075 -7.92236,-1.01208 -10.61594,-1.66468c-4.78311,-1.17152 -9.49195,-2.62873 -14.0993,-4.36397c-2.82977,-1.05664 -5.65209,-2.34005 -8.53632,-3.21325c-9.39962,-2.84535 -19.86577,-2.42226 -29.52013,-1.77162c-2.69037,0.18148 -5.44563,0.27158 -8.11595,0.64666c-2.95627,0.41517 -5.88655,1.20198 -8.8245,1.7454c-4.12606,0.76302 -8.13476,0.84002 -12.31826,0.84446c-10.92837,0.01237 -18.31299,-1.2292 -27.51454,-7.60396c-7.28781,-5.04901 -13.16397,-11.73447 -14.74769,-20.67655c-0.92294,-5.21216 -0.17503,-10.99449 2.93597,-15.38198c6.16408,-8.69353 13.01047,-13.59696 23.57517,-15.4555c-0.02501,0.08221 -0.04928,0.16465 -0.07501,0.24657c-0.53155,1.68276 -1.55649,3.23629 -2.40691,4.7794c-2.35666,4.27609 -4.06118,8.66654 -4.08026,13.62817c-0.00717,1.92611 0.14904,4.14265 1.04178,5.88455c2.77975,5.42359 11.23759,11.73794 17.07612,13.52938c5.26738,1.61615 11.4312,1.22103 16.92188,1.75157c20.04054,1.93652 40.68741,2.34872 60.18134,7.79385l12.43807,3.47543c2.14893,0.58725 4.51574,1.43939 6.74141,1.59042c0.61399,0.04134 1.16854,-0.07031 1.70578,-0.37508c2.67132,-1.51639 4.26568,-6.26435 4.93909,-9.16615c0.20053,-0.86451 0.29955,-1.76817 0.39612,-2.64904z" fill="#4a7b9c"/><path d="M423.00236,53.8189c2.23805,1.13512 4.48356,2.25885 6.58051,3.64452c3.61704,2.38982 10.40798,7.38412 11.24972,11.84216c0.28718,1.5159 -0.21786,2.82111 -1.07941,4.03842c-1.05466,1.48593 -2.81986,3.11943 -4.70638,3.35486c-3.20855,0.40057 -7.7936,-3.42221 -10.21981,-5.27826c-3.93147,-3.00753 -7.3133,-6.63249 -11.79835,-8.85c-2.87011,-1.4186 -5.96751,-2.72232 -9.00226,-3.74529c-4.26321,-1.43691 -9.55534,-1.86522 -13.13771,-4.75539c-0.93705,-0.75609 -1.79193,-1.74911 -1.8682,-3.00702c-0.07477,-1.23267 0.64543,-2.32496 1.4238,-3.21176c1.224,-1.39408 2.67428,-2.57403 4.58432,-2.69235c9.05796,1.01554 19.7395,4.71653 27.9738,8.66011z" fill="#fefefe"/><path d="M254.91649,257.75433c0.32184,-2.7332 1.11556,-5.25103 1.63225,-7.93225c0.83729,-4.34739 -3.16126,-4.60486 -5.87443,-6.52108c-1.00638,-0.70879 -1.8682,-1.75653 -2.55248,-2.76911c-3.88071,-5.74271 -4.61972,-13.97402 -4.91927,-20.69563c-0.3934,-8.83144 0.1639,-17.79805 1.23886,-26.56486c0.77763,-6.34034 1.99988,-12.47892 2.1014,-18.90494c0.06758,-4.27262 -0.20845,-8.56084 -0.24806,-12.83618c-0.07997,-8.59078 -0.04532,-17.10409 -0.49144,-25.69091c-0.55406,-10.67116 -1.01802,-21.27793 -1.21236,-31.9617c-0.11513,-6.34307 -0.55656,-13.39471 0.68578,-19.61573c0.7093,-3.55193 2.51635,-6.86546 3.87428,-10.20496c6.35841,-15.63721 12.1858,-26.71265 24.331,-38.80808c2.35789,-2.34848 4.75488,-4.99703 7.54257,-6.83029c0.87343,-0.57437 1.13761,-0.52312 2.13705,-0.30947c-2.85725,4.48503 -5.76055,9.33077 -7.21205,14.49317c-0.76575,2.72281 -1.07422,5.60284 -1.32228,8.4118c-1.03931,11.76072 1.13833,21.4802 3.18205,32.89803c1.06036,5.92319 1.98827,11.90084 3.2915,17.77575c1.4186,6.39507 3.35387,12.68937 4.66006,19.10349c1.33789,6.5701 2.00189,13.35782 2.83224,20.01036c0.55208,4.42338 1.02965,8.94012 1.17969,13.39494c0.12552,3.72374 -0.02155,7.47993 0.21885,11.19625c0.25996,4.01885 1.17175,7.97978 1.79268,11.95233c0.60483,3.87055 0.78976,7.82776 1.57952,11.66515c1.18265,5.74494 5.89125,16.06107 9.207,20.96772c2.04174,3.0209 4.31074,6.38245 7.41976,8.38555c8.3192,5.35997 39.26313,14.01934 49.55302,15.31365c5.90041,0.74223 21.09818,0.66547 26.71316,-0.59666c11.26409,-2.53243 21.09198,-7.57177 29.27379,-15.7516c2.22322,-2.2227 4.38205,-4.58011 6.06555,-7.24573c6.38739,-10.10692 7.8976,-24.79568 12.79212,-35.9954c0.42831,0.2696 0.85413,0.37877 0.97297,0.89127c0.50505,2.19746 -0.51,8.58263 -0.71797,11.31608c-0.53972,7.13233 -1.57209,14.2045 -2.67875,21.26828c-1.20815,7.72329 -2.5302,15.60652 -4.76825,23.10823c-1.99048,6.67729 -4.69895,13.17881 -7.43711,19.57858c-2.09942,4.90442 -4.15427,9.94006 -7.09149,14.41866c-4.18522,6.37995 -9.85589,11.7919 -14.59617,17.75843c-3.80742,4.79054 -6.84366,10.02919 -10.92541,14.63901c-1.48073,1.67854 -3.03822,3.2853 -4.668,4.81776c-1.90632,1.78995 -16.30839,14.58949 -17.16424,14.76031c-0.04753,0.00743 -0.09606,0.01237 -0.14359,0.01979c-0.02822,0.00496 -0.0557,0.01237 -0.08367,0.01979c-1.73327,3.80272 -19.39314,14.32707 -23.76604,16.66169c-3.34322,1.78501 -6.79688,3.35461 -10.33965,4.69895c-2.2997,0.86403 -4.53629,1.43839 -6.95755,1.83946c-0.11041,0.10398 -0.15673,0.15598 -0.2768,0.23518c-1.24776,0.82441 -13.13053,3.57249 -15.0366,3.75074c-1.8984,0.18568 -3.81387,0.08665 -5.68305,-0.29462c-7.73616,-1.59189 -15.82414,-9.05127 -20.06506,-15.44362c9.70115,-6.68696 21.30542,-15.91895 29.17477,-24.63849c1.84293,-2.04991 3.58735,-4.18645 5.22777,-6.40224c1.39657,-1.89146 2.73395,-4.4266 4.48924,-5.95414c2.47771,-2.15389 8.96413,0.84669 11.79241,1.43345c1.68028,0.34909 3.44944,0.42831 5.15867,0.53972c4.88089,0.3169 25.31857,0.64616 28.60436,-2.24302c0.20624,-0.63131 0.21688,-0.87641 -0.05274,-1.52505c-1.10417,-2.66142 -6.67632,-2.7753 -9.22705,-3.39672c-4.93636,-1.20321 -9.59792,-2.94859 -14.37287,-4.63455c-5.61397,-1.98305 -11.13039,-3.88937 -16.52427,-6.43196c-3.23207,-1.52258 -6.03411,-4.01317 -9.34985,-5.30797c-7.82505,1.64636 -11.5342,6.69932 -15.28319,13.15356c-0.94944,1.63399 -1.99544,3.55514 -3.44522,4.7955c-2.91393,3.71359 -6.44928,7.55098 -10.04355,10.61098c-4.41844,3.76063 -9.67295,6.83302 -14.49914,10.049c-4.37958,2.9189 -8.72944,6.18685 -13.32685,8.73191c-2.51089,1.39136 -5.75088,3.11696 -8.61382,3.48335c-0.35626,0.04457 -0.71251,0.06933 -1.07101,0.08665l-0.16066,0.40106c-2.42226,1.62903 -14.4875,3.68884 -17.70298,4.05525c-8.22463,0.93335 -14.24213,-0.56694 -20.71791,-5.77093c-5.70507,-4.58505 -11.07816,-12.18556 -11.84787,-19.61771c-0.33225,-3.20608 0.00915,-6.97908 2.3153,-9.4474c2.73271,-2.92136 9.10773,-4.51078 12.76315,-6.46661c6.97661,-3.73341 34.74245,-20.95955 38.48105,-25.64364z" fill="#b44362"/><path d="M251.59951,320.48196c-0.91603,-0.28718 -1.82015,-0.62638 -2.65423,-1.10913c-2.77009,-1.59685 -5.06585,-4.91185 -5.84569,-7.98423c-0.89449,-3.52296 0.46271,-7.55594 2.2554,-10.58375c1.09476,-1.84938 2.50272,-3.43631 4.06985,-4.89452c3.42368,-3.18626 7.51037,-5.76103 11.17792,-8.6725c3.25484,-2.58467 6.16829,-5.67438 9.71055,-7.87778c2.52896,-1.57456 5.35352,-2.71093 8.2333,-3.45612c4.78905,-1.24033 9.85937,-0.90364 14.16316,1.67854c4.81455,2.88918 5.1661,4.9787 6.44409,9.93759c-2.91393,3.71359 -6.44928,7.55098 -10.04355,10.61098c-4.41844,3.76063 -9.67295,6.83302 -14.49914,10.049c-4.37958,2.9189 -8.72944,6.18685 -13.32685,8.73191c-2.51089,1.39136 -5.75088,3.11696 -8.61382,3.48335c-0.35626,0.04457 -0.71251,0.06933 -1.07101,0.08665z" fill="#ec7578"/><path d="M324.02333,339.88428c-0.7665,-0.70063 -1.41809,-1.51266 -2.06228,-2.32224c-2.57279,-3.23578 -4.4432,-6.4889 -3.91415,-10.76447c0.53155,-4.29786 3.05629,-7.5708 6.40744,-10.16537c2.3517,-1.82213 5.04999,-3.12436 7.50271,-4.79054c6.26088,-4.25084 9.74647,-8.4373 18.24517,-7.35539c5.08392,0.64864 11.47724,3.11447 14.65064,7.21182c0.21168,1.6315 0.17776,3.33976 0.23372,4.98611c-1.73327,3.80272 -19.39314,14.32706 -23.76604,16.66169c-3.34322,1.78501 -6.79688,3.35461 -10.33965,4.69895c-2.2997,0.86403 -4.53629,1.43839 -6.95755,1.83946z" fill="#ec7578"/><path d="M191.58134,107.57494c-0.05866,-0.23346 -0.10894,-0.44984 -0.12799,-0.69022c-0.52869,-6.64015 4.77321,-16.16604 9.09015,-20.99125c7.67823,-8.58238 16.51733,-10.05938 27.46305,-10.6808c-1.0955,4.62715 -1.43097,9.61747 -1.60726,14.35899c0.09061,3.22464 -0.50281,6.44978 -0.48152,9.67789c0.05249,8.01865 0.71251,16.16974 1.09427,24.19185c0.3815,8.01592 1.28169,15.99398 1.72558,24.00173c0.25228,4.55088 0.13914,9.16343 0.15622,13.72175c0.01609,4.32609 0.16118,8.68363 0.02204,13.00624c-0.16341,5.08664 -1.10468,10.10717 -1.61245,15.16387c-1.45227,14.4605 -3.1167,29.28494 -2.53118,43.81575c-10.59589,-0.01609 -18.62048,0.9997 -26.81886,-7.22642c-3.61532,-3.62745 -6.41759,-8.33877 -6.35669,-13.57049c0.11313,-9.68704 3.75073,-19.5875 6.31312,-28.8643c1.13487,-4.10898 2.46632,-8.63387 2.47624,-12.92407c0.01237,-5.46444 -2.89216,-11.00363 -4.14833,-16.28834c-1.07818,-4.5353 -1.47107,-9.20256 -2.24275,-13.79256c-0.52065,-3.09714 -1.3713,-6.12718 -1.96796,-9.20872c-1.20642,-6.23092 -1.76805,-12.69752 -1.38512,-19.03789c0.08061,-1.33441 0.08638,-3.61406 0.9395,-4.66303z" fill="#b44362"/><path d="M191.58134,107.57494c-0.05866,-0.23346 -0.10894,-0.44984 -0.12799,-0.69022c-0.52869,-6.64015 4.77321,-16.16604 9.09015,-20.99125c7.67823,-8.58238 16.51733,-10.05938 27.46305,-10.6808c-1.0955,4.62715 -1.43097,9.61747 -1.60726,14.35899c-10.84395,1.2089 -20.40325,5.5147 -28.8507,12.44005c-2.05832,1.68771 -3.8141,4.06293 -5.96725,5.56323z" fill="#ec7578"/><path d="M324.47936,-4.67574h15.04924c1.90112,0.49696 4.0597,0.36626 5.8655,1.01445c-3.81832,0.06907 -7.9768,-0.55477 -11.93056,-0.57895c-2.40889,-0.01475 -4.87126,-0.11947 -7.2747,0.01805c-2.42398,0.13872 -4.82915,0.53399 -7.25958,0.55775l-0.31567,0.00164c1.79416,-0.57145 3.98667,-0.62756 5.86576,-1.01294z" fill-opacity="0.40392" fill="#00002c"/></g></g></g></svg>