<svg version="1.1" xmlns="http://www.w3.org/2000/svg" xmlns:xlink="http://www.w3.org/1999/xlink" width="38.75" height="38.75" viewBox="0,0,38.75,38.75"><g transform="translate(-300.625,-160.625)"><g stroke-miterlimit="10"><path d="M304.375,180c0,-8.62945 6.99555,-15.625 15.625,-15.625c8.62945,0 15.625,6.99555 15.625,15.625c0,8.62945 -6.99555,15.625 -15.625,15.625c-8.62945,0 -15.625,-6.99555 -15.625,-15.625z" fill="#000000" stroke="#000000" stroke-width="7.5"/><path d="M304.375,180c0,-8.62945 6.99555,-15.625 15.625,-15.625c8.62945,0 15.625,6.99555 15.625,15.625c0,8.62945 -6.99555,15.625 -15.625,15.625c-8.62945,0 -15.625,-6.99555 -15.625,-15.625z" fill="#000000" stroke="#00f000" stroke-width="3.5"/><path d="M304.375,180c0,-8.62945 6.99555,-15.625 15.625,-15.625c8.62945,0 15.625,6.99555 15.625,15.625c0,8.62945 -6.99555,15.625 -15.625,15.625c-8.62945,0 -15.625,-6.99555 -15.625,-15.625z" fill="#000000" stroke="#00f000" stroke-width="2"/><text transform="translate(307.5,183.75) scale(0.3125,0.3125)" font-size="40" xml:space="preserve" fill="#00f000" stroke="#00f000" stroke-width="1" font-family="Sans Serif" font-weight="normal" text-anchor="start"><tspan x="0" dy="0">原版</tspan></text></g></g></svg>