<svg version="1.1" xmlns="http://www.w3.org/2000/svg" xmlns:xlink="http://www.w3.org/1999/xlink" width="315.3003" height="315.30025" viewBox="0,0,315.3003,315.30025"><g transform="translate(-162.34985,-22.3499)"><g stroke-miterlimit="10"><path d="M169.84985,270.23519c0,-59.99896 0,-148.11906 0,-181.81815c0,-26.16557 22.73163,-58.56714 54.69562,-58.56714c60.91162,0 155.35022,0 189.899,0c25.1397,0 55.70568,31.10369 55.70568,56.54696c0,34.37139 0,127.20919 0,187.87876c0,32.57375 -30.56593,55.87453 -55.70568,55.87453c-33.79375,0 -124.88841,0 -185.85858,0c-34.07175,0 -58.73599,-25.26921 -58.73599,-59.91496z" fill="#8fb5b5" stroke="#6b999a" stroke-width="15"/><path d="M227.22727,253.09306c0,-3.70883 3.80158,-19.03782 7.51041,-19.03782c0.47459,0 23.59505,-4.9195 24.04181,-4.82587c3.04459,0.63812 1.35595,10.89078 1.35595,14.12499c0,0.67047 7.25832,2.82818 15.49609,6.33132c9.64465,4.10144 20.9267,9.67879 27.91126,11.32747c4.75034,1.12129 20.88128,4.99151 39.08381,1.68809c10.11872,-1.83636 28.86471,-6.49427 42.53938,-12.57244c14.60287,-6.49076 23.89678,-14.35007 26.18648,-13.93753c9.36532,1.6874 17.76129,13.0391 10.69569,18.19814c-4.34716,3.17414 -47.58549,24.32466 -83.15875,27.74433c-27.46269,2.64 -56.00863,-5.14842 -70.12553,-8.58766c-24.62241,-5.99864 -41.53663,-18.85162 -41.53663,-20.45302z" fill="#ff8800" stroke="none" stroke-width="0"/><path d="M224.09578,257.96278c0,-1.10431 23.04601,13.13322 51.79157,18.66587c13.68191,2.63336 38.44718,7.54814 61.69992,5.50396c14.74908,-1.29662 38.23338,-6.06977 55.41209,-12.51127c17.07067,-6.401 27.87967,-14.479 28.77166,-13.10957c1.28254,1.96904 2.26918,8.69693 -2.74371,15.41159c-4.99046,6.68459 -15.97166,13.35608 -18.64789,15.30613c-4.97595,3.62576 -32.21059,10.09341 -60.68658,11.51652c-19.77519,0.98828 -40.45442,-1.90699 -53.42387,-3.84593c-21.75565,-3.25246 -40.43861,-10.9649 -48.31436,-14.98668c-15.87202,-8.10511 -13.8588,-21.59418 -13.8588,-21.9506z" fill="#cc6600" stroke="none" stroke-width="0"/><path d="M346.78565,227.62101c15.37397,-7.60533 37.42045,-22.93405 43.8515,-22.04956c3.68786,0.50722 4.07208,13.69845 8.83626,22.00905c2.53556,4.42301 -18.37201,18.57251 -35.60476,19.51252c-19.1356,1.0438 -39.48302,-1.66237 -40.16861,-1.66237c-2.04851,0 10.09989,-11.38578 23.08561,-17.80967z" fill="#ff8800" stroke="none" stroke-width="0"/><path d="M270.13418,243.78502c0,-2.09947 45.93146,2.94596 77.64916,-0.14544c21.36366,-2.08224 34.41388,-8.93947 43.31462,-12.14495c2.81986,-1.01553 2.90257,-10.94736 5.02189,-10.96188c3.12612,-0.02143 9.22895,13.95378 10.18463,14.48882c2.45809,1.3762 -29.13398,15.91535 -55.31053,23.2079c-13.52955,3.7692 -27.13385,3.69799 -32.99445,2.88353c-22.69665,-3.15419 -47.86529,-15.07425 -47.86529,-17.32794z" fill="#cc6300" stroke="none" stroke-width="0"/><path d="M280.15745,210.57495c0.17519,-0.29317 1.43905,-0.03318 3.48981,-0.2303c0.87346,-0.08395 1.88968,-0.17311 3.02535,-0.2694c7.21483,-0.61174 19.25,-1.51147 30.12596,-3.19533c16.00492,-2.47796 29.33455,-7.64092 29.70873,-7.55508c0.0171,0.00392 19.82067,-10.85705 25.28909,-10.43057c13.82068,1.07788 22.12195,14.39626 21.67522,16.62367c-1.93098,9.62808 -54.48753,30.16262 -61.04517,37.52929c-2.89272,3.24961 -26.91,2.7481 -27.8968,2.7481c-0.25384,0 -7.79751,-5.20967 -14.13355,-13.55013c-6.60157,-8.68999 -10.67165,-20.94547 -10.23858,-21.67022z" fill="#ffcc40" stroke="none" stroke-width="0"/><path d="M372.94351,188.90256c0.12129,-0.03095 7.93736,-5.37726 8.06825,-5.37726c0.33246,0 1.81569,-1.17483 3.0683,-0.53485c1.92911,0.98564 3.7906,3.9984 3.7906,4.51042c0,0.84448 1.93666,10.35392 1.09218,10.35392c-0.84448,0 -16.5802,-8.80909 -16.01939,-8.95223z" fill="#cc9e21" stroke="none" stroke-width="NaN"/><path d="M261.24617,239.91856c0,-0.08463 -1.0537,-16.64298 2.74508,-24.02609c1.25848,-2.4459 1.56687,-3.83816 2.5346,-4.49626c0.46185,-0.31408 9.08568,-5.19878 14.4673,-0.69495c0.42039,0.35181 0.05258,-0.22901 0.43013,0.23727c1.85886,2.2958 1.36808,7.8564 5.90443,14.74952c5.73374,8.71265 16.46757,18.88058 16.46757,19.79542c0,0.74942 -26.92515,0.51336 -36.21659,-1.36841c-4.33566,-0.8781 -6.33253,-3.10035 -6.33253,-4.19653z" fill="#cc9e21" stroke="none" stroke-width="0"/><path d="M307.06773,159.9474c0,0.89717 -0.84632,10.11507 1.08595,17.27479c1.20977,4.48259 4.69719,7.45377 9.69923,9.25313c17.41164,6.26338 47.98502,4.18341 47.92221,4.18341c-1.62404,0 -17.49512,9.86976 -36.20306,14.53865c-21.84352,5.45141 -49.75014,6.86606 -49.75014,4.96983c0,0 -3.84425,-51.61106 -2.48572,-51.61106c0,0 29.73153,1.1281 29.73153,1.39124z" fill="#ff8800" stroke="none" stroke-width="0"/><path d="M277.07947,162.9863c0,-1.61709 4.40715,46.17186 4.40715,47.78895c0,0.34942 -3.73997,0.07755 -6.88653,0.17848c-4.01651,0.12881 -7.69315,0.57566 -8.15385,0.57566c-1.16756,0 4.12362,-24.46313 7.5839,-38.67234c1.33221,-5.47057 3.04936,-9.42124 3.04936,-9.87075z" fill="#cc6300" stroke="none" stroke-width="0"/><path d="M346.72135,113.77993c0.5548,0.5548 1.70472,21.65181 1.70472,22.49838c0,0.88161 -12.70131,0.7104 -21.55842,3.28259c-8.15316,2.36775 -11.83704,7.8508 -12.64859,7.8508c-0.09649,0 -3.0658,-0.16465 -6.71184,13.07458c-0.78504,2.8506 -27.32712,-1.03545 -28.66397,-1.69689c-4.95339,-2.45082 0.23982,-17.92805 5.56384,-25.3423c2.09739,-2.92082 28.01422,-1.56289 29.39784,-2.68259c2.5551,-2.06775 9.52728,-3.33429 15.95984,-6.64062c8.54929,-4.39434 16.64002,-10.66051 16.9566,-10.34393z" fill="#ffcc40" stroke="none" stroke-width="0"/><path d="M286.78888,132.00244c0,-1.6214 3.83212,-16.79194 11.56322,-28.09144c5.65336,-8.26274 15.5687,-13.77988 16.75437,-13.77988c1.72497,0 15.87658,-1.52425 16.46088,0.17859c0.15549,0.4531 14.92246,23.71637 14.92246,23.94382c0,1.18485 -7.43952,7.20489 -15.8693,11.13886c-3.2737,1.52774 -9.89685,4.75506 -17.72635,6.1811c-12.16676,2.21602 -26.10528,2.13693 -26.10528,0.42898z" fill="#ff8800" stroke="none" stroke-width="0"/><path d="M326.22893,68.35741c1.82274,0 9.50242,10.75598 9.56334,12.36586c0.01715,0.45315 -6.34614,1.86838 -8.0143,3.21036c-1.42272,1.14454 -1.77,5.78094 -5.33517,6.62207c-7.87443,1.85784 -18.02284,7.50525 -18.80094,7.50525c-1.03202,0 5.31925,-11.18795 11.62332,-19.10525c4.8302,-6.06626 10.173,-10.5983 10.96375,-10.5983z" fill="#ffebb5" stroke="none" stroke-width="0"/><path d="M323.77506,89.25673c0,-0.66956 1.63139,-4.11923 3.94906,-5.71456c2.54198,-1.74972 7.20939,-3.70707 7.94375,-3.70707c1.40395,0 18.55714,30.05796 18.55714,31.46188c0,1.40395 -6.03036,3.11764 -7.43431,3.11764c-0.68658,0 -5.60199,-7.95758 -10.93595,-14.09708c-5.57295,-6.41458 -12.07969,-10.34344 -12.07969,-11.06081z" fill="#ffd375" stroke="none" stroke-width="0"/><path d="M346.26309,114.60647c0,-2.38405 4.52268,-2.39818 6.90673,-2.39818c2.38405,0 13.42977,23.32433 13.42977,25.70838c0,2.38405 -16.22575,-1.15112 -18.6098,-1.15112c-2.38405,0 -1.7267,-19.77506 -1.7267,-22.15911z" fill="#ffeab5" stroke="none" stroke-width="0"/><g fill="none" stroke="#bd1900" stroke-width="4.5"><path d="M287.91572,296.10502c-30.36863,-4.24554 -52.04509,-15.52411 -58.8272,-21.99607c-13.57905,-12.95806 0.60025,-38.68607 3.32403,-40.58274c2.18625,-1.52239 27.2263,-5.61593 27.45135,-6.11033c3.35285,-7.36513 9.53011,-57.83629 25.06203,-97.64098c14.56313,-37.32194 38.54959,-64.35282 41.13661,-64.35282c4.40759,0 30.12025,42.76997 48.25272,84.81802c15.2159,35.28473 23.41659,70.34065 25.57548,76.46085c3.29887,9.35198 21.24808,8.0505 23.09497,16.12501c2.05161,8.9696 5.194,32.45458 -24.93929,44.86023c-35.19927,14.49129 -86.90773,11.66539 -110.13071,8.41883z"/><path d="M423.1863,253.60667c0,2.87829 -50.16268,29.21378 -100.22687,29.36521c-49.21318,0.14885 -98.34241,-25.8378 -98.34241,-28.62426c0,-1.2152 1.425,-14.28114 9.00695,-20.41778c3.51898,-2.84818 25.19126,-7.90635 26.05846,-7.01195c0.25241,0.26035 -2.04456,15.61821 0.26254,15.96845c9.93683,1.5085 37.75174,22.27587 66.67038,20.93441c37.50986,-1.73998 76.87663,-26.07337 81.49446,-27.0825c4.15614,-0.90826 10.87508,0.63589 13.61873,4.87315c2.69986,4.16964 1.45773,11.0183 1.45773,11.99525z"/></g><g stroke="none"><path d="M311.63574,144.06638c8.15544,-8.32882 17.96559,-10.53348 21.33677,-10.82157c11.65293,-0.99583 30.13576,-0.82072 41.51232,1.70337c2.88967,0.64111 12.22884,4.57652 15.35819,11.23666c2.39508,5.09735 11.41756,21.96248 -1.8793,37.36486c-14.03682,16.25948 -52.47434,12.72584 -63.45993,10.15535c-4.90174,-1.38839 -13.62302,-7.04529 -16.58365,-16.85525c-3.57746,-11.85389 -0.58762,-28.38875 3.71555,-32.78339z" fill="#10293a" stroke-width="0"/><path d="M316.45308,167.22254c0,-4.85128 -2.22236,-15.90383 8.07753,-20.97612c8.76408,-4.31596 29.70472,-3.12938 35.47982,-2.67c6.48898,0.51619 13.67063,1.62362 18.28952,4.27784c5.48978,3.15463 6.81057,18.11965 6.32682,20.66155c-4.06456,21.3576 -44.43363,17.36675 -52.28499,15.33445c-8.49515,-2.19892 -15.88873,-7.64858 -15.88873,-16.62775z" fill="#4a7b9c" stroke-width="0"/><path d="M328.88564,164.73685c-10.79778,-5.54436 -3.15713,-19.01993 -2.90888,-19.11394c9.43318,-3.57227 28.55577,-2.48227 34.03366,-2.04648c6.48898,0.51619 13.67063,1.62362 18.28952,4.27784c2.20406,1.26654 3.7361,4.43676 4.74919,7.9424c0.40112,1.38803 1.61885,11.79198 -5.22125,13.94508c-9.74037,3.06602 -27.76957,5.86672 -48.94224,-5.00487z" fill="#8cc5de" stroke-width="0"/><path d="M372.91566,146.47016c2.96045,1.08408 7.55017,3.16819 6.60736,6.95116c-1.99385,8.00045 -10.8363,3.48567 -16.98865,2.43213c-0.99165,-0.16981 -5.60169,-0.22761 -8.41513,-1.78984c-1.80776,-1.00381 -2.39234,-3.47137 -2.39234,-4.19996c0,-2.74198 2.2228,-4.96478 4.96478,-4.96478c0.07956,0 4.07041,-0.17297 8.10042,0.10966c3.20007,0.2244 6.34908,0.81183 8.12355,1.46158z" fill="#ffffff" stroke-width="0.5"/></g></g></g></svg>