<svg version="1.1" xmlns="http://www.w3.org/2000/svg" xmlns:xlink="http://www.w3.org/1999/xlink" width="334.46086" height="350.79849" viewBox="0,0,334.46086,350.79849"><g transform="translate(-152.73718,-4.60073)"><g stroke-miterlimit="10"><path d="M153.73718,349.87193c0,-39.2095 0,-320.35679 0,-340.53126c0,-2.25819 1.6135,-3.73994 4.03519,-3.73994c20.24362,0 284.94109,0 323.70154,0c3.07141,0 4.72413,1.72128 4.72413,4.92097c0,40.51692 0,318.08916 0,339.54706c0,2.59592 -1.51178,4.33046 -4.33045,4.33046c-37.372,0 -304.48975,0 -323.89837,0c-2.19653,0 -4.23203,-1.58028 -4.23203,-4.5273z" fill="#000000" stroke="#ffffff" stroke-width="2"/><path d="M157.0274,346.49339c0,-38.40998 0,-313.82446 0,-333.58757c0,-2.21214 1.5806,-3.66368 3.95292,-3.66368c19.83082,0 279.13092,0 317.10101,0c3.00878,0 4.6278,1.6862 4.6278,4.82063c0,39.69074 0,311.60307 0,332.62344c0,2.54298 -1.48095,4.24215 -4.24215,4.24215c-36.60995,0 -298.28096,0 -317.29384,0c-2.15174,0 -4.14574,-1.54806 -4.14574,-4.43498z" fill="#000000" stroke="#ffffff" stroke-width="1.5"/><text transform="translate(190.03215,90.06065) scale(0.31537,0.31537)" font-size="40" xml:space="preserve" fill="#ffffff" stroke="none" stroke-width="1" font-family="Sans Serif" font-weight="normal" text-anchor="start"><tspan x="0" dy="0">分辨率</tspan></text><path d="M229.37268,184.1346c-0.25709,-6.52956 0,6.13678 0,-13.62632c0,-2.21215 1.5806,-3.66368 3.95292,-3.66368c19.83082,0 133.61217,0 171.58228,0c3.00878,0 4.6278,1.6862 4.6278,4.82063c0,7.81032 0,-8.35817 0,12.66219c0,2.54298 -1.48095,4.24215 -4.24215,4.24215c-36.60995,0 -152.76223,0 -171.7751,0c-2.15174,0 -4.03215,-1.55029 -4.14574,-4.43498z" fill="#000000" stroke="#ffffff" stroke-width="3"/><text transform="translate(272.35462,183.86969) scale(0.31537,0.31537)" font-size="40" xml:space="preserve" fill="#ffffff" stroke="none" stroke-width="1" font-family="Sans Serif" font-weight="normal" text-anchor="start"><tspan x="0" dy="0">垂直同步: 不支持</tspan></text><path d="M229.37268,217.81472c-0.25709,-6.52956 0,6.13678 0,-13.62632c0,-2.21215 1.5806,-3.66368 3.95292,-3.66368c19.83082,0 133.61217,0 171.58228,0c3.00878,0 4.6278,1.6862 4.6278,4.82063c0,7.81032 0,-8.35817 0,12.66219c0,2.54298 -1.48095,4.24215 -4.24215,4.24215c-36.60995,0 -152.76223,0 -171.7751,0c-2.15174,0 -4.03215,-1.55029 -4.14574,-4.43498z" fill="#000000" stroke="#ffffff" stroke-width="3"/><text transform="translate(284.60884,216.39287) scale(0.31537,0.31537)" font-size="40" xml:space="preserve" fill="#ffffff" stroke="none" stroke-width="1" font-family="Sans Serif" font-weight="normal" text-anchor="start"><tspan x="0" dy="0">画面晃动: 关</tspan></text></g></g></svg>