<svg version="1.1" xmlns="http://www.w3.org/2000/svg" xmlns:xlink="http://www.w3.org/1999/xlink" width="493.50452" height="422.56463" viewBox="0,0,493.50452,422.56463"><g transform="translate(-73.2478,44.18465)"><g stroke="none" stroke-miterlimit="10"><g><path d="M315.85042,-18.50255c73.45863,-1.98612 103.5282,38.75895 111.01147,73.35432c1.34349,6.21099 10.89606,48.09445 12.30915,100.31174c0.41236,15.23778 -1.60737,55.48387 -6.25181,88.97997c-3.73828,26.96068 -9.96398,48.84883 -11.97708,55.14894c-5.61995,18.76515 -33.46456,19.15269 -39.78054,19.49348c-24.43959,1.31871 -30.43453,-4.99031 -33.42379,-8.22935c-9.22992,-10.00119 -8.11876,-26.91497 -9.68898,-37.27431c-0.41,-2.70473 -0.91669,-4.75092 -1.75457,-5.88416c-1.43605,-1.94237 -4.35705,-1.68416 -4.95936,-0.94211c-0.3834,0.47233 -0.32248,5.90733 -0.47271,8.6769c-0.39809,7.33977 -0.29166,17.65607 -1.0817,26.55571c-0.96051,10.81969 -4.35989,18.91686 -7.32026,21.24302c-8.06439,6.33653 -28.29654,12.64382 -41.57035,12.89963c-20.56682,0.39644 -34.34736,-8.39412 -37.03946,-12.78018c-5.09303,-8.29761 -7.07081,-20.71993 -8.41231,-31.76935c-1.88675,-15.54026 -1.67393,-29.44227 -1.67393,-29.44227c0,0 -40.03654,7.40508 -48.01299,-22.59064c-1.78931,-6.72874 -5.08753,-24.12341 -5.98074,-45.07753c-1.0425,-24.4552 0.59915,-53.75869 2.68296,-76.61391c1.45981,-16.01167 3.0044,-28.85848 7.2824,-34.65633c5.29151,-7.17141 14.06726,-9.97015 22.55932,-12.06312c12.12529,-2.98841 23.67218,-3.4062 23.67218,-3.4062c0,0 0.07728,-47.08425 30.08781,-71.98436c11.05478,-9.17231 31.34995,-13.45118 49.79531,-13.94989z" fill="#220f03" stroke-width="0"/><path d="M406.72151,66.73101c0,0.80462 2.44198,9.13636 14.38587,62.32099c9.36555,41.70367 -12.55033,152.99028 -15.26393,160.32701c-4.99498,13.50492 -22.89708,11.62251 -31.718,11.24207c-4.03617,-0.17408 -7.4925,-1.09375 -9.86643,-3.0845c-4.31586,-3.61923 -5.89191,-9.941 -6.80237,-15.82755c-1.39576,-9.02428 -0.38116,-17.87975 -0.38116,-17.87975c0,0 13.88664,-4.00159 21.97153,-9.03269c9.03661,-5.62335 12.10108,-10.53821 12.10108,-10.53821c0,0 -11.35816,2.81929 -24.79422,3.39678c-6.13968,0.26391 -13.50017,0.92879 -20.75805,0.42384c-9.46414,-0.65843 -18.75379,-2.54251 -24.93462,-2.12052c-6.62297,0.45218 -7.37907,4.36808 -7.54694,5.41048c-2.45056,15.2165 1.79465,42.89135 -1.98496,53.85664c-2.6539,7.69941 -10.36302,10.81419 -19.10103,12.1991c-12.67665,2.00917 -27.11745,-0.02388 -28.08277,-0.32832c-2.86382,-0.90318 -4.92008,0.22434 -7.67733,-7.52705c-4.49103,-12.62559 -4.83463,-44.65861 -5.54408,-73.72265c-1.01073,-41.40645 -4.00504,-82.62168 -2.16924,-120.27831c1.44723,-29.68608 7.54685,-59.9116 8.64303,-67.37004c6.17755,-42.03208 42.83925,-46.78113 77.30551,-46.78113c34.46629,0 72.21813,33.45653 72.21813,65.31379z" fill="#5d2315" stroke-width="0"/><path d="M406.72151,66.73101c0,0.80462 2.44198,9.13634 14.38587,62.32099c1.42493,6.34499 2.12576,7.75976 2.28026,16.71503c0.17295,10.02414 -9.98342,54.04423 -34.27211,68.05591c-30.25221,17.45192 -77.61999,9.3167 -98.30607,-7.72235c-46.37964,-38.20272 -24.06264,-183.08161 -20.44211,-186.81495c15.09771,-15.56813 40.14859,-17.86844 64.13605,-17.86844c34.46626,0 72.21813,33.45651 72.21813,65.31379z" fill="#704a1d" stroke-width="0"/><g><path d="M303.24138,48.22724c14.54992,-14.85924 32.05203,-18.79255 38.06646,-19.30652c20.78975,-1.77665 53.76454,-1.46421 74.06118,3.03893c5.15539,1.1438 21.81717,8.16489 27.4002,20.04706c4.27299,9.09406 20.36983,39.18279 -3.35282,66.66181c-25.04278,29.00818 -93.61829,22.70387 -113.21742,18.11794c-8.74507,-2.47697 -24.30453,-12.56935 -29.5865,-30.07109c-6.38245,-21.14825 -1.04835,-50.64771 6.62885,-58.48813z" fill="#10293a" stroke-width="0"/><g><path d="M311.83583,89.53961c0,-8.65505 -3.96484,-28.37368 14.41093,-37.42305c15.63578,-7.70002 52.99552,-5.58305 63.29876,-4.76346c11.57686,0.9209 24.38947,2.89669 32.62994,7.63198c9.7942,5.62812 12.15061,32.32688 11.28756,36.86181c-7.25148,38.10361 -79.27306,30.9836 -93.28047,27.35787c-15.15598,-3.92303 -28.34673,-13.64564 -28.34673,-29.66518z" fill="#4a7b9c" stroke-width="0"/><path d="M334.01653,85.10496c-19.26408,-9.89159 -5.63256,-33.93304 -5.18968,-34.10077c16.82951,-6.37319 50.9457,-4.42853 60.71867,-3.6511c11.57686,0.9209 24.38947,2.89669 32.62994,7.63198c3.9322,2.25959 6.66551,7.91551 8.47292,14.16987c0.71562,2.47635 2.88817,21.03781 -9.31512,24.87909c-17.37759,5.47003 -49.54307,10.46669 -87.31674,-8.92907z" fill="#8cc5de" stroke-width="0"/><path d="M412.56946,52.51577c5.28166,1.93406 13.47008,5.65228 11.78807,12.40143c-3.55716,14.2734 -19.33279,6.21872 -30.30904,4.33912c-1.76919,-0.30295 -9.99384,-0.40605 -15.01325,-3.19324c-3.2252,-1.7909 -4.26812,-6.19318 -4.26812,-7.49304c0,-4.89188 3.96564,-8.85753 8.85753,-8.85753c0.14191,0 7.26194,-0.30857 14.45177,0.19562c5.70918,0.40036 11.32726,1.44834 14.49304,2.60758z" fill="#ffffff" stroke-width="0.5"/></g></g><g stroke-width="0"><path d="M230.51851,88.62023c0.35822,0.17186 1.9731,1.75523 2.11031,4.94465c0.44141,10.25987 -1.41959,34.54156 -1.32135,60.26434c0.16518,43.24275 1.04514,91.70171 1.04514,91.70171c0,0 -4.69279,0.66904 -10.25428,0.35232c-5.50718,-0.31365 -11.86077,-1.58852 -16.44302,-6.52686c-8.79349,-9.47684 -9.32844,-32.23185 -9.32364,-49.12974c0.00454,-15.93025 0.22092,-37.61888 0.57652,-56.94799c0.27293,-14.83652 -0.17125,-28.16873 4.28428,-37.1325c4.91458,-9.88731 25.84324,-9.19664 29.32602,-7.5259z" fill="#5d2315"/><path d="M230.51851,88.62023c0.35822,0.17186 1.9731,1.75523 2.11031,4.94465c0.12835,2.98314 0.06205,7.15171 -0.09415,12.19646c-0.03071,0.99136 -0.10171,3.07325 -0.10171,3.07325c0,0 -12.26505,-1.53063 -17.25737,-0.78655c-6.35951,0.94785 -17.8006,6.01178 -17.8006,6.01178c0,0 0.10634,-1.58295 0.1716,-2.35747c0.50358,-5.97656 1.51369,-11.26661 3.6459,-15.55622c4.91458,-9.88731 25.84324,-9.19664 29.32602,-7.5259z" fill="#704a1d"/></g></g><path d="M566.75209,170.14432c0.00014,0.09256 0.00022,0.18512 0.00022,0.2777c0,114.85201 -110.47474,207.95796 -246.75225,207.95796c-136.2775,0 -246.75225,-93.10595 -246.75225,-207.95796c0,-114.85201 110.47475,-207.95796 246.75225,-207.95796c125.2106,0 228.63907,78.59795 244.6119,180.44548" fill="none" stroke-width="0"/><path d="M566.72565,170.23464c-1.9588,115.24167 -111.67141,208.14534 -246.72561,208.14534c-136.2775,0 -246.75225,-94.59431 -246.75225,-211.28231v-0.00001c0,-116.688 110.47475,-211.28231 246.75225,-211.28231c126.91774,0 231.45535,82.04672 245.21631,187.57545" fill="none" stroke-width="0"/><path d="M557.49295,201.1198c-19.06565,98.43364 -119.48121,173.51403 -240.49285,173.51403c-134.62065,0 -243.75225,-92.91711 -243.75225,-207.53617v-0.00001c0,-114.61906 109.1316,-207.53617 243.75225,-207.53617c124.22791,0 226.75038,79.12445 241.83951,181.41113" fill="none" stroke-width="0"/></g></g></svg>