<svg version="1.1" xmlns="http://www.w3.org/2000/svg" xmlns:xlink="http://www.w3.org/1999/xlink" width="702.09778" height="173.48137" viewBox="0,0,702.09778,173.48137"><g transform="translate(30.69614,-87.39454)"><g data-paper-data="{&quot;isPaintingLayer&quot;:true}" fill-rule="nonzero" stroke-linecap="butt" stroke-linejoin="miter" stroke-miterlimit="10" stroke-dasharray="" stroke-dashoffset="0" style="mix-blend-mode: normal"><g><path d="M-25.44614,242.62805v-93.71278c0,0 19.86954,-3.05533 26.78691,0.12685c13.88283,6.38639 85.25119,6.67913 85.25119,6.67913c0,0 -16.18899,-10.45944 -26.17425,-15.66204c-9.9163,-5.16665 -33.53194,-15.44644 -33.53194,-15.44644c0,0 32.26118,8.03275 70.37815,9.54287c23.60201,0.93506 40.87913,-7.44486 64.31086,-6.51657c17.43221,0.69064 40.97512,15.85406 68.70579,15.96234c21.90999,0.08553 31.88704,3.24446 47.7427,3.72534c8.61737,0.26137 -13.03873,-6.52834 -25.83564,-9.29339c-12.7969,-2.76505 -23.22748,-1.24179 -38.53361,-4.61496c-14.5104,-3.19782 -24.7337,-13.20442 -24.7337,-13.20442c0,0 34.335,7.48329 74.524,10.00623c29.25558,1.83655 53.89218,13.45607 70.43665,14.40357c17.06129,0.97708 48.22671,-6.59168 80.06915,-5.97942c18.51716,0.35602 102.08903,7.52353 102.08903,7.52353c0,0 -35.62226,-11.49936 -49.74488,-19.70039c-10.51982,-6.10891 -20.27375,-14.19966 -20.27375,-14.19966c0,0 21.68492,10.78835 59.57823,15.18259c27.28705,3.16427 75.9915,22.21202 75.9915,22.21202c0,0 -12.13948,-13.54189 -14.44895,-22.60583c-1.14585,-4.49701 -0.55382,-10.56781 0.33367,-15.54381c0.90129,-5.05334 2.1073,-8.97753 2.1073,-8.97753c0,0 12.33976,17.64651 20.40088,25.20661c6.59246,6.18274 34.8139,19.99978 34.8139,19.99978c0,0 -9.45955,-9.79683 -13.44181,-19.9231c-4.46221,-11.34666 -8.55234,-23.1069 -5.83392,-21.96103c9.69949,4.08856 59.92483,48.3453 59.92483,48.3453l-25.13988,88.42523c0,0 -27.68093,1.37189 -38.66182,1.07135c-8.65605,-0.23692 -21.92395,-2.72968 -21.92395,-2.72968c0,0 -2.7737,2.28558 -4.44785,4.87371c-1.63631,2.52961 -2.16433,5.34821 -2.97679,6.60423c-0.81723,1.26339 -1.83534,2.8373 -1.83534,2.8373c0,0 -7.41927,-0.8605 -17.93922,-7.72864c-6.7327,-4.39554 -10.76984,-12.01871 -10.76984,-12.01871c0,0 -74.0821,15.39637 -99.34398,14.00513c-15.87509,-0.8743 27.35257,-23.22772 14.51944,-22.77293c-31.59433,1.11968 -127.0158,19.72891 -167.71547,26.85798c-11.79358,2.06578 -12.99739,-0.44064 -6.16598,-2.23537c15.03939,-3.95105 39.88327,-10.73393 44.81085,-13.66785c5.26978,-3.13764 4.65111,-6.07343 4.65111,-6.07343c0,0 -49.31461,2.90602 -70.42265,5.50464c-25.89581,3.18806 -85.20277,13.26657 -85.20277,13.26657c0,0 5.26986,-4.97877 7.23084,-6.91858c1.9265,-1.9057 4.43342,-4.61973 4.43342,-4.61973l-30.96219,6.98789c0,0 18.3744,-7.49455 25.08096,-10.67899c5.42748,-2.57709 12.13924,-6.99401 12.13924,-6.99401c0,0 -124.2703,24.93349 -144.61758,28.8998c-7.04168,1.37265 -12.4561,-1.44004 -7.49385,-3.08925c6.51246,-2.16441 16.3064,-5.32591 26.7781,-8.3734c11.31914,-3.29415 35.40761,-7.1757 41.87604,-9.43626c13.68341,-4.78204 17.60543,-12.41897 17.60543,-12.41897c0,0 -33.68423,3.7395 -49.87221,6.50401c-17.09041,2.91865 -50.10986,10.57059 -50.10986,10.57059l5.88565,-17.27464z" fill="#cb2411" stroke="#000000" stroke-width="10.5"/><path d="M-25.44614,242.62805v-93.71278c0,0 19.86954,-3.05533 26.78691,0.12685c13.88283,6.38639 85.25119,6.67913 85.25119,6.67913c0,0 -16.18899,-10.45944 -26.17425,-15.66204c-9.9163,-5.16665 -33.53194,-15.44644 -33.53194,-15.44644c0,0 32.26118,8.03275 70.37815,9.54287c23.60201,0.93506 40.87913,-7.44486 64.31086,-6.51657c17.43221,0.69064 40.97512,15.85406 68.70579,15.96234c21.90999,0.08553 31.88704,3.24446 47.7427,3.72534c8.61737,0.26137 -13.03873,-6.52834 -25.83564,-9.29339c-12.7969,-2.76505 -23.22748,-1.24179 -38.53361,-4.61496c-14.5104,-3.19782 -24.7337,-13.20442 -24.7337,-13.20442c0,0 34.335,7.48329 74.524,10.00623c29.25558,1.83655 53.89218,13.45607 70.43665,14.40357c17.06129,0.97708 48.22671,-6.59168 80.06915,-5.97942c18.51716,0.35602 102.08903,7.52353 102.08903,7.52353c0,0 -35.62226,-11.49936 -49.74488,-19.70039c-10.51982,-6.10891 -20.27375,-14.19966 -20.27375,-14.19966c0,0 21.68492,10.78835 59.57823,15.18259c27.28705,3.16427 75.9915,22.21202 75.9915,22.21202c0,0 -12.13948,-13.54189 -14.44895,-22.60583c-1.14585,-4.49701 -0.55382,-10.56781 0.33367,-15.54381c0.90129,-5.05334 2.1073,-8.97753 2.1073,-8.97753c0,0 12.33976,17.64651 20.40088,25.20661c6.59246,6.18274 34.8139,19.99978 34.8139,19.99978c0,0 -9.45955,-9.79683 -13.44181,-19.9231c-4.46221,-11.34666 -8.55234,-23.1069 -5.83392,-21.96103c9.69949,4.08856 59.92483,48.3453 59.92483,48.3453l-25.13988,88.42523c0,0 -27.68093,1.37189 -38.66182,1.07135c-8.65605,-0.23692 -21.92395,-2.72968 -21.92395,-2.72968c0,0 -2.7737,2.28558 -4.44785,4.87371c-1.63631,2.52961 -2.16433,5.34821 -2.97679,6.60423c-0.81723,1.26339 -1.83534,2.8373 -1.83534,2.8373c0,0 -7.41927,-0.8605 -17.93922,-7.72864c-6.7327,-4.39554 -10.76984,-12.01871 -10.76984,-12.01871c0,0 -74.0821,15.39637 -99.34398,14.00513c-15.87509,-0.8743 27.35257,-23.22772 14.51944,-22.77293c-31.59433,1.11968 -127.0158,19.72891 -167.71547,26.85798c-11.79358,2.06578 -12.99739,-0.44064 -6.16598,-2.23537c15.03939,-3.95105 39.88327,-10.73393 44.81085,-13.66785c5.26978,-3.13764 4.65111,-6.07343 4.65111,-6.07343c0,0 -49.31461,2.90602 -70.42265,5.50464c-25.89581,3.18806 -85.20277,13.26657 -85.20277,13.26657c0,0 5.26986,-4.97877 7.23084,-6.91858c1.9265,-1.9057 4.43342,-4.61973 4.43342,-4.61973l-30.96219,6.98789c0,0 18.3744,-7.49455 25.08096,-10.67899c5.42748,-2.57709 12.13924,-6.99401 12.13924,-6.99401c0,0 -124.2703,24.93349 -144.61758,28.8998c-7.04168,1.37265 -12.4561,-1.44004 -7.49385,-3.08925c6.51246,-2.16441 16.3064,-5.32591 26.7781,-8.3734c11.31914,-3.29415 35.40761,-7.1757 41.87604,-9.43626c13.68341,-4.78204 17.60543,-12.41897 17.60543,-12.41897c0,0 -33.68423,3.7395 -49.87221,6.50401c-17.09041,2.91865 -50.10986,10.57059 -50.10986,10.57059l5.88565,-17.27464z" fill="#cb2411" stroke="#95392c" stroke-width="4.5"/><path d="M-25.44615,242.62805v-93.71278c0,0 19.86954,-3.05533 26.78691,0.12685c13.88283,6.38639 85.25119,6.67913 85.25119,6.67913c0,0 -16.18899,-10.45944 -26.17425,-15.66204c-9.9163,-5.16665 -33.53194,-15.44644 -33.53194,-15.44644c0,0 32.26118,8.03275 70.37815,9.54287c23.60201,0.93506 40.87913,-7.44486 64.31086,-6.51657c17.43221,0.69064 40.97512,15.85406 68.70579,15.96234c21.90999,0.08553 31.88704,3.24446 47.7427,3.72534c8.61737,0.26137 -13.03873,-6.52834 -25.83564,-9.29339c-12.7969,-2.76505 -23.22748,-1.24179 -38.53361,-4.61496c-14.5104,-3.19782 -24.7337,-13.20442 -24.7337,-13.20442c0,0 34.335,7.48329 74.524,10.00623c29.25558,1.83655 53.89218,13.45607 70.43665,14.40357c17.06129,0.97708 48.22671,-6.59168 80.06915,-5.97942c18.51716,0.35602 102.08903,7.52353 102.08903,7.52353c0,0 -35.62226,-11.49936 -49.74488,-19.70039c-10.51982,-6.10891 -20.27375,-14.19966 -20.27375,-14.19966c0,0 21.68492,10.78835 59.57823,15.18259c27.28705,3.16427 75.9915,22.21202 75.9915,22.21202c0,0 -12.13948,-13.54189 -14.44895,-22.60583c-1.14585,-4.49701 -0.55382,-10.56781 0.33367,-15.54381c0.90129,-5.05334 2.1073,-8.97753 2.1073,-8.97753c0,0 12.33976,17.64651 20.40088,25.20661c6.59246,6.18274 34.8139,19.99978 34.8139,19.99978c0,0 -9.45955,-9.79683 -13.44181,-19.9231c-4.46221,-11.34666 -8.55234,-23.1069 -5.83392,-21.96103c9.69949,4.08856 59.92483,48.3453 59.92483,48.3453l-25.13988,88.42523c0,0 -27.68093,1.37189 -38.66183,1.07135c-8.65605,-0.23692 -21.92395,-2.72968 -21.92395,-2.72968c0,0 -2.7737,2.28558 -4.44785,4.87371c-1.63631,2.52961 -2.16433,5.34821 -2.97679,6.60423c-0.81724,1.26339 -1.83534,2.8373 -1.83534,2.8373c0,0 -7.41925,-0.8605 -17.93922,-7.72864c-6.73269,-4.39554 -10.76984,-12.01871 -10.76984,-12.01871c0,0 -74.0821,15.39637 -99.34398,14.00513c-15.87509,-0.8743 27.35257,-23.22772 14.51944,-22.77293c-31.59433,1.11968 -127.0158,19.72891 -167.71547,26.85798c-11.79358,2.06578 -12.99739,-0.44064 -6.16598,-2.23537c15.03939,-3.95105 39.88327,-10.73393 44.81085,-13.66785c5.26978,-3.13764 4.65111,-6.07343 4.65111,-6.07343c0,0 -49.31461,2.90602 -70.42265,5.50464c-25.89581,3.18806 -85.20277,13.26657 -85.20277,13.26657c0,0 5.26986,-4.97877 7.23084,-6.91858c1.9265,-1.9057 4.43342,-4.61973 4.43342,-4.61973l-30.96219,6.98789c0,0 18.3744,-7.49455 25.08096,-10.67899c5.42748,-2.57709 12.13924,-6.99401 12.13924,-6.99401c0,0 -124.2703,24.93349 -144.61758,28.8998c-7.04168,1.37265 -12.4561,-1.44004 -7.49385,-3.08925c6.51246,-2.16441 16.3064,-5.32591 26.7781,-8.3734c11.31914,-3.29413 35.40761,-7.1757 41.87604,-9.43626c13.68341,-4.78204 17.60543,-12.41897 17.60543,-12.41897c0,0 -33.68423,3.7395 -49.87221,6.50401c-17.09041,2.91865 -50.10986,10.57059 -50.10986,10.57059l5.88565,-17.27464z" fill="#cb2411" stroke="none" stroke-width="0"/><path d="M0.07229,219.99644l-0.52241,-44.22595c0,0 -2.41294,-4.29366 1.94808,-4.79587c10.06945,-1.15959 31.42508,-0.22514 51.17171,-1.09252c18.59024,-0.8166 35.68889,-3.4668 42.65148,-3.5661c8.76964,-0.125 19.64368,0.44083 19.64368,0.44083c0,0 -1.06632,-2.43054 -2.30349,-3.69802c-1.35167,-1.38482 -5.49351,-4.29004 -5.49351,-4.29004c0,0 8.13248,-0.07146 11.77961,0.13388c3.0896,0.17394 11.43443,1.71315 11.43443,1.71315l-8.05971,-8.26686c0,0 69.69229,15.5813 98.90249,15.23629c1.58127,-0.01866 -11.54763,-2.13855 -22.20911,-5.25656c-4.26132,-1.24624 -11.49151,-3.31545 -14.21231,-4.71091c-3.36004,-1.72331 -1.56309,-2.62716 0.5831,-2.17745c1.07217,0.22465 37.11753,10.75211 72.22701,15.66851c14.64107,2.05021 29.10094,1.1964 40.18211,1.09769c16.92238,-0.1507 27.12559,3.45069 38.64656,2.83525c1.72071,-0.09193 -7.98499,-2.11714 -21.04467,-3.89482c-8.91761,-1.21386 -19.98716,-1.99505 -27.73321,-3.21646c-3.37246,-0.53178 -6.18806,-1.19564 -8.32521,-1.78909c-2.99104,-0.8306 -6.63228,-1.44909 -3.99853,-1.59097c4.03196,-0.21722 37.27716,-0.74442 55.83742,-1.74443c18.58037,-1.00104 95.19424,6.70658 121.15766,7.40137c23.07489,0.61748 55.83704,0.49782 55.83704,0.49782c0,0 -54.85974,-6.71152 -48.61693,-8.20216c0.79968,-0.19095 5.25097,-0.39431 3.49848,-1.52575c-2.82796,-1.82576 -11.03121,-2.6565 -17.44908,-5.37846c-4.70886,-1.99711 -9.03484,-4.42963 -12.19809,-6.37345c-3.21027,-1.97271 -2.33592,-3.42903 1.31649,-3.41257c5.96951,0.02691 80.86256,23.47915 126.24265,20.44597c13.45127,-0.89909 -16.65422,-9.2302 -16.65422,-9.2302c0,0 36.97227,4.47119 53.98942,5.25479c14.99416,0.69046 42.81464,-0.79717 42.81464,-0.79717l-0.01136,48.05849c0,0 -47.10778,3.49452 -64.23678,5.76323c-24.69791,3.2712 -83.98771,13.02888 -83.98771,13.02888c0,0 11.32081,-7.33724 21.15533,-11.08599c9.83452,-3.74873 26.72221,-7.16409 26.72221,-7.16409c0,0 -38.4922,2.2784 -59.04114,3.77419c-22.44646,1.63394 -70.44849,5.65161 -70.44849,5.65161c0,0 3.19854,-3.23999 4.37899,-4.73932c1.06607,-1.35404 2.39565,-3.86534 2.39565,-3.86534c0,0 -52.79425,2.4636 -97.40212,6.50495c-43.7577,3.96434 -98.67549,8.98259 -108.62131,9.15955c-8.84089,0.15727 0.92506,-8.617 0.92506,-8.617l-40.01799,5.56042c0,0 4.33341,-3.72665 5.13131,-5.43266c0.71054,-1.51925 -0.57554,-4.30824 -0.57554,-4.30824c0,0 -57.11,-0.22764 -93.46233,1.04717c-36.35232,1.27482 -83.94735,5.1743 -83.94735,5.1743z" data-paper-data="{&quot;index&quot;:null}" fill="#eec0b1" stroke="none" stroke-width="0"/></g></g></g></svg>