<svg version="1.1" xmlns="http://www.w3.org/2000/svg" xmlns:xlink="http://www.w3.org/1999/xlink" width="415.36965" height="414.57192" viewBox="0,0,415.36965,414.57192"><defs><linearGradient x1="320.00001" y1="180.00003" x2="320.00001" y2="180.00003" gradientUnits="userSpaceOnUse" id="color-1"><stop offset="0" stop-color="#e7bc52"/><stop offset="1" stop-color="#efd85e"/></linearGradient><linearGradient x1="320.00001" y1="180.00003" x2="320.00001" y2="180.00003" gradientUnits="userSpaceOnUse" id="color-2"><stop offset="0" stop-color="#efd85e" stop-opacity="0"/><stop offset="1" stop-color="#efd85e" stop-opacity="0"/></linearGradient></defs><g transform="translate(-118.53415,81.03224)"><g stroke-miterlimit="10"><path d="" fill="url(#color-1)" stroke="#000000" stroke-width="15" stroke-linecap="butt"/><path d="" fill="#e7bc52" stroke="none" stroke-width="0" stroke-linecap="butt"/><path d="" fill="url(#color-2)" stroke="#000000" stroke-width="15" stroke-linecap="butt"/><g fill="none" stroke="#392f0e" stroke-width="5" stroke-linecap="round"><path d=""/><path d=""/><path d=""/></g><path d="M152.09312,114.57409v-195.60633h284.37237v195.60633z" fill="none" stroke="none" stroke-width="NaN" stroke-linecap="butt"/><path d="M220.80816,46.91031c0.93751,-3.79336 13.50804,-25.94558 19.1628,-36.79368c9.13637,-17.52721 23.98564,-19.84253 44.13152,-28.6528c2.65481,-1.16101 -19.05567,-22.81408 5.58606,-31.06285c23.78093,-7.96061 13.90221,23.01803 16.56528,22.09002c28.95743,-9.39079 55.20826,-8.67391 62.14318,-0.52924c14.29226,16.78546 28.26363,13.62184 34.19913,18.54351c6.2544,4.62136 -34.02424,32.74713 -79.6132,48.84232c-47.37712,16.72651 -102.27425,14.52253 -102.17476,7.56271z" fill="#00ffff" stroke="#000000" stroke-width="10" stroke-linecap="butt"/><path d="M317.33592,-16.34545c0,0 -5.61801,-2.7631 -7.84178,-4.31858c-2.12965,-1.48964 -5.23069,-4.82532 -5.23069,-4.82532" fill="none" stroke="#000000" stroke-width="5" stroke-linecap="round"/><path d="M286.89393,-18.31169c0,0 -0.50472,4.62194 -1.27471,6.96411c-0.79508,2.41847 -4.42172,7.2767 -4.42172,7.2767" fill="none" stroke="#000000" stroke-width="5" stroke-linecap="round"/><path d="M296.3887,2.67282l6.63767,-2.68166" fill="none" stroke="#000000" stroke-width="5" stroke-linecap="round"/><g stroke="#000000" stroke-width="10"><path d="M141.13158,170.40452c-2,20.26297 11.00205,17.0118 17.98348,41.9985c5.04951,18.07229 -37.94061,-0.24093 -35.47898,-50.0015c1.40437,-29.14084 42.1035,-38.56803 40.47898,-29.9985c-4.37217,23.06377 -20.0109,15.39239 -22.98348,38.0015z" fill="#00ffff" stroke-linecap="butt"/><path d="M326.18679,328.12222c-20.36299,0.94543 -92.37674,1.96607 -142.0098,-17.36046c-29.88291,-11.63606 -45.90962,-34.47675 -53.87319,-58.34563c-1.7144,-28.42643 21.23899,-28.99704 21.64936,-36.84329c9.40503,-36.21407 14.12276,-75.34283 20.34556,-84.56015c1.42239,-0.41292 32.58889,27.67876 141.12091,26.96011c91.28106,-0.60442 138.15868,-25.54992 141.55604,-27.64323c9.05741,-5.58079 51.06975,-48.5646 61.31618,-35.89826c-6.80689,21.01176 -0.91897,27.22895 4.40177,44.40776c-21.94261,11.52373 -36.45743,13.01078 -37.7674,29.91605c-3.20177,52.32894 17.73437,38.62804 17.72329,72.60585c-0.005,15.33529 -12.69623,44.9872 -44.69285,61.38636c-38.89709,19.93585 -100.58459,25.30861 -129.76986,25.37489z" fill="#00ffff" stroke-linecap="butt"/><path d="M520.444,139.44318c-5.24381,0.13211 -9.95596,-10.27126 -10.5249,-23.23657c-0.56893,-12.96531 3.2208,-23.58286 8.46461,-23.71497c5.24381,-0.13211 9.95596,10.27126 10.5249,23.23657c0.56893,12.96531 -3.2208,23.58286 -8.46461,23.71497z" fill="#009999" stroke-linecap="butt"/><path d="M482.74288,194.24279c0,0 -2.77884,15.54794 -6.33553,22.40727c-3.44687,6.64755 -22.193,18.13327 -22.193,18.13327" fill="none" stroke-linecap="round"/><path d="M453.70834,126.67522c0,0 -5.30473,-0.53824 -8.07615,-0.90691c-1.79485,-0.23877 -6.93586,-1.09008 -6.93586,-1.09008" fill="none" stroke-linecap="round"/><path d="M173.1263,129.63333l10.66667,-2.66666" fill="none" stroke-linecap="round"/></g></g></g></svg>