<svg version="1.1" xmlns="http://www.w3.org/2000/svg" xmlns:xlink="http://www.w3.org/1999/xlink" width="433.03922" height="454.22114" viewBox="0,0,433.03922,454.22114"><g transform="translate(-103.07679,46.72113)"><g stroke-miterlimit="10"><g><path d="M104.07679,400.63032c0,-50.83555 0,-415.34615 0,-441.50258c0,-2.92777 2.09192,-4.84887 5.23167,-4.84887c26.24607,0 369.4293,0 419.68266,0c3.98212,0 6.12489,2.23167 6.12489,6.38009c0,52.53064 0,412.40614 0,440.22656c0,3.36563 -1.96003,5.61449 -5.61448,5.61449c-48.45321,0 -394.77435,0 -419.93785,0c-2.84782,0 -5.48688,-2.04885 -5.48688,-5.86969z" fill="#000000" stroke="#ffffff" stroke-width="2" stroke-linecap="butt"/><path d="M108.34259,396.25c0,-49.79898 0,-406.87692 0,-432.5c0,-2.86807 2.04926,-4.75 5.125,-4.75c25.71089,0 361.89635,0 411.125,0c3.90092,0 6,2.18617 6,6.25c0,51.4595 0,403.99686 0,431.25c0,3.297 -1.92006,5.5 -5.5,5.5c-47.46521,0 -386.7246,0 -411.375,0c-2.78975,0 -5.375,-2.00707 -5.375,-5.75z" fill="#000000" stroke="#ffffff" stroke-width="1.5" stroke-linecap="butt"/><path d="M273.41667,-9.91666c-0.33333,-8.46565 0,9.62308 0,-16c0,-2.86808 2.04926,-4.75 5.125,-4.75c25.71089,0 31.89635,0 81.125,0c3.90092,0 6,2.18617 6,6.25c0,10.12617 0,-12.50314 0,14.75c0,3.297 -1.92006,5.5 -5.5,5.5c-47.46521,0 -56.7246,0 -81.375,0c-2.78975,0 -5.22773,-2.00997 -5.375,-5.75z" fill="#000000" stroke="#ffffff" stroke-width="2" stroke-linecap="butt"/><path d="M380.91667,-9.41666c-0.33333,-8.46565 0,9.62308 0,-16c0,-2.86808 2.04926,-4.75 5.125,-4.75c25.71089,0 31.89635,0 81.125,0c3.90092,0 6,2.18617 6,6.25c0,10.12617 0,-12.50314 0,14.75c0,3.297 -1.92006,5.5 -5.5,5.5c-47.46521,0 -56.7246,0 -81.375,0c-2.78975,0 -5.22773,-2.00997 -5.375,-5.75z" fill="#000000" stroke="#4e4e4e" stroke-width="2" stroke-linecap="butt"/><path d="M166.41667,-10.41667c-0.33333,-8.46565 0,9.62308 0,-16c0,-2.86808 2.04926,-4.75 5.125,-4.75c25.71089,0 31.89635,0 81.125,0c3.90092,0 6,2.18617 6,6.25c0,10.12617 0,-12.50314 0,14.75c0,3.297 -1.92006,5.5 -5.5,5.5c-47.46521,0 -56.7246,0 -81.375,0c-2.78975,0 -5.22773,-2.00997 -5.375,-5.75z" fill="#000000" stroke="#4e4e4e" stroke-width="2" stroke-linecap="butt"/><text transform="translate(198.13426,-11.51906) scale(0.325,0.325)" font-size="40" xml:space="preserve" fill="#ffffff" stroke="none" stroke-width="1" stroke-linecap="butt" font-family="Sans Serif" font-weight="normal" text-anchor="start"><tspan x="0" dy="0">一般</tspan></text><text transform="translate(306.13426,-11.8524) scale(0.325,0.325)" font-size="40" xml:space="preserve" fill="#ffffff" stroke="none" stroke-width="1" stroke-linecap="butt" font-family="Sans Serif" font-weight="normal" text-anchor="start"><tspan x="0" dy="0">图像</tspan></text><text transform="translate(413.80093,-11.51906) scale(0.325,0.325)" font-size="40" xml:space="preserve" fill="#ffffff" stroke="none" stroke-width="1" stroke-linecap="butt" font-family="Sans Serif" font-weight="normal" text-anchor="start"><tspan x="0" dy="0">数据</tspan></text><text transform="translate(151.13362,63.78208) scale(0.40888,0.40888)" font-size="40" xml:space="preserve" fill="#ffffff" stroke="none" stroke-width="1" stroke-linecap="butt" font-family="Sans Serif" font-weight="normal" text-anchor="start"><tspan x="0" dy="0">分辨率</tspan></text><path d="M247.5,59.5h235.5" fill="none" stroke="#ffffff" stroke-width="3.5" stroke-linecap="round"/><text transform="translate(267.66667,96.33333) scale(0.5,0.5)" font-size="40" xml:space="preserve" fill="#ffffff" stroke="none" stroke-width="1" stroke-linecap="butt" font-family="Sans Serif" font-weight="normal" text-anchor="start"><tspan x="0" dy="0">2560x1440</tspan></text><path d="M202.75,140.75c-0.33333,-8.46565 0,7.95641 0,-17.66667c0,-2.86808 2.04926,-4.75 5.125,-4.75c25.71089,0 173.22968,0 222.45833,0c3.90092,0 6,2.18617 6,6.25c0,10.12617 0,-10.83647 0,16.41667c0,3.297 -1.92006,5.5 -5.5,5.5c-47.46521,0 -198.05793,0 -222.70833,0c-2.78975,0 -5.22773,-2.00997 -5.375,-5.75z" fill="#000000" stroke="#2bec4b" stroke-width="3" stroke-linecap="butt"/><path d="M202.13905,185.75001c-0.33333,-8.46565 0,7.95641 0,-17.66667c0,-2.86808 2.04926,-4.75 5.125,-4.75c25.71089,0 173.22968,0 222.45833,0c3.90092,0 6,2.18617 6,6.25c0,10.12617 0,-10.83647 0,16.41667c0,3.297 -1.92006,5.5 -5.5,5.5c-47.46521,0 -198.05793,0 -222.70833,0c-2.78975,0 -5.22773,-2.00997 -5.375,-5.75z" fill="#000000" stroke="#2bec4b" stroke-width="3" stroke-linecap="butt"/><path d="M202.13905,229.41667c-0.33333,-8.46565 0,7.95641 0,-17.66667c0,-2.86808 2.04926,-4.75 5.125,-4.75c25.71089,0 173.22968,0 222.45833,0c3.90092,0 6,2.18617 6,6.25c0,10.12617 0,-10.83647 0,16.41667c0,3.297 -1.92006,5.5 -5.5,5.5c-47.46521,0 -198.05793,0 -222.70833,0c-2.78975,0 -5.22773,-2.00997 -5.375,-5.75z" fill="#000000" stroke="#ffffff" stroke-width="3" stroke-linecap="butt"/><text transform="translate(273.75334,227.57323) scale(0.40888,0.40888)" font-size="40" xml:space="preserve" fill="#ffffff" stroke="none" stroke-width="1" stroke-linecap="butt" font-family="Sans Serif" font-weight="normal" text-anchor="start"><tspan x="0" dy="0">画面晃动: 关</tspan></text><text transform="translate(274.75334,184.2399) scale(0.40888,0.40888)" font-size="40" xml:space="preserve" fill="#ffffff" stroke="none" stroke-width="1" stroke-linecap="butt" font-family="Sans Serif" font-weight="normal" text-anchor="start"><tspan x="0" dy="0">垂直同步: 开</tspan></text><text transform="translate(290.57614,138.98989) scale(0.40888,0.40888)" font-size="40" xml:space="preserve" fill="#ffffff" stroke="none" stroke-width="1" stroke-linecap="butt" font-family="Sans Serif" font-weight="normal" text-anchor="start"><tspan x="0" dy="0">全屏: 开</tspan></text><path d="M261.41667,336.08334c-0.33333,-8.46565 0,7.95641 0,-17.66667c0,-2.86808 2.04926,-4.75 5.125,-4.75c25.71089,0 55.56302,0 104.79167,0c3.90092,0 6,2.18617 6,6.25c0,10.12617 0,-10.83647 0,16.41667c0,3.297 -1.92006,5.5 -5.5,5.5c-47.46521,0 -80.39127,0 -105.04167,0c-2.78975,0 -5.22773,-2.00997 -5.375,-5.75z" fill="#000000" stroke="#2bec4b" stroke-width="3" stroke-linecap="butt"/><text transform="translate(302.94573,334.65657) scale(0.40888,0.40888)" font-size="40" xml:space="preserve" fill="#ffffff" stroke="none" stroke-width="1" stroke-linecap="butt" font-family="Sans Serif" font-weight="normal" text-anchor="start"><tspan x="0" dy="0">应用</tspan></text></g></g></g></svg>