<svg version="1.1" xmlns="http://www.w3.org/2000/svg" xmlns:xlink="http://www.w3.org/1999/xlink" width="493.50454" height="422.56463" viewBox="0,0,493.50454,422.56463"><g transform="translate(-73.24779,44.18464)"><g stroke="none" stroke-miterlimit="10"><path d="M427.10017,45.63021c0.20568,1.37507 5.67184,54.51375 6.70092,55.00691c1.2884,0.61743 0.63994,35.05948 -1.75521,63.66291c-1.58479,18.92598 -5.45189,36.05459 -4.58336,36.41468c19.58413,8.11945 39.49599,19.20323 46.38547,29.71872c5.33197,8.13827 8.72516,15.53192 9.46562,21.79473c2.80205,23.69962 -32.61249,41.97889 -37.87391,43.28269c-6.33764,1.57047 -14.36287,2.9317 -21.67725,0.07913c-8.89222,-3.46795 -16.84586,-10.35896 -24.85209,-16.45759c-14.07267,-10.71966 -26.19255,-21.1064 -28.72295,-21.28695c-8.44994,-0.6029 -52.32063,2.52362 -56.65718,4.1816c-5.46909,2.09101 -10.32209,12.98553 -16.06909,16.46435c-15.58646,9.43489 -31.31509,13.64777 -34.89783,14.24661c-47.04721,7.86376 -70.24717,-30.76845 -75.40681,-35.8067c-10.77085,-10.51743 -2.64953,-33.5546 8.10216,-48.1656c5.74872,-7.8122 13.04803,-10.78752 13.04803,-10.78752c0,0 -26.69573,-9.62591 -24.9482,-77.80796c0.47698,-18.60997 1.95841,-50.60411 6.69499,-78.61916c2.04807,-8.92144 1.86728,-18.3035 17.95279,-26.53975c13.21104,-6.76446 46.4932,-5.61175 46.4932,-5.61175c0,0 1.20715,-3.58184 1.86332,-4.53224c12.21824,-17.69741 36.45614,-30.8642 65.09124,-30.8642c41.38824,0 97.88525,19.74567 105.64612,71.62708z" fill="#0c0d20" stroke-width="0"/><g stroke-width="0"><path d="M205.84449,45.14087c1.77122,-16.35033 18.41392,-17.16966 19.69895,-17.22312c6.16779,-0.25661 20.55241,0.2238 20.55241,0.2238c0,0 -2.80968,7.41231 -4.68927,17.42934c-2.79203,14.87982 -5.11219,35.86651 -5.90891,49.75048c-0.73303,12.77326 -1.7228,33.44744 -1.15748,50.86457c0.64717,19.93789 1.60446,36.52596 1.60446,36.52596c0,0 -11.4926,0.65071 -16.29291,-0.02282c-1.4747,-0.20691 -12.42378,-4.90608 -16.02298,-26.1345c-5.13618,-30.29368 -1.36635,-78.34708 2.21573,-111.41374z" fill="#2d198a"/><path d="M205.84449,45.14087c1.77122,-16.35033 18.41392,-17.16966 19.69895,-17.22312c6.16779,-0.25661 20.55241,0.2238 20.55241,0.2238c0,0 -2.80968,7.41231 -4.68927,17.42934c-0.19338,1.03061 -0.573,3.17534 -0.573,3.17534c0,0 -9.16605,-2.44343 -19.20791,-1.36855c-5.73838,0.61422 -16.47268,4.32528 -16.47268,4.32528c0,0 0.46099,-4.43391 0.69155,-6.56213z" fill="#6c30b1"/></g><path d="M285.45995,4.91591c13.02205,-7.26024 25.07022,-11.23937 43.68695,-10.69852c38.45883,1.11732 65.72459,20.9023 77.51259,48.62985c17.67485,41.57449 9.1045,79.94843 7.92349,112.25296c-0.43126,11.79648 -0.93394,54.63362 -37.69617,80.74703c-18.13736,12.88357 -35.10611,13.14062 -64.7736,12.26985c-13.19486,-0.38727 -16.86634,12.31208 -31.94971,20.15241c-9.88809,5.13982 -19.15937,6.78923 -30.10687,7.28908c-13.1205,0.59905 -25.82137,-6.58095 -35.27296,-14.57795c-7.95696,-6.7324 -13.61102,-13.82655 -15.27392,-19.51041c-0.61006,-2.08523 1.28429,-7.36264 5.60991,-14.65656c4.25957,-7.18256 10.87673,-16.39582 19.78164,-16.79618c5.21595,-0.2345 13.06143,2.64727 19.648,7.33651c3.93676,2.80273 5.17903,9.29015 8.56357,12.16282c5.00042,4.24417 11.73617,4.42116 14.79651,4.3027c3.73303,0.04885 1.61908,-1.80616 -1.50424,-6.98453c-1.1275,-1.86936 -2.17035,-4.60431 -3.42156,-7.23024c-4.22617,-8.86952 -8.59527,-22.61371 -10.08893,-38.08644c-1.75344,-18.16374 -1.93574,-66.14798 2.84076,-105.65472c2.75235,-22.76498 7.06982,-43.04356 14.13961,-55.8561c4.69333,-8.50573 12.12928,-13.16486 15.58495,-15.09152z" fill="#2d198a" stroke-width="NaN"/><path d="M285.45995,4.91591c13.02205,-7.26024 25.07022,-11.23937 43.68695,-10.69852c38.45883,1.11732 65.72459,20.9023 77.51259,48.62985c17.67485,41.57449 9.1045,79.94843 7.92349,112.25296c-0.09939,2.71898 -7.34643,35.03307 -37.24467,47.33743c-7.95448,3.2736 -19.22378,2.60647 -30.41112,2.26585c-19.78793,-0.60248 -40.2772,-4.01416 -48.55037,-10.13797c-19.69406,-14.57762 -25.82864,-65.43326 -28.27554,-107.89279c-1.19518,-20.73927 -0.31143,-43.39694 4.22795,-60.13526c3.05755,-11.27424 9.7399,-20.84613 11.1307,-21.62155z" fill="#6c30b1" stroke-width="NaN"/><g><path d="M303.24136,47.45419c14.54992,-14.85924 32.05203,-18.79255 38.06646,-19.30652c20.78975,-1.77665 53.76454,-1.46421 74.06118,3.03893c5.15539,1.1438 21.81717,8.16489 27.4002,20.04706c4.27299,9.09406 20.36983,39.18279 -3.35282,66.66181c-25.04278,29.00818 -93.61829,22.70387 -113.21742,18.11794c-8.74507,-2.47697 -24.30453,-12.56935 -29.5865,-30.07109c-6.38245,-21.14825 -1.04835,-50.64771 6.62885,-58.48813z" fill="#10293a" stroke-width="0"/><g><path d="M311.83583,88.76658c0,-8.65505 -3.96484,-28.37368 14.41093,-37.42305c15.63578,-7.70002 52.99552,-5.58305 63.29876,-4.76346c11.57686,0.9209 24.38947,2.89669 32.62994,7.63198c9.7942,5.62812 12.15061,32.32688 11.28756,36.86181c-7.25148,38.10361 -79.27306,30.9836 -93.28047,27.35787c-15.15598,-3.92303 -28.34673,-13.64564 -28.34673,-29.66518z" fill="#4a7b9c" stroke-width="0"/><path d="M334.01653,84.33193c-19.26408,-9.89159 -5.63256,-33.93304 -5.18968,-34.10077c16.82951,-6.37319 50.9457,-4.42853 60.71867,-3.6511c11.57686,0.9209 24.38947,2.89669 32.62994,7.63198c3.9322,2.25959 6.66551,7.91551 8.47292,14.16987c0.71562,2.47635 2.88817,21.03781 -9.31512,24.87909c-17.37759,5.47003 -49.54307,10.46669 -87.31674,-8.92907z" fill="#8cc5de" stroke-width="0"/><path d="M412.56942,51.74273c5.28166,1.93406 13.47008,5.65228 11.78807,12.40143c-3.55716,14.2734 -19.33279,6.21872 -30.30904,4.33912c-1.76919,-0.30295 -9.99384,-0.40605 -15.01325,-3.19324c-3.2252,-1.7909 -4.26812,-6.19318 -4.26812,-7.49304c0,-4.89188 3.96564,-8.85753 8.85753,-8.85753c0.14191,0 7.26194,-0.30857 14.45177,0.19562c5.70918,0.40036 11.32726,1.44834 14.49304,2.60758z" fill="#ffffff" stroke-width="0.5"/></g></g><path d="M417.85539,219.34122c9.09864,-0.34707 11.27634,0.12712 15.60911,2.53909c5.29739,2.94892 12.12524,8.3966 17.74495,13.83645c5.69222,5.51004 9.87898,9.27234 12.03327,12.53227c1.71049,2.58836 2.06539,4.9343 1.40419,7.05791c-3.73197,11.98631 -19.40658,23.19923 -22.29151,23.68736c-3.34829,0.56655 -8.56041,0.84834 -11.94181,0.21688c-8.74517,-1.63309 -18.05468,-12.58106 -24.84104,-18.09387c-5.55235,-4.51037 -9.37478,-7.87899 -12.02847,-9.62251c-2.11168,-1.3874 -3.63074,-1.59825 -3.63074,-1.59825c0,0 9.11222,-6.65016 16.88133,-15.28171c5.62025,-6.24415 10.44179,-15.24999 11.06069,-15.27361z" fill="#2d198a" stroke-width="0"/><path d="M566.75211,170.14433c0.00014,0.09256 0.00022,0.18512 0.00022,0.2777c0,114.85201 -110.47474,207.95796 -246.75225,207.95796c-136.2775,0 -246.75225,-93.10595 -246.75225,-207.95796c0,-114.85201 110.47475,-207.95796 246.75225,-207.95796c125.2106,0 228.63907,78.59795 244.6119,180.44548" fill="none" stroke-width="0"/><path d="M566.72565,170.23465c-1.9588,115.24167 -111.67141,208.14534 -246.72561,208.14534c-136.2775,0 -246.75225,-94.59431 -246.75225,-211.28231v-0.00001c0,-116.688 110.47475,-211.28231 246.75225,-211.28231c126.91774,0 231.45535,82.04672 245.21631,187.57545" fill="none" stroke-width="0"/><path d="M557.49297,201.11981c-19.06565,98.43364 -119.48121,173.51403 -240.49285,173.51403c-134.62065,0 -243.75225,-92.91711 -243.75225,-207.53617v-0.00001c0,-114.61906 109.1316,-207.53617 243.75225,-207.53617c124.22791,0 226.75038,79.12445 241.83951,181.41113" fill="none" stroke-width="0"/></g></g></svg>