<svg version="1.1" xmlns="http://www.w3.org/2000/svg" xmlns:xlink="http://www.w3.org/1999/xlink" width="315.3003" height="315.30025" viewBox="0,0,315.3003,315.30025"><g transform="translate(-162.34985,-22.3499)"><g stroke-miterlimit="10"><path d="M169.84985,270.23519c0,-59.99896 0,-148.11906 0,-181.81815c0,-26.16557 22.73163,-58.56714 54.69562,-58.56714c60.91162,0 155.35022,0 189.899,0c25.1397,0 55.70568,31.10369 55.70568,56.54696c0,34.37139 0,127.20919 0,187.87876c0,32.57375 -30.56593,55.87453 -55.70568,55.87453c-33.79375,0 -124.88841,0 -185.85858,0c-34.07175,0 -58.73599,-25.26921 -58.73599,-59.91496z" fill="#8fb5b5" stroke="#6b999a" stroke-width="15" stroke-linecap="butt"/><g><path d="M301.28818,246.71196l0.37644,-89.59201l102.95552,-10.54024l-3.76437,77.16958z" fill="#de9659" stroke="none" stroke-width="0" stroke-linecap="butt"/><path d="M399.45777,139.38033c0,0 -1.47683,-7.67557 -1.15138,-13.27074c0.1042,-1.79141 -0.88751,-6.29677 -0.30618,-7.34147c1.61721,-2.90628 6.02893,-4.55639 6.02893,-4.55639l10.37836,1.64655l-4.89367,24.65662z" fill="#e9d092" stroke="none" stroke-width="0" stroke-linecap="butt"/><path d="M417.23077,136.14405v-10.72845l14.49283,4.51724l0.56465,6.21121z" fill="#69371f" stroke="none" stroke-width="0" stroke-linecap="butt"/><path d="M299.97065,245.77085l0.75288,-14.86926c0,0 5.95872,5.47958 10.5812,6.37648c6.98494,1.35529 26.49784,2.28157 26.49784,2.28157l-21.26869,6.21121z" fill="#b55e36" stroke="none" stroke-width="0" stroke-linecap="butt"/><path d="M329.70917,197.3987c0,0 -5.20861,-11.10276 -8.77752,-16.86568c-4.0293,-6.50634 -14.18514,-20.21337 -14.18514,-20.21337l94.6739,12.04599v18.44541c0,0 -11.18174,-2.29024 -22.5598,-0.40524c-5.31436,0.88043 -11.26018,6.35065 -15.05895,6.69961c-11.97165,1.09976 -34.09247,0.29326 -34.09247,0.29326z" fill="#b55e36" stroke="none" stroke-width="0" stroke-linecap="butt"/><path d="M340.2494,182.48762l-24.09197,-26.72702l90.34487,-12.04599l19.57472,20.70403c0,0 -6.44188,2.73625 -7.29982,2.87923c-6.19784,1.03297 -78.52781,15.18974 -78.52781,15.18974z" fill="#e9d092" stroke="none" stroke-width="0" stroke-linecap="butt"/><path d="M231.17679,221.09192l2.63506,-77.16958l68.51154,12.79885l-5.64655,89.21556z" fill="#bc6332" stroke="none" stroke-width="0" stroke-linecap="butt"/><path d="M232.68254,202.14459c0,0 -3.32453,-12.65602 -3.40521,-20.83769c-0.11561,-11.72299 2.77782,-42.78016 2.77782,-42.78016c0,0 -19.33075,-21.43894 -18.20748,-21.17778c4.59219,1.06766 35.00848,-5.72609 53.0274,2.54658c20.48377,9.40432 28.76087,34.02437 33.12307,35.66536c2.63227,0.99021 0.1921,7.68521 0.1921,7.68521c0,0 -20.6769,16.07954 -20.29156,17.02771c1.51208,3.72065 5.08159,6.33257 4.93973,8.83273c-0.38015,6.70026 -8.61467,16.55145 -8.61467,16.55145c0,0 -18.3322,-3.21321 -26.4305,-5.55331c-5.55869,-1.60625 -0.12424,-2.80112 -5.34533,-2.26309c-4.00463,0.41266 -6.21322,5.86431 -7.74849,5.95949c-1.87953,0.11652 -4.01689,-1.6565 -4.01689,-1.6565z" fill="#a94b23" stroke="none" stroke-width="0" stroke-linecap="butt"/><path d="M245.29318,199.72913c0,0 -19.27966,-16.83344 -20.70403,-18.06898c-0.306,-0.26543 7.1523,-9.41093 7.1523,-9.41093l-1.12931,-30.11495c0,0 -29.3633,-32.51997 -28.23277,-31.62071c0.52759,0.41966 22.52922,5.74512 33.50222,7.53286c11.34955,1.84908 34.63288,1.50163 34.63288,1.50163l30.4914,34.6322l12.79885,2.63506c0,0 8.02605,5.3884 11.14146,9.00778c4.72622,5.49076 14.45625,20.73074 14.45625,20.73074l29.73852,-7.52874" fill="none" stroke="#311108" stroke-width="10" stroke-linecap="round"/><path d="M312.6754,153.80381l94.10924,-11.66954l26.35059,27.10346l-50.81899,6.77586" fill="none" stroke="#311108" stroke-width="10" stroke-linecap="round"/><path d="M407.16108,115.03081l13.55173,7.90518c0,0 -6.76214,6.00304 -8.82979,9.01053c-2.07314,3.01548 -3.59262,9.05845 -3.59262,9.05845" fill="none" stroke="#311108" stroke-width="10" stroke-linecap="round"/><path d="M404.52602,176.76647c0,0 0.47225,48.74569 0,48.56038c-63.43388,16.78718 -99.88756,25.12807 -105.02592,24.09197c-15.95945,-0.85047 -68.88797,-28.98565 -68.88797,-28.98565l0.75288,-16.18679l-3.76437,-6.39943l1.50575,-3.38793" fill="none" stroke="#311108" stroke-width="10" stroke-linecap="round"/><path d="M302.13516,157.56819l-3.38793,86.58051" fill="none" stroke="#311108" stroke-width="9" stroke-linecap="round"/><path d="M231.36501,137.61702l66.25291,16.56323" fill="none" stroke="#311108" stroke-width="9" stroke-linecap="round"/><path d="M424.85361,122.93598l12.79885,16.56323l-23.3391,-3.01149" fill="none" stroke="#311108" stroke-width="9" stroke-linecap="round"/><path d="M372.15244,178.27221l-4.14081,-11.29311l12.42242,10.54024" fill="none" stroke="#311108" stroke-width="9" stroke-linecap="round"/></g></g></g></svg>