<svg version="1.1" xmlns="http://www.w3.org/2000/svg" xmlns:xlink="http://www.w3.org/1999/xlink" width="53.46292" height="34.29689" viewBox="0,0,53.46292,34.29689"><g transform="translate(-293.26854,-162.85156)"><g stroke-linecap="square" stroke-miterlimit="10"><g fill="#ffffff"><path d="" stroke="#000000" stroke-width="5"/><path d="" stroke="none" stroke-width="0"/></g><path d="M334.2002,165.35156c2.96875,0 5.38021,1.11979 7.23438,3.35938c1.86458,2.23958 2.79688,6.04167 2.79688,11.40625c0,5.41667 -0.98437,9.19271 -2.95312,11.32813c-1.95833,2.13542 -4.29167,3.20313 -7,3.20313c-2.8125,0 -5.19792,-1.13021 -7.15625,-3.39062c-1.94792,-2.27083 -2.92187,-5.94271 -2.92187,-11.01562c0,-5.29167 0.86458,-9.09375 2.59375,-11.40625c1.72917,-2.32292 4.19792,-3.48437 7.40625,-3.48437zM334.2002,190.6797c1.59375,0 2.76563,-0.77604 3.51563,-2.32812c0.75,-1.55208 1.125,-4.41146 1.125,-8.57812c0,-3.79167 -0.36979,-6.47917 -1.10937,-8.0625c-0.72917,-1.59375 -1.90625,-2.39062 -3.53125,-2.39062c-1.55208,0 -2.70833,0.77083 -3.46875,2.3125c-0.75,1.53125 -1.125,4.29688 -1.125,8.29688c0,4.0625 0.375,6.86979 1.125,8.42188c0.76042,1.55208 1.91667,2.32813 3.46875,2.32813z" fill="#ffffff" stroke="#000000" stroke-width="5"/><path d="M334.2002,165.35156c2.96875,0 5.38021,1.11979 7.23438,3.35938c1.86458,2.23958 2.79688,6.04167 2.79688,11.40625c0,5.41667 -0.98437,9.19271 -2.95312,11.32813c-1.95833,2.13542 -4.29167,3.20313 -7,3.20313c-2.8125,0 -5.19792,-1.13021 -7.15625,-3.39062c-1.94792,-2.27083 -2.92187,-5.94271 -2.92187,-11.01562c0,-5.29167 0.86458,-9.09375 2.59375,-11.40625c1.72917,-2.32292 4.19792,-3.48437 7.40625,-3.48437zM334.2002,190.6797c1.59375,0 2.76563,-0.77604 3.51563,-2.32812c0.75,-1.55208 1.125,-4.41146 1.125,-8.57812c0,-3.79167 -0.36979,-6.47917 -1.10937,-8.0625c-0.72917,-1.59375 -1.90625,-2.39062 -3.53125,-2.39062c-1.55208,0 -2.70833,0.77083 -3.46875,2.3125c-0.75,1.53125 -1.125,4.29688 -1.125,8.29688c0,4.0625 0.375,6.86979 1.125,8.42188c0.76042,1.55208 1.91667,2.32813 3.46875,2.32813z" fill="#00ff21" stroke="none" stroke-width="0"/><g><path d="M312.79978,194.40623h-13.54687c-1.44792,0 -2.39062,-0.3125 -2.82812,-0.9375c-0.4375,-0.625 -0.65625,-1.19271 -0.65625,-1.70312c0,-0.98958 0.51563,-2.1875 1.54688,-3.59375c1.04167,-1.40625 2.97917,-3.29167 5.8125,-5.65625c2.84375,-2.375 4.69271,-4.08333 5.54688,-5.125c0.86458,-1.04167 1.29688,-2.19792 1.29688,-3.46875c0,-1.30208 -0.44271,-2.33333 -1.32812,-3.09375c-0.875,-0.77083 -1.92708,-1.15625 -3.15625,-1.15625c-1.0625,0 -2,0.28646 -2.8125,0.85938c-0.80208,0.57292 -1.39062,1.40625 -1.76562,2.5c-0.36458,1.08333 -0.72396,1.86979 -1.07812,2.35938c-0.34375,0.48958 -0.91667,0.73438 -1.71875,0.73438c-0.64583,0 -1.19271,-0.20833 -1.64062,-0.625c-0.4375,-0.42708 -0.65625,-1.00521 -0.65625,-1.73437c0,-2 0.84375,-3.85937 2.53125,-5.57812c1.69792,-1.72917 4.10417,-2.59375 7.21875,-2.59375c3.34375,0 5.79688,0.81771 7.35938,2.45313c1.57292,1.63542 2.35938,3.54167 2.35938,5.71875c0,1.72917 -0.52083,3.36979 -1.5625,4.92188c-1.03125,1.54167 -2.64583,3.19792 -4.84375,4.96875c-2.1875,1.77083 -3.59896,2.96354 -4.23437,3.57813c-0.625,0.60417 -1.34375,1.45833 -2.15625,2.5625h9.5625c1.46875,0 2.46354,0.20833 2.98438,0.625c0.52083,0.40625 0.78125,0.95833 0.78125,1.65625c0,0.77083 -0.23437,1.35417 -0.70312,1.75c-0.46875,0.38542 -1.23958,0.57813 -2.3125,0.57813z" fill="#ffffff" stroke="#000000" stroke-width="5"/><path d="M312.79978,194.40623h-13.54687c-1.44792,0 -2.39062,-0.3125 -2.82812,-0.9375c-0.4375,-0.625 -0.65625,-1.19271 -0.65625,-1.70312c0,-0.98958 0.51563,-2.1875 1.54688,-3.59375c1.04167,-1.40625 2.97917,-3.29167 5.8125,-5.65625c2.84375,-2.375 4.69271,-4.08333 5.54688,-5.125c0.86458,-1.04167 1.29688,-2.19792 1.29688,-3.46875c0,-1.30208 -0.44271,-2.33333 -1.32812,-3.09375c-0.875,-0.77083 -1.92708,-1.15625 -3.15625,-1.15625c-1.0625,0 -2,0.28646 -2.8125,0.85938c-0.80208,0.57292 -1.39062,1.40625 -1.76562,2.5c-0.36458,1.08333 -0.72396,1.86979 -1.07812,2.35938c-0.34375,0.48958 -0.91667,0.73438 -1.71875,0.73438c-0.64583,0 -1.19271,-0.20833 -1.64062,-0.625c-0.4375,-0.42708 -0.65625,-1.00521 -0.65625,-1.73437c0,-2 0.84375,-3.85937 2.53125,-5.57812c1.69792,-1.72917 4.10417,-2.59375 7.21875,-2.59375c3.34375,0 5.79688,0.81771 7.35938,2.45313c1.57292,1.63542 2.35938,3.54167 2.35938,5.71875c0,1.72917 -0.52083,3.36979 -1.5625,4.92188c-1.03125,1.54167 -2.64583,3.19792 -4.84375,4.96875c-2.1875,1.77083 -3.59896,2.96354 -4.23437,3.57813c-0.625,0.60417 -1.34375,1.45833 -2.15625,2.5625h9.5625c1.46875,0 2.46354,0.20833 2.98438,0.625c0.52083,0.40625 0.78125,0.95833 0.78125,1.65625c0,0.77083 -0.23437,1.35417 -0.70312,1.75c-0.46875,0.38542 -1.23958,0.57813 -2.3125,0.57813z" fill="#00ff21" stroke="none" stroke-width="0"/></g></g></g></svg>