<svg version="1.1" xmlns="http://www.w3.org/2000/svg" xmlns:xlink="http://www.w3.org/1999/xlink" width="244" height="258" viewBox="0,0,244,258"><g transform="translate(-198,-51)"><g stroke="none" stroke-miterlimit="10"><path d="M198,309v-258h244v258z" fill="none" stroke-width="0"/><g><path d="M310.1754,243.5c28.55312,0 51.7,5.46213 51.7,12.2c0,6.73787 -23.14688,12.2 -51.7,12.2c-28.55312,0 -51.7,-5.46213 -51.7,-12.2c0,-6.73787 23.14688,-12.2 51.7,-12.2z" fill="#3a3a3a" stroke-width="0"/><path d="M357.18874,158.6125c0.39806,4.05159 13.37686,41.16829 -8.75634,68.4773c-0.27182,0.33538 0.05303,4.95659 0.67011,10.24961c0.72245,6.19679 1.6208,13.31439 -0.95065,15.55341c-2.84407,2.47639 -7.35473,3.18291 -10.93219,3.60177c-3.31648,0.38831 -12.18037,0.14257 -15.79257,-0.76818c-0.85299,-0.21507 -1.58071,-3.85459 -2.42452,-4.12789c-0.74321,-0.24072 -2.93717,7.62289 -24.52054,6.86512c-4.47479,-0.1571 -13.24536,-2.45906 -16.21101,-8.13013c-6.99088,-13.36833 3.22073,-24.20586 3.22073,-24.20586c0,0 -10.12684,0.54011 -17.37328,-2.61367c-0.93991,-0.40907 -5.90366,-2.85229 -7.29121,-8.42982c-2.34131,-9.41136 -2.84941,-22.87122 -2.91431,-25.37846c-0.30031,-11.60107 0.77638,-25.65432 3.45423,-35.30471c4.01728,-14.47742 27.02115,-9.41059 27.02115,-9.41059c0,0 0.55429,-0.83738 0.75535,-1.19069c3.55657,-6.24968 13.23738,-10.50821 32.5602,-10.76298c25.88098,1.3368 38.27273,13.23832 39.48485,25.57575z" fill="#020134" stroke-width="0"/><path d="M301.70732,142.95983c7.55551,-1.44445 8.82913,-1.70916 15.44187,-1.8719c12.03407,-0.29618 27.51737,2.73094 31.67641,17.77155c0.48084,1.73889 6.03002,20.41781 4.29049,39.26726c-0.49554,5.36962 -2.12168,8.60473 -3.44684,12.41513c-2.46447,7.08637 -7.69507,13.6308 -14.36436,15.81893c-3.11378,1.0216 -10.8346,2.51334 -10.8346,2.51334c0,0 -0.41591,-2.80692 -2.79957,-2.95472c-0.29424,-0.01825 -3.69241,-0.8868 -4.35407,2.92987c-1.04784,6.04426 -3.27537,17.17272 -7.62053,20.92139c-0.67124,0.5791 -7.37636,1.46908 -13.66719,0.88425c-6.03344,-0.56089 -11.668,-2.54071 -12.05158,-4.58689c-0.21332,-1.13795 -0.58765,-5.56502 0.04921,-9.13056c0.248,-1.38845 0.64932,-2.64626 1.2732,-3.52834c1.61427,-2.28239 6.9413,-0.5757 11.58276,0.05705c2.56699,0.34994 5.23279,0.21716 6.2141,-0.73522c1.55972,-1.51376 1.60979,-3.14681 1.40864,-4.20352c-0.37888,-1.99041 -2.49833,-2.78534 -3.07032,-2.85792c-2.67977,-0.34003 -13.43133,-1.07361 -18.07153,-9.80295c-3.10398,-5.83935 -3.54715,-15.33257 -3.51407,-23.99933c0.02838,-7.43827 0.2027,-14.00436 1.68084,-20.13023c6.47234,-26.82346 17.20407,-28.20877 20.17717,-28.77716z" fill="#0c1390" stroke-width="0"/><path d="M301.70732,142.95983c7.55551,-1.44445 8.82913,-1.70916 15.44187,-1.8719c12.03407,-0.29618 27.51737,2.73094 31.67641,17.77155c0.41548,1.5025 4.61496,15.65241 4.62687,31.63163c0.00059,0.78841 -1.56581,26.42359 -44.02028,18.97241c-3.80005,-0.66694 -7.44306,-2.40897 -9.78908,-4.91593c-10.07033,-14.0818 -9.25457,-34.53343 -6.20236,-47.80227c1.72026,-7.47848 4.58764,-12.78446 5.54438,-13.11424c1.16688,-0.40221 2.10936,-0.55408 2.72219,-0.67124z" fill="#162ed0" stroke-width="0"/><g><path d="M304.43674,158.6794c6.15998,-5.0618 13.56983,-6.40169 16.11615,-6.57677c8.80173,-0.60522 22.76223,-0.49878 31.35519,1.03521c2.18263,0.38964 9.23671,2.78137 11.60039,6.82903c1.80905,3.09789 8.62395,13.34762 -1.41948,22.70836c-10.60233,9.88164 -39.63506,7.73408 -47.93272,6.17188c-3.70239,-0.84378 -10.28978,-4.28175 -12.526,-10.24372c-2.70213,-7.20416 -0.44384,-17.25315 2.80645,-19.92399z" fill="#10293a" stroke-width="0"/><g><path d="M308.07536,172.75247c0,-2.94835 -1.67859,-9.6655 6.10114,-12.74817c6.6197,-2.62301 22.43665,-1.90187 26.79872,-1.62267c4.90128,0.3137 10.32574,0.98676 13.8145,2.59983c4.14656,1.91722 5.14419,11.01215 4.7788,12.55698c-3.07005,12.98 -33.56174,10.55457 -39.49204,9.31946c-6.41657,-1.33638 -12.00112,-4.64839 -12.00112,-10.10545z" fill="#4a7b9c" stroke-width="0"/><path d="M317.46598,171.24181c-8.15581,-3.36957 -2.38465,-11.55929 -2.19715,-11.61643c7.12509,-2.17103 21.56882,-1.50858 25.70639,-1.24375c4.90128,0.3137 10.32574,0.98676 13.8145,2.59983c1.66477,0.76973 2.82197,2.69642 3.58717,4.82697c0.30297,0.84357 1.22276,7.16653 -3.94373,8.47507c-7.35713,1.86337 -20.97499,3.56548 -36.96718,-3.04169z" fill="#8cc5de" stroke-width="0"/><path d="M350.72282,160.14029c2.23609,0.65884 5.70281,1.92545 4.9907,4.22455c-1.50599,4.86223 -8.1849,2.11841 -12.8319,1.47812c-0.74902,-0.1032 -4.23108,-0.13832 -6.35614,-1.08778c-1.36545,-0.61007 -1.80699,-2.10971 -1.80699,-2.55251c0,-1.66642 1.67893,-3.01732 3.75,-3.01732c0.06008,0 3.07448,-0.10512 6.11843,0.06664c2.41709,0.13638 4.79561,0.49338 6.1359,0.88827z" fill="#ffffff" stroke-width="0.5"/></g></g><path d="M340.66141,232.547c0,0 0.56615,3.21173 1.02947,6.95139c0.46852,3.78158 1.07009,8.09579 0.30756,8.86587c-1.13317,1.14439 -13.03316,0.82803 -14.86425,0.59592c-0.3,-0.03803 -0.79447,-0.43414 -1.15116,-1.22421c-0.42476,-0.94084 -0.72101,-2.37346 -1.18804,-3.49801c-0.91901,-2.21284 -1.85672,-3.94454 -1.94375,-4.38527c-0.26355,-1.33472 0.18019,-2.18539 0.37647,-3.17615c0.22456,-1.13351 4.55792,-0.89952 8.56045,-1.61158c4.67997,-0.83258 8.87324,-2.51797 8.87324,-2.51797z" fill="#0c1390" stroke-width="0"/><path d="M279.98734,152.28565c0,0 -8.30238,10.47448 -7.8537,34.90611c0.08281,4.50927 0.05107,11.38382 0.83778,16.75585c1.11358,7.60398 3.13714,13.17072 3.13714,13.17072c0,0 -4.92791,2.29544 -9.8821,-1.38072c-0.89918,-0.66721 -3.70468,-5.36858 -4.30559,-12.50396c-1.22736,-14.57407 0.2066,-36.99564 0.09307,-39.78124c-0.37193,-9.12579 4.41251,-10.88849 9.38477,-11.26811c4.13598,-0.31577 8.58864,0.10136 8.58864,0.10136z" fill="#0c1390" stroke-width="0"/><path d="M279.98736,152.28565c0,0 -1.66316,2.09829 -3.46048,6.60712c-0.21522,0.53991 -0.64881,1.72396 -0.64881,1.72396c0,0 -4.79896,-0.5677 -8.54267,-0.07916c-2.84857,0.37173 -5.32146,2.91484 -5.32146,2.91484c0,0 -0.02412,-0.88024 -0.01804,-1.29433c0.11741,-8.00158 4.67521,-9.61284 9.40281,-9.97378c4.13598,-0.31577 8.58864,0.10136 8.58864,0.10136z" fill="#162ed0" stroke-width="0"/></g></g></g></svg>