<svg version="1.1" xmlns="http://www.w3.org/2000/svg" xmlns:xlink="http://www.w3.org/1999/xlink" width="454" height="364.00003" viewBox="0,0,454,364.00003"><defs><linearGradient x1="320.82345" y1="40.19998" x2="320.82345" y2="96.62525" gradientUnits="userSpaceOnUse" id="color-1"><stop offset="0" stop-color="#000000" stop-opacity="0"/><stop offset="1" stop-color="#000000"/></linearGradient><linearGradient x1="323.19851" y1="30.99475" x2="323.19851" y2="54.06976" gradientTransform="translate(-566.39702,-96.60201) scale(2,2)" gradientUnits="userSpaceOnUse" id="color-2"><stop offset="0" stop-color="#a8a8a8"/><stop offset="1" stop-color="#909090"/></linearGradient><linearGradient x1="330.99851" y1="30.99476" x2="330.99851" y2="54.06976" gradientTransform="translate(-566.39702,-96.60201) scale(2,2)" gradientUnits="userSpaceOnUse" id="color-3"><stop offset="0" stop-color="#a8a8a8"/><stop offset="1" stop-color="#8f8f8f"/></linearGradient></defs><g transform="translate(-93.5,1.10001)"><g data-paper-data="{&quot;isPaintingLayer&quot;:true}" fill-rule="nonzero" stroke-miterlimit="10" stroke-dasharray="" stroke-dashoffset="0" style="mix-blend-mode: normal"><path d="M104.75,62.09998v-11.5h361.5v11.5z" fill="#000000" stroke="none" stroke-width="0" stroke-linecap="butt" stroke-linejoin="miter"/><path d="M94.5,61.89999v-63h453v63h-233.33782c-1.72905,-2.76922 -4.96077,-4.63235 -8.66218,-4.63235c-3.70141,0 -6.93313,1.86313 -8.66218,4.63235h-26.92534c-2.00032,-0.50599 -4.06402,-0.90346 -6.41248,-0.92647c-12.94891,-0.12686 -26.03269,-0.18035 -39,0c-0.95976,0.01335 -1.92461,-0.02274 -2.88659,-0.02638c-1.81289,-1.69976 -4.33038,-2.75303 -7.11341,-2.75303c-3.27164,0 -106.67631,-2.2503 -108.50073,0z" fill="#000000" stroke="none" stroke-width="0" stroke-linecap="butt" stroke-linejoin="miter"/><path d="M213.16431,29.5698c8.07945,0 99.51665,0 115.70212,0c1.5784,0 2.44116,1.74484 2.44116,4.47643c0,6.37767 0,18.13432 0,25.62121c-0.50372,0.08551 -1.0083,0.14848 -1.51426,0.17457c-0.938,0.04837 -1.86006,-0.45071 -2.78991,-0.6785c-2.60578,-0.63833 -6.9114,-1.87221 -9.82417,-2.11391c-3.22811,-0.26786 -6.46314,0.04099 -9.69456,-0.00463c-5.51257,-0.07782 -11.25941,-0.42039 -16.7656,-1.08304c-0.54464,-0.06555 -1.06133,-0.53135 -1.60676,-0.57029c-6.22709,-0.44464 -12.45626,0.66624 -18.67311,1.09411c-1.83623,0.12638 -3.50479,-0.42128 -5.35851,-0.55406c-3.34296,-0.23944 -6.73067,-0.00694 -10.08071,-0.00694c-1.56314,0.03096 -3.07604,-0.55527 -4.6529,-0.55955c-2.28609,-0.00621 -4.5864,0.56381 -6.85804,0.10096c-0.55329,-0.11274 -1.00329,-0.93795 -1.55097,-1.11911c-0.39379,-0.13025 -3.48236,-0.10096 -3.99873,-0.10096c-2.83993,0 -5.71087,0.29338 -8.54485,0.00575c-4.36819,-0.44333 -8.82929,-2.02492 -13.2161,-1.08755c-1.67104,0.35707 -3.27559,1.38185 -4.91567,2.07167c0,-7.43464 0,-16.62806 0,-21.74928c0,-2.40896 0.77657,-3.91687 1.90155,-3.91687z" fill="#000000" stroke="#000000" stroke-width="5" stroke-linecap="butt" stroke-linejoin="miter"/><path d="M213.16431,46.65398c8.07945,0 99.51665,0 115.70212,0c1.5784,0 2.44116,0.49861 2.44116,1.2792c0,1.44546 0,9.59097 0,13.96681c-0.17332,0 -0.34662,0 -0.51994,0c-0.33095,-2.68571 -0.66234,-6.60026 -0.99432,-6.59537c-0.938,0.01382 -1.86006,-0.1288 -2.78991,-0.19389c-2.60578,-0.18241 -6.9114,-0.535 -9.82417,-0.60408c-3.22811,-0.07655 -6.46314,0.01172 -9.69456,-0.00132c-5.51257,-0.02224 -11.25941,-0.12013 -16.7656,-0.30949c-0.54464,-0.01873 -1.06133,-0.15183 -1.60676,-0.16296c-6.22709,-0.12706 -12.45626,0.19038 -18.67311,0.31265c-1.83623,0.03612 -3.50479,-0.12039 -5.35851,-0.15833c-3.34296,-0.06842 -6.73067,-0.00198 -10.08071,-0.00198c-1.56314,0.00885 -3.07604,-0.15868 -4.6529,-0.1599c-2.28609,-0.00178 -4.5864,0.16112 -6.85804,0.02886c-0.55329,-0.03222 -1.00329,-0.26803 -1.55097,-0.31981c-0.39379,-0.03722 -3.48236,-0.02885 -3.99873,-0.02885c-2.83993,0 -5.71087,0.08384 -8.54485,0.00164c-4.36819,-0.12669 -8.82929,-0.57864 -13.2161,-0.31077c-0.71523,0.04368 -4.03208,6.09818 -4.91567,6.29634c0,-4.12716 0,-11.02389 0,-11.91945c0,-0.68838 0.77657,-1.11929 1.90155,-1.11929z" fill="#000000" stroke="#d9d9d9" stroke-width="5" stroke-linecap="butt" stroke-linejoin="miter"/><path d="M328.86642,20.63943c1.5784,0 2.44116,0.76024 2.44116,1.95042c0,2.77881 0,21.79799 0,25.06009c-0.50372,0.03726 -1.0083,-13.83202 -1.51426,-13.82065c-0.938,0.02108 -1.86006,-0.19638 -2.78991,-0.29563c-2.60578,-0.27813 -6.9114,-0.81574 -9.82417,-0.92105c-3.22811,-0.11671 -6.46314,0.01786 -9.69456,-0.00202c-5.51257,-0.03391 -11.25941,-0.18317 -16.7656,-0.47189c-0.54464,-0.02856 -1.06133,-0.23151 -1.60676,-0.24848c-6.22709,-0.19374 -12.45626,0.29029 -18.67309,0.47671c-1.83623,0.05506 -3.50479,-0.18355 -5.35851,-0.2414c-3.34296,-0.10432 -6.73067,-0.00303 -10.08071,-0.00303c-1.56314,0.01349 -3.07604,-0.24194 -4.6529,-0.2438c-2.28609,-0.00271 -4.5864,0.24566 -6.85804,0.04399c-0.55329,-0.04912 -1.00329,-0.40867 -1.55097,-0.4876c-0.39379,-0.05675 -3.48236,-0.04399 -3.99873,-0.04399c-2.83993,0 -5.71088,0.12782 -8.54485,0.0025c-4.36819,-0.19317 -8.82929,-0.88227 -13.2161,-0.47385c-1.67104,0.15558 -3.27559,14.9864 -4.91567,15.28696c0,-3.23933 0,-21.62931 0,-23.86067c0,-1.0496 0.77657,-1.70661 1.90155,-1.70661c0,0 99.51662,0.00001 115.70211,0.00001z" fill="#000000" stroke="#d9d9d9" stroke-width="5" stroke-linecap="butt" stroke-linejoin="miter"/><path d="M310.59398,29.5698c8.07945,0 99.51665,0 115.70212,0c1.5784,0 2.44115,1.74485 2.44115,4.47643c0,6.37768 0,18.13432 0,25.6212c-0.50372,0.08551 -1.0083,0.14848 -1.51425,0.17458c-0.938,0.04837 -1.86006,-0.45071 -2.78991,-0.67849c-2.60577,-0.63833 -6.91141,-1.87221 -9.82417,-2.11391c-3.2281,-0.26785 -6.46314,0.04099 -9.69455,-0.00463c-5.51256,-0.07782 -11.25941,-0.42039 -16.76559,-1.08304c-0.54464,-0.06554 -1.06133,-0.53135 -1.60676,-0.5703c-6.22709,-0.44464 -12.45626,0.66625 -18.6731,1.09411c-1.83623,0.12638 -3.50479,-0.42128 -5.35852,-0.55405c-3.34296,-0.23944 -6.73066,-0.00695 -10.08071,-0.00695c-1.56314,0.03096 -3.07604,-0.55527 -4.6529,-0.55955c-2.28609,-0.00621 -4.5864,0.56381 -6.85804,0.10095c-0.55329,-0.11273 -1.00328,-0.93795 -1.55096,-1.11911c-0.39379,-0.13025 -3.48236,-0.10096 -3.99873,-0.10096c-2.83993,0 -5.71087,0.29339 -8.54485,0.00575c-4.36819,-0.44333 -8.82929,-2.02492 -13.21611,-1.08754c-1.67104,0.35707 -3.27559,1.38185 -4.91567,2.07167c0,-7.43464 0,-16.62806 0,-21.74928c0,-2.40895 0.77658,-3.91687 1.90155,-3.91687z" fill="#000000" stroke="#000000" stroke-width="5" stroke-linecap="butt" stroke-linejoin="miter"/><path d="M428.73726,22.58984c0,2.77881 0,21.79799 0,25.06009c-0.50372,0.03725 -1.0083,-13.83202 -1.51425,-13.82065c-0.938,0.02107 -1.86006,-0.19637 -2.78991,-0.29563c-2.60577,-0.27812 -6.91141,-0.81575 -9.82417,-0.92105c-3.2281,-0.11671 -6.46313,0.01786 -9.69455,-0.00202c-5.51256,-0.03391 -11.25941,-0.18317 -16.76559,-0.47189c-0.54464,-0.02856 -1.06133,-0.23151 -1.60676,-0.24848c-6.22709,-0.19374 -12.45627,0.29029 -18.6731,0.47671c-1.83623,0.05506 -3.50478,-0.18356 -5.35851,-0.24141c-3.34296,-0.10432 -6.73067,-0.00303 -10.08071,-0.00303c-1.56314,0.0135 -3.07604,-0.24193 -4.65289,-0.2438c-2.28609,-0.0027 -4.5864,0.24567 -6.85804,0.04399c-0.55329,-0.04912 -1.00329,-0.40867 -1.55097,-0.48761c-0.39379,-0.05676 -3.48236,-0.04399 -3.99873,-0.04399c-2.83993,0 -5.71088,0.12783 -8.54485,0.00251c-4.36819,-0.19317 -8.82929,-0.88228 -13.21611,-0.47386c-1.67104,0.15558 -3.27559,14.9864 -4.91567,15.28696c0,-3.23934 0,-21.62931 0,-23.86067c0,-1.04961 0.77657,-1.70661 1.90155,-1.70661c0,0 99.51663,0 115.70211,0c0,0 2.44115,0.76026 2.44115,1.95044z" fill="#000000" stroke="#d9d9d9" stroke-width="5" stroke-linecap="butt" stroke-linejoin="miter"/><path d="M427.22301,53.04901c-0.938,0.03979 -1.86006,-0.37085 -2.78991,-0.55831c-2.60577,-0.52524 -6.91141,-1.54058 -9.82417,-1.73944c-3.2281,-0.22041 -6.46313,0.03373 -9.69455,-0.00381c-5.51256,-0.06404 -11.25941,-0.34592 -16.76559,-0.89118c-0.54464,-0.05394 -1.06133,-0.43722 -1.60676,-0.46926c-6.22709,-0.36589 -12.45627,0.54822 -18.6731,0.90029c-1.83623,0.10398 -3.50478,-0.34666 -5.35851,-0.45591c-3.34296,-0.19701 -6.73067,-0.00572 -10.08071,-0.00572c-1.56314,0.0255 -3.07604,-0.45689 -4.65289,-0.46043c-2.28609,-0.0051 -4.5864,0.46396 -6.85804,0.08308c-0.55329,-0.09277 -1.00329,-0.77179 -1.55097,-0.92087c-0.39379,-0.10719 -3.48236,-0.08308 -3.99873,-0.08308c-2.83993,0 -5.71088,0.24141 -8.54485,0.00474c-4.36819,-0.36481 -8.82929,-1.66622 -13.21611,-0.8949c-0.89942,0.15814 -3.27958,-2.65466 -4.15638,4.96115c-0.69771,-0.45458 -2.95567,4.67557 -3.75929,4.40504c0,-12.34517 3,-22.78909 3,-25.55799c0,-1.98223 0.77657,-3.223 1.90155,-3.223c0,0 99.51663,0 115.70211,0c0,0 2.44115,1.43578 2.44115,3.68348c0,3.74487 0.5,15.60772 0.5,28.63041c-0.2274,-0.02432 -7.45664,-3.04027 -7.68717,-3.05025c-0.27534,-7.07261 5.94899,-4.36575 5.67292,-4.35403z" fill="#000000" stroke="#d9d9d9" stroke-width="5" stroke-linecap="butt" stroke-linejoin="miter"/><path d="M310.59398,20.63942c8.07945,0 99.51665,0 115.70212,0c1.5784,0 2.44116,0.76024 2.44116,1.95042c0,2.77881 0,19.11616 0,22.37827c-0.50372,0.03725 -1.0083,0.30849 -1.51425,0.31987c-0.938,0.02107 -24.68758,3.83655 -27.94135,3.79341c-1.16054,-0.01539 -88.94914,-4.15045 -90.58922,-3.84989c0,-3.23934 0,-20.6541 0,-22.88546c0,-1.04961 0.77658,-1.70661 1.90155,-1.70661z" fill="#272727" stroke="none" stroke-width="5" stroke-linecap="butt" stroke-linejoin="miter"/><path d="M426.2961,38.50018c1.5784,0 2.44116,0.6895 2.44116,1.76892c0,2.26867 0,14.50178 0,19.07951c-1.38596,-0.10489 -2.84073,0.00994 -4.23726,-0.03773c-3.92964,-0.13414 -8.83034,-0.22254 -12.60182,0.0914c-1.48429,0.12355 -2.90999,0.71373 -4.39818,0.61645h-1c0,0 -6.74605,-0.00001 -9.1565,3.92208c-0.75853,-0.36666 -1.49467,-0.78481 -2.37501,-0.8643c-7.28529,-0.6578 -14.6604,-0.64629 -21.99406,-0.92628c-6.33297,-0.24177 -12.68479,-0.26643 -19.00508,-0.63897c-1.45213,-0.08559 -2.80268,-0.59779 -4.24751,-0.73165c-3.70906,-0.34364 -7.48114,-0.05304 -11.22183,-0.05304c-7.73334,0 -15.46669,0 -23.20004,0c-0.71275,-2.48545 -3.26525,-4.498 -6.60752,-5.29444c0,-5.78013 0,-13.96554 0,-15.38415c0,-0.95194 0.77658,-1.54781 1.90155,-1.54781c8.07945,0 99.51664,0 115.70211,0z" fill="#272727" stroke="none" stroke-width="5" stroke-linecap="butt" stroke-linejoin="miter"/><path d="M213.16431,20.63943c8.07945,0 99.51665,0 115.70212,0c1.5784,0 2.44116,0.76024 2.44116,1.95042c0,2.77881 0,19.11617 0,22.37827c-0.50372,0.03726 -1.0083,0.3085 -1.51426,0.31987c-0.938,0.02108 -24.68758,3.83656 -27.94135,3.79341c-1.16054,-0.01539 -88.94914,-4.15045 -90.58922,-3.84989c0,-1.54585 0,-6.3199 0,-11.13153c0,-5.27115 0,-10.58741 0,-11.75393c0,-1.0496 0.77657,-1.70661 1.90155,-1.70661z" fill="#272727" stroke="none" stroke-width="5" stroke-linecap="butt" stroke-linejoin="miter"/><path d="M214.70716,38.50018c14.63483,0 180.26083,0 209.5786,0c2.85906,0 4.42183,0.74677 4.42183,1.91587c0,2.72959 0,18.77754 0,21.98185c-0.91242,0.0366 -1.8264,0.30304 -2.74287,0.31421c-1.00078,0.01219 -38.34965,-1.22663 -44.00405,-1.22663c-6.57353,0 -8.70651,-2.10111 -11.88085,0.74035c-28.08623,-0.69185 -118.26179,1.13187 -148.3901,0.55626c-1.45782,-0.20516 -2.98697,-0.31433 -4.56314,-0.31433c-1.19691,0 -2.3667,0.06296 -3.49874,0.18309c-1.36191,-0.01414 -2.17683,-0.01293 -2.36508,0.00577c0,-3.18194 0,-20.28822 0,-22.48005c0,-1.03101 1.40666,-1.67638 3.4444,-1.67638z" fill="#272727" stroke="none" stroke-width="5" stroke-linecap="butt" stroke-linejoin="miter"/><path d="M226,41.24999c0,-5.66092 4.58908,-10.25 10.25,-10.25c5.66092,0 10.25,4.58908 10.25,10.25c0,5.66092 -4.58908,10.25 -10.25,10.25c-5.66092,0 -10.25,-4.58908 -10.25,-10.25z" fill="none" stroke="#a8a8a8" stroke-width="2" stroke-linecap="round" stroke-linejoin="round"/><path d="M226,41.24999h20.5" fill="none" stroke="#a8a8a8" stroke-width="2" stroke-linecap="round" stroke-linejoin="round"/><path d="M236.25,30.99999c2.56381,2.80681 4.02082,6.44934 4.1,10.25c-0.07918,3.80066 -1.53619,7.44319 -4.1,10.25c-2.56381,-2.80681 -4.02082,-6.44934 -4.1,-10.25c0.07918,-3.80066 1.53619,-7.44319 4.1,-10.25z" fill="none" stroke="#a8a8a8" stroke-width="2" stroke-linecap="round" stroke-linejoin="round"/><path d="M93.5,362.90003v-64h452v64z" fill="#000000" stroke="none" stroke-width="0" stroke-linecap="butt" stroke-linejoin="miter"/><path d="M204.49012,62.86665v-22.66667h232.66667v22.66667z" fill="url(#color-1)" stroke="none" stroke-width="0" stroke-linecap="butt" stroke-linejoin="miter"/><path d="M104.5,289.9c0,-22.24138 0,-181.48791 0,-219c0,-5.05554 3.36751,-7.9 9.5,-7.9c27.74759,0 112.10208,0 197.25,0c41.65497,0 83.49982,0 119,0c47.46542,0 83.58847,0 92.75,0c8.41215,0 11.5,3.98362 11.5,10.9c0,41.92404 0,191.60514 0,215c0,6.05485 -1.8453,10.10001 -10.5,10.10001c-68.64877,0 -379.96999,0 -411,0c-4.96203,0 -8.5,-4.04556 -8.5,-9.10001z" fill="none" stroke="#ffffff" stroke-width="3" stroke-linecap="butt" stroke-linejoin="miter"/><text transform="translate(283.19851,48.301) scale(0.5,0.5)" font-size="40" xml:space="preserve" fill="url(#color-2)" fill-rule="nonzero" stroke="url(#color-3)" stroke-width="1" stroke-linecap="butt" stroke-linejoin="miter" stroke-miterlimit="10" stroke-dasharray="" stroke-dashoffset="0" font-family="Sans Serif" font-weight="normal" text-anchor="start" style="mix-blend-mode: normal"><tspan x="0" dy="0">寻 找 游 戏</tspan></text></g></g></svg>