<svg version="1.1" xmlns="http://www.w3.org/2000/svg" xmlns:xlink="http://www.w3.org/1999/xlink" width="498.5043" height="465.00304" viewBox="0,0,498.5043,465.00304"><g transform="translate(-73.24805,81.62302)"><g stroke-miterlimit="10"><path d="M571.75213,175.14436c0.00014,0.09256 0.00022,0.18512 0.00022,0.2777c0,114.85201 -110.47474,207.95796 -246.75225,207.95796c-136.2775,0 -246.75225,-93.10595 -246.75225,-207.95796c0,-114.85201 110.47475,-207.95796 246.75225,-207.95796c125.2106,0 228.63907,78.59795 244.6119,180.44548" fill="none" stroke="none" stroke-width="0"/><path d="M571.72572,175.23468c-1.9588,115.24167 -111.67141,208.14534 -246.72561,208.14534c-136.2775,0 -246.75225,-94.59431 -246.75225,-211.28231v-0.00001c0,-116.688 110.47475,-211.28231 246.75225,-211.28231c126.91774,0 231.45535,82.04672 245.21631,187.57545" fill="none" stroke="none" stroke-width="0"/><path d="M562.49298,206.11984c-19.06565,98.43364 -119.48121,173.51403 -240.49285,173.51403c-134.62065,0 -243.75225,-92.91711 -243.75225,-207.53617v-0.00001c0,-114.61906 109.1316,-207.53617 243.75225,-207.53617c124.22791,0 226.75038,79.12445 241.83951,181.41113" fill="none" stroke="none" stroke-width="0"/><path d="M566.75232,170.14451c0.00014,0.09256 0.00022,0.18512 0.00022,0.2777c0,114.85201 -110.47474,207.95796 -246.75225,207.95796c-136.2775,0 -246.75225,-93.10595 -246.75225,-207.95796c0,-114.85201 110.47475,-207.95796 246.75225,-207.95796c125.2106,0 228.63907,78.59795 244.6119,180.44548" fill="none" stroke="none" stroke-width="0"/><path d="M566.72592,170.23481c-1.9588,115.24167 -111.67141,208.14534 -246.72561,208.14534c-136.2775,0 -246.75225,-94.59431 -246.75225,-211.28231v-0.00001c0,-116.688 110.47475,-211.28231 246.75225,-211.28231c126.91774,0 231.45535,82.04672 245.21631,187.57545" fill="none" stroke="none" stroke-width="0"/><path d="M557.49319,201.12c-19.06565,98.43364 -119.48121,173.51403 -240.49285,173.51403c-134.62065,0 -243.75225,-92.91711 -243.75225,-207.53617v-0.00001c0,-114.61906 109.1316,-207.53617 243.75225,-207.53617c124.22791,0 226.75038,79.12445 241.83951,181.41113" fill="none" stroke="none" stroke-width="0"/><path d="M427.10016,0.00407c0.20568,1.37507 5.67184,54.51375 6.70092,55.00691c1.2884,0.61743 -0.57135,37.2398 -2.96649,65.84323c-1.58479,24.9824 -15.86893,44.77583 -14.27363,47.07399c15.64787,6.48749 46.94432,44.17225 48.0675,71.9001c0.58656,14.48021 -10.70906,21.03889 -15.09193,24.82198c-6.69147,5.77574 -14.37173,8.97943 -21.30157,10.98395c-12.84422,3.71532 -23.70047,2.7211 -25.06437,2.18918c-16.87422,-7.28509 -22.82386,-32.42199 -36.98967,-48.30486c-14.24663,-15.9735 -36.66758,-22.67024 -38.84202,-21.83888c-5.46909,2.09101 -43.75032,26.23599 -47.33306,26.83483c-47.04721,7.86376 -69.27816,-21.56267 -74.43777,-26.60092c-7.08741,-6.92066 -9.9616,-11.3835 -11.20935,-15.33098c-0.77445,-2.45011 0.23526,-6.53808 2.03945,-10.206c2.06846,-4.20518 5.03266,-7.85828 5.03266,-7.85828c0,0 -18.54067,-4.86458 -17.02008,-71.95552c0.00803,-0.35392 -1.20817,-57.30295 7.06427,-86.54242c3.23659,-11.43998 9.30888,-16.70976 15.36027,-19.88949c13.21104,-6.76446 37.9092,-6.32824 37.9092,-6.32824c0,0 -0.20094,0.40166 5.13814,-17.58207c7.65808,-23.8373 36.2741,-43.8436 71.57143,-43.8436c41.38824,0 97.88525,19.74567 105.64612,71.62708z" fill="#ff0000" stroke="#ff0000" stroke-width="20"/><path d="M303.24136,2.36795c14.54992,-14.85924 32.05203,-18.79255 38.06646,-19.30652c20.78975,-1.77665 53.76454,-1.46421 74.06118,3.03893c5.15539,1.1438 21.81717,8.16489 27.4002,20.04706c4.27299,9.09406 20.36983,39.18279 -3.35282,66.66181c-25.04278,29.00818 -93.61829,22.70387 -113.21742,18.11794c-8.74507,-2.47697 -24.30453,-12.56935 -29.5865,-30.07109c-6.38245,-21.14825 -1.04835,-50.64771 6.62885,-58.48813z" fill="#ff0000" stroke="#ff0000" stroke-width="20"/></g></g></svg>