<svg version="1.1" xmlns="http://www.w3.org/2000/svg" xmlns:xlink="http://www.w3.org/1999/xlink" width="170.76877" height="43.57774" viewBox="0,0,170.76877,43.57774"><g transform="translate(-234.61561,-180.72465)"><g data-paper-data="{&quot;isPaintingLayer&quot;:true}" fill-rule="nonzero" stroke-linecap="butt" stroke-linejoin="miter" stroke-miterlimit="10" stroke-dasharray="" stroke-dashoffset="0" style="mix-blend-mode: normal"><path d="M242.11562,213.98486c0,-6.18777 0,-20.64018 0,-23.47936c0,-0.92656 1.00767,-2.28085 2.46743,-2.28085c4.61218,0 30.15865,0 59.11557,0c37.29797,0 80.25415,0 91.42065,0c1.79183,0 2.76511,1.33008 2.76511,2.68336c0,3.19262 0,16.47089 0,22.67435c0,1.96491 -1.1195,3.22003 -3.16762,3.22003c-21.00208,0 -139.64992,0 -150.13372,0c-1.45976,0 -2.46743,-1.08469 -2.46743,-2.81752z" fill="#000000" stroke="#000000" stroke-width="15"/><path d="M242.11562,213.98486c0,-6.18777 0,-20.64018 0,-23.47936c0,-0.92656 1.00767,-2.28085 2.46743,-2.28085c10.55291,0 130.70041,0 150.53623,0c1.79183,0 2.76511,1.33008 2.76511,2.68336c0,3.19262 0,16.47089 0,22.67435c0,1.96491 -1.1195,3.22003 -3.16762,3.22003c-21.00208,0 -139.64992,0 -150.13372,0c-1.45976,0 -2.46743,-1.08469 -2.46743,-2.81752z" fill="#000000" stroke="#00f000" stroke-width="7"/><path d="M242.11562,213.98486c0,-6.18777 0,-20.64018 0,-23.47936c0,-0.92656 1.00767,-2.28085 2.46743,-2.28085c10.55291,0 130.70041,0 150.53623,0c1.79183,0 2.76511,1.33008 2.76511,2.68336c0,3.19262 0,16.47089 0,22.67435c0,1.96491 -1.1195,3.22003 -3.16762,3.22003c-21.00208,0 -139.64992,0 -150.13372,0c-1.45976,0 -2.46743,-1.08469 -2.46743,-2.81752z" fill="#000000" stroke="none" stroke-width="0"/><text transform="translate(280,209.76875) scale(0.5,0.5)" font-size="40" xml:space="preserve" fill="#00f000" fill-rule="nonzero" stroke="#00f000" stroke-width="1" stroke-linecap="butt" stroke-linejoin="miter" stroke-miterlimit="10" stroke-dasharray="" stroke-dashoffset="0" font-family="Sans Serif" font-weight="normal" text-anchor="start" style="mix-blend-mode: normal"><tspan x="0" dy="0">离开游戏</tspan></text></g></g></svg>