<svg version="1.1" xmlns="http://www.w3.org/2000/svg" xmlns:xlink="http://www.w3.org/1999/xlink" width="277.91389" height="374.93329" viewBox="0,0,277.91389,374.93329"><g transform="translate(-171.5638,14.9333)"><g stroke="none" stroke-miterlimit="10"><path d="M310.1754,243.5c28.55312,0 51.7,5.46213 51.7,12.2c0,6.73787 -23.14688,12.2 -51.7,12.2c-28.55312,0 -51.7,-5.46213 -51.7,-12.2c0,-6.73787 23.14688,-12.2 51.7,-12.2z" fill="#3a3a3a" stroke-width="0"/><path d="M198,309v-258h244v258z" fill="none" stroke-width="0"/><path d="M309.77502,112.21358c31.10009,-0.84086 43.83061,16.40933 46.99879,31.05593c0.56879,2.62954 4.61305,20.36169 5.21131,42.46886c0.17458,6.4512 -0.68051,23.49014 -2.64682,37.67134c-1.58267,11.41431 -4.21844,20.68107 -5.07072,23.34834c-2.37931,7.94458 -14.16785,8.10865 -16.84184,8.25293c-10.34696,0.5583 -12.88503,-2.11274 -14.15059,-3.48405c-3.90766,-4.23419 -3.43723,-11.39496 -4.10201,-15.78078c-0.17358,-1.1451 -0.3881,-2.01139 -0.74283,-2.49117c-0.60798,-0.82234 -1.84464,-0.71302 -2.09964,-0.39886c-0.16232,0.19997 -0.13653,2.50098 -0.20013,3.67353c-0.16854,3.10743 -0.12348,7.47503 -0.45796,11.24286c-0.40665,4.58072 -1.84584,8.00881 -3.09917,8.99363c-3.41421,2.68269 -11.97987,5.353 -17.59959,5.4613c-8.70735,0.16784 -14.5416,-3.55381 -15.68135,-5.41073c-2.15623,-3.51295 -2.99356,-8.77217 -3.56151,-13.45015c-0.79879,-6.57926 -0.70869,-12.46494 -0.70869,-12.46494c0,0 -16.95022,3.13508 -20.3272,-9.56417c-0.75754,-2.84874 -2.1539,-10.2131 -2.53206,-19.08442c-0.44136,-10.35357 0.25366,-22.75975 1.13588,-32.43594c0.61804,-6.77884 1.27197,-12.21778 3.08314,-14.67241c2.24026,-3.03615 5.95564,-4.22105 9.55091,-5.10715c5.13347,-1.2652 10.02206,-1.44208 10.02206,-1.44208c0,0 0.03272,-19.934 12.73824,-30.47593c4.68025,-3.88327 13.27259,-5.69481 21.08178,-5.90595z" fill="#020134" stroke-width="0"/><path d="M348.24699,148.29881c0,0.34065 1.03386,3.86805 6.09053,26.38476c3.96508,17.65603 -5.31342,64.77131 -6.46227,67.87745c-2.11472,5.71756 -9.69391,4.92061 -13.42841,4.75954c-1.70879,-0.0737 -3.17209,-0.46306 -4.17714,-1.30588c-1.8272,-1.53227 -2.49445,-4.20871 -2.87991,-6.70089c-0.59092,-3.8206 -0.16137,-7.56973 -0.16137,-7.56973c0,0 5.87917,-1.69415 9.30206,-3.82416c3.82582,-2.38075 5.12322,-4.46155 5.12322,-4.46155c0,0 -4.80869,1.1936 -10.4971,1.43809c-2.59935,0.11173 -5.71555,0.39322 -8.78831,0.17944c-4.00682,-0.27876 -7.93977,-1.07642 -10.55654,-0.89776c-2.80396,0.19144 -3.12407,1.84931 -3.19514,2.29063c-1.03749,6.44219 0.7598,18.15886 -0.84037,22.80122c-1.12358,3.25969 -4.38738,4.57839 -8.08678,5.16472c-5.3669,0.85062 -11.48068,-0.01011 -11.88937,-0.139c-1.21245,-0.38238 -2.08301,0.09498 -3.25034,-3.18672c-1.90136,-5.34528 -2.04683,-18.90706 -2.34719,-31.21187c-0.42791,-17.5302 -1.69561,-34.97944 -0.91839,-50.92208c0.61271,-12.56816 3.1951,-25.3647 3.65919,-28.52237c2.61538,-17.79507 18.1368,-19.80567 32.72874,-19.80567c14.59195,0 30.5749,14.16445 30.5749,27.65182z" fill="#0c1390" stroke-width="0"/><path d="M348.24699,148.29881c0,0.34065 1.03386,3.86804 6.09053,26.38476c0.60327,2.68627 0.89998,3.28524 0.96539,7.07662c0.07322,4.24391 -4.22667,22.88064 -14.50974,28.81275c-12.80784,7.3886 -32.86188,3.9444 -41.61972,-3.2694c-19.63569,-16.17384 -10.18737,-77.51104 -8.65455,-79.09162c6.3919,-6.59106 16.99766,-7.56494 27.1532,-7.56494c14.59194,0 30.5749,14.16444 30.5749,27.65182z" fill="#162ed0" stroke-width="0"/><g><path d="M304.43675,140.46489c6.15998,-6.29094 13.56983,-7.95618 16.11615,-8.17378c8.80173,-0.75218 22.76223,-0.6199 31.35519,1.28659c2.18263,0.48425 9.23671,3.45676 11.60039,8.4873c1.80905,3.85014 8.62395,16.58877 -1.41948,28.22253c-10.60233,12.28116 -39.63506,9.61211 -47.93272,7.67057c-3.70239,-1.04867 -10.28978,-5.32147 -12.526,-12.73116c-2.70213,-8.95351 -0.44384,-21.44266 2.80645,-24.76205z" fill="#10293a" stroke-width="0"/><g><path d="M308.07537,157.95526c0,-3.66428 -1.67859,-12.01253 6.10114,-15.84375c6.6197,-3.25995 22.43665,-2.36369 26.79872,-2.0167c4.90128,0.38988 10.32574,1.22637 13.8145,3.23114c4.14656,2.38277 5.14419,13.68619 4.7788,15.60614c-3.07005,16.13188 -33.56174,13.11749 -39.49204,11.58247c-6.41657,-1.66089 -12.00112,-5.77714 -12.00112,-12.55931z" fill="#4a7b9c" stroke-width="0"/><path d="M317.46599,156.07777c-8.15581,-4.18779 -2.38465,-14.36619 -2.19715,-14.4372c7.12509,-2.69821 21.56882,-1.8749 25.70639,-1.54576c4.90128,0.38988 10.32574,1.22637 13.8145,3.23114c1.66477,0.95664 2.82197,3.35118 3.58717,5.99908c0.30297,1.04841 1.22276,8.90675 -3.94373,10.53303c-7.35713,2.31584 -20.97499,4.43127 -36.96718,-3.78029z" fill="#8cc5de" stroke-width="0"/><path d="M350.72283,142.28052c2.23609,0.81882 5.70281,2.393 4.9907,5.25038c-1.50599,6.04291 -8.1849,2.63281 -12.8319,1.83705c-0.74902,-0.12826 -4.23108,-0.17191 -6.35614,-1.35192c-1.36545,-0.75821 -1.80699,-2.622 -1.80699,-3.17232c0,-2.07107 1.67893,-3.75 3.75,-3.75c0.06008,0 3.07448,-0.13064 6.11843,0.08282c2.41709,0.1695 4.79561,0.61318 6.1359,1.10397z" fill="#ffffff" stroke-width="0.5"/></g></g><g stroke-width="0"><path d="M273.64815,157.56602c0.15166,0.07276 0.83535,0.74311 0.89344,2.09341c0.18688,4.34371 -0.60101,14.62382 -0.55942,25.51404c0.06993,18.30763 0.44248,38.82364 0.44248,38.82364c0,0 -1.98678,0.28325 -4.34134,0.14916c-2.33157,-0.13279 -5.02148,-0.67253 -6.96146,-2.76327c-3.72289,-4.0122 -3.94937,-13.64596 -3.94734,-20.8c0.00192,-6.74437 0.09353,-15.92666 0.24408,-24.11c0.11555,-6.28132 -0.0725,-11.92576 1.81383,-15.72074c2.08068,-4.18598 10.94122,-3.89357 12.41572,-3.18623z" fill="#0c1390"/><path d="M273.64815,157.56602c0.15166,0.07276 0.83535,0.74311 0.89344,2.09341c0.05434,1.26297 0.02627,3.02781 -0.03986,5.1636c-0.013,0.41971 -0.04306,1.30112 -0.04306,1.30112c0,0 -5.19264,-0.64802 -7.30623,-0.333c-2.69242,0.40129 -7.53622,2.5452 -7.53622,2.5452c0,0 0.04502,-0.67017 0.07265,-0.99808c0.2132,-2.53029 0.64085,-4.76993 1.54356,-6.58602c2.08068,-4.18598 10.94122,-3.89357 12.41572,-3.18623z" fill="#162ed0"/></g><g><path d="M311.57491,301.24962c68.75026,0 124.48337,13.15173 124.48337,29.37518c0,16.22346 -55.73311,29.37518 -124.48336,29.37518c-68.75026,0 -124.48337,-13.15173 -124.48337,-29.37518c0,-16.22346 55.73311,-29.37518 124.48337,-29.37518z" fill="#3a3a3a" stroke-width="0"/><path d="M310.61088,-14.86208c74.88286,-2.02462 105.53544,39.51042 113.16379,74.77653c1.36953,6.33141 11.10731,49.02692 12.5478,102.25661c0.42035,15.53322 -1.63853,56.55961 -6.37302,90.70513c-3.81075,27.4834 -10.15717,49.79592 -12.20929,56.21818c-5.7289,19.12898 -34.11338,19.52402 -40.55182,19.87142c-24.91343,1.34427 -31.0246,-5.08706 -34.07182,-8.3889c-9.40887,-10.19509 -8.27616,-27.43681 -9.87682,-37.99699c-0.41794,-2.75718 -0.93447,-4.84303 -1.78859,-5.99824c-1.46389,-1.98003 -4.44153,-1.71681 -5.05552,-0.96037c-0.39083,0.48149 -0.32874,6.02186 -0.48188,8.84513c-0.40581,7.48208 -0.29732,17.9984 -1.10268,27.07058c-0.97913,11.02947 -4.44442,19.28363 -7.46219,21.65488c-8.22074,6.45938 -28.84515,12.88897 -42.37633,13.14973c-20.96558,0.40413 -35.01329,-8.55688 -37.75759,-13.02797c-5.19178,-8.45849 -7.2079,-21.12164 -8.57541,-32.38529c-1.92333,-15.84156 -1.70639,-30.01311 -1.70639,-30.01311c0,0 -40.81277,7.54865 -48.94387,-23.02863c-1.824,-6.8592 -5.18616,-24.59113 -6.0967,-45.9515c-1.06271,-24.92935 0.61076,-54.80097 2.73497,-78.09932c1.48812,-16.3221 3.06265,-29.418 7.42359,-35.32826c5.3941,-7.31045 14.34,-10.16345 22.9967,-12.297c12.36038,-3.04635 24.13114,-3.47225 24.13114,-3.47225c0,0 0.07879,-47.99712 30.67116,-73.38c11.26912,-9.35014 31.95776,-13.71197 50.76075,-14.22036z" fill="#020134" stroke-width="0"/><path d="M403.24377,72.02401c0,0.82022 2.48933,9.3135 14.66479,63.52928c9.54713,42.51223 -12.79366,155.95649 -15.55987,163.43546c-5.09183,13.76675 -23.34102,11.84786 -32.33296,11.46003c-4.11443,-0.17746 -7.63776,-1.11496 -10.05772,-3.1443c-4.39954,-3.68941 -6.00615,-10.13374 -6.93426,-16.13441c-1.42282,-9.19925 -0.38855,-18.22641 -0.38855,-18.22641c0,0 14.15587,-4.07918 22.39752,-9.20782c9.21182,-5.73237 12.3357,-10.74253 12.3357,-10.74253c0,0 -11.57837,2.87395 -25.27494,3.46264c-6.25872,0.26902 -13.76191,0.9468 -21.16051,0.43205c-9.64763,-0.6712 -19.11739,-2.5918 -25.41806,-2.16162c-6.75138,0.46095 -7.52215,4.45277 -7.69326,5.51538c-2.49807,15.51152 1.82945,43.72294 -2.02344,54.90083c-2.70536,7.84869 -10.56394,11.02386 -19.47136,12.43562c-12.92244,2.04813 -27.64321,-0.02434 -28.62725,-0.33468c-2.91934,-0.9207 -5.01548,0.22869 -7.82618,-7.67299c-4.5781,-12.87038 -4.92837,-45.52446 -5.65157,-75.152c-1.03033,-42.20925 -4.08269,-84.22357 -2.2113,-122.61029c1.47529,-30.26164 7.69317,-61.07317 8.81061,-68.67622c6.29732,-42.847 43.66982,-47.68813 78.80433,-47.68813c35.13452,0 73.61831,34.10519 73.61831,66.58011z" fill="#0c1390" stroke-width="0"/><path d="M403.24377,72.02401c0,0.82022 2.48933,9.31347 14.66479,63.52928c1.45256,6.46801 2.16698,7.91021 2.32447,17.0391c0.1763,10.21849 -10.17699,55.09206 -34.93659,69.3754c-30.83875,17.79029 -79.1249,9.49733 -100.21204,-7.87207c-47.27885,-38.94341 -24.52917,-186.63124 -20.83844,-190.43696c15.39043,-15.86997 40.927,-18.21487 65.37953,-18.21487c35.1345,0 73.61831,34.10517 73.61831,66.58011z" fill="#162ed0" stroke-width="0"/><g><path d="M297.75738,53.16148c14.83201,-15.14734 32.67347,-19.1569 38.8045,-19.68084c21.19282,-1.8111 54.80695,-1.4926 75.49709,3.09785c5.25534,1.16598 22.24016,8.32319 27.93144,20.43574c4.35584,9.27038 20.76476,39.94248 -3.41783,67.95427c-25.52831,29.5706 -95.43337,23.14406 -115.4125,18.46922c-8.91462,-2.52499 -24.77576,-12.81305 -30.16013,-30.65412c-6.50619,-21.55828 -1.06868,-51.62968 6.75737,-59.62212z" fill="#10293a" stroke-width="0"/><g><path d="M306.51846,95.27483c0,-8.82286 -4.04171,-28.92379 14.69034,-38.14861c15.93892,-7.84931 54.02301,-5.6913 64.52601,-4.85581c11.80131,0.93876 24.86233,2.95286 33.26258,7.77995c9.9841,5.73724 12.38619,32.95364 11.50641,37.5765c-7.39207,38.84238 -80.81002,31.58432 -95.08902,27.8883c-15.44983,-3.99909 -28.89632,-13.91021 -28.89632,-30.24033z" fill="#4a7b9c" stroke-width="0"/><path d="M329.12921,90.75421c-19.63758,-10.08337 -5.74177,-34.59094 -5.29031,-34.76192c17.1558,-6.49675 51.93345,-4.51439 61.8959,-3.72188c11.80131,0.93876 24.86233,2.95286 33.26258,7.77995c4.00844,2.3034 6.79475,8.06898 8.6372,14.4446c0.72949,2.52437 2.94416,21.44569 -9.49572,25.36145c-17.71452,5.57609 -50.50362,10.66962 -89.00965,-9.10219z" fill="#8cc5de" stroke-width="0"/><path d="M409.2051,57.53316c5.38406,1.97156 13.73124,5.76187 12.01662,12.64187c-3.62613,14.55013 -19.70762,6.33929 -30.89667,4.42326c-1.80349,-0.30882 -10.18761,-0.41393 -15.30433,-3.25516c-3.28773,-1.82562 -4.35087,-6.31326 -4.35087,-7.63832c0,-4.98672 4.04253,-9.02926 9.02926,-9.02926c0.14466,0 7.40274,-0.31456 14.73197,0.19941c5.81988,0.40812 11.54688,1.47642 14.77403,2.65814z" fill="#ffffff" stroke-width="0.5"/></g></g><g stroke-width="0"><path d="M223.62453,94.33762c0.36516,0.17519 2.01136,1.78926 2.15123,5.04051c0.44997,10.45879 -1.44711,35.21126 -1.34697,61.43276c0.16838,44.08115 1.06541,93.47964 1.06541,93.47964c0,0 -4.78377,0.68201 -10.45309,0.35915c-5.61396,-0.31973 -12.09073,-1.61932 -16.76182,-6.6534c-8.96398,-9.66058 -9.5093,-32.85677 -9.50441,-50.08228c0.00463,-16.23911 0.2252,-38.34824 0.58769,-58.05211c0.27822,-15.12417 -0.17457,-28.71487 4.36735,-37.85243c5.00986,-10.07901 26.34429,-9.37495 29.8946,-7.67182z" fill="#0c1390"/><path d="M223.62453,94.33762c0.36516,0.17519 2.01136,1.78926 2.15123,5.04051c0.13084,3.04098 0.06325,7.29036 -0.09598,12.43292c-0.0313,1.01058 -0.10368,3.13284 -0.10368,3.13284c0,0 -12.50285,-1.5603 -17.59196,-0.80179c-6.48281,0.96622 -18.14572,6.12833 -18.14572,6.12833c0,0 0.1084,-1.61364 0.17493,-2.40318c0.51334,-6.09243 1.54305,-11.48504 3.71659,-15.85783c5.00986,-10.07901 26.34429,-9.37494 29.8946,-7.67181z" fill="#162ed0"/></g></g></g></g></svg>