<svg version="1.1" xmlns="http://www.w3.org/2000/svg" xmlns:xlink="http://www.w3.org/1999/xlink" width="498.5043" height="427.5645" viewBox="0,0,498.5043,427.5645"><g transform="translate(-73.24805,44.18449)"><g stroke-miterlimit="10"><path d="M571.75213,175.14436c0.00014,0.09256 0.00022,0.18512 0.00022,0.2777c0,114.85201 -110.47474,207.95796 -246.75225,207.95796c-136.2775,0 -246.75225,-93.10595 -246.75225,-207.95796c0,-114.85201 110.47475,-207.95796 246.75225,-207.95796c125.2106,0 228.63907,78.59795 244.6119,180.44548" fill="none" stroke="none" stroke-width="0"/><path d="M571.72572,175.23468c-1.9588,115.24167 -111.67141,208.14534 -246.72561,208.14534c-136.2775,0 -246.75225,-94.59431 -246.75225,-211.28231v-0.00001c0,-116.688 110.47475,-211.28231 246.75225,-211.28231c126.91774,0 231.45535,82.04672 245.21631,187.57545" fill="none" stroke="none" stroke-width="0"/><path d="M562.49298,206.11984c-19.06565,98.43364 -119.48121,173.51403 -240.49285,173.51403c-134.62065,0 -243.75225,-92.91711 -243.75225,-207.53617v-0.00001c0,-114.61906 109.1316,-207.53617 243.75225,-207.53617c124.22791,0 226.75038,79.12445 241.83951,181.41113" fill="none" stroke="none" stroke-width="0"/><path d="M566.75232,170.14451c0.00014,0.09256 0.00022,0.18512 0.00022,0.2777c0,114.85201 -110.47474,207.95796 -246.75225,207.95796c-136.2775,0 -246.75225,-93.10595 -246.75225,-207.95796c0,-114.85201 110.47475,-207.95796 246.75225,-207.95796c125.2106,0 228.63907,78.59795 244.6119,180.44548" fill="none" stroke="none" stroke-width="0"/><path d="M566.72592,170.23481c-1.9588,115.24167 -111.67141,208.14534 -246.72561,208.14534c-136.2775,0 -246.75225,-94.59431 -246.75225,-211.28231v-0.00001c0,-116.688 110.47475,-211.28231 246.75225,-211.28231c126.91774,0 231.45535,82.04672 245.21631,187.57545" fill="none" stroke="none" stroke-width="0"/><path d="M557.49319,201.12c-19.06565,98.43364 -119.48121,173.51403 -240.49285,173.51403c-134.62065,0 -243.75225,-92.91711 -243.75225,-207.53617v-0.00001c0,-114.61906 109.1316,-207.53617 243.75225,-207.53617c124.22791,0 226.75038,79.12445 241.83951,181.41113" fill="none" stroke="none" stroke-width="0"/><path d="M427.10016,45.6302c0.20568,1.37507 5.67184,54.51375 6.70092,55.00691c1.2884,0.61743 0.63994,35.05948 -1.75521,63.66291c-1.58479,18.92598 -5.45189,36.05459 -4.58336,36.41468c19.58413,8.11945 39.49599,19.20323 46.38547,29.71872c5.33197,8.13827 8.72516,15.53192 9.46562,21.79473c2.80205,23.69962 -32.61249,41.97889 -37.87391,43.28269c-6.33764,1.57047 -14.36287,2.9317 -21.67725,0.07913c-8.89222,-3.46795 -16.84586,-10.35896 -24.85209,-16.45759c-14.07267,-10.71966 -26.19255,-21.1064 -28.72295,-21.28695c-8.44994,-0.6029 -52.32063,2.52362 -56.65718,4.1816c-5.46909,2.09101 -10.32209,12.98553 -16.06909,16.46435c-15.58646,9.43489 -31.31509,13.64777 -34.89783,14.24661c-47.04721,7.86376 -70.24717,-30.76845 -75.40681,-35.8067c-10.77085,-10.51743 -2.64953,-33.5546 8.10216,-48.1656c5.74872,-7.8122 13.04803,-10.78752 13.04803,-10.78752c0,0 -26.69573,-9.62591 -24.9482,-77.80796c0.47698,-18.60997 1.95841,-50.60411 6.69499,-78.61916c2.04807,-8.92144 1.86728,-18.3035 17.95279,-26.53975c13.21104,-6.76446 46.4932,-5.61175 46.4932,-5.61175c0,0 1.20715,-3.58184 1.86332,-4.53224c12.21824,-17.69741 36.45614,-30.8642 65.09124,-30.8642c41.38824,0 97.88525,19.74567 105.64612,71.62708z" fill="#ff0000" stroke="#ff0000" stroke-width="20"/><path d="M303.24136,47.45418c14.54992,-14.85924 32.05203,-18.79255 38.06646,-19.30652c20.78975,-1.77665 53.76454,-1.46421 74.06118,3.03893c5.15539,1.1438 21.81717,8.16489 27.4002,20.04706c4.27299,9.09406 20.36983,39.18279 -3.35282,66.66181c-25.04278,29.00818 -93.61829,22.70387 -113.21742,18.11794c-8.74507,-2.47697 -24.30453,-12.56935 -29.5865,-30.07109c-6.38245,-21.14825 -1.04835,-50.64771 6.62885,-58.48813z" fill="#ff0000" stroke="#ff0000" stroke-width="20"/></g></g></svg>