<svg version="1.1" xmlns="http://www.w3.org/2000/svg" xmlns:xlink="http://www.w3.org/1999/xlink" width="117.66667" height="30.66668" viewBox="0,0,117.66667,30.66668"><g transform="translate(-302.2619,-236.61958)"><g stroke-miterlimit="10"><path d="M302.26192,265.71482c0,-3.0639 0,-21.4094 0,-27.28571c0,-1.13899 0.65158,-1.80953 1.85714,-1.80953c14.20213,0 105.28664,0 113.71427,0c1.23107,0 2.09524,0.72764 2.09524,1.95238c0,5.83808 0,22.97132 0,26.42857c0,1.18696 -0.68585,2.28573 -1.95238,2.28573c-14.66381,0 -107.1671,0 -114.28573,0c-0.85733,0 -1.42856,-0.72138 -1.42856,-1.57144z" fill="#82d726" stroke="none" stroke-width="0" stroke-linecap="butt"/><path d="M375.70014,236.70837l-18.6751,30.57789h-32.08287l18.19625,-30.66668z" fill="#a0e15c" stroke="none" stroke-width="0" stroke-linecap="round"/><path d="M396.32484,236.70837l-18.6751,30.57789h-15.76781l18.19625,-30.66668z" fill="#a0e15c" stroke="none" stroke-width="0" stroke-linecap="round"/><text transform="translate(346.67118,257.32244) scale(0.36999,0.34999)" font-size="40" xml:space="preserve" fill="#1e4c00" stroke="#1e4c00" stroke-width="1" stroke-linecap="butt" font-family="Sans Serif" font-weight="normal" text-anchor="start"><tspan x="0" dy="0">公开</tspan></text></g></g></svg>