<svg version="1.1" xmlns="http://www.w3.org/2000/svg" xmlns:xlink="http://www.w3.org/1999/xlink" width="79.71622" height="20.59915" viewBox="0,0,79.71622,20.59915"><g transform="translate(-257.28379,-179.96709)"><g stroke-miterlimit="10"><path d="M262.45948,193.2329c0,-2.67245 0,-13.26581 0,-13.26581l67.2,0.02427c0,0 0,10.60783 0,13.24155c0,3.17867 -8.15541,7.33333 -14.49411,7.33333c-7.23712,0 -24.70199,0 -37.55294,0c-8.61269,0 -15.15295,-4.15466 -15.15295,-7.33333z" fill="#000000" stroke="none" stroke-width="0" stroke-linecap="butt"/><path d="M303.00002,193.2329c0,-2.67245 0,-13.26581 0,-13.26581l34,0.02427c0,0 0,10.60783 0,13.24155c0,3.17867 -4.12625,7.33333 -7.33333,7.33333c-3.66164,0 -12.49803,0 -19,0c-4.35761,0 -7.66667,-4.15466 -7.66667,-7.33333z" fill="#000000" stroke="none" stroke-width="0" stroke-linecap="butt"/><g fill="none" stroke="#ababab" stroke-width="2.5" stroke-linecap="round"><path d="M312.00002,187.12179l8,6.33333"/><path d="M320.00001,193.45513l8,-6.33333"/></g><path d="M257.2838,193.2329c0,-2.67245 0,-13.26581 0,-13.26581l34,0.02427c0,0 0,10.60783 0,13.24155c0,3.17867 -4.12625,7.33333 -7.33333,7.33333c-3.66164,0 -12.49803,0 -19,0c-4.35761,0 -7.66667,-4.15466 -7.66667,-7.33333z" fill="#000000" stroke="none" stroke-width="0" stroke-linecap="butt"/><text transform="translate(268.14641,193.752) scale(0.30317,0.30317)" font-size="40" xml:space="preserve" fill="#ababab" stroke="#ababab" stroke-width="2" stroke-linecap="butt" font-family="Sans Serif" font-weight="normal" text-anchor="start"><tspan x="0" dy="0">任   务</tspan></text></g></g></svg>