<svg version="1.1" xmlns="http://www.w3.org/2000/svg" xmlns:xlink="http://www.w3.org/1999/xlink" width="315.3003" height="315.30025" viewBox="0,0,315.3003,315.30025"><g transform="translate(-162.34985,-22.3499)"><g stroke-miterlimit="10"><path d="M169.84985,270.23519c0,-59.99896 0,-148.11906 0,-181.81815c0,-26.16557 22.73163,-58.56714 54.69562,-58.56714c60.91162,0 155.35022,0 189.899,0c25.1397,0 55.70568,31.10369 55.70568,56.54696c0,34.37139 0,127.20919 0,187.87876c0,32.57375 -30.56593,55.87453 -55.70568,55.87453c-33.79375,0 -124.88841,0 -185.85858,0c-34.07175,0 -58.73599,-25.26921 -58.73599,-59.91496z" fill="#8fb5b5" stroke="#6b999a" stroke-width="15" stroke-linecap="butt"/><path d="M254.60969,123.00422c0.5814,-2.35248 8.37711,-16.09034 11.88395,-22.81787c5.66599,-10.86963 14.87487,-12.30549 27.36848,-17.76924c1.6464,-0.72001 -11.81751,-14.14832 3.46424,-19.26385c14.74792,-4.93683 8.62156,14.2748 10.27308,13.69929c17.95816,-5.82377 34.23781,-5.37919 38.53855,-0.32821c8.86345,10.40963 17.5279,8.44768 21.20884,11.49989c3.87871,2.86597 -21.10038,20.30837 -49.37271,30.28992c-29.38127,10.37307 -63.42612,9.00625 -63.36442,4.69007z" fill="#00ffff" stroke="#000000" stroke-width="5" stroke-linecap="butt"/><path d="M314.47209,83.7757c0,0 -3.48405,-1.71356 -4.86314,-2.6782c-1.32072,-0.92381 -3.24385,-2.99246 -3.24385,-2.99246" fill="none" stroke="#000000" stroke-width="5" stroke-linecap="round"/><path d="M295.59327,82.55632c0,0 -0.31301,2.86633 -0.79052,4.31884c-0.49307,1.49983 -2.74216,4.5127 -2.74216,4.5127" fill="none" stroke="#000000" stroke-width="5" stroke-linecap="round"/><path d="M301.48152,95.57002l4.1164,-1.66305" fill="none" stroke="#000000" stroke-width="5" stroke-linecap="round"/><g stroke="#000000" stroke-width="5"><path d="M205.19768,199.59006c-1.24031,12.56623 6.823,10.54999 11.15259,26.04568c3.13149,11.20766 -23.52915,-0.14941 -22.00255,-31.0088c0.87093,-18.0719 26.11079,-23.91825 25.10334,-18.60379c-2.71143,14.30317 -12.40991,9.5457 -14.25337,23.56691z" fill="#00ffff" stroke-linecap="butt"/><path d="M319.96102,297.39984c-12.62826,0.58632 -57.28811,1.21927 -88.06841,-10.76622c-18.5321,-7.21619 -28.47119,-21.38101 -33.40985,-36.18347c-1.0632,-17.62886 13.17151,-17.98273 13.42601,-22.84864c5.8326,-22.45842 8.75833,-46.72441 12.61745,-52.44059c0.88211,-0.25608 20.21024,17.16519 87.51716,16.71951c56.60862,-0.37484 85.68011,-15.84497 87.78701,-17.14315c5.61702,-3.46097 31.67128,-30.11769 38.02568,-22.26257c-4.22134,13.0306 -0.56991,16.88623 2.72979,27.5398c-13.60787,7.14653 -22.60934,8.06873 -23.42173,18.55266c-1.9856,32.45217 10.9981,23.95546 10.99123,45.02705c-0.0031,9.51029 -7.87366,27.89914 -27.7166,38.0692c-24.12231,12.36336 -62.37827,15.69532 -80.47773,15.73642z" fill="#00ffff" stroke-linecap="butt"/><path d="M440.43105,180.38916c-3.25199,0.08193 -6.17426,-6.3698 -6.52709,-14.41033c-0.35283,-8.04053 1.9974,-14.62508 5.24939,-14.70701c3.25199,-0.08193 6.17426,6.3698 6.52709,14.41033c0.35283,8.04053 -1.9974,14.62508 -5.24939,14.70701z" fill="#009999" stroke-linecap="butt"/><path d="M417.05042,214.37353c0,0 -1.72332,9.64217 -3.92903,13.89603c-2.1376,4.12253 -13.76315,11.24548 -13.76315,11.24548" fill="none" stroke-linecap="round"/><path d="M399.04444,172.47101c0,0 -3.28977,-0.33379 -5.00848,-0.56243c-1.11309,-0.14807 -4.30132,-0.67602 -4.30132,-0.67602" fill="none" stroke-linecap="round"/><path d="M225.03944,174.30551l6.61501,-1.65375" fill="none" stroke-linecap="round"/></g></g></g></svg>