<svg version="1.1" xmlns="http://www.w3.org/2000/svg" xmlns:xlink="http://www.w3.org/1999/xlink" width="701.77361" height="238.1566" viewBox="0,0,701.77361,238.1566"><g transform="translate(30.69614,-54.76981)"><g data-paper-data="{&quot;isPaintingLayer&quot;:true}" fill-rule="nonzero" stroke-linecap="butt" stroke-linejoin="miter" stroke-miterlimit="10" stroke-dasharray="" stroke-dashoffset="0" style="mix-blend-mode: normal"><g><path d="M-25.44614,268.49919v-132.42472c0,0 19.86954,-4.31745 26.78691,0.17925c13.88283,9.02455 85.25118,9.43821 85.25118,9.43821c0,0 -16.18899,-14.78014 -26.17425,-22.1319c-9.9163,-7.30094 -33.53194,-21.82723 -33.53194,-21.82723c0,0 32.26118,11.35101 70.37815,13.48494c23.60201,1.32133 40.87913,-10.52026 64.31086,-9.20851c17.43221,0.97594 40.97512,22.40323 68.70579,22.55625c21.90999,0.12086 31.88704,4.58472 47.7427,5.26425c8.61737,0.36933 -13.03873,-9.22514 -25.83563,-13.13241c-12.7969,-3.90727 -23.22748,-1.75477 -38.53361,-6.52136c-14.5104,-4.51882 -24.7337,-18.65905 -24.7337,-18.65905c0,0 34.335,10.57457 74.524,14.13971c29.25558,2.59522 53.89218,19.01466 70.43665,20.35355c17.06129,1.38071 48.22671,-9.31465 80.06914,-8.44946c18.51716,0.50309 102.08903,10.63143 102.08903,10.63143c0,0 -35.62226,-16.24964 -49.74488,-27.83845c-10.51982,-8.63246 -20.27375,-20.06542 -20.27375,-20.06542c0,0 21.68491,15.24493 59.57823,21.45439c27.28705,4.47141 75.9915,31.38761 75.9915,31.38761c0,0 -12.13948,-19.13593 -14.44895,-31.94411c-1.14585,-6.35469 -0.55382,-14.93329 0.33367,-21.96482c0.90129,-7.14082 2.1073,-12.68606 2.1073,-12.68606c0,0 12.33976,24.93614 20.40088,35.61924c6.59246,8.73678 34.8139,28.26151 34.8139,28.26151c0,0 -9.45955,-13.84382 -13.44181,-28.15316c-4.46221,-16.03386 -8.55234,-32.65216 -5.83392,-31.03293c9.69949,5.77751 59.92482,68.31632 59.92482,68.31632l-25.13988,124.95292c0,0 -27.68093,1.9386 -38.66182,1.51392c-8.65605,-0.3348 -21.92395,-3.85729 -21.92395,-3.85729c0,0 -2.7737,3.22974 -4.44785,6.88699c-1.63631,3.57457 -2.16433,7.55752 -2.97679,9.33238c-0.81723,1.78528 -1.83534,4.00936 -1.83534,4.00936c0,0 -7.41927,-1.21597 -17.93922,-10.92127c-6.7327,-6.2113 -10.76984,-16.98354 -10.76984,-16.98354c0,0 -74.0821,21.75648 -99.34398,19.79053c-15.87509,-1.23546 27.35257,-32.82289 14.51944,-32.18023c-31.59433,1.5822 -127.0158,27.87875 -167.71547,37.95278c-11.79358,2.91913 -12.99739,-0.62267 -6.16598,-3.15878c15.03939,-5.58319 39.88327,-15.16802 44.81085,-19.31392c5.26978,-4.43377 4.65111,-8.58231 4.65111,-8.58231c0,0 -49.31461,4.10646 -70.42265,7.77856c-25.89581,4.50502 -85.20277,18.74688 -85.20277,18.74688c0,0 5.26986,-7.03545 7.23083,-9.77659c1.9265,-2.69293 4.43342,-6.5281 4.43342,-6.5281l-30.96219,9.87453c0,0 18.3744,-10.59049 25.08096,-15.09039c5.42748,-3.64167 12.13924,-9.88317 12.13924,-9.88317c0,0 -124.2703,35.2333 -144.61758,40.83806c-7.04168,1.93968 -12.4561,-2.0349 -7.49385,-4.36538c6.51246,-3.05852 16.3064,-7.526 26.7781,-11.83238c11.31914,-4.65493 35.40761,-10.13991 41.87604,-13.3343c13.68341,-6.75745 17.60543,-17.54914 17.60543,-17.54914c0,0 -33.68423,5.28426 -49.87221,9.19077c-17.09041,4.12431 -50.10986,14.9372 -50.10986,14.9372l5.88565,-24.41064z" fill="#cb2411" stroke="#000000" stroke-width="10.5"/><path d="M-25.44614,268.49919v-132.42472c0,0 19.86954,-4.31745 26.78691,0.17925c13.88283,9.02455 85.25118,9.43821 85.25118,9.43821c0,0 -16.18899,-14.78014 -26.17425,-22.1319c-9.9163,-7.30094 -33.53194,-21.82723 -33.53194,-21.82723c0,0 32.26118,11.35101 70.37815,13.48494c23.60201,1.32133 40.87913,-10.52026 64.31086,-9.20851c17.43221,0.97594 40.97512,22.40323 68.70579,22.55625c21.90999,0.12086 31.88704,4.58472 47.7427,5.26425c8.61737,0.36933 -13.03873,-9.22514 -25.83563,-13.13241c-12.7969,-3.90727 -23.22748,-1.75477 -38.53361,-6.52136c-14.5104,-4.51882 -24.7337,-18.65905 -24.7337,-18.65905c0,0 34.335,10.57457 74.524,14.13971c29.25558,2.59522 53.89218,19.01466 70.43665,20.35355c17.06129,1.38071 48.22671,-9.31465 80.06914,-8.44946c18.51716,0.50309 102.08903,10.63143 102.08903,10.63143c0,0 -35.62226,-16.24964 -49.74488,-27.83845c-10.51982,-8.63246 -20.27375,-20.06542 -20.27375,-20.06542c0,0 21.68491,15.24493 59.57823,21.45439c27.28705,4.47141 75.9915,31.38761 75.9915,31.38761c0,0 -12.13948,-19.13593 -14.44895,-31.94411c-1.14585,-6.35469 -0.55382,-14.93329 0.33367,-21.96482c0.90129,-7.14082 2.1073,-12.68606 2.1073,-12.68606c0,0 12.33976,24.93614 20.40088,35.61924c6.59246,8.73678 34.8139,28.26151 34.8139,28.26151c0,0 -9.45955,-13.84382 -13.44181,-28.15316c-4.46221,-16.03386 -8.55234,-32.65216 -5.83392,-31.03293c9.69949,5.77751 59.92482,68.31632 59.92482,68.31632l-25.13988,124.95292c0,0 -27.68093,1.9386 -38.66182,1.51392c-8.65605,-0.3348 -21.92395,-3.85729 -21.92395,-3.85729c0,0 -2.7737,3.22974 -4.44785,6.88699c-1.63631,3.57457 -2.16433,7.55752 -2.97679,9.33238c-0.81723,1.78528 -1.83534,4.00936 -1.83534,4.00936c0,0 -7.41927,-1.21597 -17.93922,-10.92127c-6.7327,-6.2113 -10.76984,-16.98354 -10.76984,-16.98354c0,0 -74.0821,21.75648 -99.34398,19.79053c-15.87509,-1.23546 27.35257,-32.82289 14.51944,-32.18023c-31.59433,1.5822 -127.0158,27.87875 -167.71547,37.95278c-11.79358,2.91913 -12.99739,-0.62267 -6.16598,-3.15878c15.03939,-5.58319 39.88327,-15.16802 44.81085,-19.31392c5.26978,-4.43377 4.65111,-8.58231 4.65111,-8.58231c0,0 -49.31461,4.10646 -70.42265,7.77856c-25.89581,4.50502 -85.20277,18.74688 -85.20277,18.74688c0,0 5.26986,-7.03545 7.23083,-9.77659c1.9265,-2.69293 4.43342,-6.5281 4.43342,-6.5281l-30.96219,9.87453c0,0 18.3744,-10.59049 25.08096,-15.09039c5.42748,-3.64167 12.13924,-9.88317 12.13924,-9.88317c0,0 -124.2703,35.2333 -144.61758,40.83806c-7.04168,1.93968 -12.4561,-2.0349 -7.49385,-4.36538c6.51246,-3.05852 16.3064,-7.526 26.7781,-11.83238c11.31914,-4.65493 35.40761,-10.13991 41.87604,-13.3343c13.68341,-6.75745 17.60543,-17.54914 17.60543,-17.54914c0,0 -33.68423,5.28426 -49.87221,9.19077c-17.09041,4.12431 -50.10986,14.9372 -50.10986,14.9372l5.88565,-24.41064z" fill="#cb2411" stroke="#95392c" stroke-width="4.5"/><path d="M-25.44615,268.49919v-132.42472c0,0 19.86954,-4.31745 26.78691,0.17925c13.88283,9.02455 85.25118,9.43821 85.25118,9.43821c0,0 -16.18899,-14.78014 -26.17425,-22.1319c-9.9163,-7.30094 -33.53194,-21.82723 -33.53194,-21.82723c0,0 32.26118,11.35101 70.37815,13.48494c23.60201,1.32133 40.87913,-10.52026 64.31086,-9.20851c17.43221,0.97594 40.97512,22.40323 68.70579,22.55625c21.90999,0.12086 31.88704,4.58472 47.7427,5.26425c8.61737,0.36933 -13.03873,-9.22514 -25.83563,-13.13241c-12.7969,-3.90727 -23.22748,-1.75477 -38.53361,-6.52136c-14.5104,-4.51882 -24.7337,-18.65905 -24.7337,-18.65905c0,0 34.335,10.57457 74.524,14.13971c29.25558,2.59522 53.89218,19.01466 70.43665,20.35355c17.06129,1.38071 48.22671,-9.31465 80.06914,-8.44946c18.51716,0.50309 102.08903,10.63143 102.08903,10.63143c0,0 -35.62226,-16.24964 -49.74488,-27.83845c-10.51982,-8.63246 -20.27375,-20.06542 -20.27375,-20.06542c0,0 21.68491,15.24493 59.57823,21.45439c27.28705,4.47141 75.9915,31.38761 75.9915,31.38761c0,0 -12.13948,-19.13593 -14.44895,-31.94411c-1.14585,-6.35469 -0.55382,-14.93329 0.33367,-21.96482c0.90129,-7.14082 2.1073,-12.68606 2.1073,-12.68606c0,0 12.33976,24.93614 20.40088,35.61924c6.59246,8.73678 34.8139,28.26151 34.8139,28.26151c0,0 -9.45955,-13.84382 -13.44181,-28.15316c-4.46221,-16.03386 -8.55234,-32.65216 -5.83392,-31.03293c9.69949,5.77751 59.92482,68.31632 59.92482,68.31632l-25.13988,124.95292c0,0 -27.68093,1.9386 -38.66183,1.51392c-8.65605,-0.3348 -21.92395,-3.85729 -21.92395,-3.85729c0,0 -2.7737,3.22974 -4.44785,6.88699c-1.63631,3.57457 -2.16433,7.55752 -2.97679,9.33238c-0.81724,1.78528 -1.83534,4.00936 -1.83534,4.00936c0,0 -7.41925,-1.21597 -17.93922,-10.92127c-6.73269,-6.2113 -10.76984,-16.98354 -10.76984,-16.98354c0,0 -74.0821,21.75648 -99.34398,19.79053c-15.87509,-1.23546 27.35257,-32.82289 14.51944,-32.18023c-31.59433,1.5822 -127.0158,27.87875 -167.71547,37.95278c-11.79358,2.91913 -12.99739,-0.62267 -6.16598,-3.15878c15.03939,-5.58319 39.88327,-15.16802 44.81085,-19.31392c5.26978,-4.43377 4.65111,-8.58231 4.65111,-8.58231c0,0 -49.31461,4.10646 -70.42265,7.77856c-25.89581,4.50502 -85.20277,18.74688 -85.20277,18.74688c0,0 5.26986,-7.03545 7.23083,-9.77659c1.9265,-2.69293 4.43342,-6.5281 4.43342,-6.5281l-30.96219,9.87453c0,0 18.3744,-10.59049 25.08096,-15.09039c5.42748,-3.64167 12.13924,-9.88317 12.13924,-9.88317c0,0 -124.2703,35.2333 -144.61758,40.83806c-7.04168,1.93968 -12.4561,-2.0349 -7.49385,-4.36538c6.51246,-3.05852 16.3064,-7.526 26.7781,-11.83238c11.31914,-4.6549 35.40761,-10.13991 41.87604,-13.3343c13.68341,-6.75745 17.60543,-17.54914 17.60543,-17.54914c0,0 -33.68423,5.28426 -49.87221,9.19077c-17.09041,4.12431 -50.10986,14.9372 -50.10986,14.9372l5.88565,-24.41064z" fill="#cb2411" stroke="none" stroke-width="0"/><path d="M0.07229,236.51867l-0.52241,-62.4953c0,0 -2.41294,-6.06733 1.94808,-6.77701c10.06945,-1.6386 31.42508,-0.31814 51.17171,-1.54383c18.59024,-1.15392 35.68889,-4.89891 42.65148,-5.03922c8.76964,-0.17664 19.64368,0.62294 19.64368,0.62294c0,0 -1.06632,-3.43458 -2.30349,-5.22564c-1.35167,-1.95687 -5.49351,-6.06223 -5.49351,-6.06223c0,0 8.13248,-0.10098 11.77961,0.18919c3.0896,0.24579 11.43443,2.42083 11.43443,2.42083l-8.05971,-11.68183c0,0 69.69229,22.01781 98.90249,21.53026c1.58127,-0.02637 -11.54763,-3.02196 -22.20911,-7.428c-4.26132,-1.76105 -11.49151,-4.68504 -14.21231,-6.65695c-3.36004,-2.43519 -1.56309,-3.71242 0.5831,-3.07692c1.07217,0.31745 37.11753,15.19371 72.22701,22.14103c14.64107,2.89713 29.10094,1.69062 40.18211,1.55114c16.92238,-0.21295 27.12559,4.87614 38.64656,4.00646c1.72071,-0.1299 -7.98499,-2.99172 -21.04467,-5.50375c-8.91761,-1.71529 -19.98716,-2.81919 -27.73321,-4.54514c-3.37246,-0.75146 -6.18806,-1.68955 -8.32521,-2.52815c-2.99104,-1.17371 -6.63228,-2.04769 -3.99853,-2.24819c4.03196,-0.30695 37.27716,-1.05193 55.83742,-2.46503c18.58037,-1.41456 95.19424,9.47701 121.15766,10.45881c23.07489,0.87257 55.83704,0.70346 55.83704,0.70346c0,0 -54.85974,-9.48399 -48.61693,-11.5904c0.79968,-0.26983 5.25097,-0.5572 3.49848,-2.15603c-2.82796,-2.57995 -11.03121,-3.75388 -17.44908,-7.60027c-4.70886,-2.82211 -9.03484,-6.25947 -12.19809,-9.00627c-3.21027,-2.78763 -2.33592,-4.84553 1.31649,-4.82228c5.96951,0.03803 80.86256,33.17818 126.24265,28.89202c13.45127,-1.27049 -16.65422,-13.04312 -16.65422,-13.04312c0,0 36.97227,6.31819 53.98942,7.4255c14.99416,0.97569 42.81464,-1.12648 42.81464,-1.12648l-0.01136,67.91103c0,0 -47.10778,4.93809 -64.23678,8.14397c-24.69791,4.62251 -83.98771,18.41101 -83.98771,18.41101c0,0 11.32081,-10.36818 21.15533,-15.66552c9.83452,-5.2973 26.72221,-10.12351 26.72221,-10.12351c0,0 -38.4922,3.21958 -59.04114,5.33327c-22.44646,2.30891 -70.44849,7.98624 -70.44849,7.98624c0,0 3.19854,-4.5784 4.37899,-6.69709c1.06607,-1.91337 2.39565,-5.46208 2.39565,-5.46208c0,0 -52.79425,3.4813 -97.40212,9.19209c-43.7577,5.60198 -98.67549,12.69321 -108.62131,12.94327c-8.84089,0.22224 0.92506,-12.17661 0.92506,-12.17661l-40.01799,7.85738c0,0 4.33341,-5.26609 5.13131,-7.67685c0.71054,-2.14684 -0.57554,-6.08794 -0.57554,-6.08794c0,0 -57.11,-0.32169 -93.46233,1.47975c-36.35232,1.80143 -83.94735,7.31176 -83.94735,7.31176z" data-paper-data="{&quot;index&quot;:null}" fill="#eec0b1" stroke="none" stroke-width="0"/></g></g></g></svg>