<svg version="1.1" xmlns="http://www.w3.org/2000/svg" xmlns:xlink="http://www.w3.org/1999/xlink" width="244" height="258" viewBox="0,0,244,258"><g transform="translate(-198,-51)"><g stroke="none" stroke-miterlimit="10"><path d="M198,309v-258h244v258z" fill="none" stroke-width="0"/><g><path d="M310.1754,243.5c28.55312,0 51.7,5.46213 51.7,12.2c0,6.73787 -23.14688,12.2 -51.7,12.2c-28.55312,0 -51.7,-5.46213 -51.7,-12.2c0,-6.73787 23.14688,-12.2 51.7,-12.2z" fill="#3a3a3a" stroke-width="0"/><path d="M356.87468,122.29872c0.08708,0.58216 2.40128,23.07942 2.83696,23.28821c0.54547,0.2614 -0.24189,15.76617 -1.25592,27.87597c-0.67095,10.57677 -6.71841,18.95669 -6.04301,19.92966c6.62482,2.7466 19.87476,18.70115 20.35028,30.44026c0.24833,6.13047 -4.53388,8.90721 -6.38945,10.50885c-2.83296,2.44527 -6.08454,3.80161 -9.01842,4.65026c-5.43784,1.57295 -10.03404,1.15203 -10.61147,0.92683c-7.14402,-3.08428 -9.66291,-13.72646 -15.66027,-20.45077c-6.03158,-6.76268 -15.52391,-9.59787 -16.4445,-9.2459c-2.31544,0.88527 -18.52252,11.1075 -20.03934,11.36103c-19.91832,3.32927 -29.33021,-9.12896 -31.51463,-11.262c-3.00059,-2.92999 -4.21743,-4.81942 -4.74569,-6.49066c-0.70379,-2.22654 -0.10589,-3.74785 -0.10589,-3.74785c0,0 -5.03469,-2.94956 -4.29485,-31.81571c0.20194,-7.87888 0.27952,-16.61116 2.28484,-28.47186c0.86709,-3.77706 0.68798,-7.74913 7.49809,-11.2361c5.59314,-2.86386 14.44957,-3.27918 14.44957,-3.27918c0,0 1.41493,-7.12995 3.67533,-14.7437c3.24219,-10.09197 15.35732,-18.56201 30.30111,-18.56201c17.52249,0 41.44156,8.3597 44.72727,30.32467z" fill="#020134" stroke-width="0"/><path d="M299.60371,103.59697c32.37903,-11.39394 49.93939,13.52432 49.93939,23.03031c0,5.36969 5.9489,50.58281 -4.78608,63.37668c-0.64765,0.77185 -1.37795,1.6385 -2.01927,2.33098c-0.61582,0.66495 -1.15903,1.15986 -1.02055,1.70368c0.21964,0.8625 3.59253,2.15845 6.76971,4.58089c3.90131,2.97456 7.99991,7.46296 11.62545,12.67457c3.55924,5.6618 4.32372,9.59453 4.68219,12.54685c0.83961,6.91501 -11.1386,9.72039 -12.29906,9.77104c-1.75997,0.07682 -2.92448,0.13812 -4.69024,-0.2562c-6.56666,-1.46642 -7.49099,-15.85189 -13.13113,-20.95464c-2.05243,-1.85688 -6.83953,-4.37261 -11.88661,-6.40109c-5.78427,-2.32476 -11.75801,-4.04751 -11.7667,-4.05033c-7.83783,-2.53917 -17.6448,-6.48461 -21.28786,-11.69753c-4.39912,-6.29478 -5.96438,-14.39042 -6.63714,-21.79361c-0.36182,-3.98155 -0.18739,-11.83232 0.30254,-20.73834c0.55343,-10.06035 1.60983,-21.46724 4.6266,-30.16456c3.41638,-9.8494 8.37581,-12.8316 11.57876,-13.95869z" fill="#0c1390" stroke-width="0"/><path d="M299.60371,103.59697c32.37903,-11.39394 49.93939,13.52432 49.93939,23.03031c0,3.01958 1.88119,18.63861 1.61889,34.00699c-0.05861,3.43384 -8.84014,24.19624 -34.14462,20.12403c-7.11175,-1.14448 -18.18283,-5.89598 -21.87705,-15.97952c-7.73799,-21.12123 -3.11243,-55.3129 -2.28262,-56.31747c2.40969,-2.91717 4.87692,-4.20661 6.74601,-4.86433z" fill="#162ed0" stroke-width="0"/><g><path d="M304.43674,123.29951c6.15998,-6.29094 13.56983,-7.95618 16.11615,-8.17378c8.80173,-0.75218 22.76223,-0.6199 31.35519,1.28659c2.18263,0.48425 9.23671,3.45676 11.60039,8.4873c1.80905,3.85014 8.62395,16.58877 -1.41948,28.22253c-10.60233,12.28116 -39.63506,9.61211 -47.93272,7.67057c-3.70239,-1.04867 -10.28978,-5.32147 -12.526,-12.73116c-2.70213,-8.95351 -0.44384,-21.44266 2.80645,-24.76205z" fill="#10293a" stroke-width="0"/><g><path d="M308.07536,140.78988c0,-3.66428 -1.67859,-12.01253 6.10114,-15.84375c6.6197,-3.25995 22.43665,-2.36369 26.79872,-2.0167c4.90128,0.38988 10.32574,1.22637 13.8145,3.23114c4.14656,2.38277 5.14419,13.68619 4.7788,15.60614c-3.07005,16.13188 -33.56174,13.11749 -39.49204,11.58247c-6.41657,-1.66089 -12.00112,-5.77714 -12.00112,-12.55931z" fill="#4a7b9c" stroke-width="0"/><path d="M317.46598,138.91239c-8.15581,-4.18779 -2.38465,-14.36619 -2.19715,-14.4372c7.12509,-2.69821 21.56882,-1.8749 25.70639,-1.54576c4.90128,0.38988 10.32574,1.22637 13.8145,3.23114c1.66477,0.95664 2.82197,3.35118 3.58717,5.99908c0.30297,1.04841 1.22276,8.90675 -3.94373,10.53303c-7.35713,2.31584 -20.97499,4.43127 -36.96718,-3.78029z" fill="#8cc5de" stroke-width="0"/><path d="M350.72282,125.11514c2.23609,0.81882 5.70281,2.393 4.9907,5.25038c-1.50599,6.04291 -8.1849,2.63281 -12.8319,1.83705c-0.74902,-0.12826 -4.23108,-0.17191 -6.35614,-1.35192c-1.36545,-0.75821 -1.80699,-2.622 -1.80699,-3.17232c0,-2.07107 1.67893,-3.75 3.75,-3.75c0.06008,0 3.07448,-0.13064 6.11843,0.08282c2.41709,0.1695 4.79561,0.61318 6.1359,1.10397z" fill="#ffffff" stroke-width="0.5"/></g></g><path d="M302.74592,206.78556c0,0 -0.1091,0.56779 -0.65957,1.13276c-0.33876,0.34769 -0.93036,0.60861 -1.5121,0.98993c-1.58242,1.03725 -4.08179,1.97535 -6.014,3.18003c-2.72273,1.69755 -4.93994,3.5166 -5.94745,3.33739c-1.18619,-0.21099 -7.69848,-1.29244 -13.11981,-4.46241c-4.98536,-2.91504 -8.963,-7.91559 -8.90439,-8.59316c0.16542,-1.91246 2.62074,-3.76691 4.36856,-5.32849c2.21671,-1.9805 3.88292,-3.48993 4.75429,-4.04915c0.48097,-0.30867 5.24716,1.73757 10.38952,4.75133c3.29162,1.9291 6.57453,4.58027 9.51993,6.19683c4.98529,2.73613 7.12503,2.84494 7.12503,2.84494z" fill="#0c1390" stroke-width="0"/><path d="M276.8149,134.0959c0,0 -0.99664,5.80458 -1.28634,14.19582c-0.34458,9.98093 0.02494,22.99211 0.27495,25.47743c0.61742,6.13786 2.39071,11.36123 2.39071,11.36123c0,0 -5.28598,0.21115 -8.21527,1.98331c-3.8622,2.33655 -5.6645,6.36825 -6.05267,6.10759c-0.43463,-0.29187 -1.97396,-5.44029 -2.5298,-15.36429c-0.38146,-6.81063 -0.31335,-15.17742 -0.15401,-22.52241c0.15552,-7.16879 0.38486,-13.36421 1.41954,-16.18943c2.48081,-6.77389 14.15291,-5.04926 14.15291,-5.04926z" fill="#0c1390" stroke-width="0"/><path d="M276.8149,134.0959c0,0 -0.37174,2.16506 -0.72715,5.76215c-0.08423,0.85252 -0.24478,2.78909 -0.24478,2.78909c0,0 -4.48994,-0.90258 -7.65573,-0.30893c-3.21336,0.60256 -6.51768,2.66778 -6.51768,2.66778c0,0 0.13595,-1.49839 0.22013,-2.17231c0.19045,-1.52454 0.43979,-2.78056 0.7723,-3.68851c2.48081,-6.77389 14.15291,-5.04926 14.15291,-5.04926z" fill="#162ed0" stroke-width="0"/></g></g></g></svg>