<svg version="1.1" xmlns="http://www.w3.org/2000/svg" xmlns:xlink="http://www.w3.org/1999/xlink" width="512.71542" height="423.52505" viewBox="0,0,512.71542,423.52505"><g transform="translate(-67.74774,31.28232)"><g stroke="none" stroke-width="0" stroke-miterlimit="10"><path d="M67.74774,183.32435c0,-114.85201 112.93718,-207.95796 252.25225,-207.95796c139.31507,0 252.25225,93.10595 252.25225,207.95796c0,114.85201 -112.93718,207.95796 -252.25225,207.95796c-139.31507,0 -252.25225,-93.10595 -252.25225,-207.95796z" fill="none"/><path d="M67.74774,179.99999c0,-116.688 112.93718,-211.28231 252.25225,-211.28231c139.31507,0 252.25226,94.59431 252.25226,211.28231c0,116.688 -112.93719,211.28232 -252.25226,211.28232c-139.31507,0 -252.25225,-94.59431 -252.25225,-211.28231z" fill="none"/><path d="M67.74774,183.74614c0,-114.61906 112.93718,-207.53617 252.25225,-207.53617c139.31507,0 252.25225,92.91711 252.25225,207.53618c0,114.61907 -112.93718,207.53617 -252.25225,207.53617c-139.31507,0 -252.25225,-92.91711 -252.25225,-207.53617z" fill="none"/><g><path d="M389.96033,291.80701c67.02317,12.68528 109.29046,29.27124 107.51818,55.98469c-1.77228,26.71345 -46.913,53.43856 -113.9362,40.75326c-67.0232,-12.6853 -155.94007,-52.30081 -115.19468,-77.24273c22.83373,-13.97746 54.58952,-32.1805 121.61272,-19.49523z" fill="#3a3a3a"/><g><path d="M313.95833,244.47144c2.40892,0 9.95702,0.30855 9.95702,0.30855c0,0 -1.10247,-18.44097 11.871,-33.22094c12.02399,-13.69832 30.19651,-9.49907 30.19651,-9.49907c0,0 8.89862,-16.00401 29.96534,-27.94701c6.68077,-3.78741 12.99189,-8.28507 22.69367,-10.28626c12.04838,-2.48521 33.04637,-3.03841 48.85922,-0.28198c7.64499,1.33264 16.24657,5.82024 21.3371,9.26193c10.96611,7.41413 14.97432,18.28106 17.33505,28.21009c3.08136,12.95998 2.52475,24.32201 2.52475,24.32201c0,0 19.81282,5.33346 20.70011,39.86997c0.46846,18.23424 1.13898,46.32075 -4.11421,67.65286c-4.66317,18.93602 -15.16262,32.19817 -17.05048,33.80722c-73.22221,62.40729 -166.58921,-7.1515 -214.35213,-22.07636c-12.00618,-3.75167 -29.76067,-22.88688 -28.13424,-52.14657c1.60373,-28.85132 27.14397,-47.97442 48.2113,-47.97442z" fill="#1b1316"/><g><path d="M279.65671,297.61981c0,-20.70507 13.3396,-36.42375 31.04353,-36.42375c6.77974,0 27.05712,-0.95175 38.28445,4.33846c8.36708,3.9425 6.75704,13.40564 17.32539,18.30357c12.28168,5.69196 41.23242,9.04686 41.23242,15.91383c0,8.56568 -6.6414,9.50103 -4.91567,28.15113c1.34871,14.5755 7.19448,23.73047 9.7527,31.56281c2.41751,7.40151 1.75481,13.85003 -3.57998,14.94087c-13.89009,2.84027 -85.89103,-30.41327 -99.7865,-36.80963c-16.22196,-7.4673 -29.35637,-19.27225 -29.35637,-39.97732z" fill="#e29aac"/><path d="M293.82759,266.70948c4.79724,-3.51325 10.55725,-5.51344 16.87262,-5.51344c6.77974,0 27.05712,-0.95175 38.28445,4.33846c8.36708,3.9425 6.75704,13.40564 17.32539,18.30357c12.28168,5.69196 41.23242,9.04686 41.23242,15.91383c0,6.89387 -4.30192,8.84524 -5.08153,19.06699c-0.05352,0.70175 -12.9772,-1.21674 -30.00571,-4.31336c-19.54591,-3.55437 -44.50005,-8.86478 -61.60657,-16.97572c-20.63582,-9.78433 -20.41206,-28.33702 -17.02112,-30.82036z" fill="#eac3cb"/></g><path d="M349.83326,229.38696c4.57162,7.88823 8.89818,16.85065 1.82864,16.85065c-3.48613,0 -9.69453,1.33371 -12.00299,-1.18854c-2.37287,-2.59266 -0.79756,-6.84923 0.11675,-11.16856c1.49319,-7.05404 6.15534,-11.22674 10.05757,-4.49351z" fill="#e29aac"/><path d="M430.69853,226.54166c5.87022,-3.19171 19.20732,-9.02431 35.42203,-14.90511c9.93101,-3.60182 26.64176,-10.65199 26.64176,-7.05328c0,1.8564 4.80985,20.53238 1.49569,24.53683c-5.9131,7.14474 -25.67218,5.23813 -36.95421,10.49657c-5.78285,2.69533 -12.48094,7.73392 -17.79243,13.53813c-8.15972,8.91669 -13.93324,18.70712 -15.00292,17.30371c-1.52869,-2.00565 -0.7133,-8.78414 -0.86738,-15.07728c-0.15944,-6.51182 -1.24178,-12.601 -0.05074,-18.22775c1.59606,-7.54009 4.8727,-9.39635 7.1082,-10.61181z" fill="#e29aac"/><g><path d="M454.51818,188.32009c0.26206,2.74 4.52561,1.27244 1.91075,6.61629c-1.12075,2.29049 -0.08886,3.62639 -12.2295,7.22295c-6.49375,1.92371 -10.92964,4.3588 -16.2508,7.39802c-3.46587,1.97955 -7.15934,4.1709 -9.81253,5.97347c-1.80044,1.22321 -7.6709,2.26741 -8.11704,2.9449c-2.73775,4.15742 -0.78199,55.75135 -3.87277,59.10292c-4.9403,5.35717 -6.62614,2.91356 -13.49263,1.82326c-12.22983,-1.94197 -23.00564,-7.58143 -24.74098,-11.51308c-1.24102,-2.81169 -0.09769,-37.67252 -0.09769,-40.90904c0,-6.63844 14.26272,-19.46913 30.7628,-31.33556c10.96649,-7.88681 22.92132,-16.96032 32.33394,-17.64585c6.543,-0.64209 23.4098,8.26521 23.60651,10.32176z" fill="#e29aac"/><path d="M430.91167,177.99831c3.58286,-0.35161 10.94344,-1.86466 24.77341,1.91691c6.27621,1.71612 17.4536,7.62838 16.09377,12.24901c-1.11584,3.79156 -6.3631,3.87379 -10.83377,5.41729c-14.53045,5.01652 -27.966,8.49505 -35.11759,12.58099c-15.4835,8.84621 -17.23953,20.71003 -17.36727,25.67265c-0.0256,0.99502 0.97915,1.25975 -2.91949,-0.0423c-3.98381,-1.33049 -8.38078,-4.25157 -13.85511,-5.40066c-11.70674,-2.45731 -23.87068,-2.15276 -23.87068,-3.41244c0,-6.63844 14.26272,-19.46913 30.7628,-31.33556c10.96649,-7.88681 22.92132,-16.96032 32.33394,-17.64585z" fill="#eac3cb"/></g><path d="M499.79984,357.54173c-16.30697,14.79039 -52.87782,12.27927 -61.98681,7.90661c-18.09689,-8.6873 -14.1081,-40.41408 -14.1081,-56.98384c0,-27.40164 24.69084,-50.69075 53.62393,-54.99338c24.85623,-3.6964 40.34563,-10.86332 39.06887,23.53017c-1.01642,27.38074 2.42295,63.28861 -16.59789,80.54047zM487.79829,349.60865c7.80629,-5.1158 14.57132,-15.9571 17.25387,-34.17975c1.12349,-7.63176 0.89922,-26.9804 0.74845,-31.0325c-1.0214,-27.45269 -18.74633,-22.1856 -31.79134,-22.1856c-5.91302,0 -14.12015,5.72118 -22.16439,13.55043c-9.70251,9.44321 -18.81962,21.83092 -18.81962,29.34175c0,6.40928 -1.97473,24.22767 3.93473,37.65963c6.75716,15.35876 23.03755,25.06503 50.8383,6.84604z" fill="#e29aac"/><path d="M444.72185,319.73429c0,-6.12532 -0.6003,-11.57242 1.24232,-15.82523c4.25029,-9.80967 20.9896,-28.03612 36.32722,-27.6934c21.56796,0.48197 15.38895,13.3777 16.75662,25.55351c1.54948,13.79443 -7.0483,50.98253 -43.30345,45.88012c-8.17954,-1.15115 -11.02271,-14.02442 -11.02271,-27.91502z" fill="#995969"/><path d="M459.87708,311.86404c0,-12.76823 13.9964,-24.28949 31.26185,-24.28949c10.8217,0 21.51427,6.21248 29.8612,6.65906c4.00065,0.21407 35.98454,-22.2771 53.37748,2.26072c11.38634,16.06375 4.9896,29.43628 -4.45139,37.96107c-8.54605,7.71668 -19.7371,11.35537 -19.7371,11.35537c0,0 -6.11193,32.31953 -42.70945,21.52426c-24.74141,-7.29803 -10.29622,-36.15647 -18.00804,-36.15647c-17.26544,0 -29.59455,-6.54633 -29.59455,-19.31453z" fill="#251914"/><path d="M472.93759,309.9618c0,-5.41436 6.28284,-9.8036 14.03311,-9.8036c2.78072,0 8.49692,0.15655 13.5612,1.36659c3.47709,0.83081 6.0593,2.62232 9.5281,3.34063c5.56021,1.15143 10.70202,1.46513 12.89656,1.29197c0.19453,-0.01535 3.49818,-0.38357 7.76189,-1.59615c4.59699,-1.30735 10.35511,-3.45358 15.83322,-3.09815c7.29513,0.47332 13.45562,4.28503 14.50461,12.84256c0.20578,1.67877 0.41808,12.61163 -8.09259,16.03132c-2.51875,1.01205 -5.52915,0.50221 -8.31559,-0.75844c-1.41437,-0.63991 -2.77101,-2.00849 -3.97639,-2.74288c-2.88857,-1.75993 -4.90832,-2.65371 -4.77132,-1.20519c0.33446,3.53614 0.76302,17.42967 -0.89251,22.0568c-2.64972,7.40584 -15.39792,7.52984 -21.32788,7.58473c-10.39566,0.09625 -16.03226,-3.592 -16.27978,-8.84746c-0.21421,-4.54819 0.69391,-10.79149 4.3118,-14.80088c2.81983,-3.12496 9.59251,-1.55633 12.47525,-2.45788c2.66777,-0.83436 1.60513,-4.24644 0.55864,-4.37326c-4.21436,-0.51071 -31.33505,-0.26313 -33.88861,-0.3449c-9.13969,-0.29265 -7.91967,-9.07152 -7.91967,-14.48591z" fill="#dee3e9"/><g fill="#b5b5b7"><path d="M480.8573,324.44779c-8.73383,-0.27961 -8.00761,-8.30855 -7.92588,-13.7457c11.72942,-0.66372 24.06413,0.24792 35.54773,2.16457c3.08587,0.51504 9.3959,9.01526 6.69993,12.27315c-3.29139,0.80885 -7.86123,-1.72568 -11.09328,-0.67943l-0.10875,0.02839c-9.38723,-0.07407 -21.45765,0.01224 -23.11975,-0.041z"/><path d="M535.00789,347.68742c-2.64972,7.40586 -15.39792,7.52984 -21.32788,7.58473c-10.39564,0.0962 -16.03224,-3.592 -16.2798,-8.84746c-0.02674,-0.56757 -0.03597,-1.16152 -0.02468,-1.77427c6.07362,0.3658 12.2266,0.436 18.0394,-0.50339c7.05508,-1.14016 13.68107,-4.33683 20.74404,-5.95131c-0.11588,3.83554 -0.44271,7.51184 -1.15105,9.4917z"/></g><g fill="#f5f4f5"><path d="M486.97069,300.15828c2.78072,0 8.49692,0.15653 13.56118,1.36659c3.47709,0.83079 6.0593,2.6223 9.52812,3.34063c5.56021,1.15143 10.70202,1.46513 12.89656,1.29197c0.19453,-0.01535 3.49818,-0.38357 7.76189,-1.59615c4.59699,-1.30737 10.35511,-3.45358 15.83322,-3.09817c6.05189,0.39266 11.32292,3.08277 13.54261,8.87392c-5.76398,2.0056 -13.78677,-0.95602 -19.64609,0.42339c-3.45581,0.81357 -5.70059,2.776 -9.42287,3.04623c-8.0163,0.00191 -31.42079,-4.10644 -36.06395,-4.53824c-7.7774,-0.72329 -13.96296,-0.39476 -21.09825,-2.81532c2.02041,-3.68133 7.12712,-6.29484 13.10758,-6.29484z"/><path d="M501.712,331.62374c1.60253,-1.77595 4.48172,-2.03596 7.19805,-2.09498c0.86069,0.72849 1.98279,0.72849 1.98279,0.72849l0.53724,-0.01278c2.37264,-0.22954 8.2499,-2.51724 10.3331,-0.93006c3.7254,2.83835 -4.14605,8.06928 -5.93809,8.95959c-5.99144,2.9767 -12.01933,4.81823 -18.37646,4.8072c0.29525,-3.94654 1.4738,-8.36606 4.26338,-11.45748z"/></g></g></g></g></g></svg>