<svg version="1.1" xmlns="http://www.w3.org/2000/svg" xmlns:xlink="http://www.w3.org/1999/xlink" width="301.39051" height="420.85282" viewBox="0,0,301.39051,420.85282"><g transform="translate(-182.0807,71.62302)"><g stroke="none" stroke-miterlimit="10"><g><path d="M316.79612,291.59684c67.44267,0 122.11576,12.90159 122.11576,28.81648c0,15.9149 -54.67309,28.81648 -122.11576,28.81648c-67.44267,0 -122.11576,-12.90159 -122.11576,-28.81648c0,-15.9149 54.67309,-28.81648 122.11576,-28.81648z" fill="#3a3a3a" stroke-width="0"/><path d="M427.10014,16.65622c0.20568,1.37507 5.67184,54.51375 6.70092,55.00691c1.2884,0.61743 0.63994,35.05948 -1.75521,63.66291c-1.58479,18.92598 -5.45189,36.05459 -4.58336,36.41468c19.58413,8.11945 39.49599,19.20323 46.38547,29.71872c5.33197,8.13827 8.72516,15.53192 9.46562,21.79473c2.80205,23.69962 -32.61249,41.97889 -37.87391,43.28269c-6.33764,1.57047 -14.36287,2.9317 -21.67725,0.07913c-8.89222,-3.46795 -16.84586,-10.35896 -24.85209,-16.45759c-14.07267,-10.71966 -26.19255,-21.1064 -28.72295,-21.28695c-8.44994,-0.6029 -52.32063,2.52362 -56.65718,4.1816c-5.46909,2.09101 -10.32209,12.98553 -16.06909,16.46435c-15.58646,9.43489 -31.31509,13.64777 -34.89783,14.24661c-47.04721,7.86376 -70.24717,-30.76845 -75.40681,-35.8067c-16.5298,-16.14089 13.12964,-55.07121 13.12964,-55.07121c0,0 -18.67518,-13.50782 -16.92765,-81.68987c0.47698,-18.60997 0.41798,-39.23567 5.15456,-67.25073c2.04807,-8.92144 1.86728,-18.3035 17.95279,-26.53975c13.21104,-6.76446 42.7301,-6.17079 42.7301,-6.17079c0,0 0.43499,-1.57879 0.68668,-2.36227c7.65808,-23.8373 36.2741,-43.8436 71.57143,-43.8436c41.38824,0 97.88525,19.74567 105.64612,71.62708z" fill="#150302" stroke-width="0"/><path d="M203.55782,26.99714c1.42098,-16.38449 18.04236,-17.55973 19.32594,-17.64067c6.16089,-0.38853 20.55248,-0.21598 20.55248,-0.21598c0,0 -2.65043,7.47072 -4.31527,17.52569c-2.47302,14.93615 -4.34361,35.9677 -4.84311,49.86553c-0.45955,12.78602 -1.00676,33.47663 -0.0689,50.87768c1.0736,19.91949 2.3856,36.48328 2.3856,36.48328c0,0 -11.47607,0.89645 -16.28968,0.32579c-1.47878,-0.17531 -12.52591,-4.63912 -16.57848,-25.78568c-5.78316,-30.17686 -3.04236,-78.29989 -0.16858,-111.43564z" fill="#770d3a" stroke-width="0"/><path d="M203.55782,26.99714c1.42098,-16.38449 18.04236,-17.55973 19.32594,-17.64067c6.16089,-0.38853 20.55248,-0.21598 20.55248,-0.21598c0,0 -2.65043,7.47072 -4.31527,17.52569c-0.17129,1.03451 -0.50493,3.18687 -0.50493,3.18687c0,0 -9.21624,-2.24674 -19.23281,-0.95725c-5.72392,0.73685 -16.37636,4.67673 -16.37636,4.67673c0,0 0.36602,-4.44275 0.55099,-6.5754z" fill="#c41409" stroke-width="0"/><path d="M285.45995,-24.05807c13.02205,-7.26024 25.07022,-11.23937 43.68695,-10.69852c38.45883,1.11732 65.72459,20.9023 77.51259,48.62985c17.67485,41.57449 9.1045,79.94843 7.92349,112.25296c-0.43126,11.79648 -0.93394,54.63362 -37.69617,80.74703c-18.13736,12.88357 -35.10611,13.14062 -64.7736,12.26985c-13.19486,-0.38727 -16.86634,12.31208 -31.94971,20.15241c-9.88809,5.13982 -19.15937,6.78923 -30.10687,7.28908c-13.1205,0.59905 -25.82137,-6.58095 -35.27296,-14.57795c-7.95696,-6.7324 -13.61102,-13.82655 -15.27392,-19.51041c-0.61006,-2.08523 1.28429,-7.36264 5.60991,-14.65656c4.25957,-7.18256 10.87673,-16.39582 19.78164,-16.79618c5.21595,-0.2345 13.06143,2.64727 19.648,7.33651c3.93676,2.80273 5.17903,9.29015 8.56357,12.16282c5.00042,4.24417 11.73617,4.42116 14.79651,4.3027c3.73303,0.04885 1.61908,-1.80616 -1.50424,-6.98453c-1.1275,-1.86936 -2.17035,-4.60431 -3.42156,-7.23024c-4.22617,-8.86952 -8.59527,-22.61371 -10.08893,-38.08644c-1.75344,-18.16374 -1.93574,-66.14798 2.84076,-105.65472c2.75235,-22.76498 7.06982,-43.04356 14.13961,-55.8561c4.69333,-8.50573 12.12928,-13.16486 15.58495,-15.09152z" fill="#770d3a" stroke-width="NaN"/><path d="M285.45995,-24.05807c13.02205,-7.26024 25.07022,-11.23937 43.68695,-10.69852c38.45883,1.11732 65.72459,20.9023 77.51259,48.62985c17.67485,41.57449 9.1045,79.94843 7.92349,112.25296c-0.09939,2.71898 -7.34643,35.03307 -37.24467,47.33743c-7.95448,3.2736 -19.22378,2.60647 -30.41112,2.26585c-19.78793,-0.60248 -40.2772,-4.01416 -48.55037,-10.13797c-19.69406,-14.57762 -25.82864,-65.43326 -28.27554,-107.89279c-1.19518,-20.73927 -0.31143,-43.39694 4.22795,-60.13526c3.05755,-11.27424 9.7399,-20.84613 11.1307,-21.62155z" fill="#c41409" stroke-width="NaN"/><g><path d="M303.24136,18.48021c14.54992,-14.85924 32.05203,-18.79255 38.06646,-19.30652c20.78975,-1.77665 53.76454,-1.46421 74.06118,3.03893c5.15539,1.1438 21.81717,8.16489 27.4002,20.04706c4.27299,9.09406 20.36983,39.18279 -3.35282,66.66181c-25.04278,29.00818 -93.61829,22.70387 -113.21742,18.11794c-8.74507,-2.47697 -24.30453,-12.56935 -29.5865,-30.07109c-6.38245,-21.14825 -1.04835,-50.64771 6.62885,-58.48813z" fill="#10293a" stroke-width="0"/><g><path d="M311.83581,59.79259c0,-8.65505 -3.96484,-28.37368 14.41093,-37.42305c15.63578,-7.70002 52.99552,-5.58305 63.29876,-4.76346c11.57686,0.9209 24.38947,2.89669 32.62994,7.63198c9.7942,5.62812 12.15061,32.32688 11.28756,36.86181c-7.25148,38.10361 -79.27306,30.9836 -93.28047,27.35787c-15.15598,-3.92303 -28.34673,-13.64564 -28.34673,-29.66518z" fill="#4a7b9c" stroke-width="0"/><path d="M334.01652,55.35794c-19.26408,-9.89159 -5.63256,-33.93304 -5.18968,-34.10077c16.82951,-6.37319 50.9457,-4.42853 60.71867,-3.6511c11.57686,0.9209 24.38947,2.89669 32.62994,7.63198c3.9322,2.25959 6.66551,7.91551 8.47292,14.16987c0.71562,2.47635 2.88817,21.03781 -9.31512,24.87909c-17.37759,5.47003 -49.54307,10.46669 -87.31674,-8.92907z" fill="#8cc5de" stroke-width="0"/><path d="M412.5694,22.76874c5.28166,1.93406 13.47008,5.65228 11.78807,12.40143c-3.55716,14.2734 -19.33279,6.21872 -30.30904,4.33912c-1.76919,-0.30295 -9.99384,-0.40605 -15.01325,-3.19324c-3.2252,-1.7909 -4.26812,-6.19318 -4.26812,-7.49304c0,-4.89188 3.96564,-8.85753 8.85753,-8.85753c0.14191,0 7.26194,-0.30857 14.45177,0.19562c5.70918,0.40036 11.32726,1.44834 14.49304,2.60758z" fill="#ffffff" stroke-width="0.5"/></g></g><path d="M417.85536,190.36723c9.09864,-0.34707 11.27634,0.12712 15.60911,2.53909c5.29739,2.94892 12.12524,8.3966 17.74495,13.83645c5.69222,5.51004 9.87898,9.27234 12.03327,12.53227c1.71049,2.58836 2.06539,4.9343 1.40419,7.05791c-3.73197,11.98631 -19.40658,23.19923 -22.29151,23.68736c-3.34829,0.56655 -8.56041,0.84834 -11.94181,0.21688c-8.74517,-1.63309 -18.05468,-12.58106 -24.84104,-18.09387c-5.55235,-4.51037 -9.37478,-7.87899 -12.02847,-9.62251c-2.11168,-1.3874 -3.63074,-1.59825 -3.63074,-1.59825c0,0 9.11222,-6.65016 16.88133,-15.28171c5.62025,-6.24415 10.44179,-15.24999 11.06069,-15.27361z" fill="#770d3a" stroke-width="0"/></g><g><path d="M316.79612,291.59684c67.44267,0 122.11576,12.90159 122.11576,28.81648c0,15.9149 -54.67309,28.81648 -122.11576,28.81648c-67.44267,0 -122.11576,-12.90159 -122.11576,-28.81648c0,-15.9149 54.67309,-28.81648 122.11576,-28.81648z" fill="#3a3a3a" stroke-width="0"/><path d="M427.10014,16.65622c0.20568,1.37507 5.67184,54.51375 6.70092,55.00691c1.2884,0.61743 0.63994,35.05948 -1.75521,63.66291c-1.58479,18.92598 -5.45189,36.05459 -4.58336,36.41468c19.58413,8.11945 39.49599,19.20323 46.38547,29.71872c5.33197,8.13827 8.72516,15.53192 9.46562,21.79473c2.80205,23.69962 -32.61249,41.97889 -37.87391,43.28269c-6.33764,1.57047 -14.36287,2.9317 -21.67725,0.07913c-8.89222,-3.46795 -16.84586,-10.35896 -24.85209,-16.45759c-14.07267,-10.71966 -26.19255,-21.1064 -28.72295,-21.28695c-8.44994,-0.6029 -52.32063,2.52362 -56.65718,4.1816c-5.46909,2.09101 -10.32209,12.98553 -16.06909,16.46435c-15.58646,9.43489 -31.31509,13.64777 -34.89783,14.24661c-47.04721,7.86376 -70.24717,-30.76845 -75.40681,-35.8067c-16.5298,-16.14089 13.12964,-55.07121 13.12964,-55.07121c0,0 -18.67518,-13.5078 -16.92768,-81.68987c0.47696,-18.60997 0.41796,-39.23567 5.15456,-67.25073c2.04807,-8.92144 1.86728,-18.3035 17.95279,-26.53975c13.21104,-6.76446 42.7301,-6.17079 42.7301,-6.17079c0,0 0.43499,-1.57879 0.68668,-2.36227c7.65808,-23.8373 36.2741,-43.8436 71.57143,-43.8436c41.38824,0 97.88525,19.74567 105.64612,71.62708z" fill="#150302" stroke-width="0"/><path d="M203.55782,26.99714c1.42098,-16.38449 18.04236,-17.55973 19.32594,-17.64067c6.16089,-0.38853 20.55248,-0.21598 20.55248,-0.21598c0,0 -2.65043,7.47072 -4.31527,17.52569c-2.47302,14.93615 -4.34361,35.9677 -4.84311,49.86553c-0.45955,12.78602 -1.00676,33.47663 -0.0689,50.87768c1.0736,19.91949 2.3856,36.48328 2.3856,36.48328c0,0 -11.47607,0.89645 -16.28968,0.32579c-1.47878,-0.17531 -12.52591,-4.63912 -16.57848,-25.78568c-5.78316,-30.17686 -3.04236,-78.29989 -0.16858,-111.43564z" fill="#770d3a" stroke-width="0"/><path d="M203.55782,26.99714c1.42098,-16.38449 18.04236,-17.55973 19.32594,-17.64067c6.16089,-0.38853 20.55248,-0.21598 20.55248,-0.21598c0,0 -2.65043,7.47072 -4.31527,17.52569c-0.17129,1.03451 -0.50493,3.18687 -0.50493,3.18687c0,0 -9.21624,-2.24674 -19.23281,-0.95725c-5.72392,0.73685 -16.37636,4.67673 -16.37636,4.67673c0,0 0.36602,-4.44275 0.55099,-6.5754z" fill="#c41409" stroke-width="0"/><path d="M285.45995,-24.05807c13.02205,-7.26024 25.07022,-11.23937 43.68695,-10.69852c38.45883,1.11732 65.72459,20.9023 77.51259,48.62985c17.67485,41.57449 9.1045,79.94843 7.92349,112.25296c-0.43126,11.79648 -0.93394,54.63362 -37.69617,80.74703c-18.13736,12.88357 -35.10611,13.14062 -64.7736,12.26985c-13.19486,-0.38727 -16.86634,12.31208 -31.94971,20.15241c-9.88809,5.13982 -19.15937,6.78923 -30.10687,7.28908c-13.1205,0.59905 -25.82137,-6.58095 -35.27296,-14.57795c-7.95696,-6.7324 -13.61102,-13.82655 -15.27392,-19.51041c-0.61006,-2.08523 1.28429,-7.36264 5.60991,-14.65656c4.25957,-7.18256 10.87673,-16.39582 19.78164,-16.79618c5.21595,-0.2345 13.06143,2.64727 19.648,7.33651c3.93676,2.80273 5.17903,9.29015 8.56357,12.16282c5.00042,4.24417 11.73617,4.42116 14.79651,4.3027c3.73303,0.04885 1.61908,-1.80616 -1.50424,-6.98453c-1.1275,-1.86936 -2.17035,-4.60431 -3.42156,-7.23024c-4.22617,-8.86952 -8.59527,-22.61371 -10.08893,-38.08644c-1.75344,-18.16374 -1.93574,-66.14798 2.84076,-105.65472c2.75235,-22.76498 7.06982,-43.04356 14.13961,-55.8561c4.69333,-8.50573 12.12928,-13.16486 15.58495,-15.09152z" fill="#770d3a" stroke-width="NaN"/><path d="M285.45995,-24.05807c13.02205,-7.26024 25.07022,-11.23937 43.68695,-10.69852c38.45883,1.11732 65.72459,20.9023 77.51259,48.62985c17.67485,41.57449 9.1045,79.94843 7.92349,112.25296c-0.09939,2.71898 -7.34643,35.03307 -37.24467,47.33743c-7.95448,3.2736 -19.22378,2.60647 -30.41112,2.26585c-19.78793,-0.60248 -40.2772,-4.01416 -48.55037,-10.13797c-19.69406,-14.57762 -25.82864,-65.43326 -28.27554,-107.89279c-1.19518,-20.73927 -0.31143,-43.39694 4.22795,-60.13526c3.05755,-11.27424 9.7399,-20.84613 11.1307,-21.62155z" fill="#c41409" stroke-width="NaN"/><g><path d="M303.24136,18.48021c14.54992,-14.85924 32.05203,-18.79255 38.06646,-19.30652c20.78975,-1.77665 53.76454,-1.46421 74.06118,3.03893c5.15539,1.1438 21.81717,8.16489 27.4002,20.04706c4.27299,9.09406 20.36983,39.18279 -3.35282,66.66181c-25.04278,29.00818 -93.61829,22.70387 -113.21742,18.11794c-8.74507,-2.47697 -24.30453,-12.56935 -29.5865,-30.07109c-6.38245,-21.14825 -1.04835,-50.64771 6.62885,-58.48813z" fill="#10293a" stroke-width="0"/><g><path d="M311.83581,59.79259c0,-8.65505 -3.96484,-28.37368 14.41093,-37.42305c15.63578,-7.70002 52.99552,-5.58305 63.29876,-4.76346c11.57686,0.9209 24.38947,2.89669 32.62994,7.63198c9.7942,5.62812 12.15061,32.32688 11.28756,36.86181c-7.25148,38.10361 -79.27306,30.9836 -93.28047,27.35787c-15.15598,-3.92303 -28.34673,-13.64564 -28.34673,-29.66518z" fill="#4a7b9c" stroke-width="0"/><path d="M334.01652,55.35794c-19.26408,-9.89159 -5.63256,-33.93304 -5.18968,-34.10077c16.82951,-6.37319 50.9457,-4.42853 60.71867,-3.6511c11.57686,0.9209 24.38947,2.89669 32.62994,7.63198c3.9322,2.25959 6.66551,7.91551 8.47292,14.16987c0.71562,2.47635 2.88817,21.03781 -9.31512,24.87909c-17.37759,5.47003 -49.54307,10.46669 -87.31674,-8.92907z" fill="#8cc5de" stroke-width="0"/><path d="M412.5694,22.76874c5.28166,1.93406 13.47008,5.65228 11.78807,12.40143c-3.55716,14.2734 -19.33279,6.21872 -30.30904,4.33912c-1.76919,-0.30295 -9.99384,-0.40605 -15.01325,-3.19324c-3.2252,-1.7909 -4.26812,-6.19318 -4.26812,-7.49304c0,-4.89188 3.96564,-8.85753 8.85753,-8.85753c0.14191,0 7.26194,-0.30857 14.45177,0.19562c5.70918,0.40036 11.32726,1.44834 14.49304,2.60758z" fill="#ffffff" stroke-width="0.5"/></g></g><path d="M417.85536,190.36723c9.09864,-0.34707 11.27634,0.12712 15.60911,2.53909c5.29739,2.94892 12.12524,8.3966 17.74495,13.83645c5.69222,5.51004 9.87898,9.27234 12.03327,12.53227c1.71049,2.58836 2.06539,4.9343 1.40419,7.05791c-3.73197,11.98631 -19.40658,23.19923 -22.29151,23.68736c-3.34829,0.56655 -8.56041,0.84834 -11.94181,0.21688c-8.74517,-1.63309 -18.05468,-12.58106 -24.84104,-18.09387c-5.55235,-4.51037 -9.37478,-7.87899 -12.02847,-9.62251c-2.11168,-1.3874 -3.63074,-1.59825 -3.63074,-1.59825c0,0 9.11222,-6.65016 16.88133,-15.28171c5.62025,-6.24415 10.44179,-15.24999 11.06069,-15.27361z" fill="#770d3a" stroke-width="0"/></g><g><path d="M427.10014,27.99386c0.20568,1.37507 5.67184,54.51375 6.70092,55.00691c1.2884,0.61743 0.63994,35.05948 -1.75521,63.66291c-1.58479,18.92598 -5.45189,36.05459 -4.58336,36.41468c19.58413,8.11945 39.49599,19.20323 46.38547,29.71872c5.33197,8.13827 8.72516,15.53192 9.46562,21.79473c2.80205,23.69962 -32.61249,41.97889 -37.87391,43.28269c-6.33764,1.57047 -14.36287,2.9317 -21.67725,0.07913c-8.89222,-3.46795 -16.84586,-10.35896 -24.85209,-16.45759c-14.07267,-10.71966 -26.19255,-21.1064 -28.72295,-21.28695c-8.44994,-0.6029 -52.32063,2.52362 -56.65718,4.1816c-5.46909,2.09101 -10.32209,12.98553 -16.06909,16.46435c-15.58646,9.43489 -31.31509,13.64777 -34.89783,14.24661c-47.04721,7.86376 -70.24717,-30.76845 -75.40681,-35.8067c-10.77085,-10.51745 -2.64953,-33.5546 8.10216,-48.1656c5.7487,-7.8122 16.12892,-13.04683 16.12892,-13.04683c0,0 -29.77662,-7.3666 -28.02909,-75.54865c0.47698,-18.60997 2.77999,-55.53352 7.51657,-83.54858c2.04807,-8.92144 1.86728,-18.3035 17.95279,-26.53975c13.21104,-6.76446 45.67165,-2.32551 45.67165,-2.32551c0,0 1.20715,-1.93869 1.86332,-2.88909c12.21824,-17.69741 36.45614,-30.8642 65.09124,-30.8642c41.38824,0 97.88525,19.74567 105.64612,71.62708z" fill="#150302" stroke-width="0"/><path d="M285.45995,-12.72044c13.02205,-7.26024 25.07022,-11.23937 43.68695,-10.69852c38.45883,1.11732 65.72459,20.9023 77.51259,48.62985c17.67485,41.57449 9.1045,79.94843 7.92349,112.25296c-0.43126,11.79648 -0.93394,54.63362 -37.69617,80.74703c-18.13736,12.88357 -35.10611,13.14062 -64.7736,12.26985c-13.19486,-0.38727 -16.86634,12.31208 -31.94971,20.15241c-9.88809,5.13982 -19.15937,6.78923 -30.10687,7.28908c-13.1205,0.59905 -25.82137,-6.58095 -35.27296,-14.57795c-7.95696,-6.7324 -13.61102,-13.82655 -15.27392,-19.51041c-0.61006,-2.08523 1.28429,-7.36264 5.60991,-14.65656c4.25957,-7.18256 10.87673,-16.39582 19.78164,-16.79618c5.21595,-0.2345 13.06143,2.64727 19.648,7.33651c3.93676,2.80273 5.17903,9.29015 8.56357,12.16282c5.00042,4.24417 11.73617,4.42116 14.79651,4.3027c3.73303,0.04885 1.61908,-1.80616 -1.50424,-6.98453c-1.1275,-1.86936 -2.17035,-4.60431 -3.42156,-7.23024c-4.22617,-8.86952 -8.59527,-22.61371 -10.08893,-38.08644c-1.75344,-18.16374 -1.93574,-66.14798 2.84076,-105.65472c2.75235,-22.76498 7.06982,-43.04356 14.13961,-55.8561c4.69333,-8.50573 12.12928,-13.16486 15.58495,-15.09152z" fill="#770d3a" stroke-width="NaN"/><path d="M285.45995,-12.72044c13.02205,-7.26024 25.07022,-11.23937 43.68695,-10.69852c38.45883,1.11732 65.72459,20.9023 77.51259,48.62985c17.67485,41.57449 9.1045,79.94843 7.92349,112.25296c-0.09939,2.71898 -7.34643,35.03307 -37.24467,47.33743c-7.95448,3.2736 -19.22378,2.60647 -30.41112,2.26585c-19.78793,-0.60248 -40.2772,-4.01416 -48.55037,-10.13797c-19.69406,-14.57762 -25.82864,-65.43326 -28.27554,-107.89279c-1.19518,-20.73927 -0.31143,-43.39694 4.22795,-60.13526c3.05755,-11.27424 9.7399,-20.84613 11.1307,-21.62155z" fill="#c41409" stroke-width="NaN"/><g><path d="M303.24136,29.81784c14.54992,-14.85924 32.05203,-18.79255 38.06646,-19.30652c20.78975,-1.77665 53.76454,-1.46421 74.06118,3.03893c5.15539,1.1438 21.81717,8.16489 27.4002,20.04706c4.27299,9.09406 20.36983,39.18279 -3.35282,66.66181c-25.04278,29.00818 -93.61829,22.70387 -113.21742,18.11794c-8.74507,-2.47697 -24.30453,-12.56935 -29.5865,-30.07109c-6.38245,-21.14825 -1.04835,-50.64771 6.62885,-58.48813z" fill="#10293a" stroke-width="0"/><g><path d="M311.83581,71.13022c0,-8.65505 -3.96484,-28.37368 14.41093,-37.42305c15.63578,-7.70002 52.99552,-5.58305 63.29876,-4.76346c11.57686,0.9209 24.38947,2.89669 32.62994,7.63198c9.7942,5.62812 12.15061,32.32688 11.28756,36.86181c-7.25148,38.10361 -79.27306,30.9836 -93.28047,27.35787c-15.15598,-3.92303 -28.34673,-13.64564 -28.34673,-29.66518z" fill="#4a7b9c" stroke-width="0"/><path d="M334.01652,66.69558c-19.26408,-9.89159 -5.63256,-33.93304 -5.18968,-34.10077c16.82951,-6.37319 50.9457,-4.42853 60.71867,-3.6511c11.57686,0.9209 24.38947,2.89669 32.62994,7.63198c3.9322,2.25959 6.66551,7.91551 8.47292,14.16987c0.71562,2.47635 2.88817,21.03781 -9.31512,24.87909c-17.37759,5.47003 -49.54307,10.46669 -87.31674,-8.92907z" fill="#8cc5de" stroke-width="0"/><path d="M412.5694,34.10638c5.28166,1.93406 13.47008,5.65228 11.78807,12.40143c-3.55716,14.2734 -19.33279,6.21872 -30.30904,4.33912c-1.76919,-0.30295 -9.99384,-0.40605 -15.01325,-3.19324c-3.2252,-1.7909 -4.26812,-6.19318 -4.26812,-7.49304c0,-4.89188 3.96564,-8.85753 8.85753,-8.85753c0.14191,0 7.26194,-0.30857 14.45177,0.19562c5.70918,0.40036 11.32726,1.44834 14.49304,2.60758z" fill="#ffffff" stroke-width="0.5"/></g></g><path d="M417.85536,201.70487c9.09864,-0.34707 11.27634,0.12712 15.60911,2.53909c5.29739,2.94892 12.12524,8.3966 17.74495,13.83645c5.69222,5.51004 9.87898,9.27234 12.03327,12.53227c1.71049,2.58836 2.06539,4.9343 1.40419,7.05791c-3.73197,11.98631 -19.40658,23.19923 -22.29151,23.68736c-3.34829,0.56655 -8.56041,0.84834 -11.94181,0.21688c-8.74517,-1.63309 -18.05468,-12.58106 -24.84104,-18.09387c-5.55235,-4.51037 -9.37478,-7.87899 -12.02847,-9.62251c-2.11168,-1.3874 -3.63074,-1.59825 -3.63074,-1.59825c0,0 9.11222,-6.65016 16.88133,-15.28171c5.62025,-6.24415 10.44179,-15.24999 11.06069,-15.27361z" fill="#770d3a" stroke-width="0"/><path d="M316.79612,291.59684c67.44267,0 122.11576,12.90159 122.11576,28.81648c0,15.9149 -54.67309,28.81648 -122.11576,28.81648c-67.44267,0 -122.11576,-12.90159 -122.11576,-28.81648c0,-15.9149 54.67309,-28.81648 122.11576,-28.81648z" fill="#3a3a3a" stroke-width="0"/><g stroke-width="0"><path d="M205.54921,24.84726c1.77122,-16.35033 18.41392,-17.16966 19.69895,-17.22314c6.16779,-0.25661 20.55239,0.2238 20.55239,0.2238c0,0 -2.80968,7.41231 -4.68927,17.42934c-2.79203,14.87982 -5.11219,35.86653 -5.90891,49.7505c-0.73303,12.77326 -1.7228,33.44744 -1.15748,50.86454c0.64717,19.93789 1.60446,36.52596 1.60446,36.52596c0,0 -11.49263,0.65071 -16.29291,-0.02282c-1.4747,-0.20691 -12.42378,-4.90608 -16.02298,-26.1345c-5.13616,-30.29368 -1.36635,-78.34706 2.21575,-111.41374z" fill="#770d3a"/><path d="M205.54921,24.84726c1.77122,-16.35033 18.41392,-17.16966 19.69895,-17.22314c6.16779,-0.25661 20.55239,0.2238 20.55239,0.2238c0,0 -2.80968,7.41231 -4.68927,17.42934c-0.19338,1.03061 -0.573,3.17534 -0.573,3.17534c0,0 -9.16605,-2.44343 -19.20791,-1.36855c-5.73838,0.61422 -16.47268,4.32526 -16.47268,4.32526c0,0 0.46099,-4.43389 0.69155,-6.5621z" fill="#c41409"/></g></g><g><path d="M427.10014,27.99386c0.20568,1.37507 5.67184,54.51375 6.70092,55.00691c1.2884,0.61743 0.63994,35.05948 -1.75521,63.66291c-1.58479,18.92598 -5.45189,36.05459 -4.58336,36.41468c19.58413,8.11945 39.49599,19.20323 46.38547,29.71872c5.33197,8.13827 8.72516,15.53192 9.46562,21.79473c2.80205,23.69962 -32.61249,41.97889 -37.87391,43.28269c-6.33764,1.57047 -14.36287,2.9317 -21.67725,0.07913c-8.89222,-3.46795 -16.84586,-10.35896 -24.85209,-16.45759c-14.07267,-10.71966 -26.19255,-21.1064 -28.72295,-21.28695c-8.44994,-0.6029 -52.32063,2.52362 -56.65718,4.1816c-5.46909,2.09101 -10.32209,12.98553 -16.06909,16.46435c-15.58646,9.43489 -31.31509,13.64777 -34.89783,14.24661c-47.04721,7.86376 -70.24717,-30.76845 -75.40681,-35.8067c-10.77085,-10.51743 -2.64953,-33.5546 8.10216,-48.1656c5.74872,-7.8122 16.12892,-13.04683 16.12892,-13.04683c0,0 -29.77662,-7.3666 -28.02909,-75.54865c0.47698,-18.60997 2.77999,-55.53352 7.51657,-83.54858c2.04807,-8.92144 1.86728,-18.3035 17.95279,-26.53975c13.21104,-6.76446 45.67165,-2.32549 45.67165,-2.32549c0,0 1.20715,-1.93869 1.86332,-2.88911c12.21824,-17.69741 36.45614,-30.8642 65.09124,-30.8642c41.38824,0 97.88525,19.74567 105.64612,71.62708z" fill="#150302" stroke-width="0"/><path d="M285.45995,-12.72044c13.02205,-7.26024 25.07022,-11.23937 43.68695,-10.69852c38.45883,1.11732 65.72459,20.9023 77.51259,48.62985c17.67485,41.57449 9.1045,79.94843 7.92349,112.25296c-0.43126,11.79648 -0.93394,54.63362 -37.69617,80.74703c-18.13736,12.88357 -35.10611,13.14062 -64.7736,12.26985c-13.19486,-0.38727 -16.86634,12.31208 -31.94971,20.15241c-9.88809,5.13982 -19.15937,6.78923 -30.10687,7.28908c-13.1205,0.59905 -25.82137,-6.58095 -35.27296,-14.57795c-7.95696,-6.7324 -13.61102,-13.82655 -15.27392,-19.51041c-0.61006,-2.08523 1.28429,-7.36264 5.60991,-14.65656c4.25957,-7.18256 10.87673,-16.39582 19.78164,-16.79618c5.21595,-0.2345 13.06143,2.64727 19.648,7.33651c3.93676,2.80273 5.17903,9.29015 8.56357,12.16282c5.00042,4.24417 11.73617,4.42116 14.79651,4.3027c3.73303,0.04885 1.61908,-1.80616 -1.50424,-6.98453c-1.1275,-1.86936 -2.17035,-4.60431 -3.42156,-7.23024c-4.22617,-8.86952 -8.59527,-22.61371 -10.08893,-38.08644c-1.75344,-18.16374 -1.93574,-66.14798 2.84076,-105.65472c2.75235,-22.76498 7.06982,-43.04356 14.13961,-55.8561c4.69333,-8.50573 12.12928,-13.16486 15.58495,-15.09152z" fill="#770d3a" stroke-width="NaN"/><path d="M285.45995,-12.72044c13.02205,-7.26024 25.07022,-11.23937 43.68695,-10.69852c38.45883,1.11732 65.72459,20.9023 77.51259,48.62985c17.67485,41.57449 9.1045,79.94843 7.92349,112.25296c-0.09939,2.71898 -7.34643,35.03307 -37.24467,47.33743c-7.95448,3.2736 -19.22378,2.60647 -30.41112,2.26585c-19.78793,-0.60248 -40.2772,-4.01416 -48.55037,-10.13797c-19.69406,-14.57762 -25.82864,-65.43326 -28.27554,-107.89279c-1.19518,-20.73927 -0.31143,-43.39694 4.22795,-60.13526c3.05755,-11.27424 9.7399,-20.84613 11.1307,-21.62155z" fill="#c41409" stroke-width="NaN"/><g><path d="M303.24136,29.81784c14.54992,-14.85924 32.05203,-18.79255 38.06646,-19.30652c20.78975,-1.77665 53.76454,-1.46421 74.06118,3.03893c5.15539,1.1438 21.81717,8.16489 27.4002,20.04706c4.27299,9.09406 20.36983,39.18279 -3.35282,66.66181c-25.04278,29.00818 -93.61829,22.70387 -113.21742,18.11794c-8.74507,-2.47697 -24.30453,-12.56935 -29.5865,-30.07109c-6.38245,-21.14825 -1.04835,-50.64771 6.62885,-58.48813z" fill="#10293a" stroke-width="0"/><g><path d="M311.83581,71.13022c0,-8.65505 -3.96484,-28.37368 14.41093,-37.42305c15.63578,-7.70002 52.99552,-5.58305 63.29876,-4.76346c11.57686,0.9209 24.38947,2.89669 32.62994,7.63198c9.7942,5.62812 12.15061,32.32688 11.28756,36.86181c-7.25148,38.10361 -79.27306,30.9836 -93.28047,27.35787c-15.15598,-3.92303 -28.34673,-13.64564 -28.34673,-29.66518z" fill="#4a7b9c" stroke-width="0"/><path d="M334.01652,66.69558c-19.26408,-9.89159 -5.63256,-33.93304 -5.18968,-34.10077c16.82951,-6.37319 50.9457,-4.42853 60.71867,-3.6511c11.57686,0.9209 24.38947,2.89669 32.62994,7.63198c3.9322,2.25959 6.66551,7.91551 8.47292,14.16987c0.71562,2.47635 2.88817,21.03781 -9.31512,24.87909c-17.37759,5.47003 -49.54307,10.46669 -87.31674,-8.92907z" fill="#8cc5de" stroke-width="0"/><path d="M412.5694,34.10638c5.28166,1.93406 13.47008,5.65228 11.78807,12.40143c-3.55716,14.2734 -19.33279,6.21872 -30.30904,4.33912c-1.76919,-0.30295 -9.99384,-0.40605 -15.01325,-3.19324c-3.2252,-1.7909 -4.26812,-6.19318 -4.26812,-7.49304c0,-4.89188 3.96564,-8.85753 8.85753,-8.85753c0.14191,0 7.26194,-0.30857 14.45177,0.19562c5.70918,0.40036 11.32726,1.44834 14.49304,2.60758z" fill="#ffffff" stroke-width="0.5"/></g></g><path d="M417.85536,201.70487c9.09864,-0.34707 11.27634,0.12712 15.60911,2.53909c5.29739,2.94892 12.12524,8.3966 17.74495,13.83645c5.69222,5.51004 9.87898,9.27234 12.03327,12.53227c1.71049,2.58836 2.06539,4.9343 1.40419,7.05791c-3.73197,11.98631 -19.40658,23.19923 -22.29151,23.68736c-3.34829,0.56655 -8.56041,0.84834 -11.94181,0.21688c-8.74517,-1.63309 -18.05468,-12.58106 -24.84104,-18.09387c-5.55235,-4.51037 -9.37478,-7.87899 -12.02847,-9.62251c-2.11168,-1.3874 -3.63074,-1.59825 -3.63074,-1.59825c0,0 9.11222,-6.65016 16.88133,-15.28171c5.62025,-6.24415 10.44179,-15.24999 11.06069,-15.27361z" fill="#770d3a" stroke-width="0"/><path d="M316.79612,291.59684c67.44267,0 122.11576,12.90159 122.11576,28.81648c0,15.9149 -54.67309,28.81648 -122.11576,28.81648c-67.44267,0 -122.11576,-12.90159 -122.11576,-28.81648c0,-15.9149 54.67309,-28.81648 122.11576,-28.81648z" fill="#3a3a3a" stroke-width="0"/><g stroke-width="0"><path d="M205.54921,24.84726c1.77122,-16.35033 18.41392,-17.16966 19.69895,-17.22312c6.16779,-0.25661 20.55241,0.2238 20.55241,0.2238c0,0 -2.80968,7.41231 -4.68927,17.42934c-2.79203,14.87982 -5.11219,35.86651 -5.90891,49.75048c-0.73303,12.77326 -1.7228,33.44744 -1.15748,50.86457c0.64717,19.93789 1.60446,36.52596 1.60446,36.52596c0,0 -11.4926,0.65071 -16.29291,-0.02282c-1.4747,-0.20691 -12.42378,-4.90608 -16.02298,-26.1345c-5.13618,-30.29368 -1.36635,-78.34708 2.21573,-111.41374z" fill="#770d3a"/><path d="M205.54921,24.84726c1.77122,-16.35033 18.41392,-17.16966 19.69895,-17.22312c6.16779,-0.25661 20.55241,0.2238 20.55241,0.2238c0,0 -2.80968,7.41231 -4.68927,17.42934c-0.19338,1.03061 -0.573,3.17534 -0.573,3.17534c0,0 -9.16605,-2.44343 -19.20791,-1.36855c-5.73838,0.61422 -16.47268,4.32528 -16.47268,4.32528c0,0 0.46099,-4.43391 0.69155,-6.56213z" fill="#c41409"/></g></g><g><path d="M427.10014,45.63018c0.20568,1.37507 5.67184,54.51375 6.70092,55.00691c1.2884,0.61743 0.63994,35.05948 -1.75521,63.66291c-1.58479,18.92598 -5.45189,36.05459 -4.58336,36.41468c19.58413,8.11945 39.49599,19.20323 46.38547,29.71872c5.33197,8.13827 8.72516,15.53192 9.46562,21.79473c2.80205,23.69962 -32.61249,41.97889 -37.87391,43.28269c-6.33764,1.57047 -14.36287,2.9317 -21.67725,0.07913c-8.89222,-3.46795 -16.84586,-10.35896 -24.85209,-16.45759c-14.07267,-10.71966 -26.19255,-21.1064 -28.72295,-21.28695c-8.44994,-0.6029 -52.32063,2.52362 -56.65718,4.1816c-5.46909,2.09101 -10.32209,12.98553 -16.06909,16.46435c-15.58646,9.43489 -31.31509,13.64777 -34.89783,14.24661c-47.04721,7.86376 -70.24717,-30.76845 -75.40681,-35.8067c-10.77085,-10.51743 -2.64953,-33.5546 8.10216,-48.1656c5.74872,-7.8122 13.04803,-10.78752 13.04803,-10.78752c0,0 -26.69573,-9.62591 -24.9482,-77.80796c0.47698,-18.60997 1.95841,-50.60411 6.69499,-78.61916c2.04807,-8.92144 1.86728,-18.3035 17.95279,-26.53975c13.21104,-6.76446 46.4932,-5.61175 46.4932,-5.61175c0,0 1.20715,-3.58184 1.86332,-4.53224c12.21824,-17.69741 36.45614,-30.8642 65.09124,-30.8642c41.38824,0 97.88525,19.74567 105.64612,71.62708z" fill="#150302" stroke-width="0"/><g stroke-width="0"><path d="M205.84446,45.14084c1.77122,-16.35033 18.41392,-17.16966 19.69895,-17.22312c6.16779,-0.25661 20.55241,0.2238 20.55241,0.2238c0,0 -2.80968,7.41231 -4.68927,17.42934c-2.79203,14.87982 -5.11219,35.86651 -5.90891,49.75048c-0.73303,12.77326 -1.7228,33.44744 -1.15748,50.86457c0.64717,19.93789 1.60446,36.52596 1.60446,36.52596c0,0 -11.4926,0.65071 -16.29291,-0.02282c-1.4747,-0.20691 -12.42378,-4.90608 -16.02298,-26.1345c-5.13618,-30.29368 -1.36635,-78.34708 2.21573,-111.41374z" fill="#770d3a"/><path d="M205.84446,45.14084c1.77122,-16.35033 18.41392,-17.16966 19.69895,-17.22312c6.16779,-0.25661 20.55241,0.2238 20.55241,0.2238c0,0 -2.80968,7.41231 -4.68927,17.42934c-0.19338,1.03061 -0.573,3.17534 -0.573,3.17534c0,0 -9.16605,-2.44343 -19.20791,-1.36855c-5.73838,0.61422 -16.47268,4.32528 -16.47268,4.32528c0,0 0.46099,-4.43391 0.69155,-6.56213z" fill="#c41409"/></g><path d="M285.45995,4.91589c13.02205,-7.26024 25.07022,-11.23937 43.68695,-10.69852c38.45883,1.11732 65.72459,20.9023 77.51259,48.62985c17.67485,41.57449 9.1045,79.94843 7.92349,112.25296c-0.43126,11.79648 -0.93394,54.63362 -37.69617,80.74703c-18.13736,12.88357 -35.10611,13.14062 -64.7736,12.26985c-13.19486,-0.38727 -16.86634,12.31208 -31.94971,20.15241c-9.88809,5.13982 -19.15937,6.78923 -30.10687,7.28908c-13.1205,0.59905 -25.82137,-6.58095 -35.27296,-14.57795c-7.95696,-6.7324 -13.61102,-13.82655 -15.27392,-19.51041c-0.61006,-2.08523 1.28429,-7.36264 5.60991,-14.65656c4.25957,-7.18256 10.87673,-16.39582 19.78164,-16.79618c5.21595,-0.2345 13.06143,2.64727 19.648,7.33651c3.93676,2.80273 5.17903,9.29015 8.56357,12.16282c5.00042,4.24417 11.73617,4.42116 14.79651,4.3027c3.73303,0.04885 1.61908,-1.80616 -1.50424,-6.98453c-1.1275,-1.86936 -2.17035,-4.60431 -3.42156,-7.23024c-4.22617,-8.86952 -8.59527,-22.61371 -10.08893,-38.08644c-1.75344,-18.16374 -1.93574,-66.14798 2.84076,-105.65472c2.75235,-22.76498 7.06982,-43.04356 14.13961,-55.8561c4.69333,-8.50573 12.12928,-13.16486 15.58495,-15.09152z" fill="#770d3a" stroke-width="NaN"/><path d="M285.45995,4.91589c13.02205,-7.26024 25.07022,-11.23937 43.68695,-10.69852c38.45883,1.11732 65.72459,20.9023 77.51259,48.62985c17.67485,41.57449 9.1045,79.94843 7.92349,112.25296c-0.09939,2.71898 -7.34643,35.03307 -37.24467,47.33743c-7.95448,3.2736 -19.22378,2.60647 -30.41112,2.26585c-19.78793,-0.60248 -40.2772,-4.01416 -48.55037,-10.13797c-19.69406,-14.57762 -25.82864,-65.43326 -28.27554,-107.89279c-1.19518,-20.73927 -0.31143,-43.39694 4.22795,-60.13526c3.05755,-11.27424 9.7399,-20.84613 11.1307,-21.62155z" fill="#c41409" stroke-width="NaN"/><g><path d="M303.24136,47.45417c14.54992,-14.85924 32.05203,-18.79255 38.06646,-19.30652c20.78975,-1.77665 53.76454,-1.46421 74.06118,3.03893c5.15539,1.1438 21.81717,8.16489 27.4002,20.04706c4.27299,9.09406 20.36983,39.18279 -3.35282,66.66181c-25.04278,29.00818 -93.61829,22.70387 -113.21742,18.11794c-8.74507,-2.47697 -24.30453,-12.56935 -29.5865,-30.07109c-6.38245,-21.14825 -1.04835,-50.64771 6.62885,-58.48813z" fill="#10293a" stroke-width="0"/><g><path d="M311.83581,88.76655c0,-8.65505 -3.96484,-28.37368 14.41093,-37.42305c15.63578,-7.70002 52.99552,-5.58305 63.29876,-4.76346c11.57686,0.9209 24.38947,2.89669 32.62994,7.63198c9.7942,5.62812 12.15061,32.32688 11.28756,36.86181c-7.25148,38.10361 -79.27306,30.9836 -93.28047,27.35787c-15.15598,-3.92303 -28.34673,-13.64564 -28.34673,-29.66518z" fill="#4a7b9c" stroke-width="0"/><path d="M334.01652,84.3319c-19.26408,-9.89159 -5.63256,-33.93304 -5.18968,-34.10077c16.82951,-6.37319 50.9457,-4.42853 60.71867,-3.6511c11.57686,0.9209 24.38947,2.89669 32.62994,7.63198c3.9322,2.25959 6.66551,7.91551 8.47292,14.16987c0.71562,2.47635 2.88817,21.03781 -9.31512,24.87909c-17.37759,5.47003 -49.54307,10.46669 -87.31674,-8.92907z" fill="#8cc5de" stroke-width="0"/><path d="M412.5694,51.7427c5.28166,1.93406 13.47008,5.65228 11.78807,12.40143c-3.55716,14.2734 -19.33279,6.21872 -30.30904,4.33912c-1.76919,-0.30295 -9.99384,-0.40605 -15.01325,-3.19324c-3.2252,-1.7909 -4.26812,-6.19318 -4.26812,-7.49304c0,-4.89188 3.96564,-8.85753 8.85753,-8.85753c0.14191,0 7.26194,-0.30857 14.45177,0.19562c5.70918,0.40036 11.32726,1.44834 14.49304,2.60758z" fill="#ffffff" stroke-width="0.5"/></g></g><path d="M417.85536,219.34119c9.09864,-0.34707 11.27634,0.12712 15.60911,2.53909c5.29739,2.94892 12.12524,8.3966 17.74495,13.83645c5.69222,5.51004 9.87898,9.27234 12.03327,12.53227c1.71049,2.58836 2.06539,4.9343 1.40419,7.05791c-3.73197,11.98631 -19.40658,23.19923 -22.29151,23.68736c-3.34829,0.56655 -8.56041,0.84834 -11.94181,0.21688c-8.74517,-1.63309 -18.05468,-12.58106 -24.84104,-18.09387c-5.55235,-4.51037 -9.37478,-7.87899 -12.02847,-9.62251c-2.11168,-1.3874 -3.63074,-1.59825 -3.63074,-1.59825c0,0 9.11222,-6.65016 16.88133,-15.28171c5.62025,-6.24415 10.44179,-15.24999 11.06069,-15.27361z" fill="#770d3a" stroke-width="0"/><path d="M316.79612,291.59684c67.44267,0 122.11576,12.90159 122.11576,28.81648c0,15.9149 -54.67309,28.81648 -122.11576,28.81648c-67.44267,0 -122.11576,-12.90159 -122.11576,-28.81648c0,-15.9149 54.67309,-28.81648 122.11576,-28.81648z" fill="#3a3a3a" stroke-width="0"/></g><g><path d="M316.79612,291.59684c67.44267,0 122.11576,12.90159 122.11576,28.81648c0,15.9149 -54.67309,28.81648 -122.11576,28.81648c-67.44267,0 -122.11576,-12.90159 -122.11576,-28.81648c0,-15.9149 54.67309,-28.81648 122.11576,-28.81648z" fill="#3a3a3a" stroke-width="0"/><path d="M427.84195,91.09199c0.94022,9.56988 31.59624,97.23979 -20.68254,161.74386c-0.64204,0.79217 0.12526,11.7075 1.5828,24.20965c1.70643,14.63686 3.82834,31.44868 -2.24544,36.73726c-6.71771,5.84925 -17.37192,7.51806 -25.82191,8.50741c-7.83355,0.91719 -28.77012,0.33675 -37.30216,-1.81445c-2.01477,-0.508 -3.73365,-9.10457 -5.72673,-9.7501c-1.75547,-0.56858 -6.93762,18.00532 -57.91769,16.21546c-10.56948,-0.37107 -31.28563,-5.80832 -38.29052,-19.20342c-16.51251,-31.57609 7.60739,-57.17441 7.60739,-57.17441c0,0 -23.91967,1.27574 -41.03581,-6.17351c-2.22007,-0.96623 -13.94449,-6.73713 -17.22189,-19.91129c-5.53019,-22.2297 -6.73033,-54.02198 -6.88362,-59.9441c-0.70933,-27.40181 1.83381,-60.59568 8.15892,-83.38997c9.48884,-34.19577 63.82414,-22.22788 63.82414,-22.22788c0,0 1.30924,-1.9779 1.78414,-2.81242c8.40064,-14.76179 31.26678,-24.82046 76.90742,-25.42223c61.13105,3.15753 90.40045,31.269 93.26349,60.4101z" fill="#150302" stroke-width="0"/><path d="M296.79445,54.12027c17.84617,-3.4118 20.85447,-4.03705 36.4738,-4.42144c28.42456,-0.69958 64.99622,6.4505 74.8199,41.97652c1.13575,4.10727 14.24295,48.22701 10.13417,92.74954c-1.17047,12.68308 -5.01142,20.32443 -8.14146,29.32462c-5.8211,16.73805 -18.17581,32.19604 -33.92872,37.36442c-7.35477,2.41303 -25.5914,5.93653 -25.5914,5.93653c0,0 -0.98238,-6.62996 -6.6126,-6.97907c-0.695,-0.04311 -8.7215,-2.09463 -10.28434,6.92037c-2.47501,14.27658 -7.73645,40.56208 -17.99974,49.41647c-1.58547,1.36784 -17.42301,3.46998 -32.282,2.0886c-14.25103,-1.32483 -27.5599,-6.00117 -28.46592,-10.83427c-0.50386,-2.68785 -1.38803,-13.14462 0.11623,-21.56645c0.58578,-3.27953 1.5337,-6.25048 3.00731,-8.33396c3.81292,-5.39102 16.3954,-1.35981 27.35856,0.13475c6.06325,0.82656 12.35989,0.51293 14.67775,-1.73659c3.68407,-3.57551 3.80234,-7.43279 3.32722,-9.92874c-0.89492,-4.70136 -5.90107,-6.57899 -7.25212,-6.75043c-6.32964,-0.80315 -31.72489,-2.53587 -42.68508,-23.15464c-7.33162,-13.79259 -8.37839,-36.21564 -8.30026,-56.68658c0.06703,-17.56925 0.47878,-33.0784 3.97016,-47.54774c15.28771,-63.3572 40.63613,-66.62931 47.65862,-67.97185z" fill="#770d3a" stroke-width="0"/><path d="M296.79445,54.12027c17.84617,-3.4118 20.85447,-4.03705 36.4738,-4.42144c28.42456,-0.69958 64.99622,6.4505 74.8199,41.97652c0.98137,3.54892 10.90057,36.9711 10.9287,74.71413c0.00139,1.86223 -3.69845,62.4127 -103.97621,44.81296c-8.97574,-1.57532 -17.58056,-5.69 -23.12187,-11.61146c-23.78619,-33.26131 -21.85936,-81.5682 -14.65002,-112.90929c4.06327,-17.66422 10.83604,-30.19698 13.09586,-30.97593c2.75618,-0.95002 4.98232,-1.30874 6.42983,-1.58547z" fill="#c41409" stroke-width="0"/><g><path d="M303.24136,91.25001c14.54992,-11.95601 32.05203,-15.12084 38.06646,-15.53438c20.78975,-1.42953 53.76454,-1.17812 74.06118,2.44517c5.15539,0.92033 21.81717,6.56962 27.4002,16.13022c4.27299,7.31724 20.36983,31.52717 -3.35282,53.6373c-25.04278,23.3405 -93.61829,18.26795 -113.21742,14.57802c-8.74507,-1.99301 -24.30453,-10.11352 -29.5865,-24.19574c-6.38245,-17.01628 -1.04835,-40.75206 6.62885,-47.0606z" fill="#10293a" stroke-width="0"/><g><path d="M311.83581,124.4907c0,-6.96402 -3.96484,-22.82998 14.41093,-30.11127c15.63578,-6.19557 52.99552,-4.49223 63.29876,-3.83276c11.57686,0.74096 24.38947,2.33073 32.62994,6.14082c9.7942,4.52849 12.15061,26.01077 11.28756,29.65967c-7.25148,30.65885 -79.27306,24.92997 -93.28047,22.01263c-15.15598,-3.15654 -28.34673,-10.97953 -28.34673,-23.86914z" fill="#4a7b9c" stroke-width="0"/><path d="M334.01652,120.92251c-19.26408,-7.95895 -5.63256,-27.30312 -5.18968,-27.43809c16.82951,-5.12799 50.9457,-3.56328 60.71867,-2.93775c11.57686,0.74096 24.38947,2.33073 32.62994,6.14082c3.9322,1.81811 6.66551,6.36896 8.47292,11.40134c0.71562,1.99252 2.88817,16.92739 -9.31512,20.01817c-17.37759,4.40129 -49.54307,8.42169 -87.31674,-7.18449z" fill="#8cc5de" stroke-width="0"/><path d="M412.5694,94.70064c5.28166,1.55618 13.47008,4.54793 11.78807,9.97842c-3.55716,11.48462 -19.33279,5.0037 -30.30904,3.49133c-1.76919,-0.24376 -9.99384,-0.32671 -15.01325,-2.56934c-3.2252,-1.44099 -4.26812,-4.98315 -4.26812,-6.02905c0,-3.9361 3.96564,-7.12693 8.85753,-7.12693c0.14191,0 7.26194,-0.24829 14.45177,0.1574c5.70918,0.32213 11.32726,1.16537 14.49304,2.0981z" fill="#ffffff" stroke-width="0.5"/></g></g><path d="M388.80428,265.72578c0,0 1.33725,7.58613 2.43162,16.41923c1.10665,8.93212 2.52756,19.12231 0.72646,20.94125c-2.67656,2.70306 -30.78441,1.95581 -35.10946,1.40757c-0.7086,-0.08983 -1.87654,-1.02544 -2.71905,-2.89159c-1.00329,-2.22227 -1.70303,-5.60613 -2.80616,-8.26232c-2.17071,-5.22674 -4.38559,-9.31703 -4.59115,-10.35804c-0.62251,-3.15262 0.42561,-5.16191 0.88922,-7.50209c0.53041,-2.67736 10.76584,-2.12467 20.21984,-3.80656c11.05412,-1.96656 20.95865,-5.94746 20.95865,-5.94746z" fill="#770d3a" stroke-width="0"/><path d="M245.49171,76.14793c0,0 -19.61028,24.74079 -18.55049,82.44847c0.1956,10.65093 0.12063,26.88866 1.97884,39.57743c2.63028,17.96065 7.40995,31.10933 7.40995,31.10933c0,0 -11.63976,5.42185 -23.34159,-3.26127c-2.12387,-1.57595 -8.75048,-12.68062 -10.16983,-29.53444c-2.89903,-34.42405 0.48799,-87.38396 0.21983,-93.96356c-0.8785,-21.55518 10.42238,-25.71869 22.16689,-26.61535c9.76921,-0.74585 20.28643,0.23941 20.28643,0.23941z" fill="#770d3a" stroke-width="0"/><path d="M245.49176,76.14793c0,0 -3.9284,4.95618 -8.17368,15.60606c-0.50835,1.27527 -1.53249,4.07201 -1.53249,4.07201c0,0 -11.33518,-1.34091 -20.17785,-0.18698c-6.72834,0.87803 -12.56933,6.88487 -12.56933,6.88487c0,0 -0.05697,-2.07913 -0.04261,-3.05722c0.27732,-18.89979 11.04288,-22.70559 22.2095,-23.55814c9.76921,-0.74585 20.28643,0.23941 20.28643,0.23941z" fill="#c41409" stroke-width="0"/></g><g><path d="M316.79612,291.59684c67.44267,0 122.11576,12.90159 122.11576,28.81648c0,15.9149 -54.67309,28.81648 -122.11576,28.81648c-67.44267,0 -122.11576,-12.90159 -122.11576,-28.81648c0,-15.9149 54.67309,-28.81648 122.11576,-28.81648z" fill="#3a3a3a" stroke-width="0"/><path d="M427.84195,91.09199c0.94022,9.56988 31.59624,97.23979 -20.68254,161.74386c-0.64204,0.79217 0.12526,11.7075 1.5828,24.20965c1.70643,14.63686 3.82834,31.44868 -2.24544,36.73726c-6.71771,5.84925 -17.37192,7.51806 -25.82191,8.50741c-7.83355,0.91719 -28.77012,0.33675 -37.30216,-1.81445c-2.01477,-0.508 -3.73365,-9.10457 -5.72673,-9.7501c-1.75547,-0.56858 -6.93762,18.00532 -57.91769,16.21546c-10.56948,-0.37107 -31.28563,-5.80832 -38.29052,-19.20342c-7.79673,-14.90932 -6.53463,-28.48592 -3.03012,-38.66438c0.31353,-0.9106 -0.43562,-2.38121 -2.69103,-2.8808c-6.62871,-1.46834 -21.0324,0.82751 -35.67797,-9.38085c-3.22945,-1.71458 -11.22641,-15.83192 -13.99775,-34.84862c-2.07212,-14.21874 -3.02564,-40.57652 -1.55139,-66.75334c1.45854,-25.89759 5.32675,-51.66578 6.67343,-56.51893c4.64125,-16.72603 15.2575,-21.46915 27.88132,-23.78883c13.18512,-2.42283 28.29441,-2.03829 28.29441,-2.03829c0,0 6.69244,-21.30592 32.43309,-33.80252c12.97358,-6.29843 39.51198,-8.17755 54.80671,-8.37922c61.13105,3.15753 90.40045,31.269 93.26349,60.4101z" fill="#150302" stroke-width="0"/><g stroke-width="0"><path d="M296.79445,54.12027c17.84617,-3.4118 20.85447,-4.03705 36.4738,-4.42144c28.42456,-0.69958 64.99622,6.4505 74.8199,41.97652c1.13575,4.10727 14.24295,48.22701 10.13417,92.74954c-1.17047,12.68308 -5.01142,20.32443 -8.14146,29.32462c-5.8211,16.73805 -18.17581,32.19604 -33.92872,37.36442c-7.35477,2.41303 -25.5914,5.93653 -25.5914,5.93653c0,0 -0.98238,-6.62996 -6.6126,-6.97907c-0.695,-0.04311 -8.7215,-2.09463 -10.28434,6.92037c-2.47501,14.27658 -7.73645,40.56208 -17.99974,49.41647c-1.58547,1.36784 -17.42301,3.46998 -32.282,2.0886c-14.25103,-1.32483 -27.5599,-6.00117 -28.46592,-10.83427c-0.50386,-2.68785 -1.38803,-13.14462 0.11623,-21.56645c0.58578,-3.27953 1.5337,-6.25048 3.00731,-8.33396c3.81292,-5.39102 16.3954,-1.35981 27.35856,0.13475c6.06325,0.82656 12.35989,0.51293 14.67775,-1.73659c3.68407,-3.57551 3.80234,-7.43279 3.32722,-9.92874c-0.89492,-4.70136 -5.90107,-6.57899 -7.25212,-6.75043c-6.32964,-0.80315 -31.72489,-2.53587 -42.68508,-23.15464c-7.33162,-13.79259 -8.37839,-36.21564 -8.30026,-56.68658c0.06703,-17.56925 0.47878,-33.0784 3.97016,-47.54774c15.28771,-63.3572 40.63613,-66.62931 47.65862,-67.97185z" fill="#770d3a"/><path d="M296.79445,54.12027c17.84617,-3.4118 20.85447,-4.03705 36.4738,-4.42144c28.42456,-0.69958 64.99622,6.4505 74.8199,41.97652c0.98137,3.54892 10.90057,36.9711 10.9287,74.71413c0.00139,1.86223 -3.69845,62.4127 -103.97621,44.81296c-8.97574,-1.57532 -17.58056,-5.69 -23.12187,-11.61146c-23.78619,-33.26131 -21.85936,-81.5682 -14.65002,-112.90929c4.06327,-17.66422 10.83604,-30.19698 13.09586,-30.97593c2.75618,-0.95002 4.98232,-1.30874 6.42983,-1.58547z" fill="#c41409"/><path d="M388.80428,265.72578c0,0 1.33725,7.58613 2.43162,16.41923c1.10665,8.93212 2.52756,19.12231 0.72646,20.94125c-2.67656,2.70306 -30.78441,1.95581 -35.10946,1.40757c-0.7086,-0.08983 -1.87654,-1.02544 -2.71905,-2.89159c-1.00329,-2.22227 -1.70303,-5.60613 -2.80616,-8.26232c-2.17071,-5.22674 -4.38559,-9.31703 -4.59115,-10.35804c-0.62251,-3.15262 0.42561,-5.16191 0.88922,-7.50209c0.53041,-2.67736 10.76584,-2.12467 20.21984,-3.80656c11.05412,-1.96656 20.95865,-5.94746 20.95865,-5.94746z" fill="#770d3a"/></g><g><path d="M303.24136,91.25001c14.54992,-11.95601 32.05203,-15.12084 38.06646,-15.53438c20.78975,-1.42953 53.76454,-1.17812 74.06118,2.44517c5.15539,0.92033 21.81717,6.56962 27.4002,16.13022c4.27299,7.31724 20.36983,31.52717 -3.35282,53.6373c-25.04278,23.3405 -93.61829,18.26795 -113.21742,14.57802c-8.74507,-1.99301 -24.30453,-10.11352 -29.5865,-24.19574c-6.38245,-17.01628 -1.04835,-40.75206 6.62885,-47.0606z" fill="#10293a" stroke-width="0"/><g><path d="M311.83581,124.4907c0,-6.96402 -3.96484,-22.82998 14.41093,-30.11127c15.63578,-6.19557 52.99552,-4.49223 63.29876,-3.83276c11.57686,0.74096 24.38947,2.33073 32.62994,6.14082c9.7942,4.52849 12.15061,26.01077 11.28756,29.65967c-7.25148,30.65885 -79.27306,24.92997 -93.28047,22.01263c-15.15598,-3.15654 -28.34673,-10.97953 -28.34673,-23.86914z" fill="#4a7b9c" stroke-width="0"/><path d="M334.01652,120.92251c-19.26408,-7.95895 -5.63256,-27.30312 -5.18968,-27.43809c16.82951,-5.12799 50.9457,-3.56328 60.71867,-2.93775c11.57686,0.74096 24.38947,2.33073 32.62994,6.14082c3.9322,1.81811 6.66551,6.36896 8.47292,11.40134c0.71562,1.99252 2.88817,16.92739 -9.31512,20.01817c-17.37759,4.40129 -49.54307,8.42169 -87.31674,-7.18449z" fill="#8cc5de" stroke-width="0"/><path d="M412.5694,94.70064c5.28166,1.55618 13.47008,4.54793 11.78807,9.97842c-3.55716,11.48462 -19.33279,5.0037 -30.30904,3.49133c-1.76919,-0.24376 -9.99384,-0.32671 -15.01325,-2.56934c-3.2252,-1.44099 -4.26812,-4.98315 -4.26812,-6.02905c0,-3.9361 3.96564,-7.12693 8.85753,-7.12693c0.14191,0 7.26194,-0.24829 14.45177,0.1574c5.70918,0.32213 11.32726,1.16537 14.49304,2.0981z" fill="#ffffff" stroke-width="0.5"/></g></g><g stroke-width="0"><path d="M227.17602,167.39523c0.1956,10.65093 -0.14181,24.52665 1.7164,37.21543c2.63028,17.96065 15.80818,41.08224 15.80818,41.08224c0,0 -6.41564,1.49095 -13.20714,1.65704c-6.15969,0.15063 -12.44232,-0.78853 -18.0078,-4.91831c-2.12387,-1.57595 -8.75048,-12.68062 -10.16983,-29.53444c-1.22416,-14.5361 -2.90366,-19.94509 -1.74859,-56.90823c0.41472,-13.2712 0.03685,-29.88574 1.21783,-40.43505c2.50288,-22.35755 15.46368,-22.59198 18.98083,-22.97316c10.81898,-1.00829 15.0375,-1.0728 15.0375,-1.0728c0,0 -10.68716,18.17964 -9.62737,75.88731z" fill="#770d3a"/><path d="M202.6155,117.22193c0,0 0.10905,-1.1275 0.16957,-1.66803c2.50288,-22.35755 15.46368,-22.59198 18.98083,-22.97316c10.81898,-1.00829 15.0375,-1.0728 15.0375,-1.0728c0,0 -2.32835,3.96071 -4.70372,14.05304c-0.44335,1.88365 -1.32013,6.30585 -1.32013,6.30585c0,0 -11.53479,-0.03019 -15.94246,0.8079c-4.92323,0.93609 -12.22159,4.54719 -12.22159,4.54719z" fill="#c41409"/></g></g><g><path d="M316.79612,291.59684c67.44267,0 122.11576,12.90159 122.11576,28.81648c0,15.9149 -54.67309,28.81648 -122.11576,28.81648c-67.44267,0 -122.11576,-12.90159 -122.11576,-28.81648c0,-15.9149 54.67309,-28.81648 122.11576,-28.81648z" fill="#3a3a3a" stroke-width="0"/><path d="M427.84195,91.09199c0.94022,9.56988 31.59624,97.23979 -20.68254,161.74386c-0.64204,0.79217 0.12526,11.7075 1.5828,24.20965c1.70643,14.63686 3.82834,31.44868 -2.24544,36.73726c-6.71771,5.84925 -17.37192,7.51806 -25.82191,8.50741c-7.83355,0.91719 -28.77012,0.33675 -37.30216,-1.81445c-2.01477,-0.508 -3.73365,-9.10457 -5.72673,-9.7501c-1.75547,-0.56858 -6.93762,18.00532 -57.91769,16.21546c-10.56948,-0.37107 -31.28563,-5.80832 -38.29052,-19.20342c-7.79673,-14.90932 -6.53463,-28.48592 -3.03012,-38.66438c0.31353,-0.9106 -0.43562,-2.38121 -2.69103,-2.8808c-6.62871,-1.46834 -21.0324,0.82751 -35.67797,-9.38085c-3.22945,-1.71458 -11.22641,-15.83192 -13.99775,-34.84862c-2.07212,-14.21874 -3.02564,-40.57652 -1.55139,-66.75334c1.45854,-25.89759 5.32675,-51.66578 6.67343,-56.51893c4.64125,-16.72603 15.2575,-21.46915 27.88132,-23.78883c13.18512,-2.42283 28.29441,-2.03829 28.29441,-2.03829c0,0 6.69244,-21.30592 32.43309,-33.80252c12.97358,-6.29843 39.51198,-8.17755 54.80671,-8.37922c61.13105,3.15753 90.40045,31.269 93.26349,60.4101z" fill="#150302" stroke-width="0"/><g stroke-width="0"><path d="M296.79445,54.12027c17.84617,-3.4118 20.85447,-4.03705 36.4738,-4.42144c28.42456,-0.69958 64.99622,6.4505 74.8199,41.97652c1.13575,4.10727 14.24295,48.22701 10.13417,92.74954c-1.17047,12.68308 -5.01142,20.32443 -8.14146,29.32462c-5.8211,16.73805 -18.17581,32.19604 -33.92872,37.36442c-7.35477,2.41303 -25.5914,5.93653 -25.5914,5.93653c0,0 -0.98238,-6.62996 -6.6126,-6.97907c-0.695,-0.04311 -8.7215,-2.09463 -10.28434,6.92037c-2.47501,14.27658 -7.73645,40.56208 -17.99974,49.41647c-1.58547,1.36784 -17.42301,3.46998 -32.282,2.0886c-14.25103,-1.32483 -27.5599,-6.00117 -28.46592,-10.83427c-0.50386,-2.68785 -1.38803,-13.14462 0.11623,-21.56645c0.58578,-3.27953 1.5337,-6.25048 3.00731,-8.33396c3.81292,-5.39102 16.3954,-1.35981 27.35856,0.13475c6.06325,0.82656 12.35989,0.51293 14.67775,-1.73659c3.68407,-3.57551 3.80234,-7.43279 3.32722,-9.92874c-0.89492,-4.70136 -5.90107,-6.57899 -7.25212,-6.75043c-6.32964,-0.80315 -31.72489,-2.53587 -42.68508,-23.15464c-7.33162,-13.79259 -8.37839,-36.21564 -8.30026,-56.68658c0.06703,-17.56925 0.47878,-33.0784 3.97016,-47.54774c15.28771,-63.3572 40.63613,-66.62931 47.65862,-67.97185z" fill="#770d3a"/><path d="M296.79445,54.12027c17.84617,-3.4118 20.85447,-4.03705 36.4738,-4.42144c28.42456,-0.69958 64.99622,6.4505 74.8199,41.97652c0.98137,3.54892 10.90057,36.9711 10.9287,74.71413c0.00139,1.86223 -3.69845,62.4127 -103.97621,44.81296c-8.97574,-1.57532 -17.58056,-5.69 -23.12187,-11.61146c-23.78619,-33.26131 -21.85936,-81.5682 -14.65002,-112.90929c4.06327,-17.66422 10.83604,-30.19698 13.09586,-30.97593c2.75618,-0.95002 4.98232,-1.30874 6.42983,-1.58547z" fill="#c41409"/><path d="M388.80428,265.72578c0,0 1.33725,7.58613 2.43162,16.41923c1.10665,8.93212 2.52756,19.12231 0.72646,20.94125c-2.67656,2.70306 -30.78441,1.95581 -35.10946,1.40757c-0.7086,-0.08983 -1.87654,-1.02544 -2.71905,-2.89159c-1.00329,-2.22227 -1.70303,-5.60613 -2.80616,-8.26232c-2.17071,-5.22674 -4.38559,-9.31703 -4.59115,-10.35804c-0.62251,-3.15262 0.42561,-5.16191 0.88922,-7.50209c0.53041,-2.67736 10.76584,-2.12467 20.21984,-3.80656c11.05412,-1.96656 20.95865,-5.94746 20.95865,-5.94746z" fill="#770d3a"/></g><g><path d="M303.24136,91.25001c14.54992,-11.95601 32.05203,-15.12084 38.06646,-15.53438c20.78975,-1.42953 53.76454,-1.17812 74.06118,2.44517c5.15539,0.92033 21.81717,6.56962 27.4002,16.13022c4.27299,7.31724 20.36983,31.52717 -3.35282,53.6373c-25.04278,23.3405 -93.61829,18.26795 -113.21742,14.57802c-8.74507,-1.99301 -24.30453,-10.11352 -29.5865,-24.19574c-6.38245,-17.01628 -1.04835,-40.75206 6.62885,-47.0606z" fill="#10293a" stroke-width="0"/><g><path d="M311.83581,124.4907c0,-6.96402 -3.96484,-22.82998 14.41093,-30.11127c15.63578,-6.19557 52.99552,-4.49223 63.29876,-3.83276c11.57686,0.74096 24.38947,2.33073 32.62994,6.14082c9.7942,4.52849 12.15061,26.01077 11.28756,29.65967c-7.25148,30.65885 -79.27306,24.92997 -93.28047,22.01263c-15.15598,-3.15654 -28.34673,-10.97953 -28.34673,-23.86914z" fill="#4a7b9c" stroke-width="0"/><path d="M334.01652,120.92251c-19.26408,-7.95895 -5.63256,-27.30312 -5.18968,-27.43809c16.82951,-5.12799 50.9457,-3.56328 60.71867,-2.93775c11.57686,0.74096 24.38947,2.33073 32.62994,6.14082c3.9322,1.81811 6.66551,6.36896 8.47292,11.40134c0.71562,1.99252 2.88817,16.92739 -9.31512,20.01817c-17.37759,4.40129 -49.54307,8.42169 -87.31674,-7.18449z" fill="#8cc5de" stroke-width="0"/><path d="M412.5694,94.70064c5.28166,1.55618 13.47008,4.54793 11.78807,9.97842c-3.55716,11.48462 -19.33279,5.0037 -30.30904,3.49133c-1.76919,-0.24376 -9.99384,-0.32671 -15.01325,-2.56934c-3.2252,-1.44099 -4.26812,-4.98315 -4.26812,-6.02905c0,-3.9361 3.96564,-7.12693 8.85753,-7.12693c0.14191,0 7.26194,-0.24829 14.45177,0.1574c5.70918,0.32213 11.32726,1.16537 14.49304,2.0981z" fill="#ffffff" stroke-width="0.5"/></g></g><g stroke-width="0"><path d="M227.17602,167.39523c0.1956,10.65093 -0.14181,24.52665 1.7164,37.21543c2.63028,17.96065 15.80818,41.08224 15.80818,41.08224c0,0 -6.41564,1.49095 -13.20714,1.65704c-6.15969,0.15063 -12.44232,-0.78853 -18.0078,-4.91831c-2.12387,-1.57595 -8.75048,-12.68062 -10.16983,-29.53444c-1.22416,-14.5361 -2.90366,-19.94509 -1.74859,-56.90823c0.41472,-13.2712 0.03685,-29.88574 1.21783,-40.43505c2.50288,-22.35755 15.46368,-22.59198 18.98083,-22.97316c10.81898,-1.00829 15.0375,-1.0728 15.0375,-1.0728c0,0 -10.68716,18.17964 -9.62737,75.88731z" fill="#770d3a"/><path d="M202.6155,117.22193c0,0 0.10905,-1.1275 0.16957,-1.66803c2.50288,-22.35755 15.46368,-22.59198 18.98083,-22.97316c10.81898,-1.00829 15.0375,-1.0728 15.0375,-1.0728c0,0 -2.32835,3.96071 -4.70372,14.05304c-0.44335,1.88365 -1.32013,6.30585 -1.32013,6.30585c0,0 -11.53479,-0.03019 -15.94246,0.8079c-4.92323,0.93609 -12.22159,4.54719 -12.22159,4.54719z" fill="#c41409"/></g></g><g><path d="M316.79612,291.59684c67.44267,0 122.11576,12.90159 122.11576,28.81648c0,15.9149 -54.67309,28.81648 -122.11576,28.81648c-67.44267,0 -122.11576,-12.90159 -122.11576,-28.81648c0,-15.9149 54.67309,-28.81648 122.11576,-28.81648z" fill="#3a3a3a" stroke-width="0"/><path d="M427.10014,5.31859c0.20568,1.37507 5.67184,54.51375 6.70092,55.00691c1.2884,0.61743 -0.57135,37.2398 -2.96649,65.84323c-1.58479,24.9824 -15.86893,44.77583 -14.27363,47.07399c15.64787,6.48749 46.94432,44.17225 48.0675,71.9001c0.58656,14.48021 -10.70906,21.03889 -15.09193,24.82198c-6.69147,5.77574 -14.37173,8.97943 -21.30157,10.98395c-12.84422,3.71532 -23.70047,2.7211 -25.06437,2.18918c-16.87422,-7.28509 -22.82386,-32.42199 -36.98967,-48.30486c-14.24663,-15.9735 -36.66758,-22.67024 -38.84202,-21.83888c-5.46909,2.09101 -43.75032,26.23599 -47.33306,26.83483c-47.04721,7.86376 -69.27816,-21.56267 -74.43777,-26.60092c-7.08741,-6.92066 -9.9616,-11.3835 -11.20935,-15.33098c-1.66236,-5.2591 -0.25011,-8.85245 -0.25011,-8.85245c0,0 -11.89197,-6.96688 -10.14447,-75.14893c0.47698,-18.60997 0.66023,-39.23567 5.39681,-67.25073c2.04807,-8.92144 1.62501,-18.3035 17.71054,-26.53975c13.21104,-6.76446 34.12998,-7.74545 34.12998,-7.74545c0,0 3.34207,-16.84099 8.68115,-34.82472c7.65808,-23.8373 36.2741,-43.8436 71.57143,-43.8436c41.38824,0 97.88525,19.74567 105.64612,71.62708z" fill="#150302" stroke-width="0"/><path d="M291.82571,-38.85507c76.47949,-26.91257 117.95718,31.94454 117.95718,54.39775c0,12.68324 14.05134,119.47695 -11.30475,149.69616c-1.52975,1.82312 -3.25473,3.87015 -4.76953,5.50579c-1.45457,1.57062 -2.73764,2.7396 -2.41055,4.0241c0.51879,2.03723 8.48558,5.09827 15.9901,10.82009c9.21492,7.02593 18.89584,17.62756 27.45939,29.93742c8.40695,13.37321 10.21266,22.66235 11.05937,29.63575c1.98316,16.3333 -26.30945,22.95963 -29.05046,23.07926c-4.15706,0.18145 -6.90764,0.32624 -11.07838,-0.60515c-15.5105,-3.46369 -17.69377,-37.44227 -31.01582,-49.495c-4.84785,-4.38596 -16.15502,-10.32814 -28.07626,-15.11942c-13.66249,-5.4911 -27.7725,-9.56025 -27.79303,-9.56691c-18.51301,-5.99754 -41.67714,-15.31669 -50.28207,-27.62965c-10.39075,-14.86831 -14.08791,-33.99027 -15.67697,-51.47666c-0.85462,-9.40445 -0.44262,-27.94802 0.7146,-48.9841c1.30721,-23.76262 3.80243,-50.70577 10.92806,-71.2489c8.06951,-23.26435 19.78372,-30.30833 27.34911,-32.97052z" fill="#770d3a" stroke-width="0"/><path d="M291.82571,-38.85507c76.47949,-26.91257 117.95718,31.94454 117.95718,54.39775c0,7.13227 4.44338,44.02453 3.82383,80.32475c-0.13844,8.11075 -20.88047,57.15169 -80.64983,47.5331c-16.798,-2.70327 -42.94797,-13.92635 -51.67374,-37.74374c-18.27719,-49.88849 -7.35158,-130.64945 -5.39156,-133.02225c5.6917,-6.89038 11.51932,-9.93604 15.93412,-11.48958z" fill="#c41409" stroke-width="0"/><g><path d="M303.24136,7.68246c14.54992,-14.85924 32.05203,-18.79255 38.06646,-19.30652c20.78975,-1.77665 53.76454,-1.46421 74.06118,3.03893c5.15539,1.1438 21.81717,8.16489 27.4002,20.04706c4.27299,9.09406 20.36983,39.18279 -3.35282,66.66181c-25.04278,29.00818 -93.61829,22.70387 -113.21742,18.11794c-8.74507,-2.47697 -24.30453,-12.56935 -29.5865,-30.07109c-6.38245,-21.14825 -1.04835,-50.64771 6.62885,-58.48813z" fill="#10293a" stroke-width="0"/><g><path d="M311.83581,48.99484c0,-8.65505 -3.96484,-28.37368 14.41093,-37.42305c15.63578,-7.70002 52.99552,-5.58305 63.29876,-4.76346c11.57686,0.9209 24.38947,2.89669 32.62994,7.63198c9.7942,5.62812 12.15061,32.32688 11.28756,36.86181c-7.25148,38.10361 -79.27306,30.9836 -93.28047,27.35787c-15.15598,-3.92303 -28.34673,-13.64564 -28.34673,-29.66518z" fill="#4a7b9c" stroke-width="0"/><path d="M334.01652,44.56019c-19.26408,-9.89159 -5.63256,-33.93304 -5.18968,-34.10077c16.82951,-6.37319 50.9457,-4.42853 60.71867,-3.6511c11.57686,0.9209 24.38947,2.89669 32.62994,7.63198c3.9322,2.25959 6.66551,7.91551 8.47292,14.16987c0.71562,2.47635 2.88817,21.03781 -9.31512,24.87909c-17.37759,5.47003 -49.54307,10.46669 -87.31674,-8.92907z" fill="#8cc5de" stroke-width="0"/><path d="M412.5694,11.97099c5.28166,1.93406 13.47008,5.65228 11.78807,12.40143c-3.55716,14.2734 -19.33279,6.21872 -30.30904,4.33912c-1.76919,-0.30295 -9.99384,-0.40605 -15.01325,-3.19324c-3.2252,-1.7909 -4.26812,-6.19318 -4.26812,-7.49304c0,-4.89188 3.96564,-8.85753 8.85753,-8.85753c0.14191,0 7.26194,-0.30857 14.45177,0.19562c5.70918,0.40036 11.32726,1.44834 14.49304,2.60758z" fill="#ffffff" stroke-width="0.5"/></g></g><path d="M299.24763,204.87709c0,0 -0.25769,1.34112 -1.55791,2.67559c-0.80015,0.82125 -2.19752,1.43754 -3.57159,2.33822c-3.73769,2.44999 -9.64122,4.66579 -14.20511,7.51125c-6.43111,4.00962 -11.66817,8.30623 -14.04792,7.88294c-2.80179,-0.49836 -18.18386,-3.05275 -30.98908,-10.54024c-11.77545,-6.88534 -21.17067,-18.69668 -21.03223,-20.2971c0.39072,-4.51724 6.19021,-8.89747 10.31857,-12.58593c5.23588,-4.67795 9.17148,-8.24324 11.22967,-9.56412c1.13605,-0.72908 12.39383,4.10415 24.54012,11.22267c7.77483,4.55655 15.52909,10.81863 22.48614,14.63696c11.77529,6.46276 16.82937,6.71977 16.82937,6.71977z" fill="#770d3a" stroke-width="0"/><path d="M237.99839,33.18361c0,0 -2.35407,13.71046 -3.03834,33.53063c-0.8139,23.57503 0.05891,54.30752 0.64943,60.17787c1.45835,14.49767 5.64687,26.8353 5.64687,26.8353c0,0 -12.48552,0.49874 -19.40452,4.68459c-9.12254,5.51895 -13.37959,15.04185 -14.29645,14.42617c-1.0266,-0.6894 -4.66251,-12.85 -5.97541,-36.29056c-0.90101,-16.08676 -0.74013,-35.84917 -0.36377,-53.19809c0.36734,-16.93273 0.90904,-31.56636 3.35296,-38.23955c5.85969,-15.99998 33.42927,-11.92639 33.42927,-11.92639z" fill="#770d3a" stroke-width="0"/><path d="M237.99839,33.18361c0,0 -0.87805,5.11389 -1.71753,13.61024c-0.19895,2.01366 -0.57817,6.58785 -0.57817,6.58785c0,0 -10.60527,-2.1319 -18.08289,-0.72969c-7.58998,1.42325 -15.39481,6.30131 -15.39481,6.30131c0,0 0.32111,-3.53921 0.51995,-5.13101c0.44984,-3.60097 1.03879,-6.5677 1.82418,-8.71229c5.85969,-15.99998 33.42927,-11.92639 33.42927,-11.92639z" fill="#c41409" stroke-width="0"/></g><g><path d="M316.79612,291.59684c67.44267,0 122.11576,12.90159 122.11576,28.81648c0,15.9149 -54.67309,28.81648 -122.11576,28.81648c-67.44267,0 -122.11576,-12.90159 -122.11576,-28.81648c0,-15.9149 54.67309,-28.81648 122.11576,-28.81648z" fill="#3a3a3a" stroke-width="0"/><path d="M427.10014,0.00407c0.20568,1.37507 5.67184,54.51375 6.70092,55.00691c1.2884,0.61743 -0.57135,37.2398 -2.96649,65.84323c-1.58479,24.9824 -15.86893,44.77583 -14.27363,47.07399c15.64787,6.48749 46.94432,44.17225 48.0675,71.9001c0.58656,14.48021 -10.70906,21.03889 -15.09193,24.82198c-6.69147,5.77574 -14.37173,8.97943 -21.30157,10.98395c-12.84422,3.71532 -23.70047,2.7211 -25.06437,2.18918c-16.87422,-7.28509 -22.82386,-32.42199 -36.98967,-48.30486c-14.24663,-15.9735 -36.66758,-22.67024 -38.84202,-21.83888c-5.46909,2.09101 -43.75032,26.23599 -47.33306,26.83483c-47.04721,7.86376 -69.27816,-21.56267 -74.43777,-26.60092c-7.08741,-6.92066 -9.9616,-11.3835 -11.20935,-15.33098c-0.77445,-2.45011 0.23526,-6.53808 2.03945,-10.206c2.06846,-4.20518 5.03266,-7.85828 5.03266,-7.85828c0,0 -18.54067,-4.86458 -17.02008,-71.95552c0.00803,-0.35392 -1.20817,-57.30295 7.06427,-86.54242c3.23659,-11.43998 9.30888,-16.70976 15.36027,-19.88949c13.21104,-6.76446 37.9092,-6.32824 37.9092,-6.32824c0,0 -0.20094,0.40166 5.13814,-17.58207c7.65808,-23.8373 36.2741,-43.8436 71.57143,-43.8436c41.38824,0 97.88525,19.74567 105.64612,71.62708z" fill="#150302" stroke-width="0"/><path d="M291.82571,-44.16959c76.47949,-26.91257 117.95718,31.94454 117.95718,54.39775c0,12.68324 14.05134,119.47695 -11.30475,149.69616c-1.52975,1.82312 -3.25473,3.87015 -4.76953,5.50579c-1.45457,1.57062 -2.73764,2.7396 -2.41055,4.0241c0.51879,2.03723 8.48558,5.09827 15.9901,10.82009c9.21492,7.02593 18.89584,17.62756 27.45939,29.93742c8.40695,13.37321 10.21266,22.66235 11.05937,29.63575c1.98316,16.3333 -26.30945,22.95963 -29.05046,23.07926c-4.15706,0.18145 -6.90764,0.32624 -11.07838,-0.60515c-15.5105,-3.46369 -17.69377,-37.44227 -31.01582,-49.495c-4.84785,-4.38596 -16.15502,-10.32814 -28.07626,-15.11942c-13.66249,-5.4911 -27.7725,-9.56025 -27.79303,-9.56691c-18.51301,-5.99754 -41.67714,-15.31669 -50.28207,-27.62965c-10.39075,-14.86831 -14.08791,-33.99027 -15.67697,-51.47666c-0.85462,-9.40445 -0.44262,-27.94802 0.7146,-48.9841c1.30721,-23.76262 3.80243,-50.70577 10.92806,-71.2489c8.06951,-23.26435 19.78372,-30.30833 27.34911,-32.97052z" fill="#770d3a" stroke-width="0"/><path d="M291.82571,-44.16959c76.47949,-26.91257 117.95718,31.94454 117.95718,54.39775c0,7.13227 4.44338,44.02453 3.82383,80.32475c-0.13844,8.11075 -20.88047,57.15169 -80.64983,47.5331c-16.798,-2.70327 -42.94797,-13.92635 -51.67374,-37.74374c-18.27719,-49.88849 -7.35158,-130.64945 -5.39156,-133.02225c5.6917,-6.89038 11.51932,-9.93604 15.93412,-11.48958z" fill="#c41409" stroke-width="0"/><g><path d="M303.24136,2.36795c14.54992,-14.85924 32.05203,-18.79255 38.06646,-19.30652c20.78975,-1.77665 53.76454,-1.46421 74.06118,3.03893c5.15539,1.1438 21.81717,8.16489 27.4002,20.04706c4.27299,9.09406 20.36983,39.18279 -3.35282,66.66181c-25.04278,29.00818 -93.61829,22.70387 -113.21742,18.11794c-8.74507,-2.47697 -24.30453,-12.56935 -29.5865,-30.07109c-6.38245,-21.14825 -1.04835,-50.64771 6.62885,-58.48813z" fill="#10293a" stroke-width="0"/><g><path d="M311.83581,43.68032c0,-8.65505 -3.96484,-28.37368 14.41093,-37.42305c15.63578,-7.70002 52.99552,-5.58305 63.29876,-4.76346c11.57686,0.9209 24.38947,2.89669 32.62994,7.63198c9.7942,5.62812 12.15061,32.32688 11.28756,36.86181c-7.25148,38.10361 -79.27306,30.9836 -93.28047,27.35787c-15.15598,-3.92303 -28.34673,-13.64564 -28.34673,-29.66518z" fill="#4a7b9c" stroke-width="0"/><path d="M334.01652,39.24568c-19.26408,-9.89159 -5.63256,-33.93304 -5.18968,-34.10077c16.82951,-6.37319 50.9457,-4.42853 60.71867,-3.6511c11.57686,0.9209 24.38947,2.89669 32.62994,7.63198c3.9322,2.25959 6.66551,7.91551 8.47292,14.16987c0.71562,2.47635 2.88817,21.03781 -9.31512,24.87909c-17.37759,5.47003 -49.54307,10.46669 -87.31674,-8.92907z" fill="#8cc5de" stroke-width="0"/><path d="M412.5694,6.65648c5.28166,1.93406 13.47008,5.65228 11.78807,12.40143c-3.55716,14.2734 -19.33279,6.21872 -30.30904,4.33912c-1.76919,-0.30295 -9.99384,-0.40605 -15.01325,-3.19324c-3.2252,-1.7909 -4.26812,-6.19318 -4.26812,-7.49304c0,-4.89188 3.96564,-8.85753 8.85753,-8.85753c0.14191,0 7.26194,-0.30857 14.45177,0.19562c5.70918,0.40036 11.32726,1.44834 14.49304,2.60758z" fill="#ffffff" stroke-width="0.5"/></g></g><path d="M299.24763,199.56257c0,0 -0.25769,1.34112 -1.55791,2.67559c-0.80015,0.82125 -2.19752,1.43754 -3.57159,2.33822c-3.73769,2.44999 -9.64122,4.66579 -14.20511,7.51125c-6.43111,4.00962 -11.66817,8.30623 -14.04792,7.88294c-2.80179,-0.49836 -18.18386,-3.05275 -30.98908,-10.54024c-11.77545,-6.88534 -21.17067,-18.69668 -21.03223,-20.2971c0.39072,-4.51724 6.19021,-8.89747 10.31857,-12.58593c5.23588,-4.67795 9.17148,-8.24324 11.22967,-9.56412c1.13605,-0.72908 12.39383,4.10415 24.54012,11.22267c7.77483,4.55655 15.52909,10.81863 22.48614,14.63696c11.77529,6.46276 16.82937,6.71977 16.82937,6.71977z" fill="#770d3a" stroke-width="0"/><path d="M234.96004,61.39972c-0.8139,23.57503 0.05891,54.30752 0.64943,60.17787c1.45835,14.49767 5.64687,26.8353 5.64687,26.8353c0,0 -12.48552,0.49874 -19.40452,4.68459c-1.57773,0.95449 -5.96827,5.92054 -7.5409,6.25707c-3.41043,0.72986 -6.55197,-6.15204 -8.16952,-13.0734c-0.39984,-1.71083 -3.04562,-13.41759 -3.80836,-21.47908c-1.54872,-16.36864 -1.369,-35.143 -1.11683,-46.7671c0.36734,-16.93273 1.12377,-50.24768 3.56769,-56.92087c5.85969,-15.99998 36.6502,-11.49693 36.6502,-11.49693c0,0 -5.78977,31.96235 -6.47405,51.78251z" fill="#770d3a" stroke-width="0"/><path d="M202.95825,33.72715c0,0 0.15589,-1.87827 0.23885,-2.76182c0.43007,-4.5805 0.95142,-8.11626 1.5868,-9.8512c5.85969,-15.99998 36.6502,-11.49693 36.6502,-11.49693c0,0 -1.34455,7.42254 -2.81433,17.33184c-0.14961,1.00865 -0.45143,3.09806 -0.45143,3.09806c0,0 -11.14059,-2.22676 -16.14951,-1.82477c-8.3248,0.66809 -19.06055,5.50482 -19.06055,5.50482z" fill="#c41409" stroke-width="0"/></g><g><path d="M316.79612,291.59684c67.44267,0 122.11576,12.90159 122.11576,28.81648c0,15.9149 -54.67309,28.81648 -122.11576,28.81648c-67.44267,0 -122.11576,-12.90159 -122.11576,-28.81648c0,-15.9149 54.67309,-28.81648 122.11576,-28.81648z" fill="#3a3a3a" stroke-width="0"/><path d="M427.10014,0.00407c0.20568,1.37507 5.67184,54.51375 6.70092,55.00691c1.2884,0.61743 -0.57135,37.2398 -2.96649,65.84323c-1.58479,24.9824 -15.86893,44.77583 -14.27363,47.07399c15.64787,6.48749 46.94432,44.17225 48.0675,71.9001c0.58656,14.48021 -10.70906,21.03889 -15.09193,24.82198c-6.69147,5.77574 -14.37173,8.97943 -21.30157,10.98395c-12.84422,3.71532 -23.70047,2.7211 -25.06437,2.18918c-16.87422,-7.28509 -22.82386,-32.42199 -36.98967,-48.30486c-14.24663,-15.9735 -36.66758,-22.67024 -38.84202,-21.83888c-5.46909,2.09101 -43.75032,26.23599 -47.33306,26.83483c-47.04721,7.86376 -69.27816,-21.56267 -74.43777,-26.60092c-7.08741,-6.92066 -9.9616,-11.3835 -11.20935,-15.33098c-0.77445,-2.45011 0.23526,-6.53808 2.03945,-10.206c2.06846,-4.20518 5.03266,-7.85828 5.03266,-7.85828c0,0 -18.54067,-4.86458 -17.02008,-71.95552c0.00803,-0.35392 -1.20817,-57.30295 7.06427,-86.54242c3.23659,-11.43998 9.30888,-16.70976 15.36027,-19.88949c13.21104,-6.76446 37.9092,-6.32824 37.9092,-6.32824c0,0 -0.20094,0.40166 5.13814,-17.58207c7.65808,-23.8373 36.2741,-43.8436 71.57143,-43.8436c41.38824,0 97.88525,19.74567 105.64612,71.62708z" fill="#150302" stroke-width="0"/><path d="M291.82571,-44.16959c76.47949,-26.91257 117.95718,31.94454 117.95718,54.39775c0,12.68324 14.05134,119.47695 -11.30475,149.69616c-1.52975,1.82312 -3.25473,3.87015 -4.76953,5.50579c-1.45457,1.57062 -2.73764,2.7396 -2.41055,4.0241c0.51879,2.03723 8.48558,5.09827 15.9901,10.82009c9.21492,7.02593 18.89584,17.62756 27.45939,29.93742c8.40695,13.37321 10.21266,22.66235 11.05937,29.63575c1.98316,16.3333 -26.30945,22.95963 -29.05046,23.07926c-4.15706,0.18145 -6.90764,0.32624 -11.07838,-0.60515c-15.5105,-3.46369 -17.69377,-37.44227 -31.01582,-49.495c-4.84785,-4.38596 -16.15502,-10.32814 -28.07626,-15.11942c-13.66249,-5.4911 -27.7725,-9.56025 -27.79303,-9.56691c-18.51301,-5.99754 -41.67714,-15.31669 -50.28207,-27.62965c-10.39075,-14.86831 -14.08791,-33.99027 -15.67697,-51.47666c-0.85462,-9.40445 -0.44262,-27.94802 0.7146,-48.9841c1.30721,-23.76262 3.80243,-50.70577 10.92806,-71.2489c8.06951,-23.26435 19.78372,-30.30833 27.34911,-32.97052z" fill="#770d3a" stroke-width="0"/><path d="M291.82571,-44.16959c76.47949,-26.91257 117.95718,31.94454 117.95718,54.39775c0,7.13227 4.44338,44.02453 3.82383,80.32475c-0.13844,8.11075 -20.88047,57.15169 -80.64983,47.5331c-16.798,-2.70327 -42.94797,-13.92635 -51.67374,-37.74374c-18.27719,-49.88849 -7.35158,-130.64945 -5.39156,-133.02225c5.6917,-6.89038 11.51932,-9.93604 15.93412,-11.48958z" fill="#c41409" stroke-width="0"/><g><path d="M303.24136,2.36795c14.54992,-14.85924 32.05203,-18.79255 38.06646,-19.30652c20.78975,-1.77665 53.76454,-1.46421 74.06118,3.03893c5.15539,1.1438 21.81717,8.16489 27.4002,20.04706c4.27299,9.09406 20.36983,39.18279 -3.35282,66.66181c-25.04278,29.00818 -93.61829,22.70387 -113.21742,18.11794c-8.74507,-2.47697 -24.30453,-12.56935 -29.5865,-30.07109c-6.38245,-21.14825 -1.04835,-50.64771 6.62885,-58.48813z" fill="#10293a" stroke-width="0"/><g><path d="M311.83581,43.68032c0,-8.65505 -3.96484,-28.37368 14.41093,-37.42305c15.63578,-7.70002 52.99552,-5.58305 63.29876,-4.76346c11.57686,0.9209 24.38947,2.89669 32.62994,7.63198c9.7942,5.62812 12.15061,32.32688 11.28756,36.86181c-7.25148,38.10361 -79.27306,30.9836 -93.28047,27.35787c-15.15598,-3.92303 -28.34673,-13.64564 -28.34673,-29.66518z" fill="#4a7b9c" stroke-width="0"/><path d="M334.01652,39.24568c-19.26408,-9.89159 -5.63256,-33.93304 -5.18968,-34.10077c16.82951,-6.37319 50.9457,-4.42853 60.71867,-3.6511c11.57686,0.9209 24.38947,2.89669 32.62994,7.63198c3.9322,2.25959 6.66551,7.91551 8.47292,14.16987c0.71562,2.47635 2.88817,21.03781 -9.31512,24.87909c-17.37759,5.47003 -49.54307,10.46669 -87.31674,-8.92907z" fill="#8cc5de" stroke-width="0"/><path d="M412.5694,6.65648c5.28166,1.93406 13.47008,5.65228 11.78807,12.40143c-3.55716,14.2734 -19.33279,6.21872 -30.30904,4.33912c-1.76919,-0.30295 -9.99384,-0.40605 -15.01325,-3.19324c-3.2252,-1.7909 -4.26812,-6.19318 -4.26812,-7.49304c0,-4.89188 3.96564,-8.85753 8.85753,-8.85753c0.14191,0 7.26194,-0.30857 14.45177,0.19562c5.70918,0.40036 11.32726,1.44834 14.49304,2.60758z" fill="#ffffff" stroke-width="0.5"/></g></g><path d="M299.24763,199.56257c0,0 -0.25769,1.34112 -1.55791,2.67559c-0.80015,0.82125 -2.19752,1.43754 -3.57159,2.33822c-3.73769,2.44999 -9.64122,4.66579 -14.20511,7.51125c-6.43111,4.00962 -11.66817,8.30623 -14.04792,7.88294c-2.80179,-0.49836 -18.18386,-3.05275 -30.98908,-10.54024c-11.77545,-6.88534 -21.17067,-18.69668 -21.03223,-20.2971c0.39072,-4.51724 6.19021,-8.89747 10.31857,-12.58593c5.23588,-4.67795 9.17148,-8.24324 11.22967,-9.56412c1.13605,-0.72908 12.39383,4.10415 24.54012,11.22267c7.77483,4.55655 15.52909,10.81863 22.48614,14.63696c11.77529,6.46276 16.82937,6.71977 16.82937,6.71977z" fill="#770d3a" stroke-width="0"/><path d="M234.96004,61.39972c-0.8139,23.57503 0.05891,54.30752 0.64943,60.17787c1.45835,14.49767 5.64687,26.8353 5.64687,26.8353c0,0 -12.48552,0.49874 -19.40452,4.68459c-1.57773,0.95449 -5.96827,5.92054 -7.5409,6.25707c-3.41043,0.72986 -6.55197,-6.15204 -8.16952,-13.0734c-0.39984,-1.71083 -3.04562,-13.41759 -3.80836,-21.47908c-1.54872,-16.36864 -1.369,-35.143 -1.11683,-46.7671c0.36734,-16.93273 1.12377,-50.24768 3.56769,-56.92087c5.85969,-15.99998 36.6502,-11.49693 36.6502,-11.49693c0,0 -5.78977,31.96235 -6.47405,51.78251z" fill="#770d3a" stroke-width="0"/><path d="M202.95825,33.72715c0,0 0.15589,-1.87827 0.23885,-2.76182c0.43007,-4.5805 0.95142,-8.11626 1.5868,-9.8512c5.85969,-15.99998 36.6502,-11.49693 36.6502,-11.49693c0,0 -1.34455,7.42254 -2.81433,17.33184c-0.14961,1.00865 -0.45143,3.09806 -0.45143,3.09806c0,0 -11.14059,-2.22676 -16.14951,-1.82477c-8.3248,0.66809 -19.06055,5.50482 -19.06055,5.50482z" fill="#c41409" stroke-width="0"/></g><g><path d="M427.10014,10.90563c0.20568,1.37507 5.67184,54.51375 6.70092,55.00691c1.2884,0.61743 -0.57135,37.2398 -2.96649,65.84323c-1.58479,24.9824 -15.86893,44.77583 -14.27363,47.07399c15.64787,6.48749 46.94432,44.17225 48.0675,71.9001c0.58656,14.48021 -10.70906,21.03889 -15.09193,24.82198c-6.69147,5.77574 -14.37173,8.97943 -21.30157,10.98395c-12.84422,3.71532 -23.70047,2.7211 -25.06437,2.18918c-16.87422,-7.28509 -22.82386,-32.42199 -36.98967,-48.30486c-14.24663,-15.9735 -36.66758,-22.67024 -38.84202,-21.83888c-5.46909,2.09101 -43.75032,26.23599 -47.33306,26.83483c-47.04721,7.86376 -69.27816,-21.56267 -74.43777,-26.60092c-7.08741,-6.92066 -9.9616,-11.3835 -11.20935,-15.33098c-0.77445,-2.45011 0.23526,-6.53808 2.03945,-10.206c2.06846,-4.20518 12.66376,-15.85277 12.66376,-15.85277c0,0 -25.80837,-8.86182 -24.28778,-75.95277c0.00803,-0.35392 -0.11801,-57.30295 8.15443,-86.54242c3.23659,-11.43998 9.30888,-16.70976 15.36027,-19.88949c13.21104,-6.76446 37.9092,-6.32824 37.9092,-6.32824c0,0 7.87061,-15.51959 11.23911,-20.07236c12.52974,-16.93495 36.19832,-29.36156 64.01693,-29.36156c41.38824,0 97.88525,19.74567 105.64612,71.62708z" fill="#150302" stroke-width="0"/><path d="M291.82571,-33.26803c76.47949,-26.91257 117.95718,31.94454 117.95718,54.39775c0,12.68324 14.05134,119.47695 -11.30475,149.69616c-1.52975,1.82312 -3.25473,3.87015 -4.76953,5.50579c-1.45457,1.57062 -2.73764,2.7396 -2.41055,4.0241c0.51879,2.03723 8.48558,5.09827 15.9901,10.82009c9.21492,7.02593 18.89584,17.62756 27.45939,29.93742c8.40695,13.37321 10.21266,22.66235 11.05937,29.63575c1.98316,16.3333 -26.30945,22.95963 -29.05046,23.07926c-4.15706,0.18145 -6.90764,0.32624 -11.07838,-0.60515c-15.5105,-3.46369 -17.69377,-37.44227 -31.01582,-49.495c-4.84785,-4.38596 -16.15502,-10.32814 -28.07626,-15.11942c-13.66249,-5.4911 -27.7725,-9.56025 -27.79303,-9.56691c-18.51301,-5.99754 -41.67714,-15.31669 -50.28207,-27.62965c-10.39075,-14.86831 -14.08791,-33.99027 -15.67697,-51.47666c-0.85462,-9.40445 -0.44262,-27.94802 0.7146,-48.9841c1.30721,-23.76262 3.80243,-50.70577 10.92806,-71.2489c8.06951,-23.26435 19.78372,-30.30833 27.34911,-32.97052z" fill="#770d3a" stroke-width="0"/><path d="M291.82571,-33.26803c76.47949,-26.91257 117.95718,31.94454 117.95718,54.39775c0,7.13227 4.44338,44.02453 3.82383,80.32475c-0.13844,8.11075 -20.88047,57.15169 -80.64983,47.5331c-16.798,-2.70327 -42.94797,-13.92635 -51.67374,-37.74374c-18.27719,-49.88849 -7.35158,-130.64945 -5.39156,-133.02225c5.6917,-6.89038 11.51932,-9.93604 15.93412,-11.48958z" fill="#c41409" stroke-width="0"/><g><path d="M303.24136,13.26951c14.54992,-14.85924 32.05203,-18.79255 38.06646,-19.30652c20.78975,-1.77665 53.76454,-1.46421 74.06118,3.03893c5.15539,1.1438 21.81717,8.16489 27.4002,20.04706c4.27299,9.09406 20.36983,39.18279 -3.35282,66.66181c-25.04278,29.00818 -93.61829,22.70387 -113.21742,18.11794c-8.74507,-2.47697 -24.30453,-12.56935 -29.5865,-30.07109c-6.38245,-21.14825 -1.04835,-50.64771 6.62885,-58.48813z" fill="#10293a" stroke-width="0"/><g><path d="M311.83581,54.58188c0,-8.65505 -3.96484,-28.37368 14.41093,-37.42305c15.63578,-7.70002 52.99552,-5.58305 63.29876,-4.76346c11.57686,0.9209 24.38947,2.89669 32.62994,7.63198c9.7942,5.62812 12.15061,32.32688 11.28756,36.86181c-7.25148,38.10361 -79.27306,30.9836 -93.28047,27.35787c-15.15598,-3.92303 -28.34673,-13.64564 -28.34673,-29.66518z" fill="#4a7b9c" stroke-width="0"/><path d="M334.01652,50.14724c-19.26408,-9.89159 -5.63256,-33.93304 -5.18968,-34.10077c16.82951,-6.37319 50.9457,-4.42853 60.71867,-3.6511c11.57686,0.9209 24.38947,2.89669 32.62994,7.63198c3.9322,2.25959 6.66551,7.91551 8.47292,14.16987c0.71562,2.47635 2.88817,21.03781 -9.31512,24.87909c-17.37759,5.47003 -49.54307,10.46669 -87.31674,-8.92907z" fill="#8cc5de" stroke-width="0"/><path d="M412.5694,17.55804c5.28166,1.93406 13.47008,5.65228 11.78807,12.40143c-3.55716,14.2734 -19.33279,6.21872 -30.30904,4.33912c-1.76919,-0.30295 -9.99384,-0.40605 -15.01325,-3.19324c-3.2252,-1.7909 -4.26812,-6.19318 -4.26812,-7.49304c0,-4.89188 3.96564,-8.85753 8.85753,-8.85753c0.14191,0 7.26194,-0.30857 14.45177,0.19562c5.70918,0.40036 11.32726,1.44834 14.49304,2.60758z" fill="#ffffff" stroke-width="0.5"/></g></g><path d="M299.24763,210.46413c0,0 -0.25769,1.34112 -1.55791,2.67559c-0.80015,0.82125 -2.19752,1.43754 -3.57159,2.33822c-3.73769,2.44999 -9.64122,4.66579 -14.20511,7.51125c-6.43111,4.00962 -11.66817,8.30623 -14.04792,7.88294c-2.80179,-0.49836 -18.18386,-3.05275 -30.98908,-10.54024c-11.77545,-6.88534 -21.17067,-18.69668 -21.03223,-20.2971c0.39072,-4.51724 6.19021,-8.89747 10.31857,-12.58593c5.23588,-4.67795 9.17148,-8.24324 11.22967,-9.56412c1.13605,-0.72908 12.39383,4.10415 24.54012,11.22267c7.77483,4.55655 15.52909,10.81863 22.48614,14.63696c11.77529,6.46276 16.82937,6.71977 16.82937,6.71977z" fill="#770d3a" stroke-width="0"/><path d="M316.79612,291.59684c67.44267,0 122.11576,12.90159 122.11576,28.81648c0,15.9149 -54.67309,28.81648 -122.11576,28.81648c-67.44267,0 -122.11576,-12.90159 -122.11576,-28.81648c0,-15.9149 54.67309,-28.81648 122.11576,-28.81648z" fill="#3a3a3a" stroke-width="0"/><g stroke-width="0"><path d="M236.0502,59.94619c-0.37641,10.90288 -1.98836,36.13032 -0.71052,56.90861c0.81548,13.26 1.44252,22.59267 2.81603,30.50428c1.12802,6.4976 3.111,12.82752 3.111,12.82752c0,0 -3.59011,-0.86027 -7.66485,-0.33144c-5.14677,0.66795 -11.2274,2.74841 -13.61175,2.63491c-3.41043,0.72986 -11.14102,-10.74108 -12.75857,-17.66245c-0.39984,-1.71083 -3.04562,-13.41759 -3.80836,-21.47908c-1.54872,-16.36864 -1.369,-35.143 -1.11683,-46.7671c0.36734,-16.93273 1.12377,-50.24768 3.56769,-56.92087c5.85969,-15.99998 36.6502,-11.49693 36.6502,-11.49693c0,0 -5.78977,31.96235 -6.47405,51.78251z" fill="#770d3a"/><path d="M204.04841,32.27362c0,0 0.15589,-1.87827 0.23885,-2.76182c0.43007,-4.5805 0.95142,-8.11626 1.5868,-9.8512c5.85969,-15.99998 36.6502,-11.49693 36.6502,-11.49693c0,0 -1.34455,7.42254 -2.81433,17.33184c-0.14961,1.00865 -0.45143,3.09806 -0.45143,3.09806c0,0 -11.14059,-2.22676 -16.14951,-1.82477c-8.3248,0.66809 -19.06055,5.50482 -19.06055,5.50482z" fill="#c41409"/></g></g><g><path d="M316.79612,291.59684c67.44267,0 122.11576,12.90159 122.11576,28.81648c0,15.9149 -54.67309,28.81648 -122.11576,28.81648c-67.44267,0 -122.11576,-12.90159 -122.11576,-28.81648c0,-15.9149 54.67309,-28.81648 122.11576,-28.81648z" fill="#3a3a3a" stroke-width="0"/><path d="M427.10014,45.86334c0.20568,1.37507 5.67184,54.51375 6.70092,55.00691c1.2884,0.61743 -0.57135,37.2398 -2.96649,65.84323c-1.58479,24.9824 -15.86893,44.77583 -14.27363,47.07399c15.64787,6.48749 46.94432,44.17225 48.0675,71.9001c0.58656,14.48021 -10.70906,21.03889 -15.09193,24.82198c-6.69147,5.77574 -14.37173,8.97943 -21.30157,10.98395c-12.84422,3.71532 -23.70047,2.7211 -25.06437,2.18918c-16.87422,-7.28509 -22.82386,-32.42199 -36.98967,-48.30486c-14.24663,-15.9735 -36.66758,-22.67024 -38.84202,-21.83888c-5.46909,2.09101 -43.75032,26.23599 -47.33306,26.83483c-47.04721,7.86376 -69.27816,-21.56267 -74.43777,-26.60092c-7.08741,-6.92066 -9.9616,-11.3835 -11.20935,-15.33098c-0.77445,-2.45011 0.23526,-6.53808 2.03945,-10.206c2.06846,-4.20518 20.72236,-26.41234 20.72236,-26.41234c0,0 -34.70065,0.5862 -33.18006,-66.50474c0.00803,-0.35392 -0.11801,-71.75288 8.15443,-100.99235c3.23659,-11.43998 9.30888,-16.70976 15.36027,-19.88949c13.21104,-6.76446 44.85628,-3.8273 44.85628,-3.8273c0,0 1.75717,-2.45909 5.12567,-7.01185c12.52974,-16.93495 36.19832,-29.36156 64.01693,-29.36156c41.38824,0 97.88525,19.74567 105.64612,71.62708z" fill="#150302" stroke-width="0"/><path d="M291.82571,1.68967c76.47949,-26.91257 117.95718,31.94454 117.95718,54.39775c0,12.68324 14.05134,119.47695 -11.30475,149.69616c-1.52975,1.82312 -3.25473,3.87015 -4.76953,5.50579c-1.45457,1.57062 -2.73764,2.7396 -2.41055,4.0241c0.51879,2.03723 8.48558,5.09827 15.9901,10.82009c9.21492,7.02593 18.89584,17.62756 27.45939,29.93742c8.40695,13.37321 10.21266,22.66235 11.05937,29.63575c1.98316,16.3333 -26.30945,22.95963 -29.05046,23.07926c-4.15706,0.18145 -6.90764,0.32624 -11.07838,-0.60515c-15.5105,-3.46369 -17.69377,-37.44227 -31.01582,-49.495c-4.84785,-4.38596 -16.15502,-10.32814 -28.07626,-15.11942c-13.66249,-5.4911 -27.7725,-9.56025 -27.79303,-9.56691c-18.51301,-5.99754 -41.67714,-15.31669 -50.28207,-27.62965c-10.39075,-14.86831 -14.08791,-33.99027 -15.67697,-51.47666c-0.85462,-9.40445 -0.44262,-27.94802 0.7146,-48.9841c1.30721,-23.76262 3.80243,-50.70577 10.92806,-71.2489c8.06951,-23.26435 19.78372,-30.30833 27.34911,-32.97052z" fill="#770d3a" stroke-width="0"/><path d="M291.82571,1.68967c76.47949,-26.91257 117.95718,31.94454 117.95718,54.39775c0,7.13227 4.44338,44.02453 3.82383,80.32475c-0.13844,8.11075 -20.88047,57.15169 -80.64983,47.5331c-16.798,-2.70327 -42.94797,-13.92635 -51.67374,-37.74374c-18.27719,-49.88849 -7.35158,-130.64945 -5.39156,-133.02225c5.6917,-6.89038 11.51932,-9.93604 15.93412,-11.48958z" fill="#c41409" stroke-width="0"/><g><path d="M303.24136,48.22721c14.54992,-14.85924 32.05203,-18.79255 38.06646,-19.30652c20.78975,-1.77665 53.76454,-1.46421 74.06118,3.03893c5.15539,1.1438 21.81717,8.16489 27.4002,20.04706c4.27299,9.09406 20.36983,39.18279 -3.35282,66.66181c-25.04278,29.00818 -93.61829,22.70387 -113.21742,18.11794c-8.74507,-2.47697 -24.30453,-12.56935 -29.5865,-30.07109c-6.38245,-21.14825 -1.04835,-50.64771 6.62885,-58.48813z" fill="#10293a" stroke-width="0"/><g><path d="M311.83581,89.53958c0,-8.65505 -3.96484,-28.37368 14.41093,-37.42305c15.63578,-7.70002 52.99552,-5.58305 63.29876,-4.76346c11.57686,0.9209 24.38947,2.89669 32.62994,7.63198c9.7942,5.62812 12.15061,32.32688 11.28756,36.86181c-7.25148,38.10361 -79.27306,30.9836 -93.28047,27.35787c-15.15598,-3.92303 -28.34673,-13.64564 -28.34673,-29.66518z" fill="#4a7b9c" stroke-width="0"/><path d="M334.01652,85.10494c-19.26408,-9.89159 -5.63256,-33.93304 -5.18968,-34.10077c16.82951,-6.37319 50.9457,-4.42853 60.71867,-3.6511c11.57686,0.9209 24.38947,2.89669 32.62994,7.63198c3.9322,2.25959 6.66551,7.91551 8.47292,14.16987c0.71562,2.47635 2.88817,21.03781 -9.31512,24.87909c-17.37759,5.47003 -49.54307,10.46669 -87.31674,-8.92907z" fill="#8cc5de" stroke-width="0"/><path d="M412.5694,52.51574c5.28166,1.93406 13.47008,5.65228 11.78807,12.40143c-3.55716,14.2734 -19.33279,6.21872 -30.30904,4.33912c-1.76919,-0.30295 -9.99384,-0.40605 -15.01325,-3.19324c-3.2252,-1.7909 -4.26812,-6.19318 -4.26812,-7.49304c0,-4.89188 3.96564,-8.85753 8.85753,-8.85753c0.14191,0 7.26194,-0.30857 14.45177,0.19562c5.70918,0.40036 11.32726,1.44834 14.49304,2.60758z" fill="#ffffff" stroke-width="0.5"/></g></g><path d="M299.24763,245.42184c0,0 -0.25769,1.34112 -1.55791,2.67559c-0.80015,0.82125 -2.19752,1.43754 -3.57159,2.33822c-3.73769,2.44999 -9.64122,4.66579 -14.20511,7.51125c-6.43111,4.00962 -11.66817,8.30623 -14.04792,7.88294c-2.80179,-0.49836 -18.18386,-3.05275 -30.98908,-10.54024c-11.77545,-6.88534 -21.17067,-18.69668 -21.03223,-20.2971c0.39072,-4.51724 6.19021,-8.89747 10.31857,-12.58593c5.23588,-4.67795 9.17148,-8.24324 11.22967,-9.56412c1.13605,-0.72908 12.39383,4.10415 24.54012,11.22267c7.77483,4.55655 15.52909,10.81863 22.48614,14.63696c11.77529,6.46276 16.82937,6.71977 16.82937,6.71977z" fill="#770d3a" stroke-width="0"/><g stroke-width="0"><path d="M205.84446,45.14084c1.77122,-16.35033 18.41392,-17.16966 19.69895,-17.22312c6.16779,-0.25661 20.55241,0.2238 20.55241,0.2238c0,0 -2.80968,7.41231 -4.68927,17.42934c-2.79203,14.87982 -5.11219,35.86651 -5.90891,49.75048c-0.73303,12.77326 -1.7228,33.44744 -1.15748,50.86457c0.64717,19.93789 3.17914,36.52596 3.17914,36.52596c0,0 -13.06726,0.65071 -17.86757,-0.02282c-1.4747,-0.20691 -12.42378,-4.90608 -16.02298,-26.1345c-5.13618,-30.29368 -1.36635,-78.34708 2.21573,-111.41374z" fill="#770d3a"/><path d="M205.84446,45.14084c1.77122,-16.35033 18.41392,-17.16966 19.69895,-17.22312c6.16779,-0.25661 20.55241,0.2238 20.55241,0.2238c0,0 -2.80968,7.41231 -4.68927,17.42934c-0.19338,1.03061 -0.573,3.17534 -0.573,3.17534c0,0 -9.16605,-2.44343 -19.20791,-1.36855c-5.73838,0.61422 -16.47268,4.32528 -16.47268,4.32528c0,0 0.46099,-4.43391 0.69155,-6.56213z" fill="#c41409"/></g></g><g><path d="M316.79612,291.59684c67.44267,0 122.11576,12.90159 122.11576,28.81648c0,15.9149 -54.67309,28.81648 -122.11576,28.81648c-67.44267,0 -122.11576,-12.90159 -122.11576,-28.81648c0,-15.9149 54.67309,-28.81648 122.11576,-28.81648z" fill="#3a3a3a" stroke-width="0"/><path d="M427.84195,91.09199c0.94022,9.56988 31.59624,97.23979 -20.68254,161.74386c-0.12838,0.15837 -8.6,7.45135 -8.6,7.45135c0,0 2.75835,11.02063 -3.93194,24.99289c-3.78469,7.90413 -17.54038,14.60606 -17.54038,14.60606c0,0 -0.01016,4.92604 -0.13889,10.67604c-0.1818,8.12136 -1.32315,18.3685 -9.27848,22.88275c-9.83169,5.57897 -28.04942,6.84394 -43.99139,4.24091c-8.78456,-1.43435 -17.05305,-3.88416 -24.33162,-6.08382c-3.93321,-1.18866 -8.93618,-33.23913 -20.53217,-53.29573c-11.73058,-20.2894 -30.03266,-28.58066 -30.03266,-28.58066c0,0 -23.06632,2.15632 -41.32388,-5.07083c-10.91089,-4.31902 -18.23318,-20.73176 -19.26984,-27.84525c-2.07212,-14.21874 -5.17291,-35.42304 -3.69867,-61.59987c1.45854,-25.89759 1.45063,-57.23769 6.67343,-74.68822c4.64125,-16.72603 18.40686,-19.77335 31.03068,-22.09303c19.72606,-2.90735 32.41278,1.59556 32.41278,1.59556c0,0 -0.57529,-8.46628 25.16539,-20.96288c12.97358,-6.29843 39.51198,-8.17755 54.80671,-8.37922c61.13105,3.15753 90.40045,31.269 93.26349,60.4101z" fill="#150302" stroke-width="0"/><g stroke-width="0"><path d="M296.79445,54.12027c17.84617,-3.4118 20.85447,-4.03705 36.4738,-4.42144c28.42456,-0.69958 64.99622,6.4505 74.8199,41.97652c1.13575,4.10727 14.24295,48.22701 10.13417,92.74954c-1.17047,12.68308 -5.01142,20.32443 -8.14146,29.32462c-5.8211,16.73805 -18.17581,32.19604 -33.92872,37.36442c-0.60262,0.19772 -3.50635,1.5247 -5.59897,1.12098c-1.32853,-0.2563 -2.07169,-1.78195 -3.67935,-1.74413c-3.43566,0.08083 -6.69877,0.78423 -9.62069,5.1936c-3.64762,5.50447 0.00331,14.98854 0.18402,24.10182c0.08789,4.43131 0.70877,8.91308 0.80353,13.14988c0.2888,12.913 0.0411,23.55074 0.0411,23.55074c0,0 -2.348,3.81861 -9.23542,3.95334c-5.25407,0.10277 -11.83878,1.17505 -17.85441,0.50174c-8.33493,-0.93292 -16.36476,-4.03107 -17.46184,-4.46523c-1.76038,-0.69667 -7.58736,-21.56182 -13.40732,-33.96587c-9.1322,-19.46339 -19.01456,-33.44363 -19.01456,-33.44363c0,0 -0.84664,-3.0293 -2.32407,-5.44478c-0.97759,-1.5983 -2.37892,-2.78032 -3.46443,-3.16752c-4.52957,-1.61564 -10.74281,-0.72183 -10.74281,-0.72183c0,0 -3.45923,-3.28288 -4.59552,-4.40195c-2.54851,-2.50987 -4.84268,-5.48156 -6.71542,-9.00461c-7.33162,-13.79259 -8.37839,-36.21564 -8.30026,-56.68658c0.06703,-17.56925 0.47878,-33.0784 3.97016,-47.54774c15.28771,-63.3572 40.63613,-66.62931 47.65862,-67.97185z" fill="#770d3a"/><path d="M296.79445,54.12027c17.84617,-3.4118 20.85447,-4.03705 36.4738,-4.42144c28.42456,-0.69958 64.99622,6.4505 74.8199,41.97652c0.98137,3.54892 10.90057,36.9711 10.9287,74.71413c0.00139,1.86223 -3.69845,62.4127 -103.97621,44.81296c-8.97574,-1.57532 -17.58056,-5.69 -23.12187,-11.61146c-23.78619,-33.26131 -21.85936,-81.5682 -14.65002,-112.90929c4.06327,-17.66422 10.83604,-30.19698 13.09586,-30.97593c2.75618,-0.95002 4.98232,-1.30874 6.42983,-1.58547z" fill="#c41409"/></g><g><path d="M303.24136,91.25001c14.54992,-11.95601 32.05203,-15.12084 38.06646,-15.53438c20.78975,-1.42953 53.76454,-1.17812 74.06118,2.44517c5.15539,0.92033 21.81717,6.56962 27.4002,16.13022c4.27299,7.31724 20.36983,31.52717 -3.35282,53.6373c-25.04278,23.3405 -93.61829,18.26795 -113.21742,14.57802c-8.74507,-1.99301 -24.30453,-10.11352 -29.5865,-24.19574c-6.38245,-17.01628 -1.04835,-40.75206 6.62885,-47.0606z" fill="#10293a" stroke-width="0"/><g><path d="M311.83581,124.4907c0,-6.96402 -3.96484,-22.82998 14.41093,-30.11127c15.63578,-6.19557 52.99552,-4.49223 63.29876,-3.83276c11.57686,0.74096 24.38947,2.33073 32.62994,6.14082c9.7942,4.52849 12.15061,26.01077 11.28756,29.65967c-7.25148,30.65885 -79.27306,24.92997 -93.28047,22.01263c-15.15598,-3.15654 -28.34673,-10.97953 -28.34673,-23.86914z" fill="#4a7b9c" stroke-width="0"/><path d="M334.01652,120.92251c-19.26408,-7.95895 -5.63256,-27.30312 -5.18968,-27.43809c16.82951,-5.12799 50.9457,-3.56328 60.71867,-2.93775c11.57686,0.74096 24.38947,2.33073 32.62994,6.14082c3.9322,1.81811 6.66551,6.36896 8.47292,11.40134c0.71562,1.99252 2.88817,16.92739 -9.31512,20.01817c-17.37759,4.40129 -49.54307,8.42169 -87.31674,-7.18449z" fill="#8cc5de" stroke-width="0"/><path d="M412.5694,94.70064c5.28166,1.55618 13.47008,4.54793 11.78807,9.97842c-3.55716,11.48462 -19.33279,5.0037 -30.30904,3.49133c-1.76919,-0.24376 -9.99384,-0.32671 -15.01325,-2.56934c-3.2252,-1.44099 -4.26812,-4.98315 -4.26812,-6.02905c0,-3.9361 3.96564,-7.12693 8.85753,-7.12693c0.14191,0 7.26194,-0.24829 14.45177,0.1574c5.70918,0.32213 11.32726,1.16537 14.49304,2.0981z" fill="#ffffff" stroke-width="0.5"/></g></g><path d="M374.51091,280.75994l-0.38562,-10.21929c0,0 2.47035,-0.72544 3.66352,-0.96408c1.03331,-0.20665 3.08509,-0.38562 3.08509,-0.38562c0,0 -0.72771,4.70611 -1.81605,6.68493c-1.02936,1.87156 -4.54691,4.88409 -4.54691,4.88409z" fill="#770d3a" stroke-width="0"/><g stroke-width="0"><path d="M227.17602,151.33358c0.1956,10.65093 -1.11083,26.70698 0.74739,39.39575c2.63028,17.96065 8.139,38.63199 8.139,38.63199c0,0 -2.36647,1.22102 -9.15797,1.38711c-6.15969,0.15063 -7.8533,-0.24865 -13.41875,-4.37843c-2.12387,-1.57595 -8.75048,-12.68062 -10.16983,-29.53444c-1.22416,-14.5361 -2.90366,-19.94509 -1.74859,-56.90823c0.41472,-13.2712 0.03685,-29.88574 1.21783,-40.43505c2.50288,-22.35755 15.46368,-22.59198 18.98083,-22.97316c10.81898,-1.00829 25.93909,-1.0728 25.93909,-1.0728c0,0 -14.12464,0.36805 -17.60312,5.94475c-1.95102,3.12784 5.18739,14.57845 5.18739,14.57845c0,0 -8.58386,29.73755 -8.11323,55.36414z" fill="#770d3a"/><path d="M202.6155,101.16028c0,0 0.10905,-1.1275 0.16957,-1.66803c2.50288,-22.35755 15.46368,-22.59198 18.98083,-22.97316c10.81898,-1.00829 25.93909,-1.0728 25.93909,-1.0728c0,0 -4.99213,4.47704 -6.85197,7.54985c-2.19263,3.62259 -5.47055,12.80907 -5.47055,12.80907c0,0 -16.13768,-0.03019 -20.54535,0.8079c-4.92323,0.93609 -12.22159,4.54719 -12.22159,4.54719z" fill="#c41409"/></g></g></g></g></svg>