<svg version="1.1" xmlns="http://www.w3.org/2000/svg" xmlns:xlink="http://www.w3.org/1999/xlink" width="212.96712" height="56.08407" viewBox="0,0,212.96712,56.08407"><g transform="translate(-213.51644,-151.95797)"><g stroke-miterlimit="10"><path d="M213.51644,203.07519c0,-11.28111 0,-39.59097 0,-45.94339c0,-2.6076 1.71115,-5.17383 4.11898,-5.17383c15.68117,0 177.37761,0 204.88171,0c2.56825,0 3.96643,2.91972 3.96643,5.79466c0,6.51557 0,33.88471 0,45.11561c0,3.1865 -1.28764,5.1738 -3.66131,5.1738c-7.29823,0 -24.86323,0 -46.83446,0c-58.0742,0 -146.93256,0 -158.35236,0c-2.40784,0 -4.11898,-1.90007 -4.11898,-4.96686z" fill="#2be9c6" stroke="none" stroke-width="0" stroke-linecap="butt"/><path d="M301.21563,152.37184h48.45807l-26.81475,55.25629h-49.03268z" fill="#93f4e2" stroke="none" stroke-width="0" stroke-linecap="round"/><path d="M356.95198,152.57881h24.32479l-27.96395,55.04935h-24.70788z" fill="#93f4e2" stroke="none" stroke-width="0" stroke-linecap="round"/><text transform="translate(285.05914,190.07826) scale(0.87352,0.87352)" font-size="40" xml:space="preserve" fill="#0a3c33" stroke="#0a3c33" stroke-width="1" stroke-linecap="butt" font-family="Sans Serif" font-weight="normal" text-anchor="start"><tspan x="0" dy="0">开始</tspan></text></g></g></svg>