<svg version="1.1" xmlns="http://www.w3.org/2000/svg" xmlns:xlink="http://www.w3.org/1999/xlink" width="369.36936" height="369.36936" viewBox="0,0,369.36936,369.36936"><g transform="translate(-135.31533,4.68466)"><g stroke-miterlimit="10"><path d="M135.31533,180.00002c0,-101.99853 82.68615,-184.68468 184.68468,-184.68468c101.99853,0 184.68468,82.68615 184.68468,184.68468c0,101.99853 -82.68615,184.68468 -184.68468,184.68468c-101.99853,0 -184.68468,-82.68615 -184.68468,-184.68468z" fill="none" stroke="none" stroke-width="0" stroke-linecap="butt"/><g><path d="M308.41335,290.44753l0.49829,-118.59082l136.27978,-13.95187l-4.98281,102.14755z" fill="#de9659" stroke="none" stroke-width="0" stroke-linecap="butt"/><path d="M436.35811,150.87518l-4.03477,-0.12422l1.34403,-26.44194c0,0 3.82523,-2.83489 4.59472,-4.21773c4.14066,-4.84698 5.48035,-6.69785 5.48035,-6.69785l14.40426,3.84616l-6.47764,32.63738z" fill="#e9d092" stroke="none" stroke-width="0" stroke-linecap="butt"/><path d="M461.88381,144.09142v-14.201l19.18382,5.97937l0.74742,8.22164z" fill="#69371f" stroke="none" stroke-width="0" stroke-linecap="butt"/><path d="M306.66936,289.2018l0.99657,-19.68209c0,0 7.88742,7.25319 14.00609,8.44039c9.24579,1.79397 35.07457,3.02006 35.07457,3.02006l-28.15286,8.22163z" fill="#b55e36" stroke="none" stroke-width="0" stroke-linecap="butt"/><path d="M346.03354,225.17274c0,0 -6.89451,-14.69646 -11.61859,-22.3247c-5.3335,-8.61229 -18.77652,-26.75595 -18.77652,-26.75595l125.3176,15.94499v24.41575c0,0 -14.80099,-3.03153 -29.86188,-0.5364c-7.03449,1.1654 -14.90484,8.40621 -19.93318,8.86812c-15.84659,1.45573 -45.12741,0.38818 -45.12741,0.38818z" fill="#b55e36" stroke="none" stroke-width="0" stroke-linecap="butt"/><path d="M359.98539,205.4353l-31.88997,-35.37793l119.58738,-15.94499l25.9106,27.40544c0,0 -8.52697,3.6219 -9.6626,3.81117c-8.20394,1.36732 -103.9454,20.1063 -103.9454,20.1063z" fill="#e9d092" stroke="none" stroke-width="0" stroke-linecap="butt"/><path d="M215.60856,256.53488l3.48797,-102.14754l90.68709,16.94154l-7.47421,118.09253z" fill="#bc6332" stroke="none" stroke-width="0" stroke-linecap="butt"/><path d="M217.60168,231.45476c0,0 -4.40059,-16.75247 -4.5074,-27.58236c-0.15303,-15.51745 3.67693,-56.62708 3.67693,-56.62708c0,0 -25.58765,-28.37823 -24.10081,-28.03254c6.07858,1.41323 46.3399,-7.57949 70.19112,3.37085c27.11388,12.44827 38.07008,45.03726 43.84423,47.20939c3.48428,1.31072 0.25427,10.17273 0.25427,10.17273c0,0 -27.36952,21.28411 -26.85946,22.53919c2.00151,4.92494 6.72638,8.38227 6.53861,11.69168c-0.5032,8.86897 -11.40303,21.90876 -11.40303,21.90876c0,0 -24.2659,-4.25325 -34.98543,-7.35078c-7.35791,-2.12615 -0.16446,-3.70777 -7.07549,-2.99561c-5.30084,0.54623 -8.22429,7.76245 -10.25649,7.88844c-2.48789,0.15424 -5.31707,-2.19267 -5.31707,-2.19267z" fill="#a94b23" stroke="none" stroke-width="0" stroke-linecap="butt"/><path d="M234.29409,228.25747c0,0 -25.52003,-22.28202 -27.40543,-23.91748c-0.40504,-0.35135 9.46733,-12.45701 9.46733,-12.45701l-1.49484,-39.86246c0,0 -38.86749,-43.04592 -37.37105,-41.85558c0.69836,0.5555 29.8214,7.60468 44.3461,9.97106c15.02313,2.44759 45.84272,1.98767 45.84272,1.98767l40.36074,45.84183l16.94154,3.48797c0,0 10.62389,7.1325 14.74769,11.92338c6.25599,7.26799 19.1354,27.44079 19.1354,27.44079l39.36418,-9.96561" fill="none" stroke="#311108" stroke-width="13" stroke-linecap="round"/><path d="M323.48634,167.46723l124.57018,-15.44671l34.87965,35.87622l-67.26791,8.96904" fill="none" stroke="#311108" stroke-width="13" stroke-linecap="round"/><path d="M449.0548,116.64431l17.43811,9.9639c0,0 -8.95089,7.94607 -11.68779,11.92702c-2.74417,3.99152 -4.75547,11.99045 -4.75547,11.99045" fill="none" stroke="#311108" stroke-width="13" stroke-linecap="round"/><path d="M445.06683,197.86234c0,0 0.62511,64.52352 0,64.27821c-83.96593,22.22079 -132.21879,33.26144 -139.02032,31.88997c-21.12514,-1.12574 -91.18537,-38.36762 -91.18537,-38.36762l0.99657,-21.42607l-4.98281,-8.47078l1.99312,-4.48452" fill="none" stroke="#311108" stroke-width="13" stroke-linecap="round"/><path d="M305.04994,287.0546l4.48453,-114.60457" fill="none" stroke="#311108" stroke-width="9" stroke-linecap="round"/><path d="M303.55511,167.9655l-87.69741,-21.92434" fill="none" stroke="#311108" stroke-width="9" stroke-linecap="round"/><path d="M471.974,126.60821l16.94154,21.92435l-30.8934,-3.98624" fill="none" stroke="#311108" stroke-width="9" stroke-linecap="round"/><path d="M402.21469,199.85546l-5.48109,-14.94842l16.44327,13.95186" fill="none" stroke="#311108" stroke-width="9" stroke-linecap="round"/></g></g></g></svg>