<svg version="1.1" xmlns="http://www.w3.org/2000/svg" xmlns:xlink="http://www.w3.org/1999/xlink" width="139.30282" height="38.63049" viewBox="0,0,139.30282,38.63049"><g transform="translate(-250.34863,-160.68478)"><g data-paper-data="{&quot;isPaintingLayer&quot;:true}" fill-rule="nonzero" stroke-linecap="butt" stroke-linejoin="miter" stroke-miterlimit="10" stroke-dasharray="" stroke-dashoffset="0" style="mix-blend-mode: normal"><path d="M255.59864,191.29186c0,-6.09093 0,-20.31716 0,-23.11191c0,-0.91205 0.83323,-2.24516 2.04028,-2.24516c3.81375,0 24.93773,0 48.88177,0c30.84112,0 66.36093,0 75.59434,0c1.48164,0 2.28643,1.30927 2.28643,2.64136c0,3.14265 0,16.21313 0,22.3195c0,1.93416 -0.92569,3.16963 -2.61925,3.16963c-17.3663,0 -115.47439,0 -124.14329,0c-1.20705,0 -2.04028,-1.06771 -2.04028,-2.77343z" fill="#000000" stroke="#000000" stroke-width="10.5"/><path d="M255.59864,191.29186c0,-6.09093 0,-20.31716 0,-23.11191c0,-0.91205 0.83323,-2.24516 2.04028,-2.24516c8.72604,0 108.07418,0 124.4761,0c1.48164,0 2.28643,1.30927 2.28643,2.64136c0,3.14265 0,16.21313 0,22.3195c0,1.93416 -0.92569,3.16963 -2.61925,3.16963c-17.3663,0 -115.47439,0 -124.14329,0c-1.20705,0 -2.04028,-1.06771 -2.04028,-2.77343z" fill="#000000" stroke="#ffffff" stroke-width="5.5"/><path d="M255.59864,191.29186c0,-6.09093 0,-20.31716 0,-23.11191c0,-0.91205 0.83323,-2.24516 2.04028,-2.24516c8.72604,0 108.07418,0 124.4761,0c1.48164,0 2.28643,1.30927 2.28643,2.64136c0,3.14265 0,16.21313 0,22.3195c0,1.93416 -0.92569,3.16963 -2.61925,3.16963c-17.3663,0 -115.47439,0 -124.14329,0c-1.20705,0 -2.04028,-1.06771 -2.04028,-2.77343z" fill="#000000" stroke="none" stroke-width="0"/><g fill="#ffffff" stroke="none" stroke-width="0"><path d="M272.56949,190.3315l-9.9232,-9.4845l1.70005,-1.77868l9.9232,9.4845z"/><path d="M262.42446,180.65341l9.9232,-9.4845l1.70006,1.77869l-9.92321,9.4845z" data-paper-data="{&quot;index&quot;:null}"/></g><text transform="translate(313.40852,184.8141) scale(0.39922,0.39922)" font-size="40" xml:space="preserve" fill="#ffffff" fill-rule="nonzero" stroke="#ffffff" stroke-width="1" stroke-linecap="butt" stroke-linejoin="miter" stroke-miterlimit="10" stroke-dasharray="" stroke-dashoffset="0" font-family="Sans Serif" font-weight="normal" text-anchor="start" style="mix-blend-mode: normal"><tspan x="0" dy="0">返回</tspan></text></g></g></svg>