<svg version="1.1" xmlns="http://www.w3.org/2000/svg" xmlns:xlink="http://www.w3.org/1999/xlink" width="493.50454" height="422.56463" viewBox="0,0,493.50454,422.56463"><g transform="translate(-73.24779,44.18464)"><g stroke="none" stroke-miterlimit="10"><path d="M427.10017,45.86337c0.20568,1.37507 5.67184,54.51375 6.70092,55.00691c1.2884,0.61743 -0.57135,37.2398 -2.96649,65.84323c-1.58479,24.9824 -15.86893,44.77583 -14.27363,47.07399c15.64787,6.48749 46.94432,44.17225 48.0675,71.9001c0.58656,14.48021 -10.70906,21.03889 -15.09193,24.82198c-6.69147,5.77574 -14.37173,8.97943 -21.30157,10.98395c-12.84422,3.71532 -23.70047,2.7211 -25.06437,2.18918c-16.87422,-7.28509 -22.82386,-32.42199 -36.98967,-48.30486c-14.24663,-15.9735 -36.66758,-22.67024 -38.84202,-21.83888c-5.46909,2.09101 -43.75032,26.23599 -47.33306,26.83483c-47.04721,7.86376 -69.27816,-21.56267 -74.43777,-26.60092c-7.08741,-6.92066 -9.9616,-11.3835 -11.20935,-15.33098c-0.77445,-2.45011 0.23526,-6.53808 2.03945,-10.206c2.06846,-4.20518 20.72236,-26.41234 20.72236,-26.41234c0,0 -34.70065,0.5862 -33.18006,-66.50474c0.00803,-0.35392 -0.11801,-71.75288 8.15443,-100.99235c3.23659,-11.43998 9.30888,-16.70976 15.36027,-19.88949c13.21104,-6.76446 44.85628,-3.8273 44.85628,-3.8273c0,0 1.75717,-2.45909 5.12567,-7.01185c12.52974,-16.93495 36.19832,-29.36156 64.01693,-29.36156c41.38824,0 97.88525,19.74567 105.64612,71.62708z" fill="#020134" stroke-width="0"/><path d="M291.82572,1.6897c76.47949,-26.91257 117.95718,31.94454 117.95718,54.39775c0,12.68324 14.05134,119.47695 -11.30475,149.69616c-1.52975,1.82312 -3.25473,3.87015 -4.76953,5.50579c-1.45457,1.57062 -2.73764,2.7396 -2.41055,4.0241c0.51879,2.03723 8.48558,5.09827 15.9901,10.82009c9.21492,7.02593 18.89584,17.62756 27.45939,29.93742c8.40695,13.37321 10.21266,22.66235 11.05937,29.63575c1.98316,16.3333 -26.30945,22.95963 -29.05046,23.07926c-4.15706,0.18145 -6.90764,0.32624 -11.07838,-0.60515c-15.5105,-3.46369 -17.69377,-37.44227 -31.01582,-49.495c-4.84785,-4.38596 -16.15502,-10.32814 -28.07626,-15.11942c-13.66249,-5.4911 -27.7725,-9.56025 -27.79303,-9.56691c-18.51301,-5.99754 -41.67714,-15.31669 -50.28207,-27.62965c-10.39075,-14.86831 -14.08791,-33.99027 -15.67697,-51.47666c-0.85462,-9.40445 -0.44262,-27.94802 0.7146,-48.9841c1.30721,-23.76262 3.80243,-50.70577 10.92806,-71.2489c8.06951,-23.26435 19.78372,-30.30833 27.34911,-32.97052z" fill="#0c1390" stroke-width="0"/><path d="M291.82572,1.6897c76.47949,-26.91257 117.95718,31.94454 117.95718,54.39775c0,7.13227 4.44338,44.02453 3.82383,80.32475c-0.13844,8.11075 -20.88047,57.15169 -80.64983,47.5331c-16.798,-2.70327 -42.94797,-13.92635 -51.67374,-37.74374c-18.27719,-49.88849 -7.35158,-130.64945 -5.39156,-133.02225c5.6917,-6.89038 11.51932,-9.93604 15.93412,-11.48958z" fill="#162ed0" stroke-width="0"/><g><path d="M303.24136,48.22724c14.54992,-14.85924 32.05203,-18.79255 38.06646,-19.30652c20.78975,-1.77665 53.76454,-1.46421 74.06118,3.03893c5.15539,1.1438 21.81717,8.16489 27.4002,20.04706c4.27299,9.09406 20.36983,39.18279 -3.35282,66.66181c-25.04278,29.00818 -93.61829,22.70387 -113.21742,18.11794c-8.74507,-2.47697 -24.30453,-12.56935 -29.5865,-30.07109c-6.38245,-21.14825 -1.04835,-50.64771 6.62885,-58.48813z" fill="#10293a" stroke-width="0"/><g><path d="M311.83583,89.53961c0,-8.65505 -3.96484,-28.37368 14.41093,-37.42305c15.63578,-7.70002 52.99552,-5.58305 63.29876,-4.76346c11.57686,0.9209 24.38947,2.89669 32.62994,7.63198c9.7942,5.62812 12.15061,32.32688 11.28756,36.86181c-7.25148,38.10361 -79.27306,30.9836 -93.28047,27.35787c-15.15598,-3.92303 -28.34673,-13.64564 -28.34673,-29.66518z" fill="#4a7b9c" stroke-width="0"/><path d="M334.01653,85.10497c-19.26408,-9.89159 -5.63256,-33.93304 -5.18968,-34.10077c16.82951,-6.37319 50.9457,-4.42853 60.71867,-3.6511c11.57686,0.9209 24.38947,2.89669 32.62994,7.63198c3.9322,2.25959 6.66551,7.91551 8.47292,14.16987c0.71562,2.47635 2.88817,21.03781 -9.31512,24.87909c-17.37759,5.47003 -49.54307,10.46669 -87.31674,-8.92907z" fill="#8cc5de" stroke-width="0"/><path d="M412.56942,52.51577c5.28166,1.93406 13.47008,5.65228 11.78807,12.40143c-3.55716,14.2734 -19.33279,6.21872 -30.30904,4.33912c-1.76919,-0.30295 -9.99384,-0.40605 -15.01325,-3.19324c-3.2252,-1.7909 -4.26812,-6.19318 -4.26812,-7.49304c0,-4.89188 3.96564,-8.85753 8.85753,-8.85753c0.14191,0 7.26194,-0.30857 14.45177,0.19562c5.70918,0.40036 11.32726,1.44834 14.49304,2.60758z" fill="#ffffff" stroke-width="0.5"/></g></g><path d="M299.24764,245.42187c0,0 -0.25769,1.34112 -1.55791,2.67559c-0.80015,0.82125 -2.19752,1.43754 -3.57159,2.33822c-3.73769,2.44999 -9.64122,4.66579 -14.20511,7.51125c-6.43111,4.00962 -11.66817,8.30623 -14.04792,7.88294c-2.80179,-0.49836 -18.18386,-3.05275 -30.98908,-10.54024c-11.77545,-6.88534 -21.17067,-18.69668 -21.03223,-20.2971c0.39072,-4.51724 6.19021,-8.89747 10.31857,-12.58593c5.23588,-4.67795 9.17148,-8.24324 11.22967,-9.56412c1.13605,-0.72908 12.39383,4.10415 24.54012,11.22267c7.77483,4.55655 15.52909,10.81863 22.48614,14.63696c11.77529,6.46276 16.82937,6.71977 16.82937,6.71977z" fill="#0c1390" stroke-width="0"/><g stroke-width="0"><path d="M205.84449,45.14087c1.77122,-16.35033 18.41392,-17.16966 19.69895,-17.22312c6.16779,-0.25661 20.55241,0.2238 20.55241,0.2238c0,0 -2.80968,7.41231 -4.68927,17.42934c-2.79203,14.87982 -5.11219,35.86651 -5.90891,49.75048c-0.73303,12.77326 -1.7228,33.44744 -1.15748,50.86457c0.64717,19.93789 3.17914,36.52596 3.17914,36.52596c0,0 -13.06726,0.65071 -17.86757,-0.02282c-1.4747,-0.20691 -12.42378,-4.90608 -16.02298,-26.1345c-5.13618,-30.29368 -1.36635,-78.34708 2.21573,-111.41374z" fill="#0c1390"/><path d="M205.84449,45.14087c1.77122,-16.35033 18.41392,-17.16966 19.69895,-17.22312c6.16779,-0.25661 20.55241,0.2238 20.55241,0.2238c0,0 -2.80968,7.41231 -4.68927,17.42934c-0.19338,1.03061 -0.573,3.17534 -0.573,3.17534c0,0 -9.16605,-2.44343 -19.20791,-1.36855c-5.73838,0.61422 -16.47268,4.32528 -16.47268,4.32528c0,0 0.46099,-4.43391 0.69155,-6.56213z" fill="#162ed0"/></g><path d="M566.75211,170.14433c0.00014,0.09256 0.00022,0.18512 0.00022,0.2777c0,114.85201 -110.47474,207.95796 -246.75225,207.95796c-136.2775,0 -246.75225,-93.10595 -246.75225,-207.95796c0,-114.85201 110.47475,-207.95796 246.75225,-207.95796c125.2106,0 228.63907,78.59795 244.6119,180.44548" fill="none" stroke-width="0"/><path d="M566.72565,170.23465c-1.9588,115.24167 -111.67141,208.14534 -246.72561,208.14534c-136.2775,0 -246.75225,-94.59431 -246.75225,-211.28231v-0.00001c0,-116.688 110.47475,-211.28231 246.75225,-211.28231c126.91774,0 231.45535,82.04672 245.21631,187.57545" fill="none" stroke-width="0"/><path d="M557.49297,201.11981c-19.06565,98.43364 -119.48121,173.51403 -240.49285,173.51403c-134.62065,0 -243.75225,-92.91711 -243.75225,-207.53617v-0.00001c0,-114.61906 109.1316,-207.53617 243.75225,-207.53617c124.22791,0 226.75038,79.12445 241.83951,181.41113" fill="none" stroke-width="0"/></g></g></svg>