<svg version="1.1" xmlns="http://www.w3.org/2000/svg" xmlns:xlink="http://www.w3.org/1999/xlink" width="59.59122" height="38.42421" viewBox="0,0,59.59122,38.42421"><g transform="translate(-290.26687,-160.78706)"><g stroke-miterlimit="10"><path d="M296.54301,195.13836c-0.42274,0.12601 -2.07185,0.74175 -2.58028,0.28455c-0.45456,-0.40876 0.19872,-1.87121 0.30083,-2.15357c0.95607,-2.64361 3.59871,-9.95071 4.16175,-11.50754c0.20592,-0.56939 0.40101,-1.10882 0.40101,-1.10882c0,0 -4.21905,-12.43362 -4.83712,-14.25509c-0.09265,-0.27303 -0.6053,-1.51168 0.00942,-1.82548c0.35766,-0.18257 1.83559,0.40957 2.06544,0.47808c6.42001,1.91366 42.90361,12.78857 49.54403,14.76793c0.75242,0.22428 0.7021,0.48548 -0.13696,0.73559c-6.80783,2.02924 -41.86246,12.47823 -48.92812,14.58434z" fill="none" stroke="#ffffff" stroke-width="8.5"/><path d="M295.30105,195.50854c-0.79259,0.23627 -1.38381,-0.20313 -1.38381,-1.28163c0,-2.33105 4.90908,-13.57394 4.90908,-13.57394c0,0 -4.90908,-10.04887 -4.90908,-15.05654c0,-0.66005 0.49744,-1.03759 1.18186,-0.83358c4.10196,1.2227 43.22222,12.88354 50.50899,15.05556c0.75242,0.22428 0.7021,0.48548 -0.13696,0.73559c-0.4496,0.13402 -1.00709,0.30019 -1.659,0.4945c-10.33769,3.08143 -44.41715,13.23972 -48.51107,14.46004z" fill="none" stroke="#ffffff" stroke-width="4"/><path d="M296.54763,193.4616c0,0 -1.55268,-3.00937 -0.65045,-7.42999c0.42989,-2.10635 2.16853,-3.80565 2.22361,-5.61239c0.05728,-1.87891 -1.66759,-5.02925 -2.31917,-7.74077c-0.86093,-3.58277 1.03917,-5.25453 1.03917,-5.25453l10.09979,13.25012z" fill="#d19904" stroke="none" stroke-width="4"/><path d="M296.67139,167.40109l47.87849,13.61175l-37.94809,-0.50824z" fill="#f2bd05" stroke="none" stroke-width="4"/><path d="M306.77119,180.6653l37.94809,-0.50824l-48.90456,14.19811z" fill="#e3b205" stroke="none" stroke-width="4"/><path d="M297.87747,192.53635l39.35028,-15.03221l7.99978,2.86671l-48.79042,14.87251z" fill="#7d6c10" stroke="none" stroke-width="4"/><path d="M296.77847,167.09197l-1.52725,-2.6814l48.79043,14.87253l-10.77301,2.87506z" fill="#7d6c10" stroke="none" stroke-width="4"/><path d="M296.70369,195.13836c-0.42274,0.12601 -2.07185,0.74175 -2.58028,0.28455c-0.45456,-0.40876 0.19872,-1.87121 0.30083,-2.15357c0.95607,-2.64361 3.59871,-9.95071 4.16175,-11.50754c0.20592,-0.56939 0.40101,-1.10882 0.40101,-1.10882c0,0 -4.21905,-12.43362 -4.83712,-14.25509c-0.09265,-0.27303 -0.6053,-1.51168 0.00942,-1.82548c0.35766,-0.18257 1.83559,0.40957 2.06544,0.47808c6.42001,1.91366 42.90361,12.78857 49.54403,14.76793c0.75242,0.22428 0.7021,0.48548 -0.13696,0.73559c-6.80783,2.02924 -41.86246,12.47823 -48.92812,14.58434z" fill="none" stroke="#000000" stroke-width="5"/></g></g></svg>