<svg version="1.1" xmlns="http://www.w3.org/2000/svg" xmlns:xlink="http://www.w3.org/1999/xlink" width="315.3003" height="315.30025" viewBox="0,0,315.3003,315.30025"><g transform="translate(-162.34985,-22.3499)"><g stroke-miterlimit="10"><path d="M169.84985,270.23519c0,-59.99896 0,-148.11906 0,-181.81815c0,-26.16557 22.73163,-58.56714 54.69562,-58.56714c60.91162,0 155.35022,0 189.899,0c25.1397,0 55.70568,31.10369 55.70568,56.54696c0,34.37139 0,127.20919 0,187.87876c0,32.57375 -30.56593,55.87453 -55.70568,55.87453c-33.79375,0 -124.88841,0 -185.85858,0c-34.07175,0 -58.73599,-25.26921 -58.73599,-59.91496z" fill="#8fb5b5" stroke="#6b999a" stroke-width="15" stroke-linecap="butt"/><g><path d="M394.65677,208.39131c0.39874,2.00815 -28.79291,-1.02129 -54.01497,0.75603c-17.81603,1.25546 -32.34334,7.26382 -38.81547,8.78385c-15.3907,3.61463 -27.88173,9.69946 -28.63455,10.4503c-1.09181,1.08891 -13.92492,-10.03617 -23.15833,-21.70906c-6.60954,-8.35577 -10.27132,-17.24685 -11.54334,-20.96685c-3.4572,-10.11047 -4.25786,-38.50044 -0.85855,-49.38434c3.30916,-10.59527 12.29395,-17.22189 13.88381,-19.89034c3.3909,-5.69132 30.79596,-22.24503 31.73792,-17.23156c0.72873,3.87866 -21.81709,28.71457 -20.71109,28.71457c1.42496,0 -8.15784,10.09588 -7.37142,24.36357c0.97983,17.7766 9.195,41.0254 10.29333,42.49635c0.60013,0.80372 5.5868,7.43267 16.60034,9.31613c5.50155,0.94083 15.82822,4.02218 28.4767,0.80673c17.6997,-4.49955 38.61182,-15.99276 45.46141,-15.93788c1.14724,0.00919 14.69185,0.75866 27.90758,-1.04001c12.9318,-1.76003 25.5191,-6.08569 28.53525,-4.59618c11.23917,5.55034 -17.90408,24.48699 -17.78858,25.0687z" fill="#f7f4ec" stroke="none" stroke-width="0" stroke-linecap="butt"/><path d="M290.41778,238.16776c0,0 35.28125,-14.61757 54.39663,-16.18332c17.28111,-1.41551 51.22875,1.57557 51.22875,1.57557" fill="none" stroke="#ce6921" stroke-width="17" stroke-linecap="round"/><path d="M253.45983,268.00556l-4.69359,-18.10151l46.39748,-24.6615l9.93741,16.97784z" fill="#ad3418" stroke="none" stroke-width="0" stroke-linecap="butt"/><path d="M340.23839,178.63043c-8.10425,2.04492 -16.79842,6.92177 -25.48051,9.73454c-8.29046,2.68589 -16.66899,3.35757 -20.40726,3.35757c-6.64122,0 -19.67148,-5.17692 -24.73377,-14.4649c-4.31981,-7.92568 -1.20853,-19.86308 -1.17872,-23.00401c0.0601,-6.3332 7.50711,-28.09724 20.05198,-42.58348c4.67419,-5.39754 9.32852,-15.35754 23.45288,-17.8283c26.98753,-4.72091 68.69067,2.01387 71.81358,8.67773c1.64872,3.51814 15.97581,8.70743 23.92582,20.90131c11.16072,17.11852 16.29868,42.5874 13.48326,48.83683c-3.77871,8.38764 -18.56333,1.37461 -34.85101,2.08852c-19.42712,0.85153 -40.83427,2.96149 -46.07625,4.28417z" fill="#37434f" stroke="none" stroke-width="NaN" stroke-linecap="butt"/><path d="M384.13118,108.21873c0,0.27955 3.01853,3.41719 3.49965,7.20803c0.54945,4.32936 -1.5515,9.46953 -3.79287,11.46212c-3.16984,2.81799 -24.07639,-6.24239 -33.81309,-7.87932c-10.43733,-1.75472 -22.50812,-0.66766 -23.60811,-1.13902c-1.79591,-0.76959 -2.0159,-3.15209 -2.91652,-4.82773c-0.98287,-1.82865 -1.80628,-5.98978 -0.97357,-9.58028c0.69234,-2.98527 2.86389,-5.53427 3.96355,-6.40484c2.19423,-1.7371 6.33128,-2.02601 7.93775,-2.40698c1.49955,-0.35563 16.09772,-1.96937 28.21878,1.38059c11.97546,3.30973 21.48444,11.57779 21.48444,12.18742z" fill="#7b92ad" stroke="none" stroke-width="0" stroke-linecap="butt"/><g fill="none" stroke="#1b1810"><path d="M310.96398,87.54923c4.64662,0 50.58317,-3.23784 77.87133,11.74237c30.20382,16.58079 41.48859,52.28413 34.78294,69.29281c-4.58867,13.85568 -52.38054,13.49747 -56.25924,13.49747c-0.12401,0 -12.39419,0.16124 -26.76203,4.11341c-10.68829,2.94003 -22.3562,9.6087 -32.01249,11.19088c-10.36059,1.69759 -24.4299,-0.31271 -24.52796,-0.318c-13.23219,-0.71389 -22.99604,-23.71725 -22.99604,-42.98092c0,-19.71841 36.23509,-66.53801 49.90353,-66.53801z" stroke-width="16" stroke-linecap="butt"/><path d="M220.85741,213.33675c-4.96626,-11.64227 -5.21974,-13.95137 -7.24386,-24.53129c-2.38007,-12.44046 4.66781,-30.9583 12.77339,-47.35729c3.49043,-7.06177 7.17701,-13.73063 10.39133,-19.35209c1.25734,-2.19891 20.96833,-24.54407 47.07812,-32.577c26.42732,-8.13061 59.33775,-5.97498 70.57941,-4.76082c7.10821,0.76775 26.2073,7.21759 40.24299,17.49976c11.3986,8.35033 18.62874,20.64934 20.03397,23.08666c7.45411,12.92872 12.06446,28.38718 12.14121,38.65684c0.22415,29.98435 -23.71903,47.20931 -21.49884,50.06656c8.06345,10.37715 5.33688,12.84426 4.66541,21.94051c-0.45578,6.1745 -58.18097,-2.70632 -90.31519,5.61852c-33.27508,8.62038 -63.62996,32.29564 -65.42002,34.67777c-1.97532,2.62867 -11.62506,-34.50635 -14.3765,-34.50635c0,0 -13.12508,-14.56887 -19.05141,-28.46178z" stroke-width="17" stroke-linecap="butt"/><path d="M247.71815,247.53171c0,0 40.60805,-24.69979 65.51398,-30.11941c26.10262,-5.68004 88.05484,-5.83817 88.05484,-5.83817" stroke-width="13" stroke-linecap="round"/></g><path d="M273.58849,227.65145c0.026,0.06934 -21.12887,14.19887 -24.38842,11.9196c-3.99649,-2.79461 -8.00594,-9.32382 -12.16396,-15.81872c-5.75001,-8.98161 -11.27873,-18.50405 -12.90722,-23.4453c-2.51108,-7.61929 -2.15611,-14.78718 -2.15611,-15.77292c0,-1.14611 -0.0708,-9.87058 2.73224,-18.61865c3.77715,-11.7882 10.87467,-24.25195 12.45972,-24.25195c1.5449,0 -0.62753,10.56855 -0.59642,21.8151c0.01081,3.90712 1.00059,13.77822 4.54497,22.18452c2.79542,6.63002 4.93866,11.38973 8.04468,15.76467c0.95006,1.33823 5.97073,7.34658 11.71171,12.26461c5.6278,4.82106 11.52613,10.7788 12.71881,13.95906z" fill="#c6baad" stroke="none" stroke-width="0" stroke-linecap="butt"/></g></g></g></svg>