<svg version="1.1" xmlns="http://www.w3.org/2000/svg" xmlns:xlink="http://www.w3.org/1999/xlink" width="216.46713" height="60.28034" viewBox="0,0,216.46713,60.28034"><g transform="translate(-211.76644,-150.20798)"><g stroke="#ffffff" stroke-miterlimit="10"><path d="M213.51644,203.07521c0,-11.28111 0,-39.59097 0,-45.94339c0,-2.6076 1.71115,-5.17383 4.11898,-5.17383c15.68117,0 177.37761,0 204.88172,0c2.56824,0 3.96643,2.91972 3.96643,5.79466c0,6.51557 0,33.88471 0,45.11561c0,3.1865 -1.28764,5.1738 -3.66132,5.1738c-7.29823,0 -24.86323,0 -46.83446,0c-58.0742,0 -146.93256,0 -158.35236,0c-2.40784,0 -4.11898,-1.90008 -4.11898,-4.96687z" fill="#000000" stroke-width="3.5"/><text transform="translate(226.30375,189.0085) scale(0.7808,0.7808)" font-size="40" xml:space="preserve" fill="#ffffff" stroke-width="0" font-family="Sans Serif" font-weight="normal" text-anchor="start"><tspan x="0" dy="0">正在等待玩家</tspan></text></g></g></svg>