<svg version="1.1" xmlns="http://www.w3.org/2000/svg" xmlns:xlink="http://www.w3.org/1999/xlink" width="452.32485" height="250.52793" viewBox="0,0,452.32485,250.52793"><g transform="translate(-190.99999,-1.74346)"><g data-paper-data="{&quot;isPaintingLayer&quot;:true}" fill-rule="nonzero" stroke-linecap="butt" stroke-linejoin="miter" stroke-miterlimit="10" stroke-dasharray="" stroke-dashoffset="0" style="mix-blend-mode: normal"><path d="M198.5,240.37602c0,-5.74682 0,-43.06331 0,-51.40615c1.36311,0.31783 2.7141,27.69903 4.06726,28.06571c1.94252,0.52639 3.88951,1.02286 5.88325,1.25903c8.87999,1.05189 17.91034,-0.7229 26.75262,-1.22039c5.73666,-0.32276 11.54815,0.00645 17.29686,0.00645c1.04525,0 7.29726,0.03287 8.0944,-0.11329c1.10864,-0.20329 2.01953,-1.12931 3.13953,-1.25581c4.59836,-0.5194 9.25475,0.12026 13.88235,0.11329c3.19195,-0.0048 6.25444,-0.66266 9.4186,-0.62791c6.78129,0 13.63885,0.26089 20.4058,-0.00779c3.75241,-0.14899 7.12997,-0.76355 10.84695,-0.62173c12.5844,0.48013 25.19376,1.72672 37.7989,1.22775c1.10408,-0.0437 2.14998,-0.5664 3.25248,-0.63996c11.14586,-0.7436 22.77888,-1.128 33.93766,-1.21533c6.54118,-0.05119 13.08968,0.29538 19.62415,-0.00519c5.89614,-0.27122 14.61178,-1.65583 19.88651,-2.37214c1.88224,-0.25561 3.74872,-2.07147 5.64746,-2.0172c1.02418,0.02928 2.04555,-19.99307 3.06522,-19.89712c0,8.40148 0,42.94314 0,50.09989c0,3.06527 -1.74642,5.02326 -4.9415,5.02326c-32.76335,0 -217.85452,0 -234.20931,0c-2.27723,0 -3.8492,-1.69212 -3.8492,-4.39535z" fill="#000000" stroke="#000000" stroke-width="15"/><path d="M202.3492,149.22862c16.35479,0 201.44597,0 234.20931,0c3.19507,0 4.94149,1.95799 4.94149,5.02326c0,7.15676 0,20.34958 0,28.75105c-1.01966,0.09595 -2.04104,0.16662 -3.06522,0.1959c-1.89874,0.05428 -3.76522,-0.50577 -5.64746,-0.76138c-5.27473,-0.71631 -13.99037,-2.10092 -19.88651,-2.37214c-6.53447,-0.30058 -13.08297,0.046 -19.62414,-0.0052c-11.15877,-0.08733 -22.79179,-0.47174 -33.93765,-1.21534c-1.10249,-0.07355 -2.14839,-0.59626 -3.25248,-0.63996c-12.60514,-0.49896 -25.21451,0.74763 -37.79891,1.22776c-3.71698,0.14182 -7.09454,-0.47275 -10.84695,-0.62174c-6.76696,-0.26869 -13.62451,-0.00779 -20.40581,-0.00779c-3.16417,0.03474 -6.22666,-0.6231 -9.4186,-0.6279c-4.6276,-0.00697 -9.28399,0.63269 -13.88235,0.11329c-1.12,-0.12651 -2.03089,-1.05253 -3.13953,-1.25582c-0.79713,-0.14616 -7.04915,-0.11329 -8.09439,-0.11329c-5.74871,0 -11.5602,0.32922 -17.29686,0.00645c-8.84229,-0.49749 -17.87264,-2.27228 -26.75262,-1.2204c-3.38259,0.40069 -6.63059,1.55065 -9.95052,2.32474c0,-8.34284 0,-18.65932 0,-24.40614c0,-2.70323 1.57197,-4.39535 3.8492,-4.39535z" data-paper-data="{&quot;index&quot;:null}" fill="#000000" stroke="#000000" stroke-width="15"/><path d="M202.3492,149.22862c16.35479,0 201.44597,0 234.20931,0c3.19507,0 4.94149,1.95799 4.94149,5.02326c0,7.15676 0,56.14028 0,64.54175c-1.01966,0.09595 -2.04104,-35.62408 -3.06522,-35.5948c-1.89874,0.05428 -3.76522,-0.50577 -5.64746,-0.76138c-5.27473,-0.71631 -13.99037,-2.10092 -19.88651,-2.37214c-6.53447,-0.30058 -13.08297,0.046 -19.62414,-0.0052c-11.15877,-0.08733 -22.79179,-0.47174 -33.93765,-1.21534c-1.10249,-0.07355 -2.14839,-0.59626 -3.25248,-0.63996c-12.60514,-0.49896 -25.21451,0.74763 -37.79891,1.22776c-3.71698,0.14182 -7.09454,-0.47275 -10.84695,-0.62174c-6.76696,-0.26869 -13.62451,-0.00779 -20.40581,-0.00779c-3.16417,0.03474 -6.22666,-0.6231 -9.4186,-0.6279c-4.6276,-0.00697 -9.28399,0.63269 -13.88235,0.11329c-1.12,-0.12651 -2.03089,-1.05253 -3.13953,-1.25582c-0.79713,-0.14616 -7.04915,-0.11329 -8.09439,-0.11329c-5.74871,0 -11.5602,0.32922 -17.29686,0.00645c-8.84229,-0.49749 -17.87264,-2.27228 -26.75262,-1.2204c-3.38259,0.40069 -6.63059,38.59716 -9.95052,39.37125c0,-8.34284 0,-55.70584 0,-61.45266c0,-2.70323 1.57197,-4.39535 3.8492,-4.39535z" data-paper-data="{&quot;index&quot;:null}" fill="#000000" stroke="#ffffff" stroke-width="7"/><path d="M202.3492,149.22862c16.35479,0 201.44597,0 234.20931,0c3.19507,0 4.94149,1.95799 4.94149,5.02326c0,7.15676 0,49.2333 0,57.63477c-1.01966,0.09595 -2.04104,0.79453 -3.06522,0.82381c-1.89874,0.05428 -49.97367,9.88098 -56.5601,9.76986c-2.34923,-0.03963 -180.05476,-10.68941 -183.37468,-9.91532c0,-8.34284 0,-53.19421 0,-58.94103c0,-2.70323 1.57197,-4.39535 3.8492,-4.39535z" data-paper-data="{&quot;index&quot;:null}" fill="#000000" stroke="none" stroke-width="0"/><path d="M198.5,240.37602c0,-5.74682 0,-16.0633 0,-24.40615c3.31992,0.77409 6.56793,1.92405 9.95052,2.32474c8.87999,1.05189 17.91034,-0.7229 26.75262,-1.22039c5.73666,-0.32276 11.54815,0.00645 17.29686,0.00645c1.04525,0 7.29726,0.03287 8.0944,-0.11329c1.10864,-0.20329 2.01953,-1.12931 3.13953,-1.25581c4.59836,-0.5194 9.25475,0.12026 13.88235,0.11329c3.19195,-0.0048 6.25444,-0.66266 9.4186,-0.62791c6.78129,0 13.63885,0.26089 20.4058,-0.00779c3.75241,-0.14899 7.12997,-0.76355 10.84695,-0.62173c12.5844,0.48013 25.19376,1.72672 37.7989,1.22775c1.10408,-0.0437 2.14998,-0.5664 3.25248,-0.63996c11.14586,-0.7436 22.77888,-1.128 33.93766,-1.21533c6.54118,-0.05119 13.08968,0.29538 19.62415,-0.00519c5.89614,-0.27122 14.61178,-1.65583 19.88651,-2.37214c1.88224,-0.25561 3.74872,-0.81566 5.64746,-0.76138c1.02418,0.02928 2.04555,0.09996 3.06522,0.1959c0,8.40148 0,21.5943 0,28.75106c0,3.06527 -1.74642,5.02326 -4.9415,5.02326c-32.76335,0 -217.85452,0 -234.20931,0c-2.27723,0 -3.8492,-1.69212 -3.8492,-4.39535z" fill="#000000" stroke="#ffffff" stroke-width="7"/><path d="M436.55851,115.22862c3.19507,0 4.9415,1.95799 4.9415,5.02326c0,7.15676 0,20.34958 0,28.75105c-1.01966,0.09595 -2.04104,0.16662 -3.06522,0.1959c-1.89874,0.05428 -3.76522,-0.50577 -5.64746,-0.76138c-5.27473,-0.71631 -13.99037,-2.10093 -19.88651,-2.37214c-6.53447,-0.30058 -13.08296,0.046 -19.62414,-0.0052c-11.15877,-0.08733 -22.79179,-0.47174 -33.93765,-1.21534c-1.10249,-0.07355 -2.14839,-0.59625 -3.25247,-0.63996c-12.60514,-0.49897 -25.21451,0.74763 -37.7989,1.22775c-3.71698,0.14181 -7.09454,-0.47274 -10.84695,-0.62173c-6.76696,-0.26868 -13.62451,-0.0078 -20.40581,-0.0078c-3.16417,0.03475 -6.22666,-0.6231 -9.4186,-0.62791c-4.6276,-0.00697 -9.28398,0.6327 -13.88235,0.1133c-1.12,-0.12651 -2.03089,-1.05253 -3.13953,-1.25581c-0.79713,-0.14617 -7.04915,-0.1133 -8.0944,-0.1133c-5.74871,0 -11.56021,0.32921 -17.29686,0.00645c-8.84229,-0.4975 -17.87263,-2.27228 -26.75262,-1.2204c-3.38259,0.40069 -6.63059,1.55065 -9.95051,2.32474c0,-8.34284 0,-18.65933 0,-24.40615c0,-2.70323 1.57197,-4.39535 3.8492,-4.39535c0,0 201.44593,0.00002 234.20928,0.00002z" data-paper-data="{&quot;index&quot;:null}" fill="#000000" stroke="#000000" stroke-width="15"/><path d="M436.55851,115.22862c3.19507,0 4.9415,1.95799 4.9415,5.02326c0,7.15676 0,56.14028 0,64.54175c-1.01966,0.09595 -2.04104,-35.62408 -3.06522,-35.5948c-1.89874,0.05428 -3.76522,-0.50577 -5.64746,-0.76138c-5.27473,-0.71631 -13.99037,-2.10093 -19.88651,-2.37214c-6.53447,-0.30058 -13.08296,0.046 -19.62414,-0.0052c-11.15877,-0.08733 -22.79179,-0.47174 -33.93765,-1.21534c-1.10249,-0.07355 -2.14839,-0.59625 -3.25247,-0.63996c-12.60514,-0.49897 -25.21451,0.74763 -37.7989,1.22775c-3.71698,0.14181 -7.09454,-0.47274 -10.84695,-0.62173c-6.76696,-0.26868 -13.62451,-0.0078 -20.40581,-0.0078c-3.16417,0.03475 -6.22666,-0.6231 -9.4186,-0.62791c-4.6276,-0.00697 -9.28398,0.6327 -13.88235,0.1133c-1.12,-0.12651 -2.03089,-1.05253 -3.13953,-1.25581c-0.79713,-0.14617 -7.04915,-0.1133 -8.0944,-0.1133c-5.74871,0 -11.56021,0.32921 -17.29686,0.00645c-8.84229,-0.4975 -17.87263,-2.27228 -26.75262,-1.2204c-3.38259,0.40069 -6.63059,38.59716 -9.95051,39.37125c0,-8.34284 0,-55.70584 0,-61.45266c0,-2.70323 1.57197,-4.39535 3.8492,-4.39535c0,0 201.44593,0.00002 234.20928,0.00002z" data-paper-data="{&quot;index&quot;:null}" fill="#000000" stroke="#ffffff" stroke-width="7"/><path d="M202.3492,115.22862c16.35479,0 201.44596,0 234.20931,0c3.19507,0 4.9415,1.95799 4.9415,5.02326c0,7.15676 0,49.2333 0,57.63478c-1.01966,0.09595 -2.04104,0.79453 -3.06522,0.82381c-1.89874,0.05428 -49.97368,9.88097 -56.5601,9.76986c-2.34923,-0.03963 -180.05476,-10.68941 -183.37468,-9.91532c0,-8.34284 0,-53.19421 0,-58.94103c0,-2.70323 1.57197,-4.39535 3.8492,-4.39535z" data-paper-data="{&quot;index&quot;:null}" fill="#000000" stroke="none" stroke-width="0"/><path d="M198.5,240.37602c0,-5.74682 0,-24.854 0,-33.19685c3.31992,0.77409 18.39754,-3.59662 20.74678,-3.63625c6.58642,-0.11111 217.28927,0.92488 219.18801,0.97916c1.02418,0.02928 2.04555,-6.80702 3.06522,-6.71108c0,8.40148 0,34.78035 0,41.9371c0,3.06527 -1.74642,5.02326 -4.9415,5.02326c-32.76335,0 -217.85452,0 -234.20931,0c-2.27723,0 -3.8492,-1.69212 -3.8492,-4.39535z" fill="#000000" stroke="none" stroke-width="0"/><path d="M202.3492,128.22862c16.35479,0 201.44596,0 234.20931,0c3.19507,0 4.9415,1.95799 4.9415,5.02326c0,7.15676 0,49.2333 0,57.63478c-1.01966,0.09595 -2.04104,0.79453 -3.06522,0.82381c-1.89874,0.05428 -49.97368,9.88097 -56.5601,9.76986c-2.34923,-0.03963 -180.05476,-10.68941 -183.37468,-9.91532c0,-8.34284 0,-53.19421 0,-58.94103c0,-2.70323 1.57197,-4.39535 3.8492,-4.39535z" data-paper-data="{&quot;index&quot;:null}" fill="#000000" stroke="none" stroke-width="0"/><text transform="translate(457.38734,23.49346) scale(0.5,0.5)" font-size="40" xml:space="preserve" fill="#ffffff" fill-rule="nonzero" stroke="none" stroke-width="1" stroke-linecap="butt" stroke-linejoin="miter" stroke-miterlimit="10" stroke-dasharray="" stroke-dashoffset="0" font-family="Sans Serif" font-weight="normal" text-anchor="start" style="mix-blend-mode: normal"><tspan x="0" dy="0">Don't forget to like!</tspan></text><text transform="translate(383.81377,95.56554) scale(0.5,0.5)" font-size="40" xml:space="preserve" fill="#ffffff" fill-rule="nonzero" stroke="none" stroke-width="1" stroke-linecap="butt" stroke-linejoin="miter" stroke-miterlimit="10" stroke-dasharray="" stroke-dashoffset="0" font-family="Sans Serif" font-weight="normal" text-anchor="start" style="mix-blend-mode: normal"><tspan x="0" dy="0"> </tspan></text><text transform="translate(250,153) scale(0.5,0.5)" font-size="40" xml:space="preserve" fill="#ffffff" fill-rule="nonzero" stroke="#ffffff" stroke-width="1" stroke-linecap="butt" stroke-linejoin="miter" stroke-miterlimit="10" stroke-dasharray="" stroke-dashoffset="0" font-family="Sans Serif" font-weight="normal" text-anchor="start" style="mix-blend-mode: normal"><tspan x="0" dy="0">正在等待主持人</tspan></text></g></g></svg>