<svg version="1.1" xmlns="http://www.w3.org/2000/svg" xmlns:xlink="http://www.w3.org/1999/xlink" width="119.38453" height="197.07014" viewBox="0,0,119.38453,197.07014"><g transform="translate(-263.17651,-121.783)"><g stroke-miterlimit="10"><text transform="translate(275.47518,300.7317) scale(1.24976,1.24976)" font-size="40" xml:space="preserve" fill="#ffffff" stroke="#000000" stroke-width="6" stroke-linecap="butt" font-family="Sans Serif" font-weight="normal" text-anchor="start"><tspan x="0" dy="0">退出</tspan></text><text transform="translate(275.47511,300.73168) scale(1.24976,1.24976)" font-size="40" xml:space="preserve" fill="#ffffff" stroke="#ffffff" stroke-width="1" stroke-linecap="butt" font-family="Sans Serif" font-weight="normal" text-anchor="start"><tspan x="0" dy="0">退出</tspan></text><path d="M365.75882,205.24677c1.34445,1.32412 1.48948,3.62596 0.43522,4.69642c-1.90563,1.9349 -11.12783,11.29874 -15.36228,15.59823c-0.80498,0.81735 -1.81698,1.07029 -2.89583,0.72772c-0.66736,-0.21191 -1.3603,-0.65167 -2.04565,-1.32665c-12.83819,-12.64399 -65.58644,-64.59432 -71.68935,-70.60492c-1.44437,-1.42252 -1.6587,-3.45415 -0.24555,-4.889c4.27566,-4.34133 13.15583,-13.3579 15.36228,-15.59823c0.97331,-0.98826 3.09676,-0.83853 4.03493,0.08545c5.74699,5.66006 60.86611,59.94539 72.40624,71.31096z" fill="#313343" stroke="#ffffff" stroke-width="20.5" stroke-linecap="butt"/><path d="M365.35899,152.7813c-11.36557,11.54013 -65.6509,66.65925 -71.31096,72.40624c-0.92398,0.93818 -3.04491,1.12025 -4.03317,0.14694c-2.24033,-2.20645 -11.2569,-11.08662 -15.59823,-15.36228c-1.43485,-1.41315 -1.25151,-3.44781 0.17101,-4.89218c6.01059,-6.10291 57.96093,-58.85116 70.60492,-71.68935c0.67498,-0.68535 1.36113,-1.13562 2.02519,-1.35767c1.07351,-0.35897 2.08923,-0.12149 2.90658,0.6835c4.29949,4.23445 13.66334,13.45665 15.59823,15.36228c1.07046,1.05426 0.96053,3.35805 -0.36359,4.70251z" fill="#313343" stroke="#ffffff" stroke-width="20.5" stroke-linecap="butt"/><path d="M294.04803,225.18755c-0.92398,0.93818 -3.04491,1.12025 -4.03317,0.14694c-2.24033,-2.20645 -11.2569,-11.08662 -15.59823,-15.36228c-1.43485,-1.41315 -1.25151,-3.44781 0.17101,-4.89218c6.01059,-6.10291 57.96093,-58.85116 70.60492,-71.68935c0.67498,-0.68535 1.36113,-1.13562 2.02519,-1.35767c1.07351,-0.35897 2.08923,-0.12149 2.90658,0.6835c4.29949,4.23445 13.66334,13.45665 15.59823,15.36228c1.07046,1.05426 0.96053,3.35805 -0.36359,4.70251c0,0 -65.65088,66.65926 -71.31094,72.40625z" fill="#313343" stroke="#cf3305" stroke-width="18" stroke-linecap="butt"/><path d="M365.75882,205.24677c1.34445,1.32412 1.48948,3.62596 0.43522,4.69642c-1.90563,1.9349 -11.12783,11.29874 -15.36228,15.59823c-0.80498,0.81735 -1.81698,1.07029 -2.89583,0.72772c-0.66736,-0.21191 -1.3603,-0.65167 -2.04565,-1.32665c-12.83819,-12.64399 -65.58644,-64.59432 -71.68935,-70.60492c-1.44437,-1.42252 -1.6587,-3.45415 -0.24555,-4.889c4.27566,-4.34133 13.15583,-13.3579 15.36228,-15.59823c0.97331,-0.98826 3.09676,-0.83853 4.03493,0.08545c5.74699,5.66006 72.40623,71.31098 72.40623,71.31098z" fill="#313343" stroke="#cf3305" stroke-width="18" stroke-linecap="butt"/><path d="M365.75882,205.24677c1.34445,1.32412 1.48948,3.62596 0.43522,4.69642c-1.90563,1.9349 -11.12783,11.29874 -15.36228,15.59823c-0.80498,0.81735 -1.81698,1.07029 -2.89583,0.72772c-0.66736,-0.21191 -1.3603,-0.65167 -2.04565,-1.32665c-12.83819,-12.64399 -65.58644,-64.59432 -71.68935,-70.60492c-1.44437,-1.42252 -1.6587,-3.45415 -0.24555,-4.889c4.27566,-4.34133 13.15583,-13.3579 15.36228,-15.59823c0.97331,-0.98826 3.09676,-0.83853 4.03493,0.08545c5.74699,5.66006 72.40623,71.31098 72.40623,71.31098z" fill="#313343" stroke="#323245" stroke-width="10.5" stroke-linecap="butt"/><path d="M294.04803,225.18755c-0.92398,0.93818 -3.04491,1.12025 -4.03317,0.14694c-2.24033,-2.20645 -11.2569,-11.08662 -15.59823,-15.36228c-1.43485,-1.41315 -1.25151,-3.44781 0.17101,-4.89218c6.01059,-6.10291 57.96093,-58.85116 70.60492,-71.68935c0.67498,-0.68535 1.36113,-1.13562 2.02519,-1.35767c1.07351,-0.35897 2.08923,-0.12149 2.90658,0.6835c4.29949,4.23445 13.66334,13.45665 15.59823,15.36228c1.07046,1.05426 0.96053,3.35805 -0.36359,4.70251c0,0 -65.65088,66.65926 -71.31094,72.40625z" fill="#313343" stroke="#323245" stroke-width="10.5" stroke-linecap="butt"/><path d="M368.03522,149.22314l-77.88842,79.08472l-18.16811,-17.89329l77.88843,-79.08473z" fill="#556565" stroke="none" stroke-width="0" stroke-linecap="butt"/><path d="M358.41681,139.75022l-77.88843,79.08472l-8.5497,-8.42037l77.88843,-79.08473z" fill="#eeeeee" stroke="none" stroke-width="0" stroke-linecap="butt"/><path d="M358.46732,139.74982l-39.29505,39.8986l-8.5497,-8.42037l39.29505,-39.8986z" fill="#aabbbb" stroke="none" stroke-width="0" stroke-linecap="butt"/><path d="M294.04803,225.18755c-0.92398,0.93818 -3.04491,1.12025 -4.03317,0.14694c-2.24033,-2.20645 -11.2569,-11.08661 -15.59823,-15.36227c-1.43485,-1.41315 -1.25151,-3.44781 0.17101,-4.89218c6.01059,-6.10291 57.96093,-58.85117 70.60492,-71.68935c0.67498,-0.68535 1.36113,-1.13563 2.02519,-1.35768c1.07351,-0.35897 2.08923,-0.12148 2.90658,0.6835c4.29949,4.23445 13.66334,13.45665 15.59823,15.36228c1.07046,1.05426 0.96053,3.35805 -0.36359,4.70251c0,0 -65.65088,66.65926 -71.31094,72.40625z" fill="none" stroke="#323245" stroke-width="5" stroke-linecap="butt"/><path d="M350.59572,226.93185l-79.08472,-77.88842l17.89328,-18.16811l79.08473,77.88843z" fill="#556565" stroke="none" stroke-width="0" stroke-linecap="butt"/><path d="M350.59573,226.93185l-79.08473,-77.88843l8.42037,-8.5497l79.08473,77.88843z" fill="#eeeeee" stroke="none" stroke-width="0" stroke-linecap="butt"/><path d="M348.43606,229.12469l-39.8986,-39.29506l10.52546,-10.68712l39.8986,39.29506z" fill="#aabbbb" stroke="none" stroke-width="0" stroke-linecap="butt"/><path d="M365.75882,205.24674c1.34445,1.32412 1.48948,3.62597 0.43522,4.69643c-1.90563,1.9349 -11.12783,11.29874 -15.36228,15.59823c-0.80498,0.81735 -1.81698,1.07028 -2.89583,0.72772c-0.66736,-0.21191 -1.3603,-0.65167 -2.04565,-1.32665c-12.83819,-12.64399 -65.58644,-64.59432 -71.68935,-70.60491c-1.44437,-1.42252 -1.6587,-3.45415 -0.24555,-4.889c4.27566,-4.34133 13.15583,-13.3579 15.36228,-15.59823c0.97331,-0.98826 3.09676,-0.83853 4.03493,0.08545c5.74699,5.66006 72.40623,71.31097 72.40623,71.31097z" fill="none" stroke="#323245" stroke-width="5" stroke-linecap="butt"/><path d="M306.16728,192.8015l-8.07471,-7.95257l13.2153,-13.41827l8.07471,7.95256z" fill="#eeeeee" stroke="none" stroke-width="0" stroke-linecap="butt"/><path d="M336.74807,179.17544l-34.88293,0.26584" fill="#bebfc4" stroke="#dbdfe3" stroke-width="2.5" stroke-linecap="round"/><path d="M299.54749,183.38115l-5.27231,-5.19256l3.78916,-3.84736l5.27231,5.19256z" fill="#323245" stroke="none" stroke-width="0" stroke-linecap="butt"/><path d="M337.54976,181.01767c8.86832,-9.00455 17.99432,-18.27071 22.9006,-23.25234" fill="none" stroke="#323245" stroke-width="5" stroke-linecap="butt"/><path d="M319.43954,196.74982l-0.26585,-34.88293" fill="#bebfc4" stroke="#dbdfe3" stroke-width="2.5" stroke-linecap="round"/><path d="M316.16066,156.39882c7.92371,7.80385 26.69396,26.29017 33.42505,32.91945" fill="none" stroke="#323245" stroke-width="5" stroke-linecap="butt"/><path d="M320.39458,178.40319l-0.0925,-14.40247l-0.85279,-0.8535l3.89462,-4.01551l8.13748,8.01438z" fill="#dbdfe3" stroke="none" stroke-width="0" stroke-linecap="butt"/><path d="M320.39457,178.4032l-0.06816,-16.14657l3.11773,-3.2267l8.13748,8.01439z" fill="#aabbbb" stroke="none" stroke-width="0" stroke-linecap="butt"/><path d="M331.47075,167.13561l8.13748,8.01439l-3.95569,3.95537l-0.8664,-0.83968l-14.40221,0.12702z" fill="#dbdfe3" stroke="none" stroke-width="0" stroke-linecap="butt"/><path d="M331.57098,167.03382l8.13748,8.01439l-3.17881,3.16655l-16.14573,0.17795z" fill="#556565" stroke="none" stroke-width="0" stroke-linecap="butt"/><path d="M318.09591,180.99165l0.09251,14.40247l0.85278,0.8535l-3.89462,4.01552l-8.13748,-8.01439z" fill="#dbdfe3" stroke="none" stroke-width="0" stroke-linecap="butt"/><path d="M318.06401,180.81985l0.06901,16.34913l-3.15684,3.26718l-8.23956,-8.11492z" fill="#556565" stroke="none" stroke-width="0" stroke-linecap="butt"/><path d="M340.01061,219.15173c-7.10287,-6.99541 -14.85001,-14.62537 -22.06491,-21.73113" fill="none" stroke="#323245" stroke-width="5" stroke-linecap="butt"/></g></g></svg>