<svg version="1.1" xmlns="http://www.w3.org/2000/svg" xmlns:xlink="http://www.w3.org/1999/xlink" width="233.17158" height="54.6367" viewBox="0,0,233.17158,54.6367"><g transform="translate(-204.91571,-156.39737)"><g stroke-miterlimit="10"><g fill="#000000" stroke-linecap="butt" stroke-linejoin="miter"><path d="M212.41571,192.92747c0,-6.97322 0,-23.26015 0,-26.45973c0,-1.04417 1.41136,-2.57037 3.45591,-2.57037c6.45988,0 42.24056,0 82.79797,0c52.23998,0 112.40491,0 128.04485,0c2.50966,0 3.87285,1.49892 3.87285,3.02397c0,3.59787 0,18.56163 0,25.55253c0,2.21433 -1.56798,3.62876 -4.4366,3.62876c-29.41576,0 -195.59532,0 -210.27906,0c-2.04456,0 -3.45591,-1.22238 -3.45591,-3.17517z" stroke="#000000" stroke-width="15"/><path d="M212.41571,192.92747c0,-6.97322 0,-23.26015 0,-26.45973c0,-1.04417 1.41136,-2.57037 3.45591,-2.57037c14.78053,0 183.06054,0 210.84281,0c2.50966,0 3.87285,1.49892 3.87285,3.02397c0,3.59787 0,18.56163 0,25.55253c0,2.21433 -1.56798,3.62876 -4.4366,3.62876c-29.41576,0 -195.59532,0 -210.27906,0c-2.04456,0 -3.45591,-1.22238 -3.45591,-3.17517z" stroke="#ffffff" stroke-width="7"/><path d="M212.41571,192.92747c0,-6.97322 0,-23.26015 0,-26.45973c0,-1.04417 1.41136,-2.57037 3.45591,-2.57037c14.78053,0 183.06054,0 210.84281,0c2.50966,0 3.87285,1.49892 3.87285,3.02397c0,3.59787 0,18.56163 0,25.55253c0,2.21433 -1.56798,3.62876 -4.4366,3.62876c-29.41576,0 -195.59532,0 -210.27906,0c-2.04456,0 -3.45591,-1.22238 -3.45591,-3.17517z" stroke="none" stroke-width="0"/></g><g fill="none" stroke="#ffffff" stroke-width="2" stroke-linecap="round" stroke-linejoin="round"><path d="M227.25,187.5h-3.33333c-0.92048,0 -1.66667,-0.74619 -1.66667,-1.66667v-11.66667c0,-0.92047 0.74619,-1.66667 1.66667,-1.66667h3.33333"/><path d="M233.08333,175.83333l4.16667,4.16667l-4.16667,4.16667"/><path d="M237.25,180h-10"/></g><text transform="translate(291.00001,186.5861) scale(0.4625,0.4625)" font-size="40" xml:space="preserve" fill="#ffffff" stroke="#ffffff" stroke-width="1" stroke-linecap="butt" stroke-linejoin="miter" font-family="Sans Serif" font-weight="normal" text-anchor="start"><tspan x="0" dy="0">离开游戏</tspan></text></g></g></svg>