<svg version="1.1" xmlns="http://www.w3.org/2000/svg" xmlns:xlink="http://www.w3.org/1999/xlink" width="414.41441" height="429.42943" viewBox="0,0,414.41441,429.42943"><defs><linearGradient x1="386.81682" y1="170.59008" x2="386.81682" y2="205.12462" gradientUnits="userSpaceOnUse" id="color-1"><stop offset="0" stop-color="#000000" stop-opacity="0"/><stop offset="1" stop-color="#000000"/></linearGradient></defs><g transform="translate(-166.0961,44.62463)"><g stroke-miterlimit="10"><path d="M250.69107,157.13424c6.33555,-16.12342 31.87818,-81.12715 35.29574,-89.82455c0.32466,-0.82622 0.71449,-1.22067 1.09704,-1.23c0.49145,-0.01201 0.97089,0.61153 1.28471,1.77164c2.11672,7.82484 15.21703,56.2526 15.21703,56.2526c0,0 -47.89421,32.31053 -52.87906,35.67343c-0.82096,0.55384 -0.92108,-0.3384 -0.01546,-2.64312z" fill="#333344" stroke="#ffffff" stroke-width="15" stroke-linecap="butt"/><path d="M250.37578,159.3105c4.82568,-3.58756 51.19059,-38.0567 51.19059,-38.0567c0,0 41.34302,28.41867 48.02312,33.0105c0.9904,0.68078 1.41966,1.33987 1.24535,1.79953c-0.13567,0.35781 -0.63708,0.59477 -1.5242,0.62707c-9.33857,0.33993 -79.13439,2.88055 -96.44643,3.51071c-2.47463,0.09008 -3.28317,-0.30026 -2.48843,-0.8911z" fill="#333344" stroke="#ffffff" stroke-width="15" stroke-linecap="butt"/><path d="M297.91858,121.47462c1.33968,-1.13487 2.73958,-2.22147 4.19894,-3.25538c27.35056,-19.37702 65.23075,-12.91319 84.60777,14.43736c19.37702,27.35055 12.9132,65.23074 -14.43736,84.60777c-15.4682,10.95874 -34.3043,13.65227 -51.2565,8.97675" fill="none" stroke="#ffffff" stroke-width="50" stroke-linecap="butt"/><path d="M250.69107,157.13424c6.33556,-16.12341 31.87818,-81.12715 35.29574,-89.82455c0.32466,-0.82622 0.71449,-1.22067 1.09704,-1.23c0.49145,-0.01201 0.97089,0.61153 1.28471,1.77164c2.11672,7.82484 15.21703,56.2526 15.21703,56.2526c0,0 -47.89421,32.31053 -52.87906,35.67343c-0.82096,0.55384 -0.92108,-0.3384 -0.01546,-2.64312z" fill="#333344" stroke="#be3c11" stroke-width="10" stroke-linecap="butt"/><path d="M297.91859,121.47462c1.33968,-1.13487 2.73958,-2.22146 4.19895,-3.25538c27.35056,-19.37702 65.23074,-12.9132 84.60777,14.43736c19.37702,27.35056 12.9132,65.23074 -14.43736,84.60777c-15.4682,10.95874 -34.30431,13.65227 -51.2565,8.97675" fill="none" stroke="#be3c11" stroke-width="40" stroke-linecap="butt"/><path d="M250.37578,159.3105c4.82568,-3.58756 51.19059,-38.0567 51.19059,-38.0567c0,0 41.34302,28.41867 48.02312,33.0105c0.9904,0.68078 1.41966,1.33987 1.24535,1.79953c-0.13567,0.35781 -0.63708,0.59477 -1.5242,0.62707c-9.33857,0.33993 -79.13439,2.88054 -96.44643,3.51071c-2.47463,0.09008 -3.28317,-0.30026 -2.48843,-0.8911z" fill="#333344" stroke="#be3c11" stroke-width="10" stroke-linecap="butt"/><path d="M297.91859,121.47462c1.33968,-1.13487 2.73958,-2.22146 4.19895,-3.25538c27.35056,-19.37702 65.23074,-12.9132 84.60777,14.43736c19.37702,27.35056 12.9132,65.23074 -14.43736,84.60777c-15.4682,10.95874 -34.30431,13.65227 -51.2565,8.97675" fill="none" stroke="#333344" stroke-width="30" stroke-linecap="butt"/><path d="M297.91859,121.47462c1.33968,-1.13487 2.73958,-2.22146 4.19895,-3.25538c27.35056,-19.37702 65.23074,-12.9132 84.60777,14.43736c19.37702,27.35056 12.9132,65.23074 -14.43736,84.60777c-15.4682,10.95874 -34.30431,13.65227 -51.2565,8.97675" fill="none" stroke="#a9bbbb" stroke-width="20" stroke-linecap="butt"/><path d="M250.78648,158.99089c5.81266,-4.32132 50.15661,-36.88702 50.15661,-36.88702c0,0 41.96629,27.56859 48.6464,32.16042c0.9904,0.68078 1.41966,1.33987 1.24536,1.79954c-0.13569,0.35781 -0.63708,0.59477 -1.5242,0.62706c-9.78101,0.35603 -84.98254,3.10063 -97.64058,3.5614c-1.15495,0.04204 -2.10033,-0.35682 -0.88359,-1.26138z" fill="#333344" stroke="none" stroke-width="0" stroke-linecap="butt"/><path d="M258.7356,153.44841c4.44489,-3.30447 39.21631,-28.31324 39.21631,-28.31324c0,0 31.22923,21.18751 36.33744,24.69884c0.75735,0.52059 1.0856,1.02459 0.95231,1.37608c-0.10377,0.27361 -0.48717,0.45482 -1.16554,0.47951c-7.47945,0.27225 -64.98537,2.37103 -74.66485,2.72337c-0.88319,0.03215 -1.60611,-0.27286 -0.67567,-0.96457z" fill="#a9bbbb" stroke="#333344" stroke-width="1.5" stroke-linecap="butt"/><path d="M250.25611,158.24115c5.49109,-13.97432 32.22846,-82.01856 35.7307,-90.93148c0.32465,-0.82621 0.71448,-1.22065 1.09703,-1.23c0.49145,-0.012 0.97089,0.61153 1.28472,1.77165c2.11672,7.82485 15.21703,56.2526 15.21703,56.2526c0,0 -46.44611,31.3336 -52.23602,35.23962c-1.15461,0.77892 -1.72661,0.50894 -1.09346,-1.10239z" fill="#333344" stroke="none" stroke-width="0" stroke-linecap="butt"/><path d="M258.7356,153.44841l13.56988,-9.73503l62.93618,7.49672c0,0 -0.48717,0.45482 -1.16554,0.47951c-7.47945,0.27225 -64.98537,2.37103 -74.66485,2.72337c-0.88319,0.03215 -0.67567,-0.96457 -0.67567,-0.96457z" fill="#952712" stroke="none" stroke-width="0" stroke-linecap="butt"/><path d="M258.33004,152.87509c4.19899,-10.68604 24.6448,-62.71884 27.32294,-69.53446c0.24826,-0.6318 0.54635,-0.93342 0.8389,-0.94057c0.37581,-0.00918 0.74243,0.46763 0.98241,1.35476c1.61863,5.98359 10.48014,41.3839 10.48014,41.3839c0,0 -34.36074,25.59246 -38.78822,28.57935c-0.88292,0.59564 -1.32032,0.38917 -0.83615,-0.84299z" fill="#eeeeee" stroke="#333344" stroke-width="1.5" stroke-linecap="butt"/><path d="M258.93123,151.44045c3.33843,-9.09238 24.16808,-60.78758 26.74772,-67.81336c0.23397,-0.63723 0.16029,0.65021 0.16029,0.65021l-12.73555,58.2254l-13.46516,9.87937c0,0 -1.01191,-0.11201 -0.7073,-0.94162z" fill="#cc3200" stroke="none" stroke-width="0" stroke-linecap="butt"/><path d="M258.7356,153.44841c4.44489,-3.30447 39.21631,-28.31324 39.21631,-28.31324c0,0 31.22923,21.18751 36.33744,24.69884c0.75735,0.52059 1.0856,1.02459 0.95231,1.37608c-0.10377,0.27361 -0.48717,0.45482 -1.16554,0.47951c-7.47945,0.27225 -64.98537,2.37103 -74.66485,2.72337c-0.88319,0.03215 -1.60611,-0.27286 -0.67567,-0.96457z" fill="none" stroke="#333344" stroke-width="1.5" stroke-linecap="butt"/><path d="M258.7356,153.44841c4.44489,-3.30447 39.21631,-28.31324 39.21631,-28.31324c0,0 31.22923,21.18751 36.33744,24.69884c0.75735,0.52059 1.0856,1.02459 0.95231,1.37608c-0.10377,0.27361 -0.48717,0.45482 -1.16554,0.47951c-7.47945,0.27225 -64.98537,2.37103 -74.66485,2.72337c-0.88319,0.03215 -1.60611,-0.27286 -0.67567,-0.96457z" fill="none" stroke="#333344" stroke-width="1.5" stroke-linecap="butt"/><path d="M258.33004,152.87509c4.19899,-10.68604 24.6448,-62.71884 27.32294,-69.53446c0.24826,-0.6318 0.54635,-0.93342 0.8389,-0.94057c0.37581,-0.00918 0.74243,0.46763 0.98241,1.35476c1.61863,5.98359 10.48014,41.3839 10.48014,41.3839c0,0 -34.36074,25.59246 -38.78822,28.57935c-0.88292,0.59564 -1.32032,0.38917 -0.83615,-0.84299z" fill="none" stroke="#333344" stroke-width="1.5" stroke-linecap="butt"/><path d="M300.76065,131.57847l-7.32249,-10.33565l8.70371,-6.16631l7.32249,10.33565z" fill="#a9bbbb" stroke="none" stroke-width="0" stroke-linecap="butt"/><path d="M292.21423,128.0181l-2.03573,-14.69392c0,0 20.14171,-14.14356 35.37776,-15.66743c13.69619,-1.97367 30.26847,1.94208 30.26847,1.94208c0,0 -10.27212,-1.48288 -32.64584,9.00314c-9.34873,4.38152 -30.96466,19.41613 -30.96466,19.41613z" fill="#eeeeee" stroke="none" stroke-width="0" stroke-linecap="butt"/><path d="M335.99941,151.0436c0,0 -6.19698,-3.81964 -10.58318,-6.52318c-7.20755,-4.44254 -28.57684,-17.614 -28.57684,-17.614l-9.20693,-44.13249" fill="none" stroke="#333344" stroke-width="2" stroke-linecap="round"/><path d="M350.78078,205.12462v-34.53453h72.07207v34.53453z" fill="url(#color-1)" stroke="none" stroke-width="0" stroke-linecap="butt"/><path d="M166.0961,384.8048v-429.42943h414.41441v429.42943z" fill="none" stroke="none" stroke-width="0" stroke-linecap="butt"/><text transform="translate(291.48937,250.77131) scale(1.24976,1.24976)" font-size="40" xml:space="preserve" fill="#ffffff" stroke="#000000" stroke-width="6" stroke-linecap="butt" font-family="Sans Serif" font-weight="normal" text-anchor="start"><tspan x="0" dy="0">再玩</tspan><tspan x="0" dy="46.15px">一次</tspan></text><path d="M308.73874,276.69969v-75.07508h136.63664v75.07508z" fill="#000000" stroke="none" stroke-width="NaN" stroke-linecap="butt"/><text transform="translate(291.4893,250.77129) scale(1.24976,1.24976)" font-size="40" xml:space="preserve" fill="#ffffff" stroke="#ffffff" stroke-width="1" stroke-linecap="butt" font-family="Sans Serif" font-weight="normal" text-anchor="start"><tspan x="0" dy="0">再玩</tspan><tspan x="0" dy="46.15px">一次</tspan></text></g></g></svg>