<svg version="1.1" xmlns="http://www.w3.org/2000/svg" xmlns:xlink="http://www.w3.org/1999/xlink" width="221.5" height="110.56527" viewBox="0,0,221.5,110.56527"><g transform="translate(-209.50001,-88.75)"><g data-paper-data="{&quot;isPaintingLayer&quot;:true}" fill-rule="nonzero" stroke-linejoin="miter" stroke-miterlimit="10" stroke-dasharray="" stroke-dashoffset="0" style="mix-blend-mode: normal"><path d="M237.76527,191.29185c0,-6.09093 0,-20.31716 0,-23.11191c0,-0.91205 1.06396,-2.24516 2.60525,-2.24516c4.86981,0 31.84321,0 62.41757,0c39.3813,0 84.73687,0 96.5271,0c1.89192,0 2.91956,1.30927 2.91956,2.64136c0,3.14265 0,16.21313 0,22.3195c0,1.93416 -1.18202,3.16963 -3.34454,3.16963c-22.17519,0 -147.45029,0 -158.51969,0c-1.54129,0 -2.60525,-1.06771 -2.60525,-2.77343z" fill="#000000" stroke="#000000" stroke-width="10.5" stroke-linecap="butt"/><path d="M237.76528,191.29185c0,-6.09093 0,-20.31716 0,-23.11191c0,-0.91205 1.06396,-2.24516 2.60525,-2.24516c11.14236,0 138.0009,0 158.94466,0c1.89192,0 2.91956,1.30927 2.91956,2.64136c0,3.14265 0,16.21313 0,22.3195c0,1.93416 -1.18202,3.16963 -3.34454,3.16963c-22.17519,0 -147.45029,0 -158.51969,0c-1.54129,0 -2.60525,-1.06771 -2.60525,-2.77343z" fill="#000000" stroke="#ffffff" stroke-width="5.5" stroke-linecap="butt"/><path d="M237.76528,191.29185c0,-6.09093 0,-20.31716 0,-23.11191c0,-0.91205 1.06396,-2.24516 2.60525,-2.24516c11.14236,0 138.0009,0 158.94466,0c1.89192,0 2.91956,1.30927 2.91956,2.64136c0,3.14265 0,16.21313 0,22.3195c0,1.93416 -1.18202,3.16963 -3.34454,3.16963c-22.17519,0 -147.45029,0 -158.51969,0c-1.54129,0 -2.60525,-1.06771 -2.60525,-2.77343z" fill="#000000" stroke="none" stroke-width="0" stroke-linecap="butt"/><g fill="none" stroke="#ffffff" stroke-width="2.5" stroke-linecap="round"><path d="M256.1289,185.54226v-11.16629"/><path d="M250.54576,179.95911h11.16629"/></g><text transform="translate(210.00001,110.75) scale(0.5,0.5)" font-size="40" xml:space="preserve" fill="#f3f3f3" fill-rule="nonzero" stroke="#f3f3f3" stroke-width="2" stroke-linecap="butt" stroke-linejoin="miter" stroke-miterlimit="10" stroke-dasharray="" stroke-dashoffset="0" font-family="Sans Serif" font-weight="normal" text-anchor="start" style="mix-blend-mode: normal"><tspan x="0" dy="0">没有发现进行中的游戏！</tspan></text><text transform="translate(301.29344,184.66824) scale(0.39922,0.39922)" font-size="40" xml:space="preserve" fill="#ffffff" fill-rule="nonzero" stroke="#ffffff" stroke-width="1" stroke-linecap="butt" stroke-linejoin="miter" stroke-miterlimit="10" stroke-dasharray="" stroke-dashoffset="0" font-family="Sans Serif" font-weight="normal" text-anchor="start" style="mix-blend-mode: normal"><tspan x="0" dy="0">创建游戏</tspan></text></g></g></svg>