<svg version="1.1" xmlns="http://www.w3.org/2000/svg" xmlns:xlink="http://www.w3.org/1999/xlink" width="504.50451" height="445.28492" viewBox="0,0,504.50451,445.28492"><g transform="translate(-67.74774,54.00256)"><g stroke="none" stroke-miterlimit="10"><path d="M67.74774,183.3244c0,-114.85201 112.93718,-207.95796 252.25225,-207.95796c139.31507,0 252.25225,93.10595 252.25225,207.95796c0,114.85201 -112.93718,207.95796 -252.25225,207.95796c-139.31507,0 -252.25225,-93.10595 -252.25225,-207.95796z" fill="none" stroke-width="0"/><path d="M67.74774,180.00004c0,-116.688 112.93718,-211.28231 252.25225,-211.28231c139.31507,0 252.25226,94.59431 252.25226,211.28231c0,116.688 -112.93719,211.28232 -252.25226,211.28232c-139.31507,0 -252.25225,-94.59431 -252.25225,-211.28231z" fill="none" stroke-width="0"/><path d="M67.74774,183.74619c0,-114.61906 112.93718,-207.53617 252.25225,-207.53617c139.31507,0 252.25225,92.91711 252.25225,207.53618c0,114.61907 -112.93718,207.53617 -252.25225,207.53617c-139.31507,0 -252.25225,-92.91711 -252.25225,-207.53617z" fill="none" stroke-width="0"/><path d="M67.74774,183.3244c0,-114.85201 112.93718,-207.95796 252.25225,-207.95796c139.31507,0 252.25225,93.10595 252.25225,207.95796c0,114.85201 -112.93718,207.95796 -252.25225,207.95796c-139.31507,0 -252.25225,-93.10595 -252.25225,-207.95796z" fill="none" stroke-width="0"/><path d="M67.74774,180.00004c0,-116.688 112.93718,-211.28231 252.25225,-211.28231c139.31507,0 252.25226,94.59431 252.25226,211.28231c0,116.688 -112.93719,211.28232 -252.25226,211.28232c-139.31507,0 -252.25225,-94.59431 -252.25225,-211.28231z" fill="none" stroke-width="0"/><path d="M67.74774,183.74619c0,-114.61906 112.93718,-207.53617 252.25225,-207.53617c139.31507,0 252.25225,92.91711 252.25225,207.53618c0,114.61907 -112.93718,207.53617 -252.25225,207.53617c-139.31507,0 -252.25225,-92.91711 -252.25225,-207.53617z" fill="none" stroke-width="0"/><path d="M98.52852,369.93999v-417.41742h442.94295v417.41742z" fill="none" stroke-width="0"/><path d="M439.26751,48.70152c26.17019,6.28142 18.38326,33.7961 2.53497,27.77018c-18.94713,-7.20418 -34.0349,-5.36728 -36.4473,-17.57695c-3.38666,-17.14057 15.27171,-14.66738 33.91233,-10.19323z" fill="#fefefe" stroke-width="0"/><g><path d="M333.56547,-53.93269c73.45863,-1.98612 103.5282,38.75895 111.01147,73.35432c1.34349,6.21099 5.98308,44.31524 7.39618,96.53253c0.02506,0.92671 0.93831,49.80984 -3.37465,88.39563c-2.44116,21.83975 -7.84082,40.80875 -12.84325,44.85581c-7.9923,6.46595 -35.86622,9.69646 -41.80559,10.22312c-8.80362,1.18093 -18.99089,29.54809 -34.52156,36.49379c-13.35762,5.97385 -46.92554,11.19535 -68.42607,4.34822c-18.58186,-5.91763 -22.59715,-18.58685 -25.11942,-20.01796c-22.30736,-12.65686 -66.62988,-2.45805 -78.10774,-7.06585c-7.12582,-3.10226 -20.71643,-11.34094 -25.91637,-21.25716c-4.63764,-8.8439 -4.07382,-22.33162 -8.27125,-30.01027c-6.83735,-12.50803 -15.28103,-16.55167 -16.87937,-18.53984c-10.40778,-12.94623 2.39581,-16.19541 6.71051,-16.6684c25.70884,-2.81839 73.30982,34.88165 67.08142,11.45956c-1.78931,-6.72874 -12.12106,-18.47559 -13.01428,-39.42971c-1.0425,-24.4552 0.59915,-53.75869 2.68296,-76.61391c1.45981,-16.01167 3.0044,-28.85848 7.2824,-34.65633c5.29151,-7.17141 14.06726,-9.97015 22.55932,-12.06312c12.12529,-2.98841 23.67218,-3.4062 23.67218,-3.4062c0,0 0.07728,-47.08425 30.08781,-71.98436c11.05478,-9.17231 31.34995,-13.45118 49.79531,-13.94989z" fill="#0c0d20" stroke-width="0"/><path d="M424.43653,31.30085c0,0.80462 -2.28203,-1.5714 9.66186,51.61323c0.70931,3.15852 2.18582,15.42898 1.85909,32.91374c-0.13126,7.02376 0.32147,100.72514 -3.38629,108.77746c-1.76024,3.82279 -4.59339,13.08316 -10.47569,14.86321c-13.07619,3.95702 -33.77188,-1.74099 -38.50159,7.08094c-3.86649,7.2118 -25.10178,35.25416 -35.72302,40.37161c-6.75284,3.25362 -19.64644,1.94899 -30.75605,1.54137c-4.7229,-0.17328 -13.92304,-0.80294 -25.05022,-4.31921c-9.39564,-2.96909 -11.16575,-13.52183 -21.00013,-17.42691c-2.65964,-1.0561 -13.01197,-4.51606 -20.14329,-5.01213c-17.72587,-1.23304 -40.01396,1.16839 -53.80456,-3.0879c-5.31378,-1.64004 -15.18421,-4.15933 -21.32243,-10.76352c-5.10966,-5.49755 -7.71431,-14.58364 -9.34982,-22.57403c-2.1461,-10.48488 -9.63635,-20.76249 -5.8968,-22.90908c9.53762,-2.45639 35.31869,17.77101 54.75297,15.53839c11.67422,-1.34112 24.44663,-7.57047 33.45679,-27.07101c15.65446,-33.88065 16.3474,-86.79849 17.51256,-110.69886c1.44723,-29.68608 7.54685,-59.9116 8.64303,-67.37004c6.17755,-42.03208 42.83925,-46.78113 77.30551,-46.78113c34.46629,0 72.21813,33.45653 72.21813,65.31379z" fill="#2d198a" stroke-width="0"/><path d="M424.43653,31.30085c0,0.80462 9.66186,58.54177 9.66186,58.54177c0,0 1.14543,4.65866 1.78235,10.51369c0.70716,6.50067 -1.30626,31.14911 -1.22496,35.86072c-0.49328,7.02059 -17.60777,26.83764 -25.25866,46.6174c-6.90715,17.85698 -3.4915,25.34809 -10.92294,34.30744c-8.49227,10.23828 -27.58552,8.52907 -36.39872,17.73969c-8.31689,8.69193 -15.25821,14.84713 -20.74218,14.85499c-0.78631,0.00113 -8.17878,2.51863 -8.4296,-5.09511c-0.02645,-0.80273 0.40565,-4.5102 1.53783,-5.76575c2.77484,-3.0772 5.80003,-6.66053 6.79389,-13.30103c1.77158,-11.83675 -2.11563,-17.86457 -9.2482,-26.3643c-9.22045,-10.9878 -22.05722,-14.96223 -26.89835,-19.09191c-46.37964,-38.20272 -20.62698,-192.52964 -17.00645,-196.26298c15.09771,-15.56813 40.14859,-17.86844 64.13605,-17.86844c34.46626,0 72.21813,33.45651 72.21813,65.31379z" fill="#6c30b1" stroke-width="0"/><g><path d="M320.95644,12.7971c14.54992,-14.85924 32.05203,-18.79255 38.06646,-19.30652c20.78975,-1.77665 53.76454,-1.46421 74.06118,3.03893c5.15539,1.1438 21.81717,8.16489 27.4002,20.04706c4.27299,9.09406 20.36983,39.18279 -3.35282,66.66181c-25.04278,29.00818 -93.61829,22.70387 -113.21742,18.11794c-8.74507,-2.47697 -24.30453,-12.56935 -29.5865,-30.07109c-6.38245,-21.14825 -1.04835,-50.64771 6.62885,-58.48813z" fill="#10293a" stroke-width="0"/><g><path d="M329.55088,54.1095c0,-8.65505 -3.96484,-28.37368 14.41093,-37.42305c15.63578,-7.70002 52.99552,-5.58305 63.29876,-4.76346c11.57686,0.9209 24.38947,2.89669 32.62994,7.63198c9.7942,5.62812 12.15061,32.32688 11.28756,36.86181c-7.25148,38.10361 -79.27306,30.9836 -93.28047,27.35787c-15.15598,-3.92303 -28.34673,-13.64564 -28.34673,-29.66518z" fill="#4a7b9c" stroke-width="0"/><path d="M351.73159,49.67484c-19.26408,-9.89159 -5.63256,-33.93304 -5.18968,-34.10077c16.82951,-6.37319 50.9457,-4.42853 60.71867,-3.6511c11.57686,0.9209 24.38947,2.89669 32.62994,7.63198c3.9322,2.25959 6.66551,7.91551 8.47292,14.16987c0.71562,2.47635 2.88817,21.03781 -9.31512,24.87909c-17.37759,5.47003 -49.54307,10.46669 -87.31674,-8.92907z" fill="#8cc5de" stroke-width="0"/><path d="M430.28448,17.08564c5.28166,1.93406 13.47008,5.65228 11.78807,12.40143c-3.55716,14.2734 -19.33279,6.21872 -30.30904,4.33912c-1.76919,-0.30295 -9.99384,-0.40605 -15.01325,-3.19324c-3.2252,-1.7909 -4.26812,-6.19318 -4.26812,-7.49304c0,-4.89188 3.96564,-8.85753 8.85753,-8.85753c0.14191,0 7.26194,-0.30857 14.45177,0.19562c5.70918,0.40036 11.32726,1.44834 14.49304,2.60758z" fill="#ffffff" stroke-width="0.5"/></g></g><g stroke-width="0"><path d="M248.23355,53.19012c0.35822,0.17186 1.9731,1.75523 2.11031,4.94465c0.44141,10.25987 -1.41959,34.54156 -1.32135,60.26434c0.08539,22.3525 -3.02779,50.80738 -9.12273,67.53285c-2.88063,7.90493 -15.75938,11.41697 -21.55988,3.61139c-5.6695,-7.62933 -4.29555,-26.39436 -4.29318,-34.74682c0.00454,-15.93025 0.22092,-37.61888 0.57652,-56.94799c0.27293,-14.83652 -0.17125,-28.16873 4.28428,-37.1325c4.91458,-9.88731 25.84324,-9.19664 29.32602,-7.5259z" fill="#2d198a"/><path d="M248.23355,53.19012c0.35822,0.17186 1.9731,1.75523 2.11031,4.94465c0.12835,2.98314 0.06205,7.15171 -0.09415,12.19646c-0.03071,0.99136 -0.10171,3.07325 -0.10171,3.07325c0,0 -12.26505,-1.53063 -17.25737,-0.78655c-6.35951,0.94785 -17.8006,6.01178 -17.8006,6.01178c0,0 0.10634,-1.58295 0.1716,-2.35747c0.50358,-5.97656 1.51369,-11.26661 3.6459,-15.55622c4.91458,-9.88731 25.84324,-9.19664 29.32602,-7.5259z" fill="#6c30b1"/></g></g></g></g></svg>