<svg version="1.1" xmlns="http://www.w3.org/2000/svg" xmlns:xlink="http://www.w3.org/1999/xlink" width="493.50454" height="422.56463" viewBox="0,0,493.50454,422.56463"><g transform="translate(-73.24779,44.18464)"><g stroke="none" stroke-miterlimit="10"><path d="M427.84198,91.09202c0.94022,9.56988 31.59624,97.23979 -20.68254,161.74386c-0.64204,0.79217 0.12526,11.7075 1.5828,24.20965c1.70643,14.63686 3.82834,31.44868 -2.24544,36.73726c-6.71771,5.84925 -17.37192,7.51806 -25.82191,8.50741c-7.83355,0.91719 -28.77012,0.33675 -37.30216,-1.81445c-2.01477,-0.508 -3.73365,-9.10457 -5.72673,-9.7501c-1.75547,-0.56858 -6.93762,18.00532 -57.91769,16.21546c-10.56948,-0.37107 -31.28563,-5.80832 -38.29052,-19.20342c-7.79673,-14.90932 -6.53463,-28.48592 -3.03012,-38.66438c0.31353,-0.9106 -0.43562,-2.38121 -2.69103,-2.8808c-6.62871,-1.46834 -21.0324,0.82751 -35.67797,-9.38085c-3.22945,-1.71458 -11.22641,-15.83192 -13.99775,-34.84862c-2.07212,-14.21874 -3.02564,-40.57652 -1.55139,-66.75334c1.45854,-25.89759 5.32675,-51.66578 6.67343,-56.51893c4.64125,-16.72603 15.2575,-21.46915 27.88132,-23.78883c13.18512,-2.42283 28.29441,-2.03829 28.29441,-2.03829c0,0 6.69244,-21.30592 32.43309,-33.80252c12.97358,-6.29843 39.51198,-8.17755 54.80671,-8.37922c61.13105,3.15753 90.40045,31.269 93.26349,60.4101z" fill="#1e0505" stroke-width="0"/><g stroke-width="0"><path d="M296.79447,54.12029c17.84617,-3.4118 20.85447,-4.03705 36.4738,-4.42144c28.42456,-0.69958 64.99622,6.4505 74.8199,41.97652c1.13575,4.10727 14.24295,48.22701 10.13417,92.74954c-1.17047,12.68308 -5.01142,20.32443 -8.14146,29.32462c-5.8211,16.73805 -18.17581,32.19604 -33.92872,37.36442c-7.35477,2.41303 -25.5914,5.93653 -25.5914,5.93653c0,0 -0.98238,-6.62996 -6.6126,-6.97907c-0.695,-0.04311 -8.7215,-2.09463 -10.28434,6.92037c-2.47501,14.27658 -7.73645,40.56208 -17.99974,49.41647c-1.58547,1.36784 -17.42301,3.46998 -32.282,2.0886c-14.25103,-1.32483 -27.5599,-6.00117 -28.46592,-10.83427c-0.50386,-2.68785 -1.38803,-13.14462 0.11623,-21.56645c0.58578,-3.27953 1.5337,-6.25048 3.00731,-8.33396c3.81292,-5.39102 16.3954,-1.35981 27.35856,0.13475c6.06325,0.82656 12.35989,0.51293 14.67775,-1.73659c3.68407,-3.57551 3.80234,-7.43279 3.32722,-9.92874c-0.89492,-4.70136 -5.90107,-6.57899 -7.25212,-6.75043c-6.32964,-0.80315 -31.72489,-2.53587 -42.68508,-23.15464c-7.33162,-13.79259 -8.37839,-36.21564 -8.30026,-56.68658c0.06703,-17.56925 0.47878,-33.0784 3.97016,-47.54774c15.28771,-63.3572 40.63613,-66.62931 47.65862,-67.97185z" fill="#b44016"/><path d="M296.79447,54.12029c17.84617,-3.4118 20.85447,-4.03705 36.4738,-4.42144c28.42456,-0.69958 64.99622,6.4505 74.8199,41.97652c0.98137,3.54892 10.90057,36.9711 10.9287,74.71413c0.00139,1.86223 -3.69845,62.4127 -103.97621,44.81296c-8.97574,-1.57532 -17.58056,-5.69 -23.12187,-11.61146c-23.78619,-33.26131 -21.85936,-81.5682 -14.65002,-112.90929c4.06327,-17.66422 10.83604,-30.19698 13.09586,-30.97593c2.75618,-0.95002 4.98232,-1.30874 6.42983,-1.58547z" fill="#f07e0c"/><path d="M388.80431,265.72578c0,0 1.33725,7.58613 2.43162,16.41923c1.10665,8.93212 2.52756,19.12231 0.72646,20.94125c-2.67656,2.70306 -30.78441,1.95581 -35.10946,1.40757c-0.7086,-0.08983 -1.87654,-1.02544 -2.71905,-2.89159c-1.00329,-2.22227 -1.70303,-5.60613 -2.80616,-8.26232c-2.17071,-5.22674 -4.38559,-9.31703 -4.59115,-10.35804c-0.62251,-3.15262 0.42561,-5.16191 0.88922,-7.50209c0.53041,-2.67736 10.76584,-2.12467 20.21984,-3.80656c11.05412,-1.96656 20.95865,-5.94746 20.95865,-5.94746z" fill="#b44016"/></g><g><path d="M303.24136,91.25003c14.54992,-11.95601 32.05203,-15.12084 38.06646,-15.53438c20.78975,-1.42953 53.76454,-1.17812 74.06118,2.44517c5.15539,0.92033 21.81717,6.56962 27.4002,16.13022c4.27299,7.31724 20.36983,31.52717 -3.35282,53.6373c-25.04278,23.3405 -93.61829,18.26795 -113.21742,14.57802c-8.74507,-1.99301 -24.30453,-10.11352 -29.5865,-24.19574c-6.38245,-17.01628 -1.04835,-40.75206 6.62885,-47.0606z" fill="#10293a" stroke-width="0"/><g><path d="M311.83583,124.49073c0,-6.96402 -3.96484,-22.82998 14.41093,-30.11127c15.63578,-6.19557 52.99552,-4.49223 63.29876,-3.83276c11.57686,0.74096 24.38947,2.33073 32.62994,6.14082c9.7942,4.52849 12.15061,26.01077 11.28756,29.65967c-7.25148,30.65885 -79.27306,24.92997 -93.28047,22.01263c-15.15598,-3.15654 -28.34673,-10.97953 -28.34673,-23.86914z" fill="#4a7b9c" stroke-width="0"/><path d="M334.01653,120.92254c-19.26408,-7.95895 -5.63256,-27.30312 -5.18968,-27.43809c16.82951,-5.12799 50.9457,-3.56328 60.71867,-2.93775c11.57686,0.74096 24.38947,2.33073 32.62994,6.14082c3.9322,1.81811 6.66551,6.36896 8.47292,11.40134c0.71562,1.99252 2.88817,16.92739 -9.31512,20.01817c-17.37759,4.40129 -49.54307,8.42169 -87.31674,-7.18449z" fill="#8cc5de" stroke-width="0"/><path d="M412.56942,94.70067c5.28166,1.55618 13.47008,4.54793 11.78807,9.97842c-3.55716,11.48462 -19.33279,5.0037 -30.30904,3.49133c-1.76919,-0.24376 -9.99384,-0.32671 -15.01325,-2.56934c-3.2252,-1.44099 -4.26812,-4.98315 -4.26812,-6.02905c0,-3.9361 3.96564,-7.12693 8.85753,-7.12693c0.14191,0 7.26194,-0.24829 14.45177,0.1574c5.70918,0.32213 11.32726,1.16537 14.49304,2.0981z" fill="#ffffff" stroke-width="0.5"/></g></g><g stroke-width="0"><path d="M227.17605,167.39525c0.1956,10.65093 -0.14181,24.52665 1.7164,37.21543c2.63028,17.96065 15.80818,41.08224 15.80818,41.08224c0,0 -6.41564,1.49095 -13.20714,1.65704c-6.15969,0.15063 -12.44232,-0.78853 -18.0078,-4.91831c-2.12387,-1.57595 -8.75048,-12.68062 -10.16983,-29.53444c-1.22416,-14.5361 -2.90366,-19.94509 -1.74859,-56.90823c0.41472,-13.2712 0.03685,-29.88574 1.21783,-40.43505c2.50288,-22.35755 15.46368,-22.59198 18.98083,-22.97316c10.81898,-1.00829 15.0375,-1.0728 15.0375,-1.0728c0,0 -10.68716,18.17964 -9.62737,75.88731z" fill="#b44016"/><path d="M202.61553,117.22196c0,0 0.10905,-1.1275 0.16957,-1.66803c2.50288,-22.35755 15.46368,-22.59198 18.98083,-22.97316c10.81898,-1.00829 15.0375,-1.0728 15.0375,-1.0728c0,0 -2.32835,3.96071 -4.70372,14.05304c-0.44335,1.88365 -1.32013,6.30585 -1.32013,6.30585c0,0 -11.53479,-0.03019 -15.94246,0.8079c-4.92323,0.93609 -12.22159,4.54719 -12.22159,4.54719z" fill="#f07e0c"/></g><path d="M566.75211,170.14433c0.00014,0.09256 0.00022,0.18512 0.00022,0.2777c0,114.85201 -110.47474,207.95796 -246.75225,207.95796c-136.2775,0 -246.75225,-93.10595 -246.75225,-207.95796c0,-114.85201 110.47475,-207.95796 246.75225,-207.95796c125.2106,0 228.63907,78.59795 244.6119,180.44548" fill="none" stroke-width="0"/><path d="M566.72565,170.23465c-1.9588,115.24167 -111.67141,208.14534 -246.72561,208.14534c-136.2775,0 -246.75225,-94.59431 -246.75225,-211.28231v-0.00001c0,-116.688 110.47475,-211.28231 246.75225,-211.28231c126.91774,0 231.45535,82.04672 245.21631,187.57545" fill="none" stroke-width="0"/><path d="M557.49297,201.11981c-19.06565,98.43364 -119.48121,173.51403 -240.49285,173.51403c-134.62065,0 -243.75225,-92.91711 -243.75225,-207.53617v-0.00001c0,-114.61906 109.1316,-207.53617 243.75225,-207.53617c124.22791,0 226.75038,79.12445 241.83951,181.41113" fill="none" stroke-width="0"/></g></g></svg>